<?xml version="1.0" standalone="no"?>
<!DOCTYPE svg PUBLIC "-//W3C//DTD SVG 20010904//EN"
 "http://www.w3.org/TR/2001/REC-SVG-20010904/DTD/svg10.dtd">
<svg version="1.0" xmlns="http://www.w3.org/2000/svg"
 width="696.000000pt" height="1536.000000pt" viewBox="0 0 696.000000 1536.000000"
 preserveAspectRatio="xMidYMid meet">
<metadata>
Created by potrace 1.16, written by Peter Selinger 2001-2019
</metadata>
<g transform="translate(0.000000,1536.000000) scale(0.100000,-0.100000)"
fill="#000000" stroke="none">
<path d="M3919 15340 c-45 -24 -76 -92 -139 -310 -51 -175 -86 -275 -111 -316
-10 -17 -38 -76 -62 -130 -51 -118 -91 -179 -167 -255 -74 -74 -147 -112 -220
-113 -113 0 -185 68 -281 271 -47 97 -61 140 -75 220 -9 54 -27 125 -40 157
-12 33 -21 63 -18 67 3 5 -6 55 -20 111 -13 57 -28 123 -31 148 -10 60 -30 98
-61 112 -18 9 -27 9 -36 0 -18 -18 -39 -98 -45 -172 -3 -36 -9 -69 -13 -75 -4
-5 -13 -34 -19 -63 -22 -106 -86 -193 -174 -236 -81 -41 -172 -34 -370 28 -54
17 -75 13 -86 -18 -14 -37 9 -65 144 -174 276 -226 284 -235 490 -542 117
-176 206 -374 251 -560 9 -41 21 -77 24 -80 7 -5 34 -235 62 -525 21 -208 10
-1203 -15 -1535 -2 -19 -9 -46 -16 -58 l-13 -24 -24 23 -23 22 -12 -29 c-26
-68 12 -358 81 -604 21 -77 24 -196 5 -194 -5 1 -16 13 -23 28 -7 14 -19 26
-26 26 -17 0 -89 -79 -149 -163 -26 -37 -54 -70 -63 -74 -8 -3 -41 6 -73 21
-45 20 -64 24 -88 17 -22 -6 -45 -4 -83 10 -29 10 -78 23 -108 29 -30 5 -62
16 -71 24 -9 7 -22 11 -30 8 -11 -4 -12 3 -6 34 4 22 8 40 8 40 1 1 16 8 32
17 17 9 60 42 97 75 37 33 75 63 85 66 13 4 18 15 17 33 -1 28 -2 28 -67 27
-85 -1 -180 -46 -253 -119 -50 -50 -94 -119 -94 -148 0 -32 40 -65 93 -76 80
-17 266 -79 327 -109 48 -24 55 -31 58 -60 2 -21 -8 -56 -27 -99 -21 -44 -31
-81 -31 -112 0 -57 -12 -71 -63 -71 -25 0 -61 -12 -98 -32 -63 -33 -212 -155
-229 -188 -6 -10 -71 -75 -145 -144 -97 -90 -143 -126 -160 -126 -25 0 -113
74 -312 263 -57 53 -139 120 -182 148 -51 32 -83 60 -91 78 -6 16 -15 76 -19
133 -11 158 -52 208 -168 208 -65 0 -97 -12 -145 -55 -46 -42 -55 -43 -70 -9
-11 23 -8 34 25 94 l37 68 -25 54 c-40 87 -49 185 -49 513 0 285 2 311 32 525
18 124 35 279 39 345 5 115 4 122 -19 155 -17 26 -32 36 -56 38 -26 3 -32 8
-32 27 0 13 -9 33 -20 43 -18 17 -25 40 -46 169 -3 21 -12 34 -25 38 -32 11
-49 65 -49 159 0 79 -1 85 -22 88 -29 4 -42 54 -35 138 10 116 28 149 153 283
62 67 126 128 141 136 41 21 165 25 268 8 50 -8 92 -13 94 -11 2 2 -16 13 -40
24 -51 23 -186 27 -283 9 -32 -6 -60 -9 -62 -6 -10 10 46 75 89 104 58 39 101
53 188 60 83 7 156 -10 209 -48 41 -30 55 -26 20 6 -11 10 -20 24 -20 31 0 7
-16 26 -35 41 -19 15 -35 31 -35 36 0 12 39 8 71 -9 30 -15 30 -15 19 6 -6 11
-29 32 -51 47 -54 35 -176 44 -264 19 -99 -29 -223 -93 -292 -150 -44 -37 -80
-58 -103 -61 -87 -14 -153 -79 -221 -218 -44 -91 -54 -155 -40 -252 9 -61 8
-72 -6 -82 -13 -10 -15 -25 -11 -83 4 -56 13 -87 42 -144 32 -62 37 -83 38
-145 1 -40 5 -74 10 -77 4 -3 5 3 1 13 -3 10 15 -2 41 -27 25 -24 46 -49 46
-55 0 -6 -21 -9 -53 -7 -45 3 -58 0 -81 -20 -24 -21 -26 -26 -16 -55 6 -17 10
-46 8 -65 l-3 -33 -77 -6 c-89 -7 -159 -37 -177 -75 -14 -32 -4 -52 52 -98
102 -84 155 -279 111 -409 -22 -64 -43 -77 -131 -77 -133 0 -139 -54 -16 -139
73 -50 116 -166 163 -441 17 -102 38 -210 46 -241 8 -31 14 -73 14 -92 0 -20
9 -51 20 -70 11 -19 31 -66 44 -104 31 -92 39 -105 102 -180 61 -72 68 -104
33 -160 -40 -64 -5 -174 94 -294 98 -118 355 -341 574 -497 54 -39 109 -82
122 -96 l24 -26 -52 -121 c-103 -243 -151 -412 -151 -539 0 -82 35 -276 63
-351 49 -131 141 -294 201 -357 76 -82 150 -92 336 -48 73 18 130 26 158 23
24 -2 60 2 84 10 22 8 64 13 92 11 45 -3 51 -6 54 -26 5 -36 -23 -68 -75 -87
-26 -10 -78 -31 -116 -48 l-67 -30 -88 14 c-110 18 -318 15 -442 -5 -52 -8
-156 -36 -230 -61 -74 -25 -173 -55 -219 -66 -149 -35 -207 -70 -242 -144 -11
-22 -45 -70 -78 -108 -110 -126 -153 -237 -166 -430 -3 -54 -12 -117 -19 -140
-8 -29 -9 -55 -3 -82 15 -68 -11 -260 -49 -359 -4 -10 -1 -16 9 -16 34 0 -18
-119 -113 -260 -31 -47 -67 -104 -78 -127 -12 -22 -27 -43 -34 -46 -8 -4 -7
-6 4 -6 10 -1 47 26 84 59 65 59 92 74 81 46 -13 -32 -19 -86 -10 -86 15 0 58
50 87 102 27 46 56 79 56 62 0 -5 -5 -40 -10 -78 -8 -50 -7 -78 2 -102 10 -29
8 -47 -17 -134 -20 -75 -26 -113 -22 -149 5 -42 1 -58 -34 -127 -33 -64 -39
-86 -35 -116 5 -30 -2 -51 -40 -122 -43 -82 -45 -90 -43 -159 2 -42 -4 -103
-14 -145 -30 -131 -17 -272 33 -335 19 -24 20 -36 14 -303 -4 -199 -3 -275 5
-264 6 8 11 23 11 33 0 9 5 17 10 17 6 0 10 -14 10 -32 0 -18 14 -82 32 -143
35 -119 38 -177 21 -347 -11 -111 -2 -144 20 -68 9 30 19 67 22 82 9 34 53 84
65 72 23 -23 43 -138 47 -274 6 -155 -9 -290 -48 -434 -20 -75 -26 -221 -9
-231 11 -7 42 51 60 112 7 24 17 43 21 43 4 0 17 -24 27 -52 14 -35 26 -53 36
-52 12 1 16 -7 16 -35 0 -23 10 -51 26 -75 l26 -38 -12 -115 c-8 -68 -10 -150
-6 -202 7 -84 6 -92 -24 -167 -25 -62 -34 -101 -39 -179 -6 -83 -13 -113 -41
-175 -27 -61 -35 -93 -41 -175 -6 -80 -17 -127 -53 -230 -74 -217 -80 -304
-23 -394 19 -30 21 -47 19 -107 -7 -131 44 -200 129 -177 25 7 42 7 45 1 11
-18 108 -58 140 -58 46 0 91 19 108 45 28 42 15 75 -14 40 -20 -24 -74 -18
-110 12 -26 22 -31 31 -26 55 5 26 3 29 -14 23 -23 -7 -40 25 -40 75 l0 29 53
-24 c59 -28 78 -30 95 -13 21 21 14 27 -49 39 -73 14 -110 39 -91 62 10 12 6
35 -25 123 -35 101 -38 117 -37 219 0 92 5 123 27 190 15 44 27 93 27 109 0
16 8 35 18 42 13 9 17 28 18 76 1 35 9 99 18 143 24 110 24 111 38 97 7 -7 15
-12 19 -12 3 0 9 69 12 153 3 83 10 165 16 181 11 28 12 28 31 11 20 -18 20
-17 20 46 0 35 -11 109 -25 164 -29 116 -33 200 -10 209 20 7 20 72 -1 142
-17 59 -16 115 3 121 7 3 16 -13 23 -39 16 -64 40 -114 65 -138 19 -18 23 -19
28 -5 4 8 4 29 0 45 -3 18 -1 30 5 30 6 0 43 -25 83 -55 40 -30 74 -53 77 -51
8 8 -23 53 -80 115 -34 38 -62 78 -67 100 -5 20 -28 217 -51 437 -49 483 -75
608 -162 803 -16 35 -27 65 -26 65 2 1 22 10 46 21 42 18 102 75 102 96 0 7
-7 8 -17 4 -108 -46 -159 -47 -208 -4 -30 27 -66 101 -54 113 2 3 29 -4 59
-14 63 -22 161 -25 205 -6 28 12 23 13 -75 20 -100 8 -180 28 -180 47 0 5 11
9 24 9 13 0 75 16 138 36 62 20 143 38 179 41 l66 5 12 -88 c63 -462 230 -881
474 -1194 116 -148 301 -322 458 -430 45 -31 115 -97 185 -174 177 -194 299
-291 489 -386 56 -28 102 -43 153 -50 40 -6 85 -16 101 -24 47 -25 144 -45
262 -56 182 -16 222 -14 246 12 20 21 21 29 13 107 -12 113 -6 141 31 141 32
0 34 -4 49 -118 17 -127 18 -128 91 -135 100 -11 209 -8 279 8 36 8 112 24
170 35 288 57 349 90 665 360 93 80 213 181 265 225 397 333 641 674 780 1092
52 159 91 328 110 486 10 80 15 97 30 97 9 0 61 -16 116 -35 54 -19 118 -35
140 -35 70 0 73 -56 10 -185 -147 -301 -175 -460 -181 -1010 -2 -159 -7 -345
-12 -413 l-9 -123 -62 -119 c-34 -66 -57 -120 -52 -120 6 0 30 18 55 41 l44
41 7 -25 c3 -15 11 -24 19 -21 23 9 76 92 91 144 11 38 19 50 35 50 26 0 34
-23 19 -62 -10 -28 -40 -179 -40 -200 0 -4 7 -5 15 -2 26 11 18 -84 -19 -207
-37 -123 -53 -219 -37 -219 5 0 13 5 17 12 10 16 21 -18 29 -89 6 -53 -7 -210
-22 -273 -6 -23 -5 -24 11 -11 9 8 19 12 21 9 13 -13 28 -135 28 -230 0 -81 3
-108 13 -112 8 -3 14 -20 14 -38 0 -18 7 -54 14 -79 45 -149 41 -326 -11 -441
-20 -44 -24 -68 -21 -103 6 -48 3 -50 -36 -35 -21 8 -26 7 -26 -6 0 -13 -6
-15 -27 -9 -23 5 -25 4 -14 -9 12 -15 79 -38 98 -35 20 3 21 -4 6 -47 -16 -47
-73 -114 -98 -114 -7 0 -16 9 -20 19 -8 28 -33 34 -40 10 -12 -36 5 -79 38
-100 56 -34 113 -19 148 38 25 40 38 41 69 8 30 -32 94 -35 110 -6 5 11 10 68
10 127 0 93 3 111 23 143 19 31 22 49 21 126 -1 77 -7 109 -44 225 -41 128
-44 142 -45 260 -1 108 -4 132 -24 175 -24 52 -29 107 -16 185 5 35 1 71 -19
152 -31 127 -32 152 -6 211 19 43 20 59 14 191 -6 126 -5 148 10 170 9 15 25
26 36 26 17 0 19 7 17 75 -1 41 1 75 4 75 3 0 11 -11 17 -25 17 -37 29 -31 38
22 5 26 14 47 19 46 6 0 23 -27 38 -59 22 -44 31 -54 38 -43 16 26 9 148 -15
262 -38 175 -60 392 -53 532 6 117 20 195 36 195 14 0 41 -36 52 -71 21 -65
31 -89 40 -89 13 0 11 69 -7 177 -16 101 -14 146 13 262 8 35 15 95 15 132 2
68 2 69 22 51 10 -9 16 -12 13 -5 -4 6 -12 99 -17 206 -11 231 -18 268 -77
412 -34 81 -47 128 -51 179 -4 62 -3 68 13 65 10 -2 35 -31 54 -63 45 -73 61
-84 95 -68 44 20 32 105 -19 132 -15 8 -40 37 -55 64 -27 46 -28 54 -23 135 7
106 -7 163 -78 332 -50 119 -51 125 -46 194 4 46 1 96 -9 148 l-16 78 26 38
c22 31 26 48 26 107 0 73 20 123 58 143 12 6 25 34 37 76 17 65 38 93 100 141
31 22 34 44 22 135 -7 46 -5 59 10 78 l19 23 89 -71 c98 -77 150 -109 161 -98
4 3 1 13 -6 22 -23 28 -1 29 53 2 106 -54 105 -15 -3 61 -165 116 -199 147
-264 237 -35 50 -89 119 -121 155 -71 82 -82 102 -99 193 -8 41 -25 96 -39
123 -71 146 -185 357 -223 415 -50 76 -156 179 -214 209 -22 11 -46 33 -55 49
-31 62 -98 85 -304 106 -143 15 -216 29 -225 43 -2 4 14 37 35 73 46 76 103
230 125 333 52 248 31 510 -57 704 l-29 65 21 23 c12 13 92 63 179 112 166 95
248 150 395 268 123 99 177 157 219 237 41 79 44 107 16 172 -11 26 -20 55
-20 65 0 10 27 51 60 92 70 85 108 170 150 331 41 158 60 276 60 377 0 151 38
298 101 394 22 32 52 58 99 86 37 22 71 47 74 57 15 38 -51 62 -175 63 l-67 0
-22 81 c-27 102 -28 194 -1 254 22 51 91 143 145 194 63 61 40 105 -67 128
-34 7 -89 13 -123 13 -33 0 -65 5 -72 12 -15 15 -15 75 -1 118 11 30 10 34
-12 52 -17 13 -37 18 -66 16 -24 -2 -43 0 -43 3 0 3 17 26 38 50 49 55 62 80
62 116 0 21 12 40 41 68 22 22 50 57 60 78 23 45 36 131 21 141 -6 3 0 29 16
68 34 85 36 222 3 317 -41 118 -125 221 -180 221 -31 0 -70 22 -132 75 -103
89 -208 125 -365 125 -118 0 -187 -20 -236 -70 -42 -42 -53 -73 -15 -46 65 47
105 40 66 -13 -12 -17 -21 -33 -18 -35 2 -3 37 12 78 32 96 48 177 50 260 8
49 -26 141 -107 141 -126 0 -5 -26 2 -58 15 -86 35 -206 57 -269 49 -83 -10
-73 -24 19 -24 84 0 225 -28 276 -54 15 -8 38 -33 51 -56 13 -23 51 -74 84
-114 86 -102 100 -139 94 -245 -2 -47 -12 -110 -21 -138 -14 -45 -20 -53 -41
-53 -21 0 -25 -5 -25 -29 0 -37 -35 -149 -55 -178 -10 -15 -26 -23 -44 -23
-28 0 -29 -2 -44 -87 -14 -75 -21 -91 -52 -123 -19 -20 -35 -40 -35 -45 0 -6
-15 -17 -33 -25 -21 -11 -40 -33 -56 -64 l-24 -48 17 -155 c9 -85 35 -243 57
-351 38 -182 41 -212 46 -404 6 -228 -7 -419 -38 -563 -25 -116 -24 -134 7
-176 32 -43 45 -75 38 -94 -9 -21 -14 -20 -67 24 -76 64 -163 64 -240 0 -46
-37 -65 -81 -78 -175 -13 -97 -31 -132 -72 -146 -74 -26 -180 -90 -299 -180
-70 -54 -145 -106 -166 -117 l-39 -20 -69 57 c-38 31 -141 126 -229 212 -253
247 -382 341 -473 344 -29 1 -57 9 -74 21 -25 18 -27 26 -28 83 0 66 -9 92
-43 129 -11 13 -17 26 -13 30 14 15 204 14 314 0 194 -26 237 4 236 163 -2
171 -104 315 -210 296 -18 -4 -36 -11 -39 -16 -3 -5 8 -50 24 -98 17 -49 36
-124 42 -167 9 -71 9 -79 -7 -88 -9 -5 -84 -9 -165 -8 -133 2 -153 5 -198 26
-27 14 -52 33 -56 45 -6 20 -21 21 -74 4 -13 -4 -40 21 -158 148 -62 67 -114
90 -143 63 -18 -16 -19 -15 -29 20 -8 31 -3 71 29 234 38 193 60 363 60 468 0
63 -18 78 -55 43 -58 -55 -99 0 -115 155 -39 395 -39 405 -37 970 3 611 6 649
67 900 63 263 163 495 285 659 117 157 311 342 494 470 77 54 268 232 286 267
13 24 12 28 -4 43 -26 24 -57 20 -185 -24 -128 -44 -190 -50 -272 -25 -86 27
-111 59 -150 190 -25 85 -50 307 -37 327 7 12 -30 98 -42 98 -5 -1 -26 -10
-46 -20z m1924 -8360 c9 -80 36 -159 113 -321 35 -75 64 -142 64 -148 0 -6 4
-11 8 -11 9 0 82 -138 82 -154 0 -5 16 -26 35 -47 19 -21 46 -62 61 -91 14
-29 38 -63 53 -75 25 -20 26 -26 32 -155 l7 -133 -33 -35 c-49 -52 -59 -78
-57 -145 2 -49 -3 -72 -28 -123 -31 -67 -38 -119 -19 -155 9 -16 9 -45 -1
-118 l-13 -97 28 -49 c31 -52 28 -27 38 -375 l3 -118 -65 37 c-95 52 -219 135
-272 181 l-46 41 -7 128 c-3 70 -13 175 -21 233 -9 58 -20 213 -25 345 -22
588 -35 726 -94 1010 -36 172 -66 418 -53 432 5 4 45 12 90 18 102 14 112 8
120 -75z m-4815 -266 c2 -17 -11 -117 -28 -222 -35 -221 -49 -437 -50 -777 -1
-132 -5 -345 -9 -474 l-8 -235 -34 -28 c-58 -49 -167 -121 -347 -231 l-172
-106 6 42 c11 88 13 91 33 73 10 -9 20 -16 22 -16 3 0 3 42 1 93 -2 52 1 111
7 135 10 37 14 41 30 32 16 -8 19 -4 25 28 3 20 6 66 6 102 0 85 7 108 34 112
21 3 21 6 18 149 -3 124 -1 149 13 162 11 12 14 26 10 49 -3 18 -2 52 2 76 l8
43 62 -96 c87 -132 109 -128 53 12 -30 75 -39 133 -20 133 6 0 10 27 10 60 0
36 6 70 14 83 9 13 19 75 26 157 6 74 16 140 22 147 16 20 4 311 -17 398 -9
38 -14 83 -11 100 l6 30 143 0 142 0 3 -31z m5162 -6533 c0 -10 -7 -24 -15
-31 -12 -10 -15 -9 -15 8 0 29 11 53 21 46 5 -3 9 -13 9 -23z"/>
</g>
</svg>
