<?xml version="1.0" standalone="no"?>
<!DOCTYPE svg PUBLIC "-//W3C//DTD SVG 20010904//EN"
 "http://www.w3.org/TR/2001/REC-SVG-20010904/DTD/svg10.dtd">
<svg version="1.0" xmlns="http://www.w3.org/2000/svg"
 width="960.000000pt" height="1536.000000pt" viewBox="0 0 960.000000 1536.000000"
 preserveAspectRatio="xMidYMid meet">
<metadata>
Created by potrace 1.16, written by Peter Selinger 2001-2019
</metadata>
<g transform="translate(0.000000,1536.000000) scale(0.100000,-0.100000)"
fill="#000000" stroke="none">
<path d="M9185 15346 c-70 -22 -208 -91 -309 -155 -402 -252 -1176 -952 -1770
-1601 -160 -175 -557 -640 -587 -688 -11 -18 -14 -15 -36 29 -29 58 -74 94
-107 85 -78 -20 -114 -103 -127 -296 -7 -100 -15 -145 -29 -175 -11 -22 -108
-157 -216 -300 -379 -505 -689 -988 -768 -1201 -41 -110 -41 -110 -123 -95
l-69 12 -45 67 -44 67 -89 3 c-109 3 -115 -1 -151 -113 -27 -82 -43 -105 -96
-139 l-25 -16 -95 111 c-219 259 -531 524 -899 765 -371 242 -891 499 -1325
654 -555 198 -1001 329 -1535 451 -553 125 -765 129 -736 14 8 -30 29 -37 241
-75 327 -59 809 -170 1100 -255 221 -64 810 -261 980 -328 756 -296 1419 -705
1870 -1153 101 -101 226 -246 272 -315 l25 -39 -29 -47 c-94 -150 -93 -147
-93 -297 0 -153 4 -165 96 -309 24 -37 44 -71 44 -76 0 -4 -23 -48 -52 -97
-28 -49 -97 -182 -152 -297 l-101 -207 -85 70 c-171 143 -294 214 -486 280
-168 58 -250 76 -489 105 -184 22 -454 63 -640 96 -170 30 -429 110 -597 184
-124 55 -403 221 -566 338 -180 129 -221 142 -273 86 -60 -64 -46 -108 58
-190 37 -29 89 -72 116 -95 59 -53 119 -92 277 -185 324 -189 628 -303 990
-374 47 -9 189 -39 315 -67 127 -27 304 -60 395 -74 91 -13 199 -36 241 -49
191 -64 443 -255 683 -519 l79 -87 49 -187 c27 -103 65 -240 84 -306 19 -65
34 -122 32 -126 -2 -4 -66 30 -143 77 -245 147 -395 214 -560 248 -81 16 -115
11 -176 -30 -30 -19 -41 -36 -54 -77 -27 -93 -19 -187 44 -506 30 -150 48
-263 101 -637 16 -115 46 -291 66 -390 33 -166 49 -231 120 -495 31 -116 41
-297 25 -450 -6 -58 -25 -240 -41 -405 -47 -470 -59 -534 -135 -756 -70 -200
-168 -344 -438 -639 -80 -87 -105 -137 -93 -184 10 -39 47 -43 100 -12 25 15
104 85 176 157 277 279 375 454 507 914 69 240 89 325 158 669 51 257 115 509
135 530 4 4 49 -4 98 -19 100 -29 405 -85 464 -85 92 0 99 90 10 127 -33 14
-498 109 -561 115 -34 3 -35 4 -98 153 -170 402 -263 712 -297 996 -30 243
-40 569 -18 569 12 0 328 -179 415 -236 76 -50 362 -259 399 -293 4 -3 17 -56
28 -116 64 -335 121 -552 310 -1180 212 -705 327 -1050 503 -1505 60 -157 150
-409 199 -560 326 -1005 379 -1158 633 -1810 374 -960 530 -1301 808 -1763
161 -266 232 -366 358 -501 92 -99 142 -136 183 -136 46 0 217 62 275 99 99
64 227 225 317 400 42 82 93 246 130 416 26 120 28 147 28 345 0 306 -38 597
-100 772 -14 40 -53 129 -86 198 l-59 125 -15 185 c-22 282 -58 501 -123 767
-33 134 -87 375 -121 535 -33 161 -90 421 -125 578 -97 430 -150 685 -210
1009 -48 255 -131 616 -179 776 -9 28 -34 156 -56 285 -22 129 -58 316 -79
415 l-39 180 36 43 c63 73 116 137 137 166 l20 27 259 -253 c218 -212 285
-286 431 -468 95 -118 183 -220 196 -226 13 -6 40 -18 59 -27 19 -8 71 -48
115 -87 159 -144 241 -193 351 -208 45 -6 87 -24 179 -75 127 -71 165 -80 199
-48 21 19 22 19 141 -5 132 -28 199 -28 257 0 42 20 54 45 38 76 -17 32 -58
47 -206 75 -561 106 -846 272 -1203 700 -151 181 -195 242 -328 461 -238 389
-280 490 -428 1052 -115 435 -188 619 -387 992 -31 58 -73 146 -92 195 -65
163 -184 289 -273 289 -30 0 -43 -9 -87 -55 -28 -30 -56 -63 -61 -73 -10 -17
-17 -11 -66 50 -70 87 -272 289 -320 321 l-36 24 4 77 c11 215 111 1000 153
1212 54 270 76 428 105 765 8 99 27 251 42 338 l28 159 69 81 c38 45 137 165
220 266 579 707 1276 1403 1942 1940 170 138 300 222 506 326 147 75 168 89
168 110 0 50 -69 68 -155 41z m-3049 -3302 c-104 -415 -154 -679 -206 -1099
-39 -310 -60 -447 -96 -607 l-15 -67 -29 20 c-27 20 -30 21 -83 5 -30 -9 -71
-16 -91 -16 -35 0 -35 1 -28 33 4 17 7 79 7 137 -1 84 -5 114 -22 151 -26 59
-76 115 -138 155 -40 26 -55 44 -74 90 l-25 57 62 121 c164 325 757 1225 770
1171 2 -7 -13 -75 -32 -151z m-973 -1185 c104 -45 167 -87 167 -111 0 -18 -4
-20 -32 -12 -70 18 -135 9 -206 -27 -66 -34 -69 -35 -117 -23 -49 13 -49 13
-87 -22 -31 -28 -46 -34 -82 -34 -41 0 -48 -4 -124 -80 -79 -80 -94 -88 -122
-70 -12 7 -5 28 42 122 89 177 133 217 243 218 24 0 70 14 115 35 41 19 88 35
103 35 16 0 61 -14 100 -31z m123 -267 c6 -4 35 -41 65 -82 29 -41 71 -97 92
-124 55 -71 50 -80 -58 -88 -135 -10 -386 -79 -527 -144 -119 -55 -155 -63
-176 -42 -15 15 -16 227 -1 283 15 57 100 136 173 164 49 18 63 19 107 10 59
-13 179 -4 224 16 33 15 84 19 101 7z m311 -401 c69 -7 97 -15 177 -56 110
-55 135 -77 116 -100 -13 -16 -156 -63 -275 -91 -76 -17 -204 -15 -303 6 l-52
12 -58 -59 c-65 -68 -168 -132 -259 -162 -49 -16 -88 -21 -178 -21 -103 0
-117 2 -136 21 -24 24 -21 48 18 146 l25 62 131 65 c161 80 267 116 340 116
42 0 58 5 73 21 34 38 73 48 189 48 61 0 147 -4 192 -8z m186 -381 c60 -13 83
-43 139 -184 62 -157 67 -212 28 -290 -34 -68 -52 -77 -86 -46 -14 14 -39 48
-55 76 -16 28 -72 97 -124 155 -114 124 -142 174 -126 221 6 18 24 45 39 61
26 27 30 28 87 22 33 -4 77 -11 98 -15z m-575 -162 c17 -24 41 -55 53 -70 21
-26 21 -29 10 -150 -6 -69 -16 -140 -21 -159 -12 -44 -73 -144 -123 -204 -33
-39 -44 -46 -70 -43 -28 3 -32 8 -44 53 -14 56 -58 312 -67 390 -8 68 5 88 99
162 99 76 119 79 163 21z m1697 -733 c106 -287 181 -521 255 -791 74 -275 91
-354 114 -554 l14 -124 -71 -104 c-46 -66 -73 -98 -78 -90 -3 7 -19 60 -34
118 -15 58 -62 222 -105 365 -100 333 -98 323 -181 727 -90 438 -101 593 -48
723 l12 30 29 -65 c17 -36 59 -141 93 -235z m-591 160 c27 -8 68 -15 92 -15
37 0 47 -5 68 -32 32 -43 159 -304 186 -382 27 -79 37 -171 21 -190 -21 -25
-41 -6 -76 70 -32 71 -75 114 -112 114 -7 0 -31 -20 -54 -45 -64 -70 -139 -81
-230 -34 -21 10 -46 32 -56 49 -9 17 -22 29 -28 27 -37 -12 -115 -187 -115
-259 0 -42 5 -45 37 -23 88 62 205 90 259 62 39 -20 107 -94 133 -145 21 -41
42 -147 36 -179 -2 -10 -7 -35 -10 -56 -8 -51 -62 -109 -128 -138 -45 -20 -73
-24 -197 -27 -118 -3 -153 -1 -184 12 -21 9 -40 16 -41 16 -2 0 -12 -14 -22
-30 -19 -30 -206 -172 -277 -211 -21 -11 -62 -23 -90 -26 -44 -4 -61 1 -123
31 -88 42 -150 98 -201 180 -49 77 -69 130 -78 198 -8 62 -31 104 -81 148
l-36 32 -66 -70 c-69 -74 -95 -87 -157 -80 l-37 4 7 -105 c3 -58 10 -109 15
-114 6 -6 29 -2 60 12 27 11 59 21 71 21 104 0 231 -218 217 -372 -3 -32 -16
-80 -29 -106 l-23 -47 -60 0 c-48 0 -74 7 -127 33 -121 59 -182 153 -218 335
-12 59 -37 159 -56 223 -46 160 -48 256 -4 351 19 40 36 103 46 162 20 125 37
160 94 189 55 27 131 29 306 6 152 -21 165 -16 189 74 32 120 81 172 163 172
62 0 103 -28 156 -109 77 -115 156 -332 156 -426 0 -59 -47 -125 -91 -125 -37
0 -58 11 -129 66 -42 32 -69 45 -114 53 -127 23 -146 12 -146 -84 0 -35 3 -70
6 -79 8 -20 63 -21 147 -4 53 11 64 10 120 -10 38 -14 85 -22 123 -22 33 0 83
-7 110 -15 l49 -15 78 80 c80 84 100 128 53 116 -34 -9 -56 22 -66 95 -5 35
-21 140 -36 233 -32 206 -30 284 8 322 22 22 34 26 85 26 63 0 105 -16 157
-59 32 -27 69 -26 113 3 24 15 27 21 57 97 17 42 15 42 80 22z m399 -775 c18
-16 49 -62 68 -102 32 -69 34 -79 34 -178 0 -118 -13 -159 -57 -174 -73 -26
-141 77 -169 255 -13 85 -1 161 32 203 27 34 51 33 92 -4z m224 -1161 l52 -10
11 -57 c23 -116 32 -136 69 -148 43 -14 52 -37 80 -211 25 -153 27 -203 7
-203 -7 0 -36 23 -64 51 -32 31 -58 49 -69 47 -10 -2 -35 -27 -57 -56 -44 -58
-59 -63 -116 -31 -60 34 -73 23 -68 -61 3 -59 8 -74 30 -96 23 -23 38 -28 125
-36 l98 -9 49 -49 c37 -37 59 -52 88 -56 21 -4 43 -14 48 -23 4 -9 13 -55 20
-101 6 -47 18 -121 27 -166 l16 -80 -25 -56 c-31 -67 -68 -96 -102 -80 -12 5
-60 43 -107 83 -112 97 -209 167 -288 209 -58 31 -69 42 -93 90 -48 97 -165
382 -196 480 -33 101 -116 380 -125 417 -8 34 16 46 101 51 74 4 82 2 151 -33
86 -43 91 -40 91 46 0 102 61 124 247 88z m-935 -304 c126 -26 227 -83 259
-146 21 -43 26 -128 8 -162 -41 -78 -184 -207 -230 -207 -15 0 -46 9 -70 20
-25 10 -48 15 -53 10 -4 -4 -11 -38 -13 -74 -6 -64 -5 -65 22 -72 19 -5 56 3
120 25 156 52 303 38 351 -34 15 -23 15 -33 5 -80 -18 -79 -82 -203 -135 -262
-51 -56 -86 -73 -233 -113 -52 -14 -89 -30 -103 -46 -21 -22 -22 -27 -13 -86
8 -47 8 -70 -2 -93 -13 -32 -217 -251 -266 -286 -21 -15 -37 -19 -58 -14 -36
8 -116 76 -137 116 -15 31 -34 31 -34 1 0 -34 -21 -92 -34 -92 -19 0 -39 50
-85 213 -27 95 -41 163 -39 190 l3 42 74 -3 c44 -1 79 2 87 9 8 6 23 43 35 83
47 161 83 189 242 195 59 2 107 6 107 10 0 3 -27 37 -60 74 -33 37 -63 80 -66
94 -5 17 3 55 20 109 22 66 26 86 17 103 -7 12 -16 21 -21 21 -13 0 -34 -36
-55 -93 -17 -44 -82 -117 -105 -117 -5 0 -26 -11 -46 -25 -41 -28 -76 -32 -96
-12 -17 17 -131 87 -142 87 -10 0 -4 -52 15 -132 12 -51 11 -59 -4 -75 -9 -11
-21 -43 -28 -72 -13 -62 -33 -75 -62 -40 -41 50 -67 128 -92 273 -40 234 -34
265 44 252 22 -3 42 -3 45 2 2 4 -2 41 -10 82 -17 92 -18 120 -1 120 6 0 61
30 122 67 98 60 117 68 170 71 57 4 63 2 130 -42 39 -26 79 -45 90 -44 19 3
53 61 84 141 10 26 12 27 93 27 46 0 113 -7 150 -15z m1435 -1902 c57 -109
112 -319 113 -428 0 -92 -43 -155 -107 -155 -36 0 -58 -18 -85 -68 -9 -18 -24
-32 -32 -32 -16 0 -20 12 -102 290 -31 107 -64 210 -72 228 -15 30 -14 34 5
60 12 16 47 38 88 55 48 19 79 39 102 67 19 22 40 40 47 40 7 0 27 -26 43 -57z
m-1299 -394 c54 -20 90 -29 210 -51 66 -12 115 -58 173 -162 49 -89 52 -146
13 -224 -38 -76 -89 -101 -237 -117 l-58 -7 6 -41 c3 -23 9 -56 11 -73 5 -26
-3 -42 -46 -99 l-51 -68 62 6 c34 4 88 7 121 7 l58 0 24 54 c29 64 51 81 129
95 77 14 92 6 202 -111 162 -172 205 -240 205 -323 0 -54 -16 -89 -62 -131
-44 -42 -59 -49 -158 -74 -86 -22 -202 -85 -214 -116 -21 -54 16 -75 149 -84
116 -7 132 -15 166 -83 l20 -38 -26 -58 -26 -58 21 -36 c20 -33 20 -38 6 -64
-27 -50 -200 -213 -227 -213 -13 0 -67 16 -119 36 -79 31 -103 45 -145 89 -63
65 -101 142 -109 220 -4 33 -14 106 -22 161 -19 122 -11 152 46 170 34 11 35
14 47 84 15 87 30 113 88 148 49 30 52 42 30 96 l-16 37 -41 -53 c-60 -78
-200 -214 -226 -220 -34 -9 -59 24 -71 95 -34 203 -35 226 -18 262 9 19 21 35
27 35 28 0 3 55 -66 145 -101 133 -105 143 -89 181 7 17 31 45 54 63 22 18 41
36 41 41 0 5 -19 11 -42 15 -57 10 -111 38 -131 69 -31 46 -17 277 20 350 20
40 15 36 60 51 57 21 145 18 211 -6z m776 -83 c29 -22 35 -23 84 -13 63 13
102 2 119 -34 18 -38 38 -218 25 -231 -6 -6 -52 -13 -104 -17 -96 -8 -116 -15
-219 -78 -82 -50 -116 -45 -149 22 -22 44 -25 63 -25 155 0 133 13 156 112
193 85 33 118 33 157 3z m678 -216 c56 -43 98 -196 98 -355 l0 -101 29 -11
c38 -14 54 -46 81 -163 24 -105 24 -179 0 -190 -138 -66 -153 -66 -219 5 -67
74 -73 106 -32 178 37 64 38 76 10 111 -17 22 -28 26 -69 26 -48 0 -49 1 -72
48 -20 42 -23 61 -23 177 0 172 14 227 68 266 47 34 93 38 129 9z m-393 -159
c61 -61 28 -269 -56 -358 -30 -32 -33 -33 -116 -33 -79 0 -88 2 -133 33 -64
42 -103 112 -104 183 l0 51 83 48 c51 29 116 56 172 70 111 30 130 30 154 6z
m200 -396 c41 -20 54 -61 49 -151 -3 -65 -7 -79 -27 -95 -13 -10 -37 -19 -53
-19 -17 0 -67 -20 -114 -46 -46 -25 -91 -44 -100 -42 -39 7 -58 54 -62 153
l-4 95 27 10 c14 5 47 24 71 41 45 31 133 67 167 68 10 1 31 -6 46 -14z m130
-342 c39 -48 54 -121 49 -243 -4 -105 -18 -141 -64 -162 -19 -9 -35 -8 -72 4
-195 66 -200 71 -212 202 -11 114 -6 131 48 146 20 5 69 28 107 50 39 21 80
39 92 40 13 0 33 -14 52 -37z m260 -22 c26 -26 59 -118 72 -201 9 -57 8 -79
-5 -124 -18 -60 -35 -79 -67 -74 -34 5 -68 83 -141 331 -13 45 -6 56 50 73 54
17 70 16 91 -5z m-387 -1656 c32 -30 63 -55 69 -55 5 0 29 -9 53 -20 49 -24
66 -52 66 -112 0 -34 -6 -46 -36 -74 -59 -56 -123 -96 -164 -101 -35 -5 -42
-1 -77 33 -21 22 -56 52 -77 68 -51 39 -76 95 -76 177 0 37 5 72 13 82 13 18
109 55 146 56 15 1 44 -18 83 -54z m567 14 c35 -12 71 -59 120 -158 l32 -63
-11 -92 c-14 -106 -21 -127 -51 -155 -33 -31 -57 -26 -98 18 l-37 40 -56 -16
c-69 -19 -79 -14 -108 63 -11 30 -31 76 -44 102 -52 103 -46 154 26 224 l49
48 73 0 c40 0 87 -5 105 -11z m-894 -121 c41 -58 105 -164 105 -174 0 -7 -22
-26 -49 -43 -48 -31 -61 -48 -61 -77 0 -11 16 -14 68 -14 57 0 74 -4 103 -25
77 -57 88 -103 39 -159 -63 -71 -184 -87 -239 -32 -25 25 -26 32 -25 121 l1
95 -38 -6 c-24 -4 -44 -2 -53 5 -20 17 -88 234 -84 268 3 26 7 28 63 35 33 4
74 12 90 17 47 15 63 13 80 -11z m675 -397 c35 -17 76 -42 91 -57 25 -24 29
-35 29 -84 0 -84 -24 -152 -65 -189 -41 -35 -139 -68 -240 -78 l-69 -8 -8 -42
c-9 -53 -30 -86 -71 -108 -29 -15 -41 -16 -107 -6 -45 7 -82 19 -92 29 -19 20
-55 132 -63 199 -4 36 -1 57 12 83 22 44 63 59 160 59 l72 1 51 86 c90 149
167 178 300 115z"/>
</g>
</svg>
