<?xml version="1.0" standalone="no"?>
<!DOCTYPE svg PUBLIC "-//W3C//DTD SVG 20010904//EN"
 "http://www.w3.org/TR/2001/REC-SVG-20010904/DTD/svg10.dtd">
<svg version="1.0" xmlns="http://www.w3.org/2000/svg"
 width="1536.000000pt" height="1026.000000pt" viewBox="0 0 1536.000000 1026.000000"
 preserveAspectRatio="xMidYMid meet">
<metadata>
Created by potrace 1.16, written by Peter Selinger 2001-2019
</metadata>
<g transform="translate(0.000000,1026.000000) scale(0.100000,-0.100000)"
fill="#000000" stroke="none">
<path d="M3013 10245 c-105 -32 -196 -114 -231 -207 -31 -84 -46 -207 -39
-332 12 -217 49 -359 156 -596 l52 -115 -5 -118 c-4 -99 -2 -128 14 -180 26
-82 65 -148 134 -225 71 -80 79 -96 110 -222 27 -112 96 -260 211 -454 105
-176 326 -455 518 -652 163 -168 176 -184 192 -238 11 -36 13 -62 8 -67 -5 -5
-101 -34 -214 -65 -476 -128 -520 -143 -1189 -396 -217 -83 -462 -174 -545
-203 -348 -123 -486 -194 -595 -305 -46 -47 -110 -154 -110 -184 0 -8 -26 -45
-58 -80 -66 -72 -120 -169 -150 -267 -11 -36 -37 -162 -57 -280 -20 -118 -56
-315 -80 -439 -24 -124 -62 -335 -84 -470 -62 -367 -150 -841 -178 -960 -47
-200 -141 -646 -163 -774 -20 -116 -21 -135 -10 -197 l13 -68 -36 -45 c-40
-48 -126 -119 -227 -186 -94 -62 -238 -212 -279 -289 -18 -35 -42 -97 -52
-137 -10 -40 -39 -120 -64 -178 -61 -141 -64 -158 -31 -191 30 -30 51 -28 103
11 l31 24 7 -42 c16 -93 114 -132 169 -67 30 35 29 26 16 274 l-10 180 68 69
c37 37 126 112 197 166 194 145 294 260 295 336 0 13 8 24 19 27 25 6 57 58
75 122 24 83 102 537 161 945 71 485 115 727 220 1210 139 636 169 753 245
940 27 67 51 124 53 127 3 2 26 -1 52 -8 85 -21 180 -6 475 80 151 43 352 106
445 139 278 96 266 91 1243 567 178 86 326 155 329 152 3 -3 -9 -30 -27 -59
-55 -88 -292 -559 -398 -788 -55 -118 -147 -314 -204 -435 -150 -318 -230
-512 -249 -608 -10 -50 -9 -60 11 -102 14 -29 38 -57 62 -74 97 -64 113 -85
137 -173 12 -46 73 -247 136 -448 62 -201 132 -432 155 -515 22 -82 99 -332
170 -555 175 -550 192 -607 261 -889 63 -260 139 -525 195 -680 l34 -94 -46
-53 c-25 -30 -49 -54 -54 -54 -16 0 -103 -125 -136 -195 -35 -73 -64 -189 -64
-254 0 -20 7 -61 15 -90 24 -77 111 -254 141 -285 36 -36 86 -36 119 0 30 32
31 50 5 132 -24 77 -26 175 -5 257 16 62 101 224 182 349 71 108 113 194 113
230 0 18 -36 132 -79 254 -103 287 -141 411 -191 617 -22 94 -65 251 -95 350
-29 99 -74 254 -100 345 -25 91 -83 280 -129 420 -254 775 -273 844 -321 1182
l-27 186 20 54 c11 29 36 88 57 132 20 43 67 162 105 265 105 290 324 811 339
811 4 0 26 -66 48 -147 78 -286 275 -951 345 -1163 71 -218 290 -838 352 -998
18 -48 63 -154 98 -237 36 -82 75 -181 88 -218 l22 -69 -38 -40 c-22 -22 -95
-77 -164 -122 -173 -115 -223 -162 -271 -258 -45 -89 -89 -241 -89 -306 0 -58
33 -92 89 -92 48 0 61 14 151 160 78 128 181 237 308 326 115 82 180 144 206
199 10 22 27 57 37 77 23 44 24 79 5 116 -8 15 -21 68 -31 117 -9 50 -27 127
-40 173 -24 82 -44 129 -185 432 -99 212 -168 388 -244 625 -109 339 -354
1115 -381 1209 -55 191 -85 396 -85 574 0 88 3 105 26 146 14 25 29 46 32 45
4 0 21 -19 37 -42 53 -73 90 -87 236 -87 122 0 126 1 172 30 32 20 56 47 79
86 l32 57 35 -44 c100 -123 213 -223 297 -260 22 -10 67 -22 99 -25 50 -6 75
-18 169 -79 259 -168 772 -460 870 -496 20 -7 78 -45 129 -84 50 -38 220 -155
377 -260 l285 -190 132 -219 c73 -120 151 -242 173 -271 79 -103 228 -219 435
-339 331 -191 405 -244 624 -450 74 -69 140 -126 147 -126 14 0 44 27 44 39 0
4 -7 30 -15 57 -21 71 -79 156 -171 249 -95 97 -159 147 -322 250 -91 57 -135
93 -168 134 -25 31 -75 83 -111 116 -67 60 -147 154 -139 162 2 2 35 -11 72
-30 104 -52 277 -121 394 -157 58 -18 165 -56 239 -86 74 -30 161 -61 195 -70
34 -8 124 -36 201 -60 121 -39 149 -45 208 -42 76 4 102 21 113 75 5 26 1 37
-27 66 -47 49 -195 109 -399 162 -188 49 -250 72 -475 178 -88 41 -207 93
-265 114 -138 51 -240 108 -435 242 -88 60 -176 120 -195 133 -27 19 -58 67
-139 217 -56 106 -152 277 -212 379 l-109 187 39 3 c36 3 43 -1 83 -45 114
-127 197 -207 262 -252 143 -98 227 -128 397 -141 l111 -8 114 -76 c125 -85
197 -121 323 -160 74 -23 92 -34 155 -93 39 -36 115 -101 168 -144 72 -57 152
-140 309 -321 255 -291 428 -498 531 -634 96 -126 138 -164 183 -164 43 0 90
39 99 80 11 56 -21 108 -192 309 -34 40 -61 75 -59 78 4 4 368 -117 477 -159
116 -45 197 -89 277 -152 169 -134 218 -158 258 -132 42 27 34 73 -25 152 -28
36 -49 68 -47 70 2 2 48 -5 103 -15 54 -11 158 -22 229 -25 72 -3 202 -15 290
-26 161 -20 280 -25 310 -14 36 14 57 94 35 134 -17 31 -38 38 -232 75 -143
28 -227 38 -383 46 -195 11 -205 12 -374 60 -96 27 -274 67 -400 89 -270 48
-324 63 -478 136 -116 54 -119 56 -253 192 -134 136 -312 297 -443 400 -37 30
-67 57 -67 61 0 5 43 22 95 38 l94 30 118 -29 c79 -20 146 -31 203 -32 95 -1
83 -6 303 127 119 71 278 147 310 147 47 0 300 -103 640 -261 321 -149 553
-238 742 -282 422 -100 785 -125 1140 -78 219 28 477 80 635 127 69 20 139 39
155 41 17 3 84 -9 150 -25 223 -56 337 -76 435 -77 209 0 226 43 240 635 8
339 17 470 36 533 5 16 36 17 457 17 286 0 466 4 490 11 53 14 80 59 73 118
-7 53 -71 215 -176 445 -236 517 -760 1257 -1200 1696 -334 334 -652 572
-1145 861 -358 209 -460 256 -727 334 -541 157 -759 183 -1898 225 -1212 45
-1478 51 -2630 60 -657 6 -1289 14 -1405 20 -115 5 -313 14 -440 20 -126 6
-315 22 -420 35 -104 14 -341 38 -525 55 -184 16 -402 41 -485 55 -85 15 -214
29 -298 32 l-148 6 -14 27 c-34 66 -179 160 -300 195 -46 14 -82 16 -157 12
-93 -5 -98 -4 -104 16 -30 100 -151 150 -271 112z m2758 -676 c362 -48 591
-59 1391 -66 l757 -6 6 -27 c7 -31 55 -80 105 -106 27 -15 57 -19 133 -19 l99
0 30 34 c30 34 32 53 12 105 -7 18 1 19 272 12 153 -4 303 -9 332 -13 48 -5
52 -7 52 -32 0 -16 10 -37 23 -49 30 -29 129 -71 182 -79 38 -5 47 -2 69 20
28 28 36 83 14 105 -6 6 -9 15 -5 19 8 7 965 -15 978 -23 5 -3 9 -19 9 -35 0
-55 93 -118 174 -119 31 0 45 7 77 39 31 31 39 46 39 76 l0 38 61 -6 c33 -3
62 -7 65 -10 2 -2 -1 -18 -7 -36 -16 -44 -5 -76 31 -91 79 -33 176 24 168 97
l-4 35 35 -6 c20 -3 55 -6 78 -6 l42 0 3 -46 c4 -66 37 -89 121 -88 93 2 146
20 187 64 l35 38 130 -14 c74 -9 205 -34 305 -59 158 -40 267 -72 248 -74 -4
-1 -96 15 -205 35 -154 28 -226 37 -325 38 -121 1 -127 0 -152 -23 -33 -31
-33 -54 0 -80 47 -37 34 -34 939 -210 171 -33 352 -67 403 -75 74 -12 111 -25
175 -59 155 -82 385 -232 327 -213 -8 3 -213 52 -455 110 -564 134 -843 189
-1167 226 -134 15 -208 -6 -208 -61 0 -59 131 -108 555 -208 408 -97 1183
-300 1295 -339 30 -11 165 -67 300 -125 135 -57 270 -113 300 -123 44 -15 71
-35 133 -97 44 -43 77 -80 75 -83 -3 -2 -52 13 -109 34 -402 150 -1105 363
-1552 472 -310 75 -391 90 -491 90 -91 0 -126 -15 -126 -54 0 -64 142 -120
695 -274 315 -89 703 -210 955 -301 273 -97 317 -114 465 -183 71 -33 218 -99
325 -145 107 -47 201 -90 208 -95 15 -13 122 -163 122 -172 0 -3 -35 11 -77
30 -137 64 -628 258 -963 382 -778 288 -1118 392 -1273 392 -76 0 -107 -18
-107 -61 0 -73 90 -117 605 -300 322 -113 852 -312 1165 -436 295 -117 578
-250 805 -379 l151 -86 47 -88 c26 -48 47 -90 47 -94 0 -3 -42 14 -92 38 -51
24 -185 87 -297 141 -197 93 -683 301 -963 412 -179 70 -803 286 -924 318
-186 51 -263 51 -286 -1 -17 -36 1 -65 66 -108 85 -56 192 -103 681 -296 487
-193 668 -268 1015 -422 480 -214 978 -475 1016 -533 12 -18 84 -180 84 -189
0 -1 -26 1 -58 4 -51 5 -67 12 -127 59 -51 38 -220 127 -605 318 -729 362
-863 421 -1244 550 -354 120 -405 133 -516 133 -76 0 -102 -4 -114 -16 -19
-19 -19 -18 -2 -52 27 -53 155 -117 576 -290 296 -121 543 -236 1010 -469
l425 -212 -140 0 c-138 -1 -141 -1 -195 30 -97 53 -551 275 -685 334 -280 123
-473 193 -592 215 -98 17 -158 -18 -145 -87 11 -56 168 -155 417 -263 175 -76
535 -251 535 -261 0 -3 -28 -9 -62 -12 -56 -4 -70 -1 -123 26 -33 17 -154 68
-270 115 -425 171 -455 180 -489 143 -16 -18 -17 -25 -7 -49 15 -36 69 -88
141 -136 30 -20 50 -36 45 -36 -19 0 -1081 291 -1130 310 -15 6 -25 13 -23 18
42 80 48 104 50 195 l3 96 -34 35 c-47 48 -110 76 -171 76 -65 0 -108 -18
-147 -63 -46 -53 -59 -103 -45 -179 6 -34 10 -63 9 -64 -2 -3 -215 61 -809
241 -142 43 -258 81 -258 85 0 4 26 23 58 43 68 42 82 63 89 131 10 97 -57
200 -161 247 -50 23 -95 24 -144 4 -46 -20 -190 -160 -244 -238 -22 -32 -45
-56 -51 -54 -7 2 -52 16 -102 31 -93 28 -467 150 -512 167 -25 9 -24 10 23 42
57 38 121 119 130 164 8 42 -11 98 -42 122 -43 34 -152 65 -229 65 -92 0 -150
-29 -182 -94 -27 -53 -31 -135 -7 -168 8 -12 12 -22 8 -22 -5 0 -168 56 -363
124 -196 69 -437 150 -536 181 l-180 57 48 18 c98 37 147 97 147 180 0 107
-161 175 -329 139 -93 -20 -152 -82 -170 -181 -4 -24 -12 -42 -17 -42 -33 5
-342 99 -571 175 -150 49 -365 116 -478 149 -220 64 -384 123 -530 188 -49 23
-166 70 -260 107 -188 72 -239 95 -303 132 l-44 25 30 18 c38 23 62 58 62 90
0 56 -65 120 -122 120 -35 0 -83 -34 -98 -69 -7 -17 -16 -31 -21 -31 -10 0
-148 120 -192 167 -25 27 -47 78 -47 109 0 9 27 11 99 7 97 -6 100 -5 125 20
20 20 26 36 26 71 0 37 -5 48 -30 69 -34 29 -133 77 -305 149 -66 28 -122 52
-124 54 -2 2 7 12 20 23 27 23 101 50 309 115 144 45 177 63 193 109 5 12 18
17 44 18 21 0 47 4 58 9 33 14 114 11 276 -11z m831 -3288 c47 -58 93 -146
172 -336 23 -55 67 -140 98 -190 30 -49 85 -137 120 -196 68 -109 172 -309
165 -315 -2 -3 -76 50 -163 117 -106 80 -195 139 -266 175 -192 96 -853 467
-924 517 -11 8 -26 33 -32 54 -19 63 -56 91 -126 95 l-59 3 73 58 c40 31 79
57 87 57 20 0 129 -113 188 -194 70 -97 100 -111 240 -111 87 0 117 4 143 18
83 45 174 159 207 258 9 27 20 49 23 49 4 0 28 -26 54 -59z"/>
<path d="M6634 9471 c-75 -34 -80 -114 -11 -165 23 -17 46 -21 137 -24 l109
-4 32 31 c28 29 31 36 25 73 -9 57 -23 78 -61 94 -51 21 -180 18 -231 -5z"/>
<path d="M5702 9445 c-41 -34 -44 -84 -8 -120 67 -67 295 -74 320 -10 12 32 6
75 -13 94 -26 26 -110 51 -196 58 -66 5 -72 4 -103 -22z"/>
<path d="M9185 9270 c-26 -23 -69 -52 -96 -66 -27 -13 -59 -34 -69 -44 -29
-29 -26 -81 6 -114 24 -23 34 -26 98 -26 49 0 84 7 115 20 24 11 49 20 56 20
7 0 34 25 60 56 53 61 58 89 30 144 -19 36 -49 50 -110 50 -37 0 -51 -6 -90
-40z"/>
<path d="M7997 9243 c-25 -28 -22 -68 9 -92 53 -42 225 -55 248 -18 17 26 -2
48 -77 86 -82 42 -154 52 -180 24z"/>
<path d="M10620 9219 c-45 -9 -90 -59 -90 -99 0 -47 44 -87 128 -115 93 -31
106 -31 131 2 17 20 20 34 15 62 -9 49 -37 113 -58 130 -23 19 -84 29 -126 20z"/>
<path d="M7573 9141 c-77 -48 -84 -169 -13 -218 14 -10 19 -24 18 -50 -1 -40
28 -73 64 -73 12 0 67 21 125 46 160 72 177 109 91 201 -70 73 -121 102 -194
109 -48 4 -65 2 -91 -15z"/>
<path d="M6140 9034 c-56 -15 -110 -59 -110 -89 0 -36 30 -82 70 -110 37 -26
53 -30 106 -30 52 0 67 4 88 24 36 34 50 89 34 136 -24 71 -91 95 -188 69z"/>
<path d="M10932 8860 c-65 -40 -69 -105 -9 -165 34 -35 53 -45 101 -55 87 -18
154 -9 183 24 22 26 29 68 17 100 -7 19 -96 84 -140 102 -48 20 -113 17 -152
-6z"/>
<path d="M10016 8747 c-47 -47 -31 -124 38 -184 71 -63 169 -69 218 -14 38 43
44 73 21 118 -24 49 -106 92 -191 100 -55 5 -63 3 -86 -20z"/>
<path d="M7345 8669 c-27 -12 -111 -34 -186 -49 -159 -33 -203 -50 -219 -90
-27 -65 7 -93 138 -114 106 -17 154 -41 222 -110 66 -68 88 -65 180 27 115
114 128 167 61 265 -23 33 -48 65 -56 72 -26 22 -87 21 -140 -1z"/>
<path d="M5945 8660 c-11 -4 -37 -26 -58 -49 -41 -46 -49 -90 -22 -128 20 -28
83 -47 127 -39 102 19 118 172 23 212 -39 16 -42 16 -70 4z"/>
<path d="M6323 8440 c-36 -22 -48 -40 -57 -92 -6 -34 -3 -42 34 -81 22 -25 40
-49 40 -54 0 -37 93 -70 146 -53 43 14 54 35 54 99 0 66 -9 87 -65 149 -40 45
-52 52 -83 52 -21 0 -51 -9 -69 -20z"/>
<path d="M9178 8434 c-60 -18 -102 -68 -130 -154 -37 -115 -20 -288 34 -337
99 -90 268 -67 392 53 45 44 52 71 39 161 l-11 72 -86 93 c-122 130 -145 141
-238 112z"/>
<path d="M11144 8132 c-40 -25 -64 -78 -64 -140 0 -40 5 -54 26 -75 l26 -26
-27 -13 c-85 -39 -84 -210 1 -277 39 -30 111 -61 145 -61 75 0 109 45 109 142
0 84 -20 115 -104 159 -45 24 -40 33 34 57 91 29 124 103 78 172 -35 50 -67
69 -133 75 -49 5 -66 3 -91 -13z"/>
<path d="M10318 7850 c-54 -29 -81 -73 -86 -140 -5 -71 6 -94 90 -182 67 -71
97 -88 156 -88 67 0 112 43 112 105 0 92 -80 284 -129 309 -40 21 -98 19 -143
-4z"/>
<path d="M11858 7305 c-66 -66 -13 -166 106 -200 73 -21 117 -14 150 26 33 39
33 79 0 119 -37 44 -98 72 -169 77 -55 5 -62 3 -87 -22z"/>
</g>
</svg>
