<svg version="1.1" xmlns="http://www.w3.org/2000/svg" viewBox="0 0 414.877202663356 286.7128895243749" width="829.754405326712" height="573.4257790487497">
  <!-- svg-source:excalidraw -->
  
  <defs>
    <style class="style-fonts">
      @font-face {
        font-family: "Virgil";
        src: url("https://excalidraw.com/Virgil.woff2");
      }
      @font-face {
        font-family: "Cascadia";
        src: url("https://excalidraw.com/Cascadia.woff2");
      }
      @font-face {
        font-family: "Assistant";
        src: url("https://excalidraw.com/Assistant-Regular.woff2");
      }
    </style>
    
  </defs>
  <g transform="translate(147.357539784408 21.94614950785777) rotate(0 8.203125 16.80000000000001)"><text x="0" y="27.0375" font-family="Cascadia, Segoe UI Emoji" font-size="28px" fill="#1971c2" text-anchor="start" style="white-space: pre;" direction="ltr" dominant-baseline="alphabetic">A</text></g><g transform="translate(193.615352284408 21.91099325785777) rotate(0 8.203125 16.80000000000001)"><text x="0" y="27.0375" font-family="Cascadia, Segoe UI Emoji" font-size="28px" fill="#f08c00" text-anchor="start" style="white-space: pre;" direction="ltr" dominant-baseline="alphabetic">G</text></g><g transform="translate(218.295039784408 21.66099325785777) rotate(0 8.203125 16.80000000000001)"><text x="0" y="27.0375" font-family="Cascadia, Segoe UI Emoji" font-size="28px" fill="#2f9e44" text-anchor="start" style="white-space: pre;" direction="ltr" dominant-baseline="alphabetic">C</text></g><g transform="translate(268.58473814562365 22.06161415023317) rotate(0 8.203125 16.80000000000001)"><text x="0" y="27.0375" font-family="Cascadia, Segoe UI Emoji" font-size="28px" fill="#9c36b5" text-anchor="start" style="white-space: pre;" direction="ltr" dominant-baseline="alphabetic">T</text></g><g transform="translate(168.564571034408 22.02818075785777) rotate(0 8.203125 16.80000000000001)"><text x="0" y="27.0375" font-family="Cascadia, Segoe UI Emoji" font-size="28px" fill="#f08c00" text-anchor="start" style="white-space: pre;" direction="ltr" dominant-baseline="alphabetic">G</text></g><g transform="translate(243.470821034408 21.93052450785777) rotate(0 8.203125 16.80000000000001)"><text x="0" y="27.0375" font-family="Cascadia, Segoe UI Emoji" font-size="28px" fill="#2f9e44" text-anchor="start" style="white-space: pre;" direction="ltr" dominant-baseline="alphabetic">C</text></g><g transform="translate(292.36800658653965 21.621206322991696) rotate(0 8.203125 16.80000000000001)"><text x="0" y="27.0375" font-family="Cascadia, Segoe UI Emoji" font-size="28px" fill="#1971c2" text-anchor="start" style="white-space: pre;" direction="ltr" dominant-baseline="alphabetic">A</text></g><g transform="translate(147.67493447641425 47.80985829120678) rotate(0 8.203125 16.80000000000001)"><text x="0" y="27.0375" font-family="Cascadia, Segoe UI Emoji" font-size="28px" fill="#1971c2" text-anchor="start" style="white-space: pre;" direction="ltr" dominant-baseline="alphabetic">A</text></g><g transform="translate(218.61243447641425 47.52470204120678) rotate(0 8.203125 16.80000000000001)"><text x="0" y="27.0375" font-family="Cascadia, Segoe UI Emoji" font-size="28px" fill="#2f9e44" text-anchor="start" style="white-space: pre;" direction="ltr" dominant-baseline="alphabetic">C</text></g><g transform="translate(268.9021328376299 47.92532293358218) rotate(0 8.203125 16.80000000000001)"><text x="0" y="27.0375" font-family="Cascadia, Segoe UI Emoji" font-size="28px" fill="#9c36b5" text-anchor="start" style="white-space: pre;" direction="ltr" dominant-baseline="alphabetic">T</text></g><g transform="translate(168.88196572641425 47.89188954120678) rotate(0 8.203125 16.80000000000001)"><text x="0" y="27.0375" font-family="Cascadia, Segoe UI Emoji" font-size="28px" fill="#f08c00" text-anchor="start" style="white-space: pre;" direction="ltr" dominant-baseline="alphabetic">G</text></g><g transform="translate(243.78821572641425 47.79423329120678) rotate(0 8.203125 16.80000000000001)"><text x="0" y="27.0375" font-family="Cascadia, Segoe UI Emoji" font-size="28px" fill="#2f9e44" text-anchor="start" style="white-space: pre;" direction="ltr" dominant-baseline="alphabetic">C</text></g><g transform="translate(292.685401278546 47.48491510634065) rotate(0 8.203125 16.80000000000001)"><text x="0" y="27.0375" font-family="Cascadia, Segoe UI Emoji" font-size="28px" fill="#1971c2" text-anchor="start" style="white-space: pre;" direction="ltr" dominant-baseline="alphabetic">A</text></g><g transform="translate(193.43386396929702 48.07540729409672) rotate(0 8.203125 16.80000000000001)"><text x="0" y="27.0375" font-family="Cascadia, Segoe UI Emoji" font-size="28px" fill="#2f9e44" text-anchor="start" style="white-space: pre;" direction="ltr" dominant-baseline="alphabetic">C</text></g><g transform="translate(148.30721147555062 74.07385097642319) rotate(0 8.203125 16.80000000000001)"><text x="0" y="27.0375" font-family="Cascadia, Segoe UI Emoji" font-size="28px" fill="#1971c2" text-anchor="start" style="white-space: pre;" direction="ltr" dominant-baseline="alphabetic">A</text></g><g transform="translate(219.24471147555062 73.78869472642319) rotate(0 8.203125 16.80000000000001)"><text x="0" y="27.0375" font-family="Cascadia, Segoe UI Emoji" font-size="28px" fill="#2f9e44" text-anchor="start" style="white-space: pre;" direction="ltr" dominant-baseline="alphabetic">C</text></g><g transform="translate(169.51424272555062 74.15588222642319) rotate(0 8.203125 16.80000000000001)"><text x="0" y="27.0375" font-family="Cascadia, Segoe UI Emoji" font-size="28px" fill="#f08c00" text-anchor="start" style="white-space: pre;" direction="ltr" dominant-baseline="alphabetic">G</text></g><g transform="translate(244.42049272555062 74.05822597642319) rotate(0 8.203125 16.80000000000001)"><text x="0" y="27.0375" font-family="Cascadia, Segoe UI Emoji" font-size="28px" fill="#2f9e44" text-anchor="start" style="white-space: pre;" direction="ltr" dominant-baseline="alphabetic">C</text></g><g transform="translate(293.3176782776824 73.74890779155706) rotate(0 8.203125 16.80000000000001)"><text x="0" y="27.0375" font-family="Cascadia, Segoe UI Emoji" font-size="28px" fill="#1971c2" text-anchor="start" style="white-space: pre;" direction="ltr" dominant-baseline="alphabetic">A</text></g><g transform="translate(194.0661409684334 74.33939997931319) rotate(0 8.203125 16.80000000000001)"><text x="0" y="27.0375" font-family="Cascadia, Segoe UI Emoji" font-size="28px" fill="#2f9e44" text-anchor="start" style="white-space: pre;" direction="ltr" dominant-baseline="alphabetic">C</text></g><g transform="translate(269.54608261457076 73.8489837199784) rotate(0 8.203125 16.80000000000001)"><text x="0" y="27.0375" font-family="Cascadia, Segoe UI Emoji" font-size="28px" fill="#1971c2" text-anchor="start" style="white-space: pre;" direction="ltr" dominant-baseline="alphabetic">A</text></g><g transform="translate(219.6198151334654 99.41714580123002) rotate(0 8.203125 16.80000000000001)"><text x="0" y="27.0375" font-family="Cascadia, Segoe UI Emoji" font-size="28px" fill="#2f9e44" text-anchor="start" style="white-space: pre;" direction="ltr" dominant-baseline="alphabetic">C</text></g><g transform="translate(169.84530012060418 99.78433330123002) rotate(0 8.203125 16.80000000000001)"><text x="0" y="27.0375" font-family="Cascadia, Segoe UI Emoji" font-size="28px" fill="#f08c00" text-anchor="start" style="white-space: pre;" direction="ltr" dominant-baseline="alphabetic">G</text></g><g transform="translate(244.75155012060418 99.68667705123002) rotate(0 8.203125 16.80000000000001)"><text x="0" y="27.0375" font-family="Cascadia, Segoe UI Emoji" font-size="28px" fill="#2f9e44" text-anchor="start" style="white-space: pre;" direction="ltr" dominant-baseline="alphabetic">C</text></g><g transform="translate(293.64873567273605 99.37735886636389) rotate(0 8.203125 16.80000000000001)"><text x="0" y="27.0375" font-family="Cascadia, Segoe UI Emoji" font-size="28px" fill="#1971c2" text-anchor="start" style="white-space: pre;" direction="ltr" dominant-baseline="alphabetic">A</text></g><g transform="translate(269.8771400096243 99.47743479478524) rotate(0 8.203125 16.80000000000001)"><text x="0" y="27.0375" font-family="Cascadia, Segoe UI Emoji" font-size="28px" fill="#1971c2" text-anchor="start" style="white-space: pre;" direction="ltr" dominant-baseline="alphabetic">A</text></g><g transform="translate(194.56797644728158 100.20968519771108) rotate(0 8.203125 16.80000000000001)"><text x="0" y="27.0375" font-family="Cascadia, Segoe UI Emoji" font-size="28px" fill="#f08c00" text-anchor="start" style="white-space: pre;" direction="ltr" dominant-baseline="alphabetic">G</text></g><g transform="translate(147.74964072019532 99.65129225240608) rotate(0 8.203125 16.80000000000001)"><text x="0" y="27.0375" font-family="Cascadia, Segoe UI Emoji" font-size="28px" fill="#9c36b5" text-anchor="start" style="white-space: pre;" direction="ltr" dominant-baseline="alphabetic">T</text></g><g transform="translate(149.22507875969052 126.33324091599232) rotate(0 8.203125 16.80000000000001)"><text x="0" y="27.0375" font-family="Cascadia, Segoe UI Emoji" font-size="28px" fill="#1971c2" text-anchor="start" style="white-space: pre;" direction="ltr" dominant-baseline="alphabetic">A</text></g><g transform="translate(220.16257875969052 126.04808466599232) rotate(0 8.203125 16.80000000000001)"><text x="0" y="27.0375" font-family="Cascadia, Segoe UI Emoji" font-size="28px" fill="#2f9e44" text-anchor="start" style="white-space: pre;" direction="ltr" dominant-baseline="alphabetic">C</text></g><g transform="translate(170.43211000969052 126.41527216599232) rotate(0 8.203125 16.80000000000001)"><text x="0" y="27.0375" font-family="Cascadia, Segoe UI Emoji" font-size="28px" fill="#f08c00" text-anchor="start" style="white-space: pre;" direction="ltr" dominant-baseline="alphabetic">G</text></g><g transform="translate(245.33836000969052 126.31761591599232) rotate(0 8.203125 16.80000000000001)"><text x="0" y="27.0375" font-family="Cascadia, Segoe UI Emoji" font-size="28px" fill="#2f9e44" text-anchor="start" style="white-space: pre;" direction="ltr" dominant-baseline="alphabetic">C</text></g><g transform="translate(294.2355455618223 126.00829773112619) rotate(0 8.203125 16.80000000000001)"><text x="0" y="27.0375" font-family="Cascadia, Segoe UI Emoji" font-size="28px" fill="#1971c2" text-anchor="start" style="white-space: pre;" direction="ltr" dominant-baseline="alphabetic">A</text></g><g transform="translate(194.9840082525733 126.59878991888232) rotate(0 8.203125 16.80000000000001)"><text x="0" y="27.0375" font-family="Cascadia, Segoe UI Emoji" font-size="28px" fill="#2f9e44" text-anchor="start" style="white-space: pre;" direction="ltr" dominant-baseline="alphabetic">C</text></g><g transform="translate(270.46394989871067 126.10837365954754) rotate(0 8.203125 16.80000000000001)"><text x="0" y="27.0375" font-family="Cascadia, Segoe UI Emoji" font-size="28px" fill="#1971c2" text-anchor="start" style="white-space: pre;" direction="ltr" dominant-baseline="alphabetic">A</text></g><g stroke-linecap="round"><g transform="translate(155.9889347618897 10) rotate(0 0 6.25172763191344)"><path d="M0 0 C0 3.03, 0 6.06, 0 12.5 M0 0 C0 3.23, 0 6.45, 0 12.5" stroke="#e03131" stroke-width="2" fill="none"></path></g></g><mask></mask><g stroke-linecap="round"><g transform="translate(201.60665461421075 10.399258060129) rotate(0 0 6.25172763191344)"><path d="M0 0 C0 4.86, 0 9.73, 0 12.5 M0 0 C0 3.23, 0 6.45, 0 12.5" stroke="#e03131" stroke-width="2" fill="none"></path></g></g><mask></mask><g stroke-linecap="round"><g transform="translate(276.21818220671946 10.776058986339052) rotate(0 0 6.25172763191344)"><path d="M0 0 C0 2.71, 0 5.42, 0 12.5 M0 0 C0 4.31, 0 8.63, 0 12.5" stroke="#e03131" stroke-width="2" fill="none"></path></g></g><mask></mask><g transform="translate(79.41285278054522 27.403828428125763) rotate(0 28.9111328125 11.5)"><text x="0" y="18.400390625" font-family="Helvetica, Segoe UI Emoji" font-size="20px" fill="#1e1e1e" text-anchor="start" style="white-space: pre;" direction="ltr" dominant-baseline="alphabetic">Seq. 1</text></g><g transform="translate(78.81600939847766 53.39507677851546) rotate(0 28.9111328125 11.5)"><text x="0" y="18.400390625" font-family="Helvetica, Segoe UI Emoji" font-size="20px" fill="#1e1e1e" text-anchor="start" style="white-space: pre;" direction="ltr" dominant-baseline="alphabetic">Seq. 2</text></g><g transform="translate(79.29055183238518 79.03838880827661) rotate(0 28.9111328125 11.5)"><text x="0" y="18.400390625" font-family="Helvetica, Segoe UI Emoji" font-size="20px" fill="#1e1e1e" text-anchor="start" style="white-space: pre;" direction="ltr" dominant-baseline="alphabetic">Seq. 3</text></g><g transform="translate(78.75293730283164 104.94585972216825) rotate(0 28.9111328125 11.5)"><text x="0" y="18.400390625" font-family="Helvetica, Segoe UI Emoji" font-size="20px" fill="#1e1e1e" text-anchor="start" style="white-space: pre;" direction="ltr" dominant-baseline="alphabetic">Seq. 4</text></g><g transform="translate(79.41969945680313 131.51723258786237) rotate(0 28.9111328125 11.5)"><text x="0" y="18.400390625" font-family="Helvetica, Segoe UI Emoji" font-size="20px" fill="#1e1e1e" text-anchor="start" style="white-space: pre;" direction="ltr" dominant-baseline="alphabetic">Seq. 5</text></g><g transform="translate(167.53680327555037 188.04704120097463) rotate(0 28.9111328125 11.5)"><text x="0" y="18.400390625" font-family="Helvetica, Segoe UI Emoji" font-size="20px" fill="#1e1e1e" text-anchor="start" style="white-space: pre;" direction="ltr" dominant-baseline="alphabetic">Seq. 3</text></g><g transform="translate(262.2560737701127 188.56363169864605) rotate(0 28.9111328125 11.5)"><text x="0" y="18.400390625" font-family="Helvetica, Segoe UI Emoji" font-size="20px" fill="#1e1e1e" text-anchor="start" style="white-space: pre;" direction="ltr" dominant-baseline="alphabetic">Seq. 5</text></g><g stroke-linecap="round"><g transform="translate(197.97067668293073 216.36927013968292) rotate(0 42.89653362204996 -0.18621285381180996)"><path d="M0 0 C24.64 -0.11, 49.28 -0.21, 85.79 -0.37 M0 0 C21.3 -0.09, 42.6 -0.18, 85.79 -0.37" stroke="#1e1e1e" stroke-width="2" fill="none"></path></g></g><mask></mask><g stroke-linecap="round"><g transform="translate(242.39246235024484 216.81604758419573) rotate(0 0.3584053916462153 10.395249094705406)"><path d="M0 0 C0.16 4.61, 0.32 9.21, 0.72 20.79 M0 0 C0.21 6.05, 0.42 12.1, 0.72 20.79" stroke="#1e1e1e" stroke-width="2" fill="none"></path></g></g><mask></mask><g stroke-linecap="round"><g transform="translate(243.29248255422306 238.56464094079953) rotate(0 -59.63166300010431 0.4383764295881747)"><path d="M0 0 C-43.2 0.32, -86.4 0.64, -119.26 0.88 M0 0 C-39.78 0.29, -79.56 0.58, -119.26 0.88" stroke="#1e1e1e" stroke-width="2" fill="none"></path></g></g><mask></mask><g transform="translate(91.44482502842044 188.63299712245785) rotate(0 28.9111328125 11.5)"><text x="0" y="18.400390625" font-family="Helvetica, Segoe UI Emoji" font-size="20px" fill="#1e1e1e" text-anchor="start" style="white-space: pre;" direction="ltr" dominant-baseline="alphabetic">Seq. 2</text></g><g stroke-linecap="round"><g transform="translate(123.56662785261096 238.54662034204355) rotate(0 0 -10.327120046449664)"><path d="M0 0 C0 -5.19, 0 -10.38, 0 -20.65 M0 0 C0 -5.35, 0 -10.69, 0 -20.65" stroke="#1e1e1e" stroke-width="2" fill="none"></path></g></g><mask></mask><g stroke-linecap="round"><g transform="translate(178.02670411546808 239.81891828702763) rotate(0 0.10404104964106864 8.816844560434902)"><path d="M0 0 C0.05 4.45, 0.11 8.9, 0.21 17.63 M0 0 C0.08 6.78, 0.16 13.56, 0.21 17.63" stroke="#1e1e1e" stroke-width="2" fill="none"></path></g></g><mask></mask><g transform="translate(10 188.75286838450901) rotate(0 28.9111328125 11.5)"><text x="0" y="18.400390625" font-family="Helvetica, Segoe UI Emoji" font-size="20px" fill="#1e1e1e" text-anchor="start" style="white-space: pre;" direction="ltr" dominant-baseline="alphabetic">Seq. 1</text></g><g stroke-linecap="round"><g transform="translate(178.33628967781465 258.08954163862677) rotate(0 -66.61037884275038 0.09515949662292655)"><path d="M0 0 C-28.59 0.04, -57.18 0.08, -133.22 0.19 M0 0 C-27.18 0.04, -54.36 0.08, -133.22 0.19" stroke="#1e1e1e" stroke-width="2" fill="none"></path></g></g><mask></mask><g stroke-linecap="round"><g transform="translate(45.09269371312439 257.8763843661915) rotate(0 -0.38951953950979146 -20.14463103842641)"><path d="M0 0 C-0.21 -10.94, -0.42 -21.88, -0.78 -40.29 M0 0 C-0.2 -10.47, -0.4 -20.93, -0.78 -40.29" stroke="#1e1e1e" stroke-width="2" fill="none"></path></g></g><mask></mask><g transform="translate(347.054937038356 188.80108252946448) rotate(0 28.9111328125 11.5)"><text x="0" y="18.400390625" font-family="Helvetica, Segoe UI Emoji" font-size="20px" fill="#1e1e1e" text-anchor="start" style="white-space: pre;" direction="ltr" dominant-baseline="alphabetic">Seq. 4</text></g><g stroke-linecap="round"><g transform="translate(108.78865437263704 259.90137845432696) rotate(0 0.08247156373985831 8.296639312229644)"><path d="M0 0 C0.04 4.14, 0.08 8.28, 0.16 16.59 M0 0 C0.04 4.15, 0.08 8.29, 0.16 16.59" stroke="#1e1e1e" stroke-width="2" fill="none"></path></g></g><mask></mask><g stroke-linecap="round"><g transform="translate(108.77596643975397 276.7128895243749) rotate(0 136.48790040288745 -0.9401758266343734)"><path d="M0 0 C54.73 -0.38, 109.46 -0.75, 272.98 -1.88 M0 0 C73.21 -0.5, 146.41 -1.01, 272.98 -1.88" stroke="#1e1e1e" stroke-width="2" fill="none"></path></g></g><mask></mask><g stroke-linecap="round"><g transform="translate(381.71370344687966 274.6752075033562) rotate(0 -0.606483191810014 -28.393056205700447)"><path d="M0 0 C-0.29 -13.75, -0.59 -27.5, -1.21 -56.79 M0 0 C-0.42 -19.44, -0.83 -38.88, -1.21 -56.79" stroke="#1e1e1e" stroke-width="2" fill="none"></path></g></g><mask></mask></svg>