<svg version="1.1" xmlns="http://www.w3.org/2000/svg" viewBox="0 0 802.9992051646341 323.45254697513906" width="802.9992051646341" height="323.45254697513906">
  <!-- svg-source:excalidraw -->
  
  <defs>
    <style class="style-fonts">
      @font-face {
        font-family: "Virgil";
        src: url("https://excalidraw.com/Virgil.woff2");
      }
      @font-face {
        font-family: "Cascadia";
        src: url("https://excalidraw.com/Cascadia.woff2");
      }
      @font-face {
        font-family: "Assistant";
        src: url("https://excalidraw.com/Assistant-Regular.woff2");
      }
    </style>
    
  </defs>
  <g stroke-linecap="round"><g transform="translate(83.2890114399882 90.59194176114926) rotate(0 0.788087485569605 89.53870499086744)"><path d="M0 0 C0.5 56.93, 1 113.87, 1.58 179.08 M0 0 C0.44 50.03, 0.88 100.06, 1.58 179.08" stroke="#1e1e1e" stroke-width="2" fill="none"></path></g></g><mask></mask><g stroke-linecap="round"><g transform="translate(284.6665974265685 269.54227885801663) rotate(0 -99.36186354842249 0.7272449498125297)"><path d="M0 0 C-46.83 0.34, -93.66 0.69, -198.72 1.45 M0 0 C-75.27 0.55, -150.53 1.1, -198.72 1.45" stroke="#1e1e1e" stroke-width="2" fill="none"></path></g></g><mask></mask><g stroke-linecap="round"><g transform="translate(99.56717259889939 259.8491752370851) rotate(0 81.2853976040991 -76.03684457715815)"><path d="M0 0 C36.2 -33.86, 72.39 -67.72, 162.57 -152.07 M0 0 C62.53 -58.49, 125.06 -116.99, 162.57 -152.07" stroke="#1e1e1e" stroke-width="2" fill="none"></path></g></g><mask></mask><g transform="translate(95.07992845811907 283.9032103925699) rotate(0 84.08073598376535 14.62208885689762)"><text x="0" y="23.395838845250047" font-family="Helvetica, Segoe UI Emoji" font-size="25.42971975112626px" fill="#1e1e1e" text-anchor="start" style="white-space: pre;" direction="ltr" dominant-baseline="alphabetic">SDM suitability</text></g><g transform="translate(-23.43447307834299 174.25092139331042) rotate(269.6945020765236 71.38202667236328 14.62208885689759)"><text x="0" y="23.395838845250047" font-family="Helvetica, Segoe UI Emoji" font-size="25.42971975112626px" fill="#1e1e1e" text-anchor="start" style="white-space: pre;" direction="ltr" dominant-baseline="alphabetic">Abdundance</text></g><g stroke-linecap="round"><g transform="translate(493.4546157942474 90.66979965451083) rotate(0 0.6793077330507735 89.65235547857372)"><path d="M0 0 C0.35 46.32, 0.7 92.65, 1.36 179.3 M0 0 C0.45 59.96, 0.91 119.93, 1.36 179.3" stroke="#1e1e1e" stroke-width="2" fill="none"></path></g></g><mask></mask><g stroke-linecap="round"><g transform="translate(694.61464227579 269.8474377267909) rotate(0 -99.36186354842249 0.7272449498125297)"><path d="M0 0 C-56.37 0.41, -112.74 0.83, -198.72 1.45 M0 0 C-74.11 0.54, -148.22 1.08, -198.72 1.45" stroke="#1e1e1e" stroke-width="2" fill="none"></path></g></g><mask></mask><g stroke-linecap="round"><g transform="translate(506.6494192508994 251.9455500588332) rotate(0 43.581779904940994 -0.3039472197480677)"><path d="M0 0 C20.3 -0.14, 40.59 -0.28, 87.16 -0.61 M0 0 C27.27 -0.19, 54.53 -0.38, 87.16 -0.61" stroke="#1e1e1e" stroke-width="2" fill="none"></path></g></g><mask></mask><g transform="translate(505.0279733073405 284.2083692613438) rotate(0 84.08073598376536 14.62208885689762)"><text x="0" y="23.395838845250047" font-family="Helvetica, Segoe UI Emoji" font-size="25.42971975112626px" fill="#1e1e1e" text-anchor="start" style="white-space: pre;" direction="ltr" dominant-baseline="alphabetic">SDM suitability</text></g><g transform="translate(392.639409986975 170.55956079392428) rotate(270.0114200752181 64.3133316040039 14.62208885689759)"><text x="0" y="23.395838845250047" font-family="Helvetica, Segoe UI Emoji" font-size="25.42971975112626px" fill="#1e1e1e" text-anchor="start" style="white-space: pre;" direction="ltr" dominant-baseline="alphabetic">Abundance</text></g><g stroke-linecap="round"><g transform="translate(593.9465316159378 251.12466684588753) rotate(0 0.1387123427609751 -47.91298769636731)"><path d="M0 0 C0.09 -32.16, 0.19 -64.32, 0.28 -95.83 M0 0 C0.07 -22.76, 0.13 -45.51, 0.28 -95.83" stroke="#1e1e1e" stroke-width="2" fill="none"></path></g></g><mask></mask><g stroke-linecap="round"><g transform="translate(594.5067114284133 154.68762518609657) rotate(0 44.971933965600925 -0.3621291632610735)"><path d="M0 0 C22.54 -0.18, 45.08 -0.36, 89.94 -0.72 M0 0 C21.3 -0.17, 42.6 -0.34, 89.94 -0.72" stroke="#1e1e1e" stroke-width="2" fill="none"></path></g></g><mask></mask><g transform="translate(10 11.254948743390969) rotate(0 176.1064453125 20.69999999999999)"><text x="0" y="33.120703125" font-family="Helvetica, Segoe UI Emoji" font-size="36px" fill="#1e1e1e" text-anchor="start" style="white-space: pre;" direction="ltr" dominant-baseline="alphabetic">Low elevation species</text></g><g transform="translate(432.7882676646341 10) rotate(0 180.10546875 20.69999999999999)"><text x="0" y="33.120703125" font-family="Helvetica, Segoe UI Emoji" font-size="36px" fill="#1e1e1e" text-anchor="start" style="white-space: pre;" direction="ltr" dominant-baseline="alphabetic">High elevation species</text></g></svg>