<svg version="1.1" xmlns="http://www.w3.org/2000/svg" viewBox="0 0 984.0070793543786 931.2442640722084" width="1968.0141587087571" height="1862.4885281444167">
  <!-- svg-source:excalidraw -->
  
  <defs>
    <style class="style-fonts">
      @font-face {
        font-family: "Virgil";
        src: url("https://excalidraw.com/Virgil.woff2");
      }
      @font-face {
        font-family: "Cascadia";
        src: url("https://excalidraw.com/Cascadia.woff2");
      }
      @font-face {
        font-family: "Assistant";
        src: url("https://excalidraw.com/Assistant-Regular.woff2");
      }
    </style>
    
  </defs>
  <g stroke-linecap="round" transform="translate(309.23002934139413 10) rotate(0 191.80603496844952 91.904296875)"><path d="M0 0 C87.3 0, 174.6 0, 383.61 0 M0 0 C81.42 0, 162.84 0, 383.61 0 M383.61 0 C383.61 42.27, 383.61 84.54, 383.61 183.81 M383.61 0 C383.61 60.71, 383.61 121.42, 383.61 183.81 M383.61 183.81 C256.22 183.81, 128.82 183.81, 0 183.81 M383.61 183.81 C306.85 183.81, 230.09 183.81, 0 183.81 M0 183.81 C0 123.07, 0 62.33, 0 0 M0 183.81 C0 136.21, 0 88.61, 0 0" stroke="#1e1e1e" stroke-width="1" fill="none"></path></g><g transform="translate(335.67776312616405 70.8171634883671) rotate(0 170.9729215181791 26.015985576923075)"><text x="0" y="41.62646061823918" font-family="Helvetica, Segoe UI Emoji" font-size="45.24519230769231px" fill="#1e1e1e" text-anchor="start" style="white-space: pre;" direction="ltr" dominant-baseline="alphabetic">Genetic Diversity</text></g><g stroke-linecap="round" transform="translate(298.09683763241213 737.4356703222084) rotate(0 191.8060349684495 91.904296875)"><path d="M0 0 C142.01 0, 284.02 0, 383.61 0 M0 0 C116.66 0, 233.32 0, 383.61 0 M383.61 0 C383.61 47.96, 383.61 95.92, 383.61 183.81 M383.61 0 C383.61 44.8, 383.61 89.6, 383.61 183.81 M383.61 183.81 C230.91 183.81, 78.2 183.81, 0 183.81 M383.61 183.81 C282.25 183.81, 180.89 183.81, 0 183.81 M0 183.81 C0 130.21, 0 76.62, 0 0 M0 183.81 C0 134.4, 0 85, 0 0" stroke="#1e1e1e" stroke-width="1" fill="none"></path></g><g transform="translate(369.1643883798596 798.2401270422534) rotate(0 126.98342895507812 26.01598557692307)"><text x="0" y="41.62646061823918" font-family="Helvetica, Segoe UI Emoji" font-size="45.24519230769231px" fill="#1e1e1e" text-anchor="start" style="white-space: pre;" direction="ltr" dominant-baseline="alphabetic">Environment</text></g><g stroke-linecap="round" transform="translate(10 399.0951451986948) rotate(0 130.17766476673523 55.588934716637766)"><path d="M0 0 C73.47 0, 146.94 0, 260.36 0 M0 0 C92.78 0, 185.56 0, 260.36 0 M260.36 0 C260.36 36.19, 260.36 72.39, 260.36 111.18 M260.36 0 C260.36 38.86, 260.36 77.72, 260.36 111.18 M260.36 111.18 C179.86 111.18, 99.37 111.18, 0 111.18 M260.36 111.18 C170.8 111.18, 81.25 111.18, 0 111.18 M0 111.18 C0 84.9, 0 58.63, 0 0 M0 111.18 C0 71.62, 0 32.07, 0 0" stroke="#1e1e1e" stroke-width="2" fill="none"></path></g><g transform="translate(75.74481929799072 437.1519163230631) rotate(0 66.9443359375 16.099999999999994)"><text x="0" y="25.760546874999996" font-family="Helvetica, Segoe UI Emoji" font-size="28px" fill="#1e1e1e" text-anchor="start" style="white-space: pre;" direction="ltr" dominant-baseline="alphabetic">Adaptation</text></g><g stroke-linecap="round" transform="translate(358.38464377615594 400.3753521071359) rotate(0 130.17766476673523 55.588934716637766)"><path d="M0 0 C104.11 0, 208.22 0, 260.36 0 M0 0 C85.86 0, 171.73 0, 260.36 0 M260.36 0 C260.36 25.11, 260.36 50.21, 260.36 111.18 M260.36 0 C260.36 33.28, 260.36 66.57, 260.36 111.18 M260.36 111.18 C157.47 111.18, 54.59 111.18, 0 111.18 M260.36 111.18 C165.9 111.18, 71.44 111.18, 0 111.18 M0 111.18 C0 87.72, 0 64.25, 0 0 M0 111.18 C0 84, 0 56.82, 0 0" stroke="#1e1e1e" stroke-width="2" fill="none"></path></g><g transform="translate(424.12946307414666 438.4321232315041) rotate(0 58.3515625 16.099999999999994)"><text x="0" y="25.760546874999996" font-family="Helvetica, Segoe UI Emoji" font-size="28px" fill="#1e1e1e" text-anchor="start" style="white-space: pre;" direction="ltr" dominant-baseline="alphabetic">Dispersal</text></g><g stroke-linecap="round" transform="translate(702.7190051496765 398.2215548765579) rotate(0 130.17766476673523 55.588934716637766)"><path d="M0 0 C101.8 0, 203.6 0, 260.36 0 M0 0 C100.12 0, 200.24 0, 260.36 0 M260.36 0 C260.36 33.69, 260.36 67.37, 260.36 111.18 M260.36 0 C260.36 29.31, 260.36 58.61, 260.36 111.18 M260.36 111.18 C179.74 111.18, 99.12 111.18, 0 111.18 M260.36 111.18 C156.46 111.18, 52.56 111.18, 0 111.18 M0 111.18 C0 76.21, 0 41.24, 0 0 M0 111.18 C0 87.97, 0 64.77, 0 0" stroke="#1e1e1e" stroke-width="2" fill="none"></path></g><g transform="translate(768.4638244476672 436.2783260009261) rotate(0 55.2548828125 16.099999999999994)"><text x="0" y="25.760546874999996" font-family="Helvetica, Segoe UI Emoji" font-size="28px" fill="#1e1e1e" text-anchor="start" style="white-space: pre;" direction="ltr" dominant-baseline="alphabetic">Behavior</text></g><g stroke-linecap="round"><g transform="translate(479.5468564184372 732.3555579795986) rotate(0 -154.39994188053385 -103.11224824089061)"><path d="M0 0 C-93.76 -62.62, -187.52 -125.23, -308.8 -206.22 M0 0 C-71.09 -47.48, -142.19 -94.96, -308.8 -206.22" stroke="#1e1e1e" stroke-width="2" fill="none"></path></g><g transform="translate(479.5468564184372 732.3555579795986) rotate(0 -154.39994188053385 -103.11224824089061)"><path d="M-284.51 -200.29 C-291.89 -202.09, -299.26 -203.89, -308.8 -206.22 M-284.51 -200.29 C-290.11 -201.65, -295.7 -203.02, -308.8 -206.22" stroke="#1e1e1e" stroke-width="2" fill="none"></path></g><g transform="translate(479.5468564184372 732.3555579795986) rotate(0 -154.39994188053385 -103.11224824089061)"><path d="M-294.01 -186.07 C-298.5 -192.19, -302.99 -198.31, -308.8 -206.22 M-294.01 -186.07 C-297.42 -190.71, -300.82 -195.35, -308.8 -206.22" stroke="#1e1e1e" stroke-width="2" fill="none"></path></g></g><mask></mask><g stroke-linecap="round"><g transform="translate(479.8899391631311 731.1611217573313) rotate(0 2.04896639192134 -102.34666544949056)"><path d="M0 0 C1.02 -50.88, 2.04 -101.75, 4.1 -204.69 M0 0 C1.05 -52.49, 2.1 -104.97, 4.1 -204.69" stroke="#1e1e1e" stroke-width="2" fill="none"></path></g><g transform="translate(479.8899391631311 731.1611217573313) rotate(0 2.04896639192134 -102.34666544949056)"><path d="M12.18 -181.03 C10.17 -186.91, 8.16 -192.8, 4.1 -204.69 M12.18 -181.03 C10.11 -187.1, 8.03 -193.17, 4.1 -204.69" stroke="#1e1e1e" stroke-width="2" fill="none"></path></g><g transform="translate(479.8899391631311 731.1611217573313) rotate(0 2.04896639192134 -102.34666544949056)"><path d="M-4.92 -181.38 C-2.68 -187.17, -0.44 -192.97, 4.1 -204.69 M-4.92 -181.38 C-2.61 -187.36, -0.3 -193.33, 4.1 -204.69" stroke="#1e1e1e" stroke-width="2" fill="none"></path></g></g><mask></mask><g stroke-linecap="round"><g transform="translate(479.37531504609035 731.0086405374675) rotate(0 173.84765079734382 -103.78253026987579)"><path d="M0 0 C102.8 -61.37, 205.6 -122.74, 347.7 -207.57 M0 0 C104.92 -62.63, 209.84 -125.27, 347.7 -207.57" stroke="#1e1e1e" stroke-width="2" fill="none"></path></g><g transform="translate(479.37531504609035 731.0086405374675) rotate(0 173.84765079734382 -103.78253026987579)"><path d="M331.91 -188.18 C336.57 -193.91, 341.24 -199.64, 347.7 -207.57 M331.91 -188.18 C336.67 -194.03, 341.44 -199.88, 347.7 -207.57" stroke="#1e1e1e" stroke-width="2" fill="none"></path></g><g transform="translate(479.37531504609035 731.0086405374675) rotate(0 173.84765079734382 -103.78253026987579)"><path d="M323.14 -202.87 C330.4 -204.25, 337.66 -205.64, 347.7 -207.57 M323.14 -202.87 C330.55 -204.28, 337.96 -205.7, 347.7 -207.57" stroke="#1e1e1e" stroke-width="2" fill="none"></path></g></g><mask></mask><g transform="translate(802.8488762293786 551.9919608946815) rotate(0 85.5791015625 16.100000000000023)"><text x="0" y="25.760546874999996" font-family="Helvetica, Segoe UI Emoji" font-size="28px" fill="#1e1e1e" text-anchor="start" style="white-space: pre;" direction="ltr" dominant-baseline="alphabetic">... much more</text></g><g stroke-linecap="round"><g transform="translate(146.23561656424545 381.31837631622705) rotate(0 168.37738703472593 -89.33811137985055)"><path d="M0 0 C116.91 -62.03, 233.81 -124.06, 336.75 -178.68 M0 0 C72.2 -38.31, 144.4 -76.62, 336.75 -178.68" stroke="#1e1e1e" stroke-width="2" fill="none"></path></g><g transform="translate(146.23561656424545 381.31837631622705) rotate(0 168.37738703472593 -89.33811137985055)"><path d="M320.01 -160.11 C325.82 -166.56, 331.64 -173, 336.75 -178.68 M320.01 -160.11 C323.6 -164.09, 327.19 -168.07, 336.75 -178.68" stroke="#1e1e1e" stroke-width="2" fill="none"></path></g><g transform="translate(146.23561656424545 381.31837631622705) rotate(0 168.37738703472593 -89.33811137985055)"><path d="M312 -175.22 C320.59 -176.42, 329.19 -177.62, 336.75 -178.68 M312 -175.22 C317.3 -175.96, 322.61 -176.7, 336.75 -178.68" stroke="#1e1e1e" stroke-width="2" fill="none"></path></g></g><mask></mask><g stroke-linecap="round"><g transform="translate(485.9764811893657 384.876271446385) rotate(0 1.2706768321992286 -89.70343096910779)"><path d="M0 0 C0.56 -39.42, 1.12 -78.85, 2.54 -179.41 M0 0 C0.85 -60, 1.7 -120, 2.54 -179.41" stroke="#1e1e1e" stroke-width="2" fill="none"></path></g><g transform="translate(485.9764811893657 384.876271446385) rotate(0 1.2706768321992286 -89.70343096910779)"><path d="M10.76 -155.8 C8.95 -160.98, 7.15 -166.17, 2.54 -179.41 M10.76 -155.8 C8.01 -163.69, 5.26 -171.59, 2.54 -179.41" stroke="#1e1e1e" stroke-width="2" fill="none"></path></g><g transform="translate(485.9764811893657 384.876271446385) rotate(0 1.2706768321992286 -89.70343096910779)"><path d="M-6.34 -156.04 C-4.39 -161.17, -2.44 -166.31, 2.54 -179.41 M-6.34 -156.04 C-3.37 -163.85, -0.4 -171.67, 2.54 -179.41" stroke="#1e1e1e" stroke-width="2" fill="none"></path></g></g><mask></mask><g stroke-linecap="round"><g transform="translate(828.5318949978072 384.48871501256417) rotate(0 -165.0037400452369 -91.53638229955521)"><path d="M0 0 C-95.15 -52.78, -190.29 -105.57, -330.01 -183.07 M0 0 C-85.61 -47.49, -171.23 -94.99, -330.01 -183.07" stroke="#1e1e1e" stroke-width="2" fill="none"></path></g><g transform="translate(828.5318949978072 384.48871501256417) rotate(0 -165.0037400452369 -91.53638229955521)"><path d="M-305.32 -179.15 C-312.44 -180.28, -319.55 -181.41, -330.01 -183.07 M-305.32 -179.15 C-311.72 -180.17, -318.13 -181.19, -330.01 -183.07" stroke="#1e1e1e" stroke-width="2" fill="none"></path></g><g transform="translate(828.5318949978072 384.48871501256417) rotate(0 -165.0037400452369 -91.53638229955521)"><path d="M-313.61 -164.2 C-318.34 -169.64, -323.07 -175.08, -330.01 -183.07 M-313.61 -164.2 C-317.87 -169.1, -322.12 -173.99, -330.01 -183.07" stroke="#1e1e1e" stroke-width="2" fill="none"></path></g></g><mask></mask></svg>