<?xml version="1.0" standalone="no"?>
<!DOCTYPE svg PUBLIC "-//W3C//DTD SVG 20010904//EN"
 "http://www.w3.org/TR/2001/REC-SVG-20010904/DTD/svg10.dtd">
<svg version="1.0" xmlns="http://www.w3.org/2000/svg"
 width="621.000000pt" height="1536.000000pt" viewBox="0 0 621.000000 1536.000000"
 preserveAspectRatio="xMidYMid meet">
<metadata>
Created by potrace 1.16, written by Peter Selinger 2001-2019
</metadata>
<g transform="translate(0.000000,1536.000000) scale(0.100000,-0.100000)"
fill="#000000" stroke="none">
<path d="M1030 15348 c0 -14 82 -123 235 -313 373 -461 515 -709 648 -1135
156 -496 268 -1070 367 -1880 37 -298 71 -515 140 -875 111 -584 135 -799 147
-1335 6 -262 -2 -409 -23 -465 -3 -7 -29 -15 -57 -19 -99 -11 -147 -34 -217
-105 -65 -66 -109 -140 -136 -229 -12 -38 -11 -49 12 -119 16 -48 29 -122 36
-202 l12 -127 -47 -101 -48 -101 -9 -212 c-5 -117 -11 -214 -13 -217 -5 -5
-535 15 -602 23 -128 14 -228 64 -259 128 -36 76 -13 514 54 1026 33 251 55
503 46 525 -11 30 -28 13 -62 -61 -20 -45 -39 -74 -47 -72 -11 4 -49 49 -225
266 -142 176 -236 339 -270 468 -16 62 -16 66 1 78 32 24 16 56 -28 56 -7 0
-27 -12 -44 -26 -23 -19 -31 -22 -31 -10 0 22 -19 30 -37 15 -48 -41 41 -268
198 -504 58 -88 116 -169 128 -179 11 -11 26 -36 31 -56 6 -21 33 -68 62 -104
l51 -67 -14 -102 c-17 -125 -17 -492 -1 -872 13 -286 34 -431 82 -560 60 -161
339 -307 728 -382 214 -40 209 -39 231 -81 11 -20 33 -50 50 -66 35 -34 38
-51 15 -104 -8 -20 -36 -111 -60 -202 -47 -170 -61 -200 -99 -200 -32 0 -211
-65 -676 -246 -292 -113 -330 -172 -425 -650 -19 -99 -57 -278 -85 -398 -28
-121 -61 -292 -74 -380 -13 -89 -35 -193 -49 -233 -32 -94 -94 -233 -114 -256
-9 -10 -58 -43 -109 -73 -86 -50 -97 -61 -153 -142 -33 -48 -80 -115 -105
-149 -49 -69 -64 -121 -46 -159 19 -42 45 -27 55 31 5 28 11 52 13 55 8 9 23
-26 23 -55 0 -41 13 -57 40 -53 20 3 24 9 25 48 1 25 9 59 18 75 8 17 23 56
32 87 16 55 23 64 217 245 110 104 222 207 249 231 l49 43 25 -27 c14 -15 30
-45 36 -68 6 -23 13 -47 15 -54 2 -8 12 -12 21 -10 16 3 18 16 19 93 1 50 9
128 17 175 20 110 24 159 42 502 8 158 20 320 26 360 16 108 79 372 91 379 6
4 30 9 54 13 25 3 83 22 130 41 47 20 170 58 272 84 103 27 234 63 291 80 67
20 108 28 114 22 14 -14 21 -456 9 -611 -19 -246 -27 -259 -492 -751 -211
-223 -374 -405 -530 -594 -160 -193 -266 -316 -457 -528 -244 -270 -342 -414
-358 -521 -4 -25 2 -172 14 -328 12 -155 26 -377 31 -492 6 -116 12 -211 14
-213 2 -2 7 13 10 34 12 64 36 143 45 143 10 0 27 -36 58 -125 21 -60 26 -97
33 -260 10 -218 8 -195 19 -195 4 0 23 32 41 71 l33 71 38 -82 c54 -115 62
-151 55 -250 -6 -83 -5 -84 12 -61 9 14 25 34 34 45 18 21 18 21 34 1 50 -63
58 -96 64 -245 l5 -145 18 39 c9 21 17 40 17 42 0 1 5 15 10 30 10 26 11 26
32 8 28 -25 68 -90 79 -128 8 -27 -1 -196 -16 -288 -9 -56 17 -26 62 72 25 55
49 100 53 100 4 0 24 -18 44 -40 29 -32 36 -48 36 -81 0 -72 -41 -122 -183
-223 -71 -51 -254 -206 -565 -480 -133 -117 -275 -266 -297 -312 -28 -60 -12
-154 28 -162 13 -3 17 4 17 32 0 43 17 89 29 81 5 -3 12 -19 16 -35 9 -39 30
-60 61 -60 28 0 29 8 10 54 -13 32 -13 35 9 54 12 11 42 45 65 76 23 30 50 58
60 61 10 3 49 33 86 66 38 34 138 111 222 171 283 203 456 344 630 513 l113
110 31 -18 c17 -10 35 -14 40 -9 4 4 -1 35 -12 68 -11 32 -20 63 -20 69 0 5
27 -21 61 -58 33 -37 65 -67 71 -67 7 0 9 19 6 51 -8 82 -111 273 -249 460
-26 36 -52 76 -58 90 -5 14 -65 117 -133 230 -152 248 -260 437 -363 629 -43
80 -91 164 -106 187 -40 57 -43 83 -25 189 21 118 48 196 93 264 42 64 291
316 378 381 59 45 267 185 580 392 88 58 223 159 300 226 105 90 142 116 148
106 4 -8 23 -62 42 -120 27 -82 40 -146 55 -283 21 -188 74 -520 114 -716 18
-85 31 -125 47 -142 20 -22 22 -30 16 -106 -4 -46 -12 -100 -17 -120 -11 -39
-29 -49 -112 -63 -21 -3 -40 -10 -43 -15 -8 -13 12 -13 75 1 28 6 54 8 57 5 3
-3 -4 -48 -16 -100 -21 -91 -49 -146 -74 -146 -17 -1 -101 -40 -96 -45 3 -2
31 2 62 9 32 7 59 11 61 7 2 -3 -4 -37 -14 -74 -16 -62 -50 -117 -71 -117 -16
0 -122 -50 -117 -55 3 -3 27 2 54 10 67 20 74 19 74 -12 0 -86 -41 -147 -127
-189 -63 -30 -52 -47 12 -20 20 9 41 14 45 11 10 -6 -12 -88 -40 -152 -16 -37
-25 -44 -82 -65 -46 -17 -57 -24 -40 -26 13 -2 37 1 54 7 17 6 34 9 37 6 7 -7
-15 -89 -39 -142 -14 -33 -30 -48 -72 -69 -35 -18 -47 -29 -36 -32 9 -2 26 2
37 7 49 27 52 5 16 -114 -28 -90 -39 -105 -102 -130 -45 -18 -61 -42 -20 -31
12 4 35 9 51 13 28 6 29 5 22 -23 -13 -51 -60 -128 -86 -140 -14 -7 -38 -18
-55 -25 -24 -10 -26 -13 -12 -17 10 -2 32 2 48 8 16 7 32 10 35 7 10 -9 -77
-167 -112 -204 l-34 -35 31 6 c30 6 31 5 24 -21 -15 -63 -34 -91 -76 -114 -50
-28 -67 -55 -23 -39 15 6 28 9 30 7 2 -1 -3 -25 -11 -52 -17 -55 -19 -95 -6
-95 5 0 42 63 81 140 39 77 76 140 83 140 7 0 18 -9 25 -20 26 -42 31 -17 6
32 l-27 52 18 53 c26 77 53 117 68 104 10 -8 13 0 13 37 0 41 47 172 61 172 2
0 16 -13 30 -30 38 -46 46 -36 16 19 l-28 49 33 101 c18 56 37 101 42 101 4 0
15 -12 25 -26 24 -36 27 -26 9 31 -8 28 -13 63 -10 79 8 36 56 146 66 146 4 0
12 -12 19 -26 18 -41 25 -21 11 36 -12 50 -11 52 29 136 22 47 45 83 50 80 5
-3 14 -27 21 -53 9 -31 15 -41 18 -29 2 10 -1 38 -7 61 -16 63 -14 104 9 171
25 73 32 79 55 54 29 -32 35 -23 18 24 -16 43 -16 47 6 93 12 26 30 59 40 72
l18 24 20 -53 20 -53 -1 84 c-1 76 2 88 29 134 l30 50 6 -100 c3 -55 22 -181
42 -280 58 -295 114 -770 147 -1240 17 -253 31 -400 40 -409 24 -25 39 101 55
459 4 77 11 179 16 227 9 86 21 365 35 791 3 120 8 216 10 215 2 -2 8 -287 14
-633 17 -965 27 -1109 63 -913 29 156 77 472 117 773 22 165 54 365 69 445 16
80 32 165 36 190 7 56 102 342 121 367 13 17 13 17 13 -2 1 -11 -8 -40 -19
-64 -11 -24 -20 -47 -20 -52 0 -19 20 -8 33 18 l14 27 20 -45 c11 -25 28 -68
37 -96 17 -50 17 -53 -3 -92 -30 -58 -26 -70 12 -33 l33 32 12 -51 c17 -71 15
-89 -13 -134 -35 -58 -30 -77 9 -30 l33 39 13 -23 c12 -23 9 -131 -5 -196 l-7
-30 21 29 20 30 10 -27 c6 -14 13 -49 17 -76 5 -41 3 -57 -15 -87 -27 -45 -21
-53 15 -25 32 25 38 20 48 -45 3 -26 0 -60 -9 -90 -20 -67 -18 -74 10 -39 28
34 34 30 58 -33 21 -53 22 -102 2 -128 -24 -32 -19 -47 11 -28 21 15 27 15 34
4 10 -17 30 -125 30 -165 0 -27 1 -28 14 -10 13 19 15 17 21 -18 4 -21 5 -62
3 -92 -4 -52 -4 -54 13 -39 16 14 19 14 33 -8 8 -12 39 -82 69 -155 30 -72 62
-142 71 -154 16 -23 16 -23 16 14 0 20 -14 101 -30 179 -38 178 -38 172 2 164
l32 -6 -36 37 c-62 66 -79 119 -33 111 34 -7 31 3 -10 31 -23 15 -38 36 -45
60 -17 61 -14 71 21 71 l32 0 -34 23 c-36 23 -74 89 -85 146 l-7 34 54 -6 54
-6 -55 25 c-63 29 -66 32 -75 93 -3 25 -9 56 -12 69 -5 23 -4 23 43 17 l49 -6
-42 20 c-47 22 -66 47 -83 110 -15 55 -4 69 40 46 17 -9 39 -15 48 -13 11 3
-6 16 -45 36 -34 17 -64 36 -68 42 -8 12 -35 143 -31 147 2 2 30 -1 62 -6 33
-5 60 -8 62 -6 2 2 -19 10 -46 19 -61 21 -88 48 -101 106 -18 79 -19 78 69 54
22 -7 24 -6 11 9 -7 9 -20 17 -28 17 -31 0 -80 64 -92 118 -13 62 -14 102 -2
120 7 11 15 11 46 -2 21 -9 40 -14 42 -12 5 5 -45 40 -69 49 -9 3 -22 24 -28
46 -12 44 -18 186 -9 195 3 4 27 -6 53 -20 26 -14 49 -24 51 -22 3 2 -20 26
-50 51 -66 57 -75 85 -75 223 l0 102 35 26 c19 15 35 33 35 40 0 8 11 38 23
67 30 69 81 248 106 374 20 95 150 531 194 650 15 38 29 61 41 63 21 4 60 -21
346 -223 118 -83 265 -185 325 -226 226 -152 420 -350 491 -499 15 -30 36 -74
47 -98 24 -51 86 -109 124 -118 76 -16 78 -18 81 -66 2 -26 -4 -75 -13 -110
-54 -208 -314 -742 -485 -998 -93 -139 -349 -618 -386 -722 -7 -21 -32 -65
-54 -99 -48 -70 -75 -127 -88 -186 -15 -65 -2 -68 62 -12 31 28 59 49 62 46 3
-3 -2 -30 -12 -61 -10 -31 -15 -59 -11 -62 4 -4 24 5 45 20 21 14 43 26 49 26
6 0 46 -32 89 -71 100 -91 232 -193 359 -279 205 -137 294 -179 448 -210 33
-7 70 -22 87 -37 27 -22 31 -23 46 -9 8 9 23 16 33 16 31 0 39 18 28 65 -9 39
-16 48 -53 65 -23 12 -83 32 -133 45 -117 32 -144 43 -254 111 -136 84 -284
211 -368 317 -39 48 -39 48 -23 85 22 54 62 112 78 112 7 0 37 -43 67 -96 59
-104 89 -141 89 -109 0 10 -16 97 -35 194 l-35 176 39 74 39 75 53 -105 c66
-128 70 -116 39 108 -20 148 -21 158 -5 199 9 24 20 46 24 49 5 2 32 -25 62
-62 29 -36 55 -60 57 -53 3 7 -8 74 -23 149 l-28 137 43 73 c23 40 46 69 50
64 5 -4 30 -44 55 -88 l47 -80 -8 150 c-11 202 -8 232 27 344 35 109 44 123
53 86 4 -14 16 -51 28 -82 28 -76 40 -51 28 58 -21 181 -12 238 85 539 47 146
58 193 65 285 5 61 14 126 19 145 25 81 4 133 -113 275 -36 44 -111 139 -165
210 -55 72 -165 204 -246 295 -81 91 -164 187 -184 213 -58 77 -139 176 -242
299 -111 131 -191 239 -349 468 -62 91 -127 181 -145 200 -49 53 -103 137
-115 178 -11 40 -23 231 -42 662 -15 348 -15 392 -3 397 16 5 170 -86 348
-204 168 -112 208 -132 272 -133 22 0 45 -4 52 -8 46 -29 96 -311 153 -867 11
-110 27 -236 35 -280 8 -44 14 -99 15 -122 0 -96 21 -95 66 3 19 41 38 73 43
70 5 -4 24 -41 41 -84 49 -117 88 -192 131 -249 76 -102 244 -369 289 -460 25
-51 54 -101 64 -112 18 -20 17 -21 -10 -45 -29 -25 -29 -25 -5 -26 31 0 139
58 152 83 16 28 3 62 -55 151 -258 391 -269 410 -430 750 -69 145 -73 160 -55
231 10 38 8 54 -14 122 -36 108 -87 301 -146 545 -27 113 -66 248 -85 300 -19
51 -40 116 -47 143 -28 114 -97 200 -219 270 -36 20 -109 69 -164 108 -145
104 -295 192 -392 228 -47 18 -89 40 -94 50 -16 29 -48 175 -56 248 -10 101
-3 108 103 116 333 24 447 43 620 100 163 54 293 130 293 171 0 8 18 70 39
137 55 168 61 213 61 426 0 376 -60 815 -135 993 -41 95 -41 110 -7 170 16 29
35 70 42 91 7 21 34 67 61 103 27 35 54 75 61 89 6 14 26 33 43 44 18 10 59
52 91 92 32 41 87 108 122 149 82 96 93 121 81 185 -12 65 -21 72 -55 46 -15
-11 -37 -21 -49 -21 -19 0 -24 -7 -30 -47 -9 -66 -39 -131 -79 -173 -19 -19
-66 -69 -105 -110 -39 -41 -120 -132 -179 -202 -100 -117 -111 -135 -151 -235
-68 -172 -111 -232 -111 -154 0 16 -7 34 -15 41 -23 19 -45 4 -45 -32 0 -43
66 -378 115 -588 48 -203 95 -575 95 -752 l0 -88 -39 -19 c-21 -11 -67 -25
-102 -31 -131 -21 -446 -8 -590 24 -79 17 -84 32 -64 193 37 312 38 326 26
385 -7 34 -24 71 -42 94 -26 32 -29 45 -29 104 0 101 19 280 34 325 23 65 26
100 15 167 -21 138 -101 244 -207 274 l-54 16 6 42 c20 121 19 133 -8 180 -14
24 -26 55 -26 67 0 49 113 752 141 879 42 191 86 340 204 705 136 417 161 507
255 895 116 482 195 750 337 1145 230 639 397 947 686 1266 104 115 276 274
527 486 206 174 260 233 214 233 -38 0 -572 -448 -730 -612 -368 -382 -633
-917 -919 -1854 -70 -228 -110 -382 -200 -769 -64 -276 -103 -409 -225 -775
-172 -512 -200 -629 -285 -1185 -66 -431 -70 -444 -182 -487 -39 -16 -81 -28
-94 -28 -13 0 -73 14 -134 32 -136 38 -225 40 -435 7 -80 -12 -157 -22 -172
-21 -15 1 -60 14 -100 30 l-73 29 -7 47 c-3 26 -14 201 -23 389 -24 511 -37
620 -139 1148 -74 380 -97 528 -151 964 -122 990 -325 1842 -542 2280 -83 167
-278 446 -496 708 -170 205 -257 288 -257 245z"/>
</g>
</svg>
