<svg version="1.1" xmlns="http://www.w3.org/2000/svg" viewBox="0 0 237.22725097949933 687.173718713917" width="474.45450195899866" height="1374.347437427834">
  <!-- svg-source:excalidraw -->
  
  <defs>
    <style class="style-fonts">
      @font-face {
        font-family: "Virgil";
        src: url("https://excalidraw.com/Virgil.woff2");
      }
      @font-face {
        font-family: "Cascadia";
        src: url("https://excalidraw.com/Cascadia.woff2");
      }
      @font-face {
        font-family: "Assistant";
        src: url("https://excalidraw.com/Assistant-Regular.woff2");
      }
    </style>
    
  </defs>
  <g transform="translate(92.6993019872591 494.13599050230874) rotate(0 13.100785219561203 89.84728667921416)" stroke="none"><path d="M1.02 1.52 C-0.69 1.98, -8.31 1.02, -11.64 2.18 C-14.98 3.34, -16.33 6.24, -18.99 8.47 C-21.66 10.69, -24.81 12.67, -27.66 15.53 C-30.51 18.39, -33.96 21.32, -36.1 25.63 C-38.24 29.93, -39.88 34.09, -40.49 41.35 C-41.1 48.61, -40.94 59.23, -39.77 69.2 C-38.6 79.16, -34.1 94.16, -33.46 101.14 C-32.83 108.11, -34.73 106.67, -35.94 111.06 C-37.14 115.44, -39.14 122.84, -40.7 127.43 C-42.26 132.02, -41.74 133.85, -45.3 138.58 C-48.86 143.32, -59.57 152.5, -62.05 155.82 C-64.52 159.14, -61.59 156.78, -60.15 158.5 C-58.7 160.21, -56.15 163.84, -53.37 166.1 C-50.58 168.35, -46.68 170.35, -43.44 172.02 C-40.2 173.68, -41.14 174.18, -33.95 176.09 C-26.76 177.99, -10.14 182.63, -0.27 183.46 C9.59 184.28, 17.97 182.04, 25.23 181.06 C32.49 180.07, 38.35 179.54, 43.29 177.54 C48.22 175.54, 52.15 171.2, 54.84 169.05 C57.53 166.9, 57.49 166.51, 59.44 164.64 C61.39 162.77, 64.42 161.57, 66.53 157.82 C68.65 154.07, 69.11 152.78, 72.13 142.13 C75.15 131.48, 82.18 105.22, 84.67 93.93 C87.15 82.64, 87.23 81.27, 87.02 74.41 C86.82 67.54, 84.8 58.85, 83.46 52.72 C82.12 46.6, 82.15 44.29, 78.98 37.63 C75.82 30.98, 68.71 18.83, 64.47 12.8 C60.22 6.77, 56.28 3.84, 53.51 1.45 C50.74 -0.94, 49.57 -0.45, 47.82 -1.54 C46.08 -2.62, 49.67 -4.91, 43.04 -5.08 C36.41 -5.26, 16.1 -3.93, 8.04 -2.59 C-0.02 -1.24, -3.98 2.51, -5.34 2.99 C-6.7 3.47, -1.06 0.62, -0.11 0.3" stroke="none" stroke-width="0" fill="#2f9e44" fill-rule="evenodd"></path><path fill="#1e1e1e" d="M 0.37,1.89 Q 0.37,1.89 -1.29,2.23 -2.95,2.57 -4.03,2.94 -5.11,3.30 -7.43,4.34 -9.74,5.38 -11.43,6.23 -13.11,7.07 -14.86,8.10 -16.61,9.12 -18.41,10.41 -20.22,11.70 -21.87,13.07 -23.53,14.44 -24.67,15.60 -25.82,16.77 -26.94,18.06 -28.07,19.35 -29.28,20.83 -30.50,22.30 -31.26,23.52 -32.02,24.74 -32.52,25.86 -33.01,26.97 -33.40,28.07 -33.79,29.16 -34.09,30.27 -34.40,31.37 -34.83,33.10 -35.27,34.83 -35.73,37.23 -36.19,39.64 -36.47,42.56 -36.74,45.49 -36.89,48.65 -37.03,51.82 -37.11,54.53 -37.19,57.24 -37.23,59.44 -37.28,61.63 -37.29,63.66 -37.29,65.69 -37.29,67.84 -37.29,70.00 -37.20,72.16 -37.10,74.33 -36.90,76.36 -36.70,78.39 -36.44,80.40 -36.19,82.41 -35.91,84.39 -35.63,86.37 -35.31,88.17 -34.99,89.97 -34.67,91.73 -34.35,93.49 -34.06,95.07 -33.78,96.65 -33.58,98.22 -33.38,99.78 -33.28,101.52 -33.18,103.26 -33.16,105.09 -33.13,106.93 -33.23,108.85 -33.32,110.77 -33.74,112.86 -34.15,114.95 -34.92,117.14 -35.68,119.32 -36.67,121.54 -37.67,123.76 -38.85,125.96 -40.03,128.16 -41.23,130.14 -42.42,132.12 -43.55,133.90 -44.69,135.68 -46.06,137.54 -47.42,139.41 -48.73,141.10 -50.04,142.79 -51.17,144.23 -52.31,145.67 -53.33,146.94 -54.35,148.22 -55.16,149.31 -55.97,150.40 -56.63,151.30 -57.29,152.19 -58.00,153.36 -58.71,154.53 -58.74,155.66 -58.78,156.78 -58.22,157.73 -57.67,158.68 -56.52,159.85 -55.36,161.01 -54.50,161.77 -53.63,162.52 -52.50,163.36 -51.38,164.20 -49.97,165.21 -48.55,166.21 -47.17,167.04 -45.79,167.87 -44.40,168.57 -43.02,169.26 -41.58,169.92 -40.13,170.58 -38.75,171.13 -37.37,171.67 -36.30,171.99 -35.24,172.30 -34.09,172.58 -32.95,172.87 -31.65,173.18 -30.35,173.50 -29.19,173.75 -28.02,174.01 -26.88,174.24 -25.74,174.48 -24.37,174.77 -23.01,175.07 -21.41,175.48 -19.80,175.88 -18.13,176.34 -16.46,176.80 -14.33,177.46 -12.19,178.11 -9.80,178.70 -7.42,179.28 -5.25,179.73 -3.09,180.18 -1.03,180.51 1.01,180.84 3.08,181.03 5.15,181.23 7.24,181.33 9.33,181.44 10.98,181.40 12.64,181.36 14.80,181.38 16.95,181.39 19.88,181.21 22.81,181.03 25.34,180.60 27.87,180.18 31.17,179.20 34.48,178.22 36.77,177.43 39.06,176.64 40.96,175.86 42.86,175.08 44.66,174.15 46.46,173.22 48.02,172.24 49.58,171.25 50.92,170.18 52.26,169.11 53.63,167.88 54.99,166.64 56.33,165.21 57.67,163.78 58.88,162.24 60.09,160.71 61.07,159.16 62.05,157.61 63.11,155.82 64.17,154.03 65.13,152.06 66.08,150.09 66.93,148.07 67.77,146.05 68.50,143.97 69.23,141.89 70.02,139.41 70.81,136.93 71.62,134.48 72.43,132.03 73.18,129.73 73.93,127.43 74.67,125.10 75.41,122.77 76.23,120.32 77.06,117.87 77.94,115.31 78.82,112.75 79.61,110.28 80.40,107.81 81.16,105.47 81.91,103.12 82.59,100.89 83.28,98.66 83.82,96.43 84.36,94.20 84.75,91.89 85.15,89.58 85.46,87.21 85.76,84.85 85.93,82.74 86.10,80.62 86.14,78.50 86.18,76.38 85.98,74.05 85.77,71.72 85.27,69.35 84.77,66.99 84.09,64.51 83.41,62.02 82.66,59.56 81.92,57.10 81.09,54.76 80.27,52.42 79.47,50.22 78.67,48.03 77.75,45.84 76.82,43.65 75.86,41.49 74.89,39.33 73.98,37.38 73.07,35.43 72.15,33.58 71.22,31.74 70.33,30.02 69.44,28.31 68.63,26.69 67.83,25.08 67.10,23.62 66.37,22.17 65.65,20.89 64.94,19.60 64.28,18.45 63.63,17.30 62.88,16.09 62.12,14.87 61.16,13.51 60.20,12.15 59.05,10.70 57.90,9.25 56.70,8.03 55.51,6.80 54.31,5.82 53.12,4.84 51.98,4.05 50.85,3.26 49.61,2.49 48.36,1.73 47.03,1.06 45.70,0.39 44.62,0.05 43.53,-0.28 41.99,-0.49 40.45,-0.69 39.23,-0.65 38.01,-0.61 36.24,-0.53 34.47,-0.45 33.32,-0.45 32.16,-0.45 30.85,-0.47 29.53,-0.49 27.67,-0.57 25.81,-0.64 23.87,-0.69 21.92,-0.74 20.42,-0.70 18.92,-0.67 17.75,-0.61 16.58,-0.56 15.10,-0.45 13.62,-0.34 12.22,-0.23 10.82,-0.13 9.64,-0.05 8.45,0.02 7.26,0.12 6.06,0.23 4.90,0.59 3.73,0.94 2.46,1.30 1.20,1.66 -0.00,2.07 -1.21,2.48 -2.35,2.97 -3.50,3.46 -3.71,3.56 -3.93,3.66 -4.32,3.76 -4.72,3.85 -5.13,3.85 -5.54,3.85 -5.94,3.76 -6.34,3.66 -6.71,3.47 -7.07,3.27 -7.38,3.00 -7.68,2.73 -7.92,2.39 -8.15,2.05 -8.30,1.67 -8.44,1.28 -8.49,0.88 -8.54,0.47 -8.49,0.06 -8.44,-0.34 -8.29,-0.72 -8.15,-1.11 -7.91,-1.44 -7.68,-1.78 -7.37,-2.05 -7.06,-2.33 -6.70,-2.52 -6.34,-2.71 -3.30,-2.80 -0.26,-2.90 0.20,-2.86 0.67,-2.83 1.10,-2.65 1.54,-2.47 1.89,-2.16 2.25,-1.85 2.48,-1.44 2.72,-1.03 2.81,-0.57 2.91,-0.11 2.85,0.35 2.79,0.82 2.59,1.24 2.38,1.67 2.05,2.01 1.72,2.34 1.30,2.56 0.88,2.77 0.42,2.84 -0.04,2.91 -0.51,2.83 -0.97,2.74 -1.38,2.51 -1.80,2.29 -2.11,1.94 -2.43,1.59 -2.62,1.16 -2.82,0.73 -2.86,0.26 -2.90,-0.20 -2.79,-0.66 -2.69,-1.12 -2.44,-1.52 -2.19,-1.92 -1.82,-2.22 -1.46,-2.52 -1.02,-2.68 -0.58,-2.85 -0.10,-2.87 0.36,-2.89 0.81,-2.75 1.26,-2.62 1.65,-2.35 2.03,-2.08 2.31,-1.70 2.59,-1.32 2.74,-0.87 2.88,-0.42 2.87,0.04 2.86,0.51 2.71,0.96 2.55,1.40 2.26,1.77 1.97,2.14 1.57,2.40 1.18,2.66 0.72,2.78 0.26,2.90 0.26,2.90 0.26,2.90 -1.83,3.28 -3.93,3.66 -4.32,3.76 -4.72,3.85 -5.13,3.85 -5.54,3.85 -5.94,3.76 -6.34,3.66 -6.71,3.47 -7.07,3.27 -7.38,3.00 -7.68,2.73 -7.92,2.39 -8.15,2.05 -8.30,1.67 -8.44,1.28 -8.49,0.88 -8.54,0.47 -8.49,0.06 -8.44,-0.34 -8.29,-0.72 -8.15,-1.11 -7.91,-1.44 -7.68,-1.78 -7.37,-2.05 -7.06,-2.33 -6.70,-2.52 -6.34,-2.71 -5.43,-3.04 -4.53,-3.37 -3.27,-3.81 -2.01,-4.24 -0.55,-4.66 0.90,-5.07 2.04,-5.33 3.18,-5.60 4.27,-5.82 5.35,-6.04 6.90,-6.01 8.45,-5.98 9.64,-5.90 10.82,-5.83 12.21,-5.72 13.60,-5.62 15.05,-5.54 16.50,-5.45 17.67,-5.43 18.83,-5.41 20.29,-5.43 21.76,-5.46 23.71,-5.64 25.67,-5.83 27.60,-6.01 29.53,-6.19 30.85,-6.21 32.17,-6.23 33.32,-6.23 34.48,-6.23 35.92,-6.16 37.37,-6.10 38.62,-5.96 39.87,-5.81 41.40,-5.50 42.94,-5.19 44.01,-4.84 45.08,-4.48 46.37,-3.94 47.66,-3.40 49.15,-2.62 50.64,-1.83 51.99,-0.94 53.33,-0.04 54.51,0.89 55.68,1.83 56.97,2.97 58.27,4.11 59.57,5.44 60.88,6.78 62.18,8.29 63.49,9.80 64.58,11.31 65.67,12.82 66.40,14.19 67.14,15.56 67.66,16.78 68.19,18.00 68.80,19.40 69.41,20.80 70.01,22.30 70.61,23.80 71.30,25.43 71.98,27.06 72.80,28.81 73.62,30.55 74.54,32.44 75.45,34.32 76.37,36.29 77.29,38.26 78.27,40.44 79.24,42.63 80.19,44.88 81.14,47.13 81.94,49.34 82.75,51.55 83.59,53.95 84.43,56.34 85.19,58.84 85.94,61.33 86.64,63.89 87.34,66.45 87.86,68.97 88.39,71.49 88.60,73.96 88.81,76.43 88.77,78.64 88.72,80.84 88.54,83.01 88.37,85.18 88.06,87.60 87.75,90.03 87.33,92.42 86.92,94.82 86.36,97.13 85.80,99.43 85.11,101.68 84.42,103.93 83.67,106.27 82.92,108.62 82.12,111.11 81.32,113.60 80.45,116.16 79.58,118.72 78.77,121.15 77.95,123.57 77.22,125.92 76.49,128.26 75.74,130.56 75.00,132.87 74.21,135.31 73.42,137.74 72.64,140.27 71.86,142.80 71.13,144.96 70.40,147.12 69.56,149.23 68.72,151.33 67.76,153.43 66.80,155.53 65.76,157.44 64.71,159.34 63.62,160.98 62.53,162.61 61.25,164.26 59.97,165.92 58.54,167.47 57.12,169.03 55.63,170.33 54.14,171.63 52.61,172.70 51.09,173.76 49.40,174.72 47.72,175.68 45.81,176.65 43.91,177.62 41.94,178.43 39.97,179.24 37.63,180.07 35.28,180.90 31.82,181.95 28.36,183.00 25.69,183.49 23.03,183.97 20.01,184.22 16.99,184.47 14.78,184.54 12.58,184.61 10.90,184.51 9.22,184.41 7.07,184.36 4.92,184.31 2.75,184.20 0.58,184.08 -1.54,183.85 -3.67,183.62 -5.92,183.31 -8.17,183.01 -10.67,182.62 -13.17,182.22 -15.39,181.84 -17.61,181.46 -19.25,181.10 -20.89,180.75 -22.48,180.43 -24.08,180.12 -25.48,179.84 -26.88,179.55 -28.05,179.26 -29.21,178.98 -30.39,178.67 -31.57,178.36 -32.91,178.02 -34.25,177.67 -35.52,177.30 -36.79,176.92 -37.94,176.49 -39.09,176.06 -40.56,175.49 -42.04,174.92 -43.57,174.27 -45.11,173.63 -46.65,172.92 -48.20,172.21 -49.76,171.41 -51.32,170.60 -52.94,169.69 -54.56,168.78 -55.98,167.86 -57.39,166.94 -58.42,166.07 -59.45,165.21 -60.33,164.33 -61.22,163.45 -61.88,162.61 -62.53,161.76 -63.33,159.81 -64.14,157.86 -64.00,156.24 -63.86,154.61 -63.13,153.22 -62.39,151.83 -61.35,150.71 -60.31,149.59 -59.53,148.82 -58.74,148.04 -57.78,147.05 -56.82,146.05 -55.71,144.89 -54.60,143.74 -53.41,142.43 -52.22,141.12 -50.95,139.44 -49.68,137.77 -48.39,135.96 -47.10,134.16 -46.00,132.40 -44.90,130.65 -43.79,128.72 -42.68,126.78 -41.61,124.66 -40.54,122.54 -39.68,120.42 -38.83,118.30 -38.24,116.31 -37.65,114.31 -37.35,112.46 -37.05,110.60 -36.99,108.80 -36.92,107.00 -36.96,105.21 -36.99,103.42 -37.04,101.77 -37.09,100.11 -37.16,98.62 -37.24,97.14 -37.39,95.56 -37.55,93.99 -37.79,92.21 -38.02,90.43 -38.26,88.59 -38.49,86.76 -38.75,84.76 -39.01,82.75 -39.25,80.71 -39.49,78.66 -39.69,76.57 -39.90,74.47 -40.03,72.25 -40.16,70.03 -40.21,67.85 -40.25,65.68 -40.25,63.64 -40.24,61.61 -40.25,59.41 -40.27,57.20 -40.27,54.46 -40.28,51.73 -40.25,48.49 -40.22,45.26 -40.08,42.17 -39.95,39.08 -39.67,36.50 -39.39,33.93 -39.02,31.95 -38.64,29.98 -38.18,28.75 -37.71,27.52 -37.13,26.31 -36.55,25.11 -35.82,23.88 -35.08,22.64 -34.14,21.38 -33.19,20.13 -31.95,18.56 -30.70,16.99 -29.45,15.63 -28.20,14.27 -26.93,13.14 -25.65,12.00 -23.99,10.48 -22.32,8.95 -20.49,7.45 -18.66,5.96 -16.88,4.70 -15.11,3.44 -13.36,2.40 -11.62,1.35 -10.07,0.64 -8.52,-0.07 -7.35,-0.41 -6.19,-0.74 -4.95,-0.99 -3.72,-1.25 -2.04,-1.57 -0.37,-1.89 -0.14,-1.90 0.08,-1.92 0.31,-1.88 0.54,-1.84 0.75,-1.75 0.97,-1.66 1.15,-1.52 1.34,-1.38 1.48,-1.20 1.63,-1.02 1.73,-0.81 1.83,-0.60 1.87,-0.37 1.92,-0.14 1.91,0.08 1.90,0.31 1.83,0.54 1.76,0.76 1.65,0.96 1.53,1.16 1.37,1.33 1.21,1.49 1.01,1.62 0.81,1.74 0.59,1.81 0.37,1.89 0.37,1.89 L 0.37,1.89 Z"></path></g><g stroke-linecap="round"><g transform="translate(116.62078219893851 470.74910356512765) rotate(0 -1.0695545452375654 -28.27340165664333)"><path d="M0 0 C-0.36 -9.42, -1.78 -47.12, -2.14 -56.55 M0 0 C-0.36 -9.42, -1.78 -47.12, -2.14 -56.55" stroke="#1e1e1e" stroke-width="4" fill="none"></path></g><g transform="translate(116.62078219893851 470.74910356512765) rotate(0 -1.0695545452375654 -28.27340165664333)"><path d="M7.29 -33.39 C4.81 -39.49, 2.33 -45.58, -2.14 -56.55 M7.29 -33.39 C4.26 -40.83, 1.23 -48.27, -2.14 -56.55" stroke="#1e1e1e" stroke-width="4" fill="none"></path></g><g transform="translate(116.62078219893851 470.74910356512765) rotate(0 -1.0695545452375654 -28.27340165664333)"><path d="M-9.8 -32.75 C-7.78 -39.01, -5.76 -45.28, -2.14 -56.55 M-9.8 -32.75 C-7.34 -40.4, -4.87 -48.04, -2.14 -56.55" stroke="#1e1e1e" stroke-width="4" fill="none"></path></g></g><mask></mask><g stroke-linecap="round"><g transform="translate(117.4402020694306 234.05621427307864) rotate(0 0.03125922661797631 -26.699547428608867)"><path d="M0 0 C0.01 -8.9, 0.05 -44.5, 0.06 -53.4 M0 0 C0.01 -8.9, 0.05 -44.5, 0.06 -53.4" stroke="#1e1e1e" stroke-width="4" fill="none"></path></g><g transform="translate(117.4402020694306 234.05621427307864) rotate(0 0.03125922661797631 -26.699547428608867)"><path d="M8.59 -29.9 C6.87 -34.62, 5.16 -39.34, 0.06 -53.4 M8.59 -29.9 C6.86 -34.66, 5.13 -39.43, 0.06 -53.4" stroke="#1e1e1e" stroke-width="4" fill="none"></path></g><g transform="translate(117.4402020694306 234.05621427307864) rotate(0 0.03125922661797631 -26.699547428608867)"><path d="M-8.52 -29.92 C-6.79 -34.64, -5.07 -39.36, 0.06 -53.4 M-8.52 -29.92 C-6.78 -34.68, -5.04 -39.44, 0.06 -53.4" stroke="#1e1e1e" stroke-width="4" fill="none"></path></g></g><mask></mask><g transform="translate(72.97185287675006 261.29500570206596) rotate(0 6.680038591460914 53.135263951534625)" stroke="none"><path d="M0 0 C-1.45 0.06, -6.14 -0.11, -8.69 0.38 C-11.23 0.86, -13.03 1.7, -15.28 2.92 C-17.54 4.14, -20.12 5.85, -22.22 7.69 C-24.33 9.53, -25.96 10.75, -27.91 13.97 C-29.86 17.19, -32.32 22.87, -33.92 26.99 C-35.52 31.11, -36.68 35.42, -37.53 38.69 C-38.38 41.96, -38.85 43.36, -39.04 46.62 C-39.24 49.88, -39.07 55.62, -38.7 58.23 C-38.32 60.84, -38.11 60.5, -36.8 62.28 C-35.5 64.05, -34.31 66.01, -30.89 68.89 C-27.47 71.77, -20.97 75.62, -16.29 79.58 C-11.6 83.53, -7.94 88.68, -2.79 92.62 C2.35 96.55, 10.6 100.95, 14.6 103.18 C18.61 105.41, 19.47 105.52, 21.24 106.01 C23.01 106.51, 23.03 107.95, 25.23 106.17 C27.43 104.4, 32.78 97.79, 34.46 95.37 C36.15 92.95, 34.24 94.05, 35.35 91.64 C36.45 89.24, 38.54 83.85, 41.09 80.95 C43.63 78.05, 48.73 77.6, 50.62 74.24 C52.51 70.88, 52.59 64.07, 52.43 60.81 C52.27 57.54, 50.14 57.9, 49.65 54.63 C49.15 51.35, 50.03 44.06, 49.46 41.16 C48.89 38.25, 48.47 39.04, 46.22 37.19 C43.98 35.34, 39.19 32.65, 35.99 30.06 C32.79 27.48, 29.43 24.3, 27.03 21.69 C24.63 19.08, 24.25 16.83, 21.59 14.4 C18.93 11.97, 13.81 8.61, 11.07 7.1 C8.32 5.59, 6.96 6.52, 5.12 5.34 C3.27 4.15, 0.85 0.89, 0 0" stroke="none" stroke-width="0" fill="#2f9e44" fill-rule="evenodd"></path><path fill="#1e1e1e" d="M 0,2.49 Q 0,2.49 -1.29,2.50 -2.59,2.52 -3.72,2.55 -4.85,2.58 -6.76,2.90 -8.68,3.23 -10.58,3.96 -12.48,4.69 -13.63,5.27 -14.78,5.85 -15.91,6.53 -17.03,7.21 -18.04,7.94 -19.06,8.67 -19.97,9.43 -20.88,10.20 -21.71,10.98 -22.54,11.76 -23.69,13.17 -24.85,14.58 -25.81,16.11 -26.76,17.65 -27.60,19.46 -28.44,21.28 -28.94,22.43 -29.44,23.57 -29.99,24.84 -30.54,26.11 -31.13,27.49 -31.71,28.87 -32.24,30.28 -32.77,31.69 -33.24,33.14 -33.72,34.58 -34.11,35.95 -34.51,37.32 -34.86,38.68 -35.21,40.04 -35.52,41.38 -35.83,42.71 -36.02,43.92 -36.21,45.13 -36.27,46.24 -36.34,47.35 -36.36,48.48 -36.38,49.60 -36.38,50.75 -36.37,51.89 -36.35,53.02 -36.33,54.15 -36.22,55.21 -36.12,56.28 -35.51,57.97 -34.89,59.67 -33.66,61.41 -32.43,63.16 -31.47,64.26 -30.52,65.36 -29.39,66.53 -28.26,67.70 -27.20,68.62 -26.14,69.53 -25.11,70.31 -24.08,71.08 -22.85,72.00 -21.61,72.92 -20.19,73.97 -18.78,75.02 -17.67,75.75 -16.55,76.48 -15.39,77.28 -14.22,78.07 -13.43,78.88 -12.65,79.68 -11.83,80.54 -11.02,81.39 -9.82,82.42 -8.62,83.46 -7.74,84.26 -6.86,85.07 -5.88,85.95 -4.90,86.84 -4.03,87.61 -3.16,88.38 -1.90,89.39 -0.65,90.40 0.44,91.17 1.55,91.94 2.48,92.52 3.41,93.11 4.39,93.71 5.37,94.31 6.53,94.99 7.69,95.67 9.08,96.45 10.47,97.23 11.94,98.05 13.41,98.86 14.99,99.68 16.57,100.49 18.02,101.14 19.46,101.79 20.54,102.20 21.62,102.62 22.91,102.73 24.21,102.84 25.03,101.73 25.85,100.62 26.66,99.59 27.46,98.57 28.43,97.41 29.39,96.25 30.24,95.14 31.10,94.02 31.44,92.62 31.78,91.23 32.37,89.96 32.96,88.70 33.76,87.32 34.56,85.93 35.36,84.42 36.16,82.91 36.85,81.55 37.55,80.20 38.46,78.96 39.37,77.73 40.53,76.76 41.69,75.79 42.96,75.00 44.24,74.21 45.39,73.54 46.53,72.87 47.11,71.83 47.69,70.80 48.01,69.64 48.33,68.48 48.49,67.12 48.66,65.77 48.68,64.63 48.71,63.49 48.70,62.38 48.69,61.28 47.99,60.42 47.28,59.57 46.88,58.28 46.47,57.00 46.16,55.83 45.86,54.67 45.83,53.45 45.80,52.23 45.80,51.10 45.80,49.97 45.81,48.59 45.82,47.21 45.82,46.07 45.83,44.94 45.82,43.74 45.82,42.54 45.00,41.53 44.18,40.52 43.27,39.73 42.37,38.94 41.19,38.18 40.00,37.43 38.43,36.37 36.85,35.31 35.98,34.60 35.10,33.89 34.19,33.04 33.29,32.18 32.05,30.93 30.82,29.67 29.93,28.86 29.04,28.05 28.12,27.19 27.20,26.32 26.23,25.56 25.26,24.81 24.31,23.91 23.35,23.02 22.45,21.94 21.55,20.86 20.79,19.61 20.03,18.36 19.18,17.43 18.34,16.49 17.18,15.82 16.02,15.14 15.01,14.60 14.00,14.06 12.75,13.21 11.50,12.36 10.65,11.62 9.80,10.89 8.84,10.38 7.88,9.87 6.60,9.57 5.32,9.28 4.27,8.88 3.22,8.49 2.15,7.52 1.08,6.55 -0.26,4.97 -1.61,3.39 -2.11,3.04 -2.61,2.69 -2.97,2.21 -3.34,1.72 -3.52,1.14 -3.71,0.56 -3.70,-0.04 -3.70,-0.65 -3.50,-1.22 -3.30,-1.79 -2.92,-2.27 -2.55,-2.75 -2.04,-3.09 -1.53,-3.42 -0.95,-3.58 -0.36,-3.74 0.24,-3.70 0.85,-3.66 1.41,-3.42 1.97,-3.19 2.43,-2.79 2.89,-2.39 3.19,-1.87 3.50,-1.35 3.63,-0.75 3.75,-0.16 3.68,0.44 3.60,1.04 3.34,1.59 3.08,2.14 2.66,2.58 2.23,3.01 1.69,3.29 1.15,3.57 0.55,3.66 -0.04,3.75 -0.64,3.65 -1.24,3.54 -1.77,3.25 -2.30,2.96 -2.72,2.51 -3.13,2.07 -3.38,1.51 -3.63,0.96 -3.69,0.35 -3.75,-0.24 -3.61,-0.83 -3.47,-1.43 -3.15,-1.94 -2.83,-2.46 -2.36,-2.85 -1.89,-3.24 -1.33,-3.46 -0.76,-3.67 -0.15,-3.70 0.45,-3.73 1.03,-3.56 1.61,-3.39 1.61,-3.39 1.61,-3.39 3.46,-1.69 5.31,0.00 5.90,0.93 6.49,1.86 7.56,2.17 8.64,2.49 10.09,2.94 11.54,3.40 12.77,4.09 14.01,4.78 14.89,5.57 15.77,6.36 16.65,6.98 17.52,7.60 18.70,8.25 19.88,8.90 20.86,9.51 21.84,10.12 22.84,10.86 23.84,11.60 24.70,12.54 25.55,13.48 26.16,14.60 26.76,15.71 27.39,16.63 28.02,17.54 28.80,18.34 29.59,19.13 30.41,19.85 31.24,20.57 32.03,21.32 32.81,22.07 33.74,22.92 34.66,23.77 35.73,24.79 36.79,25.82 38.11,26.99 39.43,28.16 40.78,29.10 42.12,30.04 43.46,30.86 44.80,31.67 45.90,32.39 47.01,33.10 48.31,34.17 49.61,35.24 50.77,36.53 51.93,37.82 52.46,38.86 53.00,39.89 53.22,41.44 53.43,42.98 53.43,44.31 53.43,45.64 53.44,46.86 53.44,48.09 53.45,49.39 53.46,50.70 53.37,52.08 53.28,53.45 53.57,54.63 53.86,55.81 54.40,56.88 54.93,57.95 55.45,58.91 55.96,59.87 56.05,61.20 56.13,62.53 56.10,63.73 56.08,64.94 55.94,66.33 55.81,67.73 55.69,68.80 55.57,69.86 55.12,71.51 54.68,73.16 54.29,74.39 53.89,75.61 53.14,76.61 52.39,77.61 51.20,78.38 50.00,79.14 48.91,79.76 47.82,80.37 46.51,81.09 45.21,81.81 44.40,82.68 43.59,83.55 42.95,84.84 42.30,86.13 41.56,87.63 40.83,89.12 39.99,90.68 39.16,92.25 38.74,93.48 38.32,94.71 37.88,95.82 37.44,96.93 36.63,98.11 35.81,99.30 34.83,100.60 33.84,101.91 32.99,102.94 32.14,103.96 31.27,105.05 30.40,106.14 29.63,106.89 28.85,107.63 27.78,108.39 26.70,109.14 25.38,109.41 24.06,109.67 22.82,109.55 21.58,109.43 20.44,109.12 19.29,108.81 18.07,108.29 16.85,107.77 15.26,107.05 13.68,106.32 11.95,105.46 10.23,104.60 8.74,103.77 7.26,102.95 5.82,102.13 4.38,101.31 3.11,100.52 1.84,99.73 0.91,99.08 -0.02,98.43 -1.11,97.64 -2.21,96.85 -3.32,95.97 -4.43,95.08 -5.73,93.93 -7.03,92.78 -7.88,92.04 -8.72,91.30 -9.78,90.43 -10.84,89.57 -11.83,88.72 -12.82,87.88 -13.76,86.95 -14.69,86.03 -15.38,85.18 -16.07,84.34 -16.80,83.19 -17.53,82.05 -18.40,81.24 -19.26,80.43 -20.35,79.65 -21.43,78.88 -22.96,77.90 -24.48,76.93 -25.82,76.01 -27.15,75.09 -28.27,74.22 -29.38,73.36 -30.57,72.36 -31.77,71.36 -33.10,70.16 -34.43,68.97 -35.63,67.74 -36.84,66.51 -37.69,65.38 -38.55,64.26 -39.27,63.05 -39.99,61.85 -40.49,60.60 -40.98,59.35 -41.26,58.04 -41.54,56.73 -41.63,55.46 -41.72,54.18 -41.71,53.00 -41.70,51.81 -41.66,50.61 -41.62,49.42 -41.56,48.17 -41.49,46.93 -41.36,45.61 -41.23,44.29 -40.99,42.93 -40.75,41.57 -40.42,40.18 -40.10,38.79 -39.74,37.37 -39.38,35.94 -38.99,34.53 -38.60,33.11 -38.17,31.55 -37.74,29.98 -37.25,28.44 -36.76,26.89 -36.24,25.45 -35.72,24.00 -35.21,22.66 -34.70,21.32 -34.21,20.15 -33.72,18.98 -33.21,17.82 -32.71,16.67 -31.59,14.76 -30.47,12.85 -29.84,11.99 -29.21,11.13 -28.52,10.30 -27.82,9.47 -27.00,8.64 -26.17,7.81 -25.22,6.95 -24.27,6.09 -23.22,5.23 -22.16,4.37 -20.99,3.53 -19.83,2.68 -18.54,1.88 -17.26,1.07 -15.93,0.37 -14.61,-0.33 -13.29,-0.88 -11.97,-1.43 -10.79,-1.74 -9.61,-2.06 -8.46,-2.23 -7.31,-2.40 -6.08,-2.49 -4.85,-2.58 -3.72,-2.55 -2.59,-2.52 -1.29,-2.50 0,-2.49 0.29,-2.45 0.59,-2.41 0.87,-2.31 1.15,-2.20 1.40,-2.03 1.65,-1.86 1.85,-1.64 2.05,-1.41 2.19,-1.14 2.32,-0.88 2.40,-0.59 2.47,-0.30 2.47,0.00 2.47,0.30 2.40,0.59 2.32,0.88 2.18,1.14 2.05,1.41 1.85,1.64 1.65,1.86 1.40,2.03 1.15,2.20 0.87,2.31 0.59,2.41 0.29,2.45 -0.00,2.49 -0.00,2.49 L 0,2.49 Z"></path></g><g transform="translate(108.8256668918051 286.9983441340671) rotate(0 44.73769061964839 40.68368970080681)" stroke="none"><path d="M0 0 C0.47 -0.71, 1.17 -2.53, 2.79 -4.27 C4.41 -6, 5.67 -7.75, 9.72 -10.43 C13.78 -13.11, 18.8 -17.61, 27.13 -20.36 C35.46 -23.12, 52.5 -25.86, 59.7 -26.97 C66.9 -28.09, 66.27 -28.94, 70.33 -27.06 C74.39 -25.19, 81.18 -18.38, 84.05 -15.69 C86.93 -13.01, 86.68 -12.76, 87.58 -10.93 C88.48 -9.1, 89.15 -6.8, 89.44 -4.72 C89.72 -2.64, 90.76 -4.02, 89.3 1.55 C87.85 7.11, 83.54 21.21, 80.69 28.68 C77.85 36.15, 74.56 39.81, 72.23 46.38 C69.91 52.95, 67.63 60.52, 66.74 68.1 C65.85 75.68, 67.88 85.82, 66.9 91.88 C65.91 97.94, 63.46 101.71, 60.84 104.48 C58.22 107.26, 53.66 107.96, 51.19 108.55 C48.71 109.14, 47.71 108.79, 45.99 108.03 C44.26 107.28, 43.08 106.37, 40.84 104.05 C38.61 101.73, 35.87 97.05, 32.57 94.12 C29.27 91.18, 23.72 88.67, 21.03 86.42 C18.35 84.18, 18.06 83.36, 16.48 80.66 C14.9 77.97, 12.55 74.54, 11.55 70.27 C10.55 66, 10.44 58.31, 10.46 55.04 C10.49 51.76, 10.67 52.67, 11.72 50.64 C12.77 48.61, 15.6 45.46, 16.76 42.87 C17.92 40.27, 18.35 37.61, 18.67 35.06 C19 32.51, 19.02 29.62, 18.69 27.56 C18.36 25.49, 17.04 25.2, 16.71 22.65 C16.37 20.09, 18.62 16.25, 16.69 12.22 C14.76 8.19, 7.93 0.49, 5.15 -1.54 C2.37 -3.58, 0.86 -0.26, 0 0" stroke="none" stroke-width="0" fill="#f08c00" fill-rule="evenodd"></path><path fill="#1e1e1e" d="M -1.57,-1.28 Q -1.57,-1.28 0.35,-3.49 2.27,-5.71 4.12,-7.42 5.97,-9.14 7.83,-10.56 9.69,-11.99 11.48,-13.23 13.28,-14.48 14.83,-15.53 16.37,-16.59 17.53,-17.38 18.69,-18.16 20.02,-18.92 21.36,-19.67 22.77,-20.40 24.18,-21.12 25.51,-21.72 26.84,-22.31 28.17,-22.79 29.49,-23.26 30.65,-23.65 31.81,-24.03 32.95,-24.33 34.08,-24.64 36.23,-25.12 38.37,-25.60 39.75,-25.85 41.13,-26.10 42.34,-26.33 43.54,-26.56 44.81,-26.81 46.09,-27.06 47.40,-27.33 48.71,-27.59 49.83,-27.86 50.96,-28.12 53.03,-28.58 55.10,-29.04 56.31,-29.23 57.53,-29.42 58.64,-29.57 59.75,-29.72 61.67,-29.87 63.59,-30.02 65.32,-30.08 67.05,-30.14 68.16,-30.19 69.27,-30.24 70.49,-29.98 71.70,-29.72 73.10,-28.79 74.50,-27.85 76.02,-26.62 77.55,-25.38 78.45,-24.58 79.35,-23.78 80.59,-22.82 81.84,-21.86 82.80,-21.05 83.77,-20.25 85.34,-18.67 86.92,-17.09 87.65,-16.16 88.38,-15.23 89.42,-13.63 90.46,-12.03 90.94,-10.78 91.42,-9.53 91.74,-8.29 92.05,-7.05 92.21,-5.88 92.36,-4.72 92.42,-3.59 92.49,-2.46 92.45,-1.23 92.42,-0.01 92.20,1.34 91.98,2.70 91.56,4.12 91.15,5.53 90.79,6.74 90.42,7.94 90.09,9.06 89.76,10.18 89.33,11.49 88.90,12.80 88.41,14.20 87.92,15.61 87.44,16.99 86.96,18.36 86.45,19.77 85.93,21.19 85.51,22.40 85.09,23.61 84.46,25.76 83.82,27.91 83.42,28.99 83.02,30.07 82.56,31.12 82.10,32.18 81.52,33.25 80.95,34.33 80.38,35.35 79.80,36.36 79.22,37.41 78.63,38.47 78.02,39.58 77.40,40.69 76.69,42.46 75.97,44.24 75.45,45.99 74.93,47.73 74.46,49.53 73.98,51.33 73.48,53.29 72.98,55.26 72.71,56.33 72.43,57.41 72.16,58.52 71.89,59.62 71.64,60.69 71.38,61.75 70.87,63.74 70.36,65.73 70.07,67.37 69.77,69.00 69.65,70.38 69.53,71.75 69.41,73.02 69.30,74.30 69.39,75.63 69.48,76.96 69.68,78.17 69.87,79.38 70.06,81.03 70.25,82.68 70.33,84.08 70.41,85.49 70.45,86.60 70.49,87.71 70.52,88.80 70.56,89.88 70.12,91.92 69.68,93.96 68.99,95.30 68.29,96.63 67.60,98.03 66.90,99.43 66.47,100.48 66.03,101.53 65.60,102.62 65.17,103.72 64.64,104.77 64.11,105.83 63.12,106.64 62.14,107.45 61.08,107.98 60.03,108.50 58.69,109.02 57.35,109.55 56.26,109.99 55.16,110.44 54.03,111.01 52.90,111.59 51.51,111.81 50.12,112.04 48.85,112.03 47.58,112.03 45.75,111.40 43.92,110.77 42.42,109.75 40.92,108.73 39.56,107.46 38.21,106.18 37.06,104.73 35.91,103.27 34.98,102.01 34.05,100.74 33.07,99.58 32.09,98.43 31.11,97.49 30.12,96.56 28.86,95.64 27.60,94.73 26.30,93.99 25.00,93.24 23.73,92.45 22.46,91.66 21.23,90.85 20.00,90.04 19.02,89.24 18.04,88.44 17.28,87.65 16.52,86.86 15.85,85.99 15.19,85.11 14.55,84.20 13.90,83.29 13.21,82.06 12.52,80.83 12.02,79.85 11.52,78.88 10.72,77.51 9.93,76.14 9.37,74.82 8.81,73.49 8.43,72.16 8.06,70.83 7.85,69.61 7.64,68.39 7.54,67.24 7.43,66.09 7.30,64.57 7.16,63.05 7.02,61.98 6.88,60.91 6.84,59.61 6.80,58.31 6.78,57.23 6.76,56.15 6.81,55.04 6.85,53.92 7.11,52.81 7.36,51.70 7.75,50.59 8.13,49.47 8.75,48.32 9.38,47.17 10.24,46.00 11.09,44.83 11.75,43.93 12.42,43.02 12.91,42.02 13.40,41.03 13.73,39.81 14.06,38.59 14.28,37.16 14.50,35.72 14.68,34.63 14.85,33.54 14.85,32.24 14.85,30.94 14.85,29.72 14.85,28.49 14.25,27.29 13.66,26.08 13.37,25.06 13.08,24.04 12.96,22.94 12.83,21.84 12.82,20.69 12.82,19.55 12.82,18.36 12.81,17.17 12.81,15.96 12.81,14.74 12.81,13.64 12.81,12.53 11.84,11.93 10.87,11.32 10.26,10.35 9.66,9.38 8.82,8.45 7.98,7.53 7.26,6.48 6.54,5.43 5.72,4.35 4.90,3.27 4.05,2.61 3.19,1.94 2.03,2.61 0.87,3.28 0.32,3.34 -0.22,3.39 -0.76,3.27 -1.29,3.14 -1.76,2.85 -2.23,2.56 -2.58,2.14 -2.93,1.71 -3.13,1.20 -3.33,0.69 -3.35,0.14 -3.37,-0.40 -3.22,-0.93 -3.07,-1.46 -2.75,-1.91 -2.44,-2.37 -1.99,-2.69 -1.55,-3.02 -1.03,-3.19 -0.50,-3.36 0.04,-3.35 0.59,-3.35 1.11,-3.16 1.63,-2.98 2.06,-2.64 2.49,-2.31 2.80,-1.85 3.10,-1.39 3.24,-0.85 3.38,-0.32 3.35,0.22 3.31,0.77 3.10,1.28 2.89,1.79 2.53,2.20 2.17,2.62 1.69,2.89 1.22,3.17 0.68,3.28 0.14,3.40 -0.40,3.33 -0.95,3.26 -1.44,3.03 -1.94,2.79 -2.33,2.40 -2.73,2.02 -2.98,1.53 -3.23,1.04 -3.32,0.50 -3.40,-0.04 -3.30,-0.58 -3.21,-1.12 -2.94,-1.60 -2.68,-2.09 -2.27,-2.46 -1.87,-2.84 -1.37,-3.06 -0.86,-3.29 -0.87,-3.29 -0.87,-3.28 2.54,-3.95 5.96,-4.62 7.45,-4.08 8.94,-3.53 9.85,-2.70 10.76,-1.87 11.62,-0.77 12.47,0.32 13.05,1.22 13.63,2.12 14.45,3.05 15.26,3.99 15.99,5.11 16.72,6.22 17.65,7.30 18.57,8.37 19.46,9.82 20.36,11.26 20.46,12.49 20.55,13.73 20.55,15.01 20.55,16.30 20.55,17.48 20.55,18.66 20.55,19.92 20.55,21.18 20.76,22.36 20.98,23.54 21.32,24.76 21.67,25.98 21.12,25.06 20.57,24.14 21.40,25.23 22.24,26.32 22.38,27.40 22.53,28.49 22.52,29.72 22.52,30.95 22.52,32.05 22.52,33.16 22.47,34.31 22.42,35.47 22.12,36.96 21.83,38.45 21.55,39.68 21.26,40.91 20.99,41.96 20.72,43.01 20.12,44.40 19.53,45.79 18.90,46.83 18.28,47.86 17.47,48.91 16.66,49.95 16.04,50.86 15.42,51.76 14.90,52.99 14.39,54.21 14.27,55.60 14.14,56.99 14.13,58.12 14.11,59.24 14.19,60.45 14.26,61.65 14.35,62.98 14.44,64.31 14.57,65.41 14.70,66.50 14.87,67.85 15.04,69.19 15.45,70.52 15.85,71.85 16.58,73.21 17.31,74.56 17.84,75.54 18.36,76.53 18.86,77.47 19.36,78.42 20.13,79.61 20.90,80.79 21.61,81.72 22.31,82.65 23.28,83.56 24.26,84.48 25.26,85.17 26.26,85.86 27.28,86.50 28.29,87.14 29.45,87.81 30.61,88.48 31.57,89.15 32.53,89.82 33.60,90.67 34.68,91.52 35.89,92.68 37.11,93.83 38.34,95.25 39.57,96.66 40.50,97.90 41.43,99.13 42.30,100.22 43.17,101.31 44.12,102.18 45.07,103.06 46.09,103.75 47.11,104.45 48.22,104.73 49.32,105.02 50.38,104.85 51.44,104.67 52.59,104.17 53.74,103.66 54.99,103.21 56.25,102.76 57.65,102.28 59.05,101.81 59.64,100.53 60.24,99.25 60.66,98.13 61.07,97.01 61.62,95.42 62.16,93.84 62.85,91.71 63.54,89.58 63.57,88.41 63.61,87.24 63.61,85.93 63.61,84.61 63.48,83.18 63.34,81.74 63.18,80.43 63.02,79.13 62.86,77.74 62.71,76.35 62.80,75.02 62.88,73.70 63.11,72.42 63.33,71.14 63.55,69.60 63.76,68.05 64.16,66.12 64.57,64.19 65.09,62.27 65.60,60.35 65.85,59.30 66.11,58.25 66.37,57.10 66.64,55.95 66.91,54.87 67.17,53.78 67.70,51.76 68.23,49.75 68.78,47.90 69.32,46.05 69.97,44.14 70.62,42.22 71.02,41.22 71.42,40.23 71.94,39.12 72.47,38.01 73.07,36.87 73.68,35.73 74.28,34.64 74.88,33.55 75.93,31.70 76.99,29.84 77.80,28.02 78.61,26.20 78.97,25.15 79.33,24.11 79.68,22.98 80.04,21.86 80.46,20.66 80.88,19.46 81.32,18.07 81.76,16.67 82.18,15.29 82.59,13.91 82.99,12.52 83.39,11.14 83.75,9.83 84.11,8.52 84.43,7.43 84.74,6.35 85.06,5.13 85.38,3.92 85.81,1.88 86.25,-0.15 86.20,-2.06 86.16,-3.98 85.86,-5.62 85.55,-7.26 84.92,-8.68 84.28,-10.10 83.29,-11.42 82.30,-12.75 80.93,-14.06 79.57,-15.38 78.72,-16.16 77.88,-16.95 76.60,-18.00 75.31,-19.05 74.39,-19.80 73.46,-20.56 72.12,-21.64 70.78,-22.73 69.57,-23.44 68.36,-24.16 66.91,-24.20 65.46,-24.23 63.82,-24.25 62.17,-24.26 60.26,-24.12 58.35,-23.99 57.20,-23.82 56.05,-23.65 54.06,-23.32 52.07,-22.98 50.91,-22.75 49.75,-22.52 48.41,-22.24 47.07,-21.97 45.74,-21.72 44.41,-21.47 43.22,-21.29 42.04,-21.11 40.69,-20.87 39.35,-20.62 38.12,-20.41 36.90,-20.19 34.98,-19.91 33.05,-19.63 31.93,-19.37 30.81,-19.11 29.60,-18.78 28.39,-18.45 27.15,-18.01 25.90,-17.57 24.50,-16.93 23.09,-16.29 21.78,-15.69 20.48,-15.10 19.30,-14.51 18.11,-13.93 16.58,-12.97 15.05,-12.01 13.36,-10.76 11.68,-9.50 10.01,-8.10 8.35,-6.71 6.74,-5.05 5.13,-3.38 3.35,-1.05 1.57,1.28 1.39,1.45 1.22,1.62 1.01,1.74 0.79,1.86 0.56,1.93 0.32,2.00 0.08,2.01 -0.16,2.02 -0.40,1.97 -0.64,1.92 -0.86,1.82 -1.08,1.71 -1.27,1.56 -1.46,1.40 -1.61,1.21 -1.75,1.01 -1.85,0.79 -1.95,0.56 -1.99,0.32 -2.03,0.08 -2.01,-0.15 -1.99,-0.40 -1.91,-0.63 -1.83,-0.86 -1.70,-1.07 -1.57,-1.28 -1.57,-1.28 L -1.57,-1.28 Z"></path></g><g transform="translate(159.01057442752153 23.110420919668712) rotate(0 19.883913412536856 62.274499368426234)" stroke="none"><path d="M-6.34 -1.12 C-1.71 -0.98, 15.49 -0.66, 21.45 -0.32 C27.41 0.02, 24.45 -0.4, 29.41 0.92 C34.38 2.25, 46.63 6.11, 51.22 7.65 C55.81 9.2, 55.54 9.32, 56.94 10.18 C58.35 11.05, 58.28 9.85, 59.64 12.83 C60.99 15.8, 63.63 22.77, 65.06 28.04 C66.49 33.3, 68.47 40.28, 68.22 44.41 C67.96 48.54, 65.29 46.37, 63.51 52.81 C61.73 59.24, 60.33 73.97, 57.54 83 C54.76 92.04, 50.44 100.3, 46.8 107.02 C43.16 113.73, 38.74 119.55, 35.72 123.3 C32.7 127.05, 30.52 128.5, 28.68 129.54 C26.83 130.58, 25.77 129.83, 24.67 129.56 C23.57 129.29, 24.66 130.96, 22.08 127.89 C19.5 124.83, 14.44 117.35, 9.19 111.18 C3.94 105, -4.27 97.01, -9.42 90.84 C-14.57 84.68, -18.62 79.09, -21.69 74.19 C-24.75 69.29, -26.66 65.12, -27.79 61.46 C-28.92 57.79, -28.67 55.96, -28.45 52.19 C-28.23 48.42, -27.37 43.54, -26.48 38.82 C-25.59 34.1, -24.84 30.11, -23.11 23.87 C-21.37 17.64, -17.54 5.88, -16.06 1.43 C-14.59 -3.02, -15.06 -1.81, -14.24 -2.82 C-13.42 -3.83, -12.45 -4.23, -11.14 -4.62 C-9.84 -5.01, -7.23 -5.76, -6.43 -5.17 C-5.63 -4.59, -6.36 -1.79, -6.34 -1.12" stroke="none" stroke-width="0" fill="#f08c00" fill-rule="evenodd"></path><path fill="#1e1e1e" d="M -6.34,-2.74 Q -6.34,-2.74 -4.12,-2.70 -1.90,-2.65 0.60,-2.62 3.12,-2.59 8.42,-2.34 13.72,-2.08 18.29,-1.61 22.86,-1.14 26.45,-0.48 30.04,0.17 32.99,0.86 35.95,1.56 38.59,2.28 41.23,3.00 43.42,3.66 45.60,4.32 47.37,4.86 49.14,5.40 50.61,5.87 52.09,6.34 53.29,6.73 54.49,7.11 56.20,7.78 57.91,8.45 59.25,9.41 60.59,10.37 61.69,11.92 62.79,13.47 63.27,14.51 63.76,15.55 64.26,16.83 64.76,18.11 65.23,19.76 65.70,21.41 66.16,23.12 66.62,24.83 67.05,26.59 67.48,28.35 67.87,30.14 68.26,31.93 68.63,33.47 69.00,35.01 69.34,36.25 69.68,37.49 70.11,39.28 70.55,41.07 70.71,42.29 70.88,43.51 70.62,45.11 70.37,46.70 69.59,48.07 68.80,49.43 68.13,50.53 67.45,51.64 66.89,53.07 66.33,54.51 65.68,56.72 65.03,58.92 64.61,60.58 64.20,62.24 63.65,64.76 63.11,67.27 62.56,69.74 62.02,72.21 61.68,73.95 61.34,75.69 61.14,77.03 60.94,78.36 60.58,79.88 60.22,81.40 59.56,83.18 58.90,84.96 58.17,86.56 57.43,88.17 56.43,90.05 55.42,91.92 54.71,93.49 54.00,95.07 53.54,96.34 53.08,97.61 52.57,99.43 52.06,101.25 51.63,102.37 51.21,103.49 50.55,104.84 49.90,106.19 49.19,107.40 48.47,108.60 47.78,109.62 47.09,110.63 46.47,111.55 45.85,112.47 44.75,114.19 43.65,115.92 42.96,116.99 42.27,118.06 41.41,119.37 40.55,120.68 39.77,121.85 39.00,123.03 38.37,123.91 37.73,124.80 36.83,125.82 35.92,126.83 34.79,127.92 33.66,129.01 32.63,129.83 31.60,130.65 30.51,131.19 29.42,131.73 27.55,132.07 25.68,132.40 23.92,131.95 22.15,131.49 21.01,130.69 19.88,129.88 18.92,128.92 17.96,127.97 17.22,126.97 16.48,125.98 15.86,124.81 15.25,123.63 14.29,122.30 13.33,120.96 11.62,118.58 9.90,116.19 8.20,113.93 6.50,111.66 5.20,109.97 3.91,108.29 2.86,107.14 1.82,105.99 0.71,104.77 -0.38,103.56 -1.62,102.22 -2.85,100.87 -4.04,99.64 -5.22,98.40 -6.28,97.33 -7.34,96.26 -8.40,95.11 -9.47,93.97 -10.48,92.78 -11.50,91.59 -12.45,90.38 -13.41,89.18 -14.46,87.74 -15.52,86.30 -16.64,84.75 -17.76,83.21 -18.85,81.69 -19.94,80.18 -20.93,78.78 -21.92,77.37 -22.79,75.96 -23.66,74.56 -24.48,73.13 -25.30,71.70 -26.06,70.32 -26.83,68.95 -27.49,67.64 -28.16,66.34 -28.69,65.16 -29.23,63.99 -29.63,62.89 -30.03,61.79 -30.46,59.86 -30.88,57.93 -31.01,55.85 -31.14,53.76 -31.13,52.68 -31.13,51.61 -31.08,50.52 -31.03,49.44 -30.83,47.57 -30.63,45.69 -30.43,44.18 -30.23,42.67 -29.98,41.08 -29.72,39.50 -29.31,37.62 -28.89,35.74 -28.41,33.68 -27.94,31.63 -27.68,30.55 -27.43,29.47 -27.19,28.39 -26.95,27.32 -26.68,26.14 -26.41,24.97 -26.08,23.74 -25.74,22.51 -25.38,21.30 -25.01,20.10 -24.66,18.92 -24.31,17.75 -23.92,16.50 -23.53,15.25 -23.10,13.97 -22.66,12.69 -22.31,11.59 -21.95,10.49 -21.47,8.78 -21.00,7.08 -20.57,5.68 -20.14,4.28 -19.80,3.22 -19.47,2.16 -19.12,0.83 -18.76,-0.48 -18.34,-1.72 -17.92,-2.96 -17.25,-4.11 -16.58,-5.26 -15.47,-6.10 -14.37,-6.93 -12.81,-7.49 -11.26,-8.05 -10.08,-8.24 -8.91,-8.43 -6.09,-7.03 -3.27,-5.62 -3.22,-3.50 -3.18,-1.39 -3.22,-0.87 -3.26,-0.36 -3.46,0.10 -3.66,0.57 -4.00,0.96 -4.34,1.34 -4.78,1.60 -5.23,1.85 -5.73,1.95 -6.24,2.05 -6.74,1.98 -7.25,1.92 -7.71,1.69 -8.18,1.47 -8.54,1.11 -8.91,0.75 -9.14,0.29 -9.37,-0.16 -9.44,-0.67 -9.51,-1.18 -9.42,-1.68 -9.32,-2.19 -9.07,-2.64 -8.82,-3.08 -8.44,-3.43 -8.06,-3.77 -7.59,-3.98 -7.12,-4.19 -6.61,-4.23 -6.10,-4.27 -5.60,-4.15 -5.10,-4.03 -4.67,-3.76 -4.23,-3.48 -3.91,-3.09 -3.59,-2.69 -3.41,-2.21 -3.23,-1.73 -3.21,-1.21 -3.19,-0.70 -3.34,-0.21 -3.49,0.27 -3.79,0.69 -4.08,1.11 -4.50,1.41 -4.91,1.71 -5.40,1.87 -5.89,2.02 -6.41,2.01 -6.92,2.00 -7.40,1.82 -7.89,1.65 -8.29,1.33 -8.69,1.01 -8.97,0.58 -9.25,0.15 -9.37,-0.34 -9.50,-0.84 -9.50,-0.84 -9.50,-0.83 -9.81,-2.76 -10.12,-4.69 -8.79,-3.08 -7.46,-1.46 -8.56,-1.31 -9.66,-1.16 -10.70,-0.83 -11.74,-0.50 -12.22,0.59 -12.70,1.69 -13.12,2.89 -13.55,4.09 -14.00,5.23 -14.45,6.37 -14.92,7.58 -15.39,8.79 -15.96,10.52 -16.54,12.24 -16.90,13.34 -17.26,14.44 -17.63,15.66 -18.01,16.89 -18.36,18.12 -18.70,19.36 -19.03,20.56 -19.36,21.76 -19.68,22.87 -19.99,23.99 -20.27,25.12 -20.54,26.24 -20.78,27.41 -21.02,28.59 -21.25,29.70 -21.48,30.80 -21.71,31.89 -21.95,32.98 -22.18,34.05 -22.41,35.13 -22.86,37.06 -23.30,38.99 -23.66,40.63 -24.01,42.26 -24.31,43.64 -24.61,45.02 -24.90,46.55 -25.19,48.08 -25.39,49.92 -25.60,51.76 -25.66,53.72 -25.72,55.68 -25.71,57.22 -25.70,58.77 -25.34,60.52 -24.99,62.27 -24.60,63.35 -24.21,64.44 -23.65,65.69 -23.09,66.94 -22.39,68.30 -21.68,69.66 -20.91,71.06 -20.14,72.45 -19.38,73.77 -18.62,75.09 -17.70,76.45 -16.77,77.81 -15.65,79.27 -14.52,80.72 -13.32,82.20 -12.11,83.69 -11.00,85.08 -9.89,86.47 -9.02,87.64 -8.15,88.80 -7.22,89.95 -6.30,91.09 -5.29,92.24 -4.28,93.38 -3.28,94.48 -2.29,95.59 -1.10,96.83 0.08,98.07 1.39,99.39 2.71,100.72 3.85,101.96 4.99,103.21 6.00,104.39 7.01,105.58 8.52,107.11 10.04,108.65 12.02,110.71 14.00,112.77 16.03,114.86 18.06,116.95 19.37,118.30 20.69,119.64 21.34,121.03 21.99,122.42 22.58,123.33 23.17,124.23 24.12,125.32 25.08,126.40 26.20,126.54 27.32,126.68 28.64,125.98 29.97,125.28 30.95,124.26 31.94,123.25 33.29,121.71 34.65,120.17 35.37,119.06 36.10,117.94 36.91,116.54 37.71,115.14 39.03,113.18 40.35,111.22 40.98,110.34 41.62,109.46 42.94,107.73 44.27,106.00 44.91,105.02 45.55,104.05 46.15,102.83 46.76,101.61 47.59,99.83 48.42,98.05 48.85,97.05 49.29,96.04 49.89,94.75 50.48,93.46 51.22,91.87 51.95,90.27 52.76,88.34 53.56,86.41 54.22,84.97 54.87,83.53 55.40,81.93 55.94,80.32 56.31,78.94 56.68,77.56 56.97,76.25 57.27,74.94 57.57,73.24 57.87,71.53 58.13,69.06 58.39,66.58 58.60,63.93 58.80,61.29 59.03,59.35 59.25,57.41 59.56,56.07 59.88,54.73 60.20,53.61 60.53,52.48 60.93,51.37 61.33,50.27 62.26,48.64 63.20,47.02 64.27,45.71 65.34,44.41 65.45,43.10 65.55,41.78 65.37,40.17 65.19,38.56 64.93,37.30 64.67,36.05 64.31,34.52 63.94,32.99 63.48,31.29 63.01,29.59 62.49,27.93 61.97,26.26 61.39,24.61 60.81,22.96 60.30,21.51 59.79,20.05 58.95,17.95 58.12,15.85 57.66,14.84 57.20,13.82 56.45,13.00 55.71,12.17 54.41,11.34 53.11,10.51 52.01,9.96 50.90,9.40 49.55,8.78 48.19,8.16 46.51,7.52 44.83,6.88 42.68,6.24 40.53,5.60 37.93,4.91 35.33,4.21 32.44,3.54 29.55,2.88 26.06,2.26 22.57,1.64 18.08,1.21 13.59,0.77 8.36,0.57 3.12,0.36 0.60,0.39 -1.90,0.42 -4.12,0.47 -6.34,0.51 -6.53,0.49 -6.73,0.46 -6.91,0.39 -7.10,0.32 -7.26,0.21 -7.42,0.10 -7.55,-0.04 -7.68,-0.18 -7.77,-0.36 -7.86,-0.53 -7.91,-0.72 -7.96,-0.91 -7.96,-1.11 -7.96,-1.31 -7.91,-1.50 -7.86,-1.69 -7.77,-1.86 -7.68,-2.04 -7.55,-2.18 -7.42,-2.33 -7.26,-2.44 -7.10,-2.55 -6.91,-2.62 -6.73,-2.69 -6.53,-2.72 -6.34,-2.74 -6.34,-2.74 L -6.34,-2.74 Z"></path></g><g transform="translate(63.02899003049424 10) rotate(0 -12.284849221399327 72.62497283998957)" stroke="none"><path d="M-9.66 0 C-11.41 0.27, -16.1 -0.02, -20.13 1.63 C-24.17 3.29, -30.65 7.67, -33.87 9.93 C-37.08 12.19, -37.26 12.64, -39.42 15.2 C-41.58 17.75, -44.89 22.27, -46.83 25.28 C-48.78 28.29, -50.04 30.86, -51.07 33.25 C-52.09 35.65, -52.7 37.59, -52.99 39.64 C-53.27 41.68, -54.8 38.02, -52.79 45.52 C-50.77 53.02, -43.33 73.1, -40.88 84.63 C-38.43 96.15, -38.89 107.81, -38.07 114.69 C-37.25 121.57, -37.44 122.2, -35.95 125.91 C-34.46 129.61, -31.27 134.14, -29.14 136.91 C-27 139.68, -25.04 141.14, -23.13 142.53 C-21.22 143.91, -19.98 144.86, -17.68 145.22 C-15.37 145.57, -13.45 145.78, -9.32 144.68 C-5.19 143.58, 3.19 141.99, 7.13 138.63 C11.07 135.28, 11.91 130.82, 14.33 124.55 C16.75 118.28, 19.56 106.83, 21.66 100.99 C23.76 95.15, 25.87 92.56, 26.94 89.52 C28.01 86.49, 27.96 87.81, 28.07 82.76 C28.17 77.71, 28.49 65.12, 27.58 59.24 C26.68 53.36, 24.65 53.59, 22.66 47.49 C20.66 41.39, 18.58 29.42, 15.61 22.61 C12.63 15.8, 7.97 9.85, 4.81 6.65 C1.66 3.45, -1.67 4.39, -3.34 3.4 C-5 2.41, -4.14 1.29, -5.19 0.72 C-6.24 0.16, -8.92 0.12, -9.66 0" stroke="none" stroke-width="0" fill="#2f9e44" fill-rule="evenodd"></path><path fill="#1e1e1e" d="M -9.51,2.29 Q -9.51,2.29 -11.66,2.29 -13.80,2.30 -15.43,2.64 -17.06,2.99 -18.22,3.46 -19.37,3.93 -20.69,4.52 -22.01,5.10 -23.49,5.81 -24.98,6.51 -26.18,7.24 -27.38,7.96 -28.40,8.69 -29.41,9.41 -30.25,10.10 -31.08,10.79 -31.96,11.59 -32.83,12.38 -33.74,13.22 -34.65,14.06 -35.50,14.90 -36.34,15.75 -37.12,16.65 -37.90,17.56 -38.82,18.72 -39.74,19.89 -40.77,21.19 -41.81,22.50 -42.69,23.70 -43.58,24.90 -44.44,26.18 -45.30,27.45 -46.03,28.74 -46.77,30.02 -47.38,31.24 -47.99,32.46 -48.46,33.54 -48.92,34.62 -49.42,36.29 -49.93,37.96 -50.04,39.08 -50.15,40.20 -50.10,41.77 -50.04,43.34 -49.62,44.86 -49.19,46.39 -48.68,48.11 -48.16,49.84 -47.85,50.91 -47.54,51.97 -47.22,53.18 -46.90,54.38 -46.55,55.57 -46.20,56.76 -45.85,57.96 -45.50,59.16 -45.19,60.38 -44.88,61.61 -44.26,63.55 -43.65,65.50 -43.07,67.10 -42.50,68.70 -41.90,70.15 -41.29,71.60 -40.79,73.02 -40.30,74.45 -39.76,76.29 -39.22,78.13 -38.71,80.23 -38.21,82.34 -38.01,83.62 -37.81,84.90 -37.65,86.27 -37.49,87.65 -37.35,89.12 -37.22,90.59 -37.11,92.11 -37.01,93.63 -36.89,95.12 -36.78,96.60 -36.67,98.04 -36.56,99.47 -36.45,100.73 -36.34,101.99 -36.22,103.13 -36.10,104.27 -36.01,105.59 -35.92,106.92 -35.84,108.41 -35.76,109.90 -35.67,111.22 -35.57,112.54 -35.43,113.78 -35.28,115.01 -35.12,116.23 -34.95,117.44 -34.79,118.51 -34.63,119.59 -34.30,120.94 -33.97,122.30 -33.48,123.74 -32.98,125.17 -32.27,126.73 -31.56,128.28 -30.58,129.90 -29.59,131.52 -28.60,132.74 -27.61,133.95 -26.77,134.92 -25.92,135.90 -24.97,136.90 -24.02,137.89 -22.57,139.06 -21.11,140.23 -19.95,140.90 -18.79,141.57 -17.41,141.80 -16.04,142.02 -14.54,142.01 -13.05,142.01 -11.08,141.64 -9.12,141.27 -7.92,140.97 -6.72,140.66 -5.34,140.32 -3.96,139.97 -2.66,139.61 -1.37,139.26 -0.36,138.90 0.64,138.54 2.09,137.92 3.54,137.29 4.47,136.39 5.40,135.48 6.21,134.08 7.02,132.68 7.62,131.53 8.22,130.38 8.94,129.06 9.66,127.74 10.26,126.51 10.85,125.28 11.72,123.47 12.58,121.66 13.46,119.47 14.33,117.28 14.97,115.44 15.60,113.59 16.13,111.88 16.66,110.16 17.12,108.59 17.59,107.02 17.96,105.68 18.33,104.33 18.65,103.16 18.97,101.98 19.44,100.72 19.92,99.46 20.44,98.29 20.97,97.12 21.47,96.03 21.97,94.94 22.45,93.85 22.92,92.76 23.38,91.58 23.84,90.40 24.29,88.97 24.73,87.54 25.00,86.10 25.27,84.66 25.40,83.17 25.53,81.67 25.71,79.82 25.90,77.97 26.07,76.04 26.24,74.12 26.36,72.07 26.49,70.03 26.53,68.00 26.56,65.97 26.37,64.13 26.17,62.29 25.67,60.42 25.17,58.55 24.52,56.92 23.86,55.29 23.32,54.18 22.78,53.08 21.93,51.32 21.09,49.56 20.68,48.49 20.28,47.42 19.94,46.29 19.60,45.16 18.96,42.57 18.32,39.99 17.83,37.63 17.34,35.27 16.82,33.01 16.30,30.75 15.78,29.05 15.26,27.35 14.78,26.21 14.30,25.07 13.76,23.95 13.22,22.84 12.56,21.65 11.91,20.46 11.25,19.43 10.59,18.41 9.52,17.01 8.45,15.62 7.51,14.62 6.57,13.61 5.66,12.49 4.75,11.37 3.85,10.25 2.95,9.13 1.96,8.73 0.96,8.32 -0.22,8.03 -1.42,7.73 -2.64,7.29 -3.86,6.84 -4.85,6.27 -5.85,5.69 -6.64,4.94 -7.43,4.18 -8.85,3.56 -10.28,2.95 -10.73,2.77 -11.19,2.59 -11.56,2.28 -11.94,1.97 -12.19,1.55 -12.45,1.14 -12.56,0.66 -12.67,0.18 -12.62,-0.29 -12.57,-0.78 -12.37,-1.22 -12.17,-1.67 -11.84,-2.02 -11.50,-2.38 -11.07,-2.61 -10.64,-2.85 -10.16,-2.93 -9.68,-3.01 -9.20,-2.94 -8.72,-2.86 -8.28,-2.64 -7.85,-2.41 -7.51,-2.06 -7.17,-1.71 -6.96,-1.27 -6.76,-0.83 -6.70,-0.34 -6.64,0.13 -6.74,0.61 -6.84,1.09 -7.09,1.51 -7.34,1.93 -7.71,2.25 -8.08,2.57 -8.53,2.75 -8.98,2.94 -9.47,2.97 -9.96,3.00 -10.43,2.87 -10.90,2.74 -11.31,2.47 -11.71,2.20 -12.01,1.82 -12.31,1.43 -12.47,0.97 -12.63,0.51 -12.63,0.02 -12.64,-0.46 -12.49,-0.92 -12.33,-1.39 -12.04,-1.78 -11.75,-2.17 -11.35,-2.45 -10.95,-2.72 -10.48,-2.86 -10.01,-2.99 -9.52,-2.97 -9.03,-2.95 -9.03,-2.95 -9.03,-2.95 -6.15,-2.15 -3.26,-1.35 -2.17,-0.30 -1.08,0.74 0.11,1.26 1.31,1.77 2.38,2.12 3.44,2.47 4.46,2.99 5.49,3.51 6.54,4.40 7.60,5.30 8.29,6.30 8.99,7.29 9.84,8.72 10.69,10.15 11.59,11.38 12.48,12.62 13.51,14.34 14.54,16.06 15.19,17.24 15.83,18.41 16.51,19.77 17.18,21.14 17.67,22.42 18.16,23.70 18.53,24.97 18.90,26.23 19.44,27.97 19.98,29.71 20.72,31.93 21.46,34.16 22.23,36.47 23.00,38.79 23.65,41.39 24.29,43.98 24.74,45.98 25.20,47.98 25.73,49.83 26.26,51.68 26.64,52.87 27.03,54.07 27.69,55.85 28.35,57.64 28.99,59.76 29.63,61.89 29.88,63.91 30.12,65.93 30.21,68.01 30.29,70.10 30.34,72.21 30.39,74.32 30.36,76.28 30.34,78.24 30.29,80.13 30.25,82.02 30.14,83.76 30.03,85.49 29.75,87.19 29.47,88.89 29.01,90.59 28.56,92.29 28.03,93.58 27.50,94.88 26.95,96.00 26.41,97.12 25.84,98.18 25.28,99.25 24.75,100.24 24.22,101.23 23.73,102.30 23.24,103.37 22.81,104.49 22.39,105.60 21.94,106.91 21.48,108.22 20.99,109.76 20.50,111.31 20.00,113.03 19.50,114.76 19.00,116.70 18.49,118.64 17.87,121.02 17.26,123.39 16.67,125.51 16.07,127.63 15.50,128.99 14.93,130.35 14.33,131.69 13.73,133.03 13.17,134.30 12.61,135.56 11.53,137.40 10.44,139.25 9.33,140.41 8.22,141.57 7.04,142.16 5.86,142.76 4.21,143.37 2.56,143.98 1.42,144.37 0.28,144.77 -1.02,145.20 -2.34,145.63 -3.70,146.06 -5.06,146.50 -6.35,146.90 -7.64,147.30 -9.03,147.68 -10.43,148.05 -12.62,148.24 -14.80,148.43 -16.32,148.34 -17.84,148.24 -19.26,147.83 -20.67,147.41 -21.91,146.67 -23.15,145.93 -24.71,144.76 -26.28,143.59 -27.18,142.80 -28.07,142.00 -29.18,140.96 -30.29,139.93 -31.31,138.89 -32.32,137.84 -33.48,136.32 -34.63,134.80 -35.25,133.82 -35.88,132.85 -36.43,131.83 -36.99,130.81 -37.77,128.96 -38.55,127.10 -39.04,125.31 -39.54,123.52 -39.77,121.90 -40.01,120.28 -40.13,119.21 -40.24,118.13 -40.40,116.87 -40.56,115.61 -40.70,114.27 -40.85,112.93 -40.95,111.61 -41.05,110.29 -41.19,108.80 -41.34,107.31 -41.43,106.03 -41.53,104.75 -41.62,103.60 -41.70,102.44 -41.81,101.20 -41.91,99.96 -42.05,98.57 -42.20,97.18 -42.40,95.68 -42.61,94.17 -42.79,92.75 -42.97,91.33 -43.20,89.91 -43.43,88.50 -43.65,87.22 -43.88,85.93 -44.33,83.83 -44.79,81.73 -45.28,79.93 -45.76,78.14 -46.24,76.52 -46.73,74.90 -47.13,73.65 -47.54,72.40 -48.15,70.72 -48.76,69.05 -49.33,67.18 -49.90,65.31 -50.23,64.20 -50.56,63.09 -50.85,61.99 -51.15,60.89 -51.53,59.73 -51.90,58.57 -52.33,57.31 -52.76,56.06 -53.11,54.91 -53.46,53.76 -54.10,51.72 -54.74,49.68 -55.13,48.12 -55.53,46.57 -55.75,44.94 -55.97,43.31 -55.89,42.10 -55.81,40.89 -55.59,39.44 -55.38,37.98 -54.80,36.27 -54.23,34.55 -53.79,33.56 -53.34,32.57 -52.78,31.43 -52.22,30.30 -51.53,28.99 -50.84,27.68 -50.04,26.28 -49.24,24.87 -48.34,23.47 -47.44,22.06 -46.55,20.83 -45.65,19.60 -44.68,18.24 -43.70,16.88 -42.71,15.53 -41.72,14.17 -40.77,13.14 -39.83,12.10 -38.89,11.23 -37.94,10.35 -36.96,9.52 -35.99,8.69 -34.95,7.85 -33.92,7.01 -32.91,6.32 -31.91,5.63 -30.74,4.91 -29.57,4.19 -28.19,3.43 -26.82,2.66 -25.25,1.90 -23.68,1.14 -22.22,0.56 -20.76,-0.02 -19.34,-0.45 -17.93,-0.89 -15.99,-1.33 -14.06,-1.76 -11.93,-2.03 -9.80,-2.29 -9.52,-2.27 -9.25,-2.26 -8.98,-2.17 -8.72,-2.09 -8.48,-1.95 -8.24,-1.81 -8.05,-1.61 -7.85,-1.41 -7.71,-1.18 -7.56,-0.94 -7.48,-0.68 -7.40,-0.41 -7.38,-0.14 -7.36,0.13 -7.41,0.40 -7.46,0.67 -7.57,0.93 -7.69,1.18 -7.86,1.40 -8.03,1.62 -8.25,1.79 -8.46,1.96 -8.72,2.07 -8.97,2.19 -9.24,2.24 -9.51,2.29 -9.51,2.29 L -9.51,2.29 Z"></path></g></svg>