<svg version="1.1" xmlns="http://www.w3.org/2000/svg" viewBox="0 0 284.6305178400263 963.7257795054929" width="569.2610356800526" height="1927.4515590109859">
  <!-- svg-source:excalidraw -->
  
  <defs>
    <style class="style-fonts">
      @font-face {
        font-family: "Virgil";
        src: url("https://excalidraw.com/Virgil.woff2");
      }
      @font-face {
        font-family: "Cascadia";
        src: url("https://excalidraw.com/Cascadia.woff2");
      }
      @font-face {
        font-family: "Assistant";
        src: url("https://excalidraw.com/Assistant-Regular.woff2");
      }
    </style>
    
  </defs>
  <g stroke-linecap="round"><g transform="translate(142.41498615294518 680.3971935082097) rotate(0 -0.1695330360082039 -28.27340165664333)"><path d="M0 0 C-0.06 -9.42, -0.28 -47.12, -0.34 -56.55 M0 0 C-0.06 -9.42, -0.28 -47.12, -0.34 -56.55" stroke="#1e1e1e" stroke-width="4" fill="none"></path></g><g transform="translate(142.41498615294518 680.3971935082097) rotate(0 -0.1695330360082039 -28.27340165664333)"><path d="M8.35 -33.11 C6.06 -39.28, 3.78 -45.45, -0.34 -56.55 M8.35 -33.11 C5.56 -40.64, 2.77 -48.17, -0.34 -56.55" stroke="#1e1e1e" stroke-width="4" fill="none"></path></g><g transform="translate(142.41498615294518 680.3971935082097) rotate(0 -0.1695330360082039 -28.27340165664333)"><path d="M-8.75 -33 C-6.53 -39.2, -4.32 -45.4, -0.34 -56.55 M-8.75 -33 C-6.05 -40.57, -3.34 -48.13, -0.34 -56.55" stroke="#1e1e1e" stroke-width="4" fill="none"></path></g></g><mask></mask><g stroke-linecap="round"><g transform="translate(140.91675209076823 324.4205693581487) rotate(0 0.03125922661797631 -26.699547428608867)"><path d="M0 0 C0.01 -8.9, 0.05 -44.5, 0.06 -53.4 M0 0 C0.01 -8.9, 0.05 -44.5, 0.06 -53.4" stroke="#1e1e1e" stroke-width="4" fill="none"></path></g><g transform="translate(140.91675209076823 324.4205693581487) rotate(0 0.03125922661797631 -26.699547428608867)"><path d="M8.59 -29.9 C6.87 -34.62, 5.16 -39.34, 0.06 -53.4 M8.59 -29.9 C6.86 -34.66, 5.13 -39.43, 0.06 -53.4" stroke="#1e1e1e" stroke-width="4" fill="none"></path></g><g transform="translate(140.91675209076823 324.4205693581487) rotate(0 0.03125922661797631 -26.699547428608867)"><path d="M-8.52 -29.92 C-6.79 -34.64, -5.07 -39.36, 0.06 -53.4 M-8.52 -29.92 C-6.78 -34.68, -5.04 -39.44, 0.06 -53.4" stroke="#1e1e1e" stroke-width="4" fill="none"></path></g></g><mask></mask><g stroke-linecap="round" transform="translate(12.530705641543022 709.0263831521108) rotate(0 130.75957658013527 122.34969817669099)"><path d="M0 0 L261.52 0 L261.52 244.7 L0 244.7" stroke="none" stroke-width="0" fill="#2f9e44"></path><path d="M0 0 C61.41 0, 122.82 0, 261.52 0 M0 0 C60.22 0, 120.44 0, 261.52 0 M261.52 0 C261.52 63.22, 261.52 126.44, 261.52 244.7 M261.52 0 C261.52 68.5, 261.52 137, 261.52 244.7 M261.52 244.7 C161.29 244.7, 61.07 244.7, 0 244.7 M261.52 244.7 C180.51 244.7, 99.5 244.7, 0 244.7 M0 244.7 C0 157.33, 0 69.96, 0 0 M0 244.7 C0 186.63, 0 128.56, 0 0" stroke="#1e1e1e" stroke-width="4" fill="none"></path></g><g transform="translate(128.56365169512208 737.0964306578992) rotate(0 13.100785219561203 89.84728667921416)" stroke="none"><path d="M-2.05 0.72 C-4.19 1.42, -8.06 2.65, -10.83 4.04 C-13.61 5.42, -15.88 6.91, -18.7 9.02 C-21.51 11.12, -24.8 13.64, -27.72 16.67 C-30.64 19.69, -34.77 22.74, -36.22 27.16 C-37.67 31.57, -36.08 36.6, -36.42 43.17 C-36.75 49.73, -38.55 57.11, -38.23 66.56 C-37.9 76.01, -35.21 92.4, -34.47 99.86 C-33.73 107.31, -32.65 106.7, -33.78 111.28 C-34.92 115.87, -38.86 123.22, -41.28 127.38 C-43.71 131.53, -45.29 131.48, -48.34 136.21 C-51.38 140.95, -57.02 152.24, -59.54 155.78 C-62.06 159.31, -64.5 155.43, -63.45 157.41 C-62.4 159.39, -56.7 165.47, -53.26 167.66 C-49.82 169.85, -46.16 169.36, -42.81 170.57 C-39.45 171.78, -40.08 173.07, -33.15 174.91 C-26.21 176.75, -11.41 180.74, -1.19 181.61 C9.02 182.48, 20.7 180.97, 28.16 180.15 C35.62 179.33, 39.61 178.39, 43.57 176.69 C47.53 175, 48.69 171.95, 51.92 169.99 C55.14 168.04, 60.83 167.57, 62.92 164.98 C65 162.39, 63.48 158.22, 64.43 154.46 C65.38 150.7, 64.83 151.86, 68.61 142.43 C72.4 133, 83.71 109.24, 87.15 97.88 C90.58 86.53, 90.22 81.82, 89.22 74.31 C88.23 66.79, 83.23 58.96, 81.16 52.82 C79.08 46.67, 79.26 43.69, 76.78 37.43 C74.31 31.17, 70.11 20.76, 66.3 15.25 C62.49 9.74, 57.28 6.74, 53.95 4.36 C50.61 1.99, 48.74 2.21, 46.29 1 C43.85 -0.21, 46.04 -1.92, 39.29 -2.89 C32.53 -3.86, 12.94 -5.42, 5.75 -4.82 C-1.43 -4.22, -2.74 0.03, -3.81 0.69 C-4.88 1.36, -1.63 -0.77, -0.67 -0.84" stroke="none" stroke-width="0" fill="#2f9e44" fill-rule="evenodd"></path><path fill="#1e1e1e" d="M 0.37,1.89 Q 0.37,1.89 -1.29,2.23 -2.95,2.57 -4.03,2.94 -5.11,3.30 -7.43,4.34 -9.74,5.38 -11.43,6.23 -13.11,7.07 -14.86,8.10 -16.61,9.12 -18.41,10.41 -20.22,11.70 -21.87,13.07 -23.53,14.44 -24.67,15.60 -25.82,16.77 -26.94,18.06 -28.07,19.35 -29.28,20.83 -30.50,22.30 -31.26,23.52 -32.02,24.74 -32.52,25.86 -33.01,26.97 -33.40,28.07 -33.79,29.16 -34.09,30.27 -34.40,31.37 -34.83,33.10 -35.27,34.83 -35.73,37.23 -36.19,39.64 -36.47,42.56 -36.74,45.49 -36.89,48.65 -37.03,51.82 -37.11,54.53 -37.19,57.24 -37.23,59.44 -37.28,61.63 -37.29,63.66 -37.29,65.69 -37.29,67.84 -37.29,70.00 -37.20,72.16 -37.10,74.33 -36.90,76.36 -36.70,78.39 -36.44,80.40 -36.19,82.41 -35.91,84.39 -35.63,86.37 -35.31,88.17 -34.99,89.97 -34.67,91.73 -34.35,93.49 -34.06,95.07 -33.78,96.65 -33.58,98.22 -33.38,99.78 -33.28,101.52 -33.18,103.26 -33.16,105.09 -33.13,106.93 -33.23,108.85 -33.32,110.77 -33.74,112.86 -34.15,114.95 -34.92,117.14 -35.68,119.32 -36.67,121.54 -37.67,123.76 -38.85,125.96 -40.03,128.16 -41.23,130.14 -42.42,132.12 -43.55,133.90 -44.69,135.68 -46.06,137.54 -47.42,139.41 -48.73,141.10 -50.04,142.79 -51.17,144.23 -52.31,145.67 -53.33,146.94 -54.35,148.22 -55.16,149.31 -55.97,150.40 -56.63,151.30 -57.29,152.19 -58.00,153.36 -58.71,154.53 -58.74,155.66 -58.78,156.78 -58.22,157.73 -57.67,158.68 -56.52,159.85 -55.36,161.01 -54.50,161.77 -53.63,162.52 -52.50,163.36 -51.38,164.20 -49.97,165.21 -48.55,166.21 -47.17,167.04 -45.79,167.87 -44.40,168.57 -43.02,169.26 -41.58,169.92 -40.13,170.58 -38.75,171.13 -37.37,171.67 -36.30,171.99 -35.24,172.30 -34.09,172.58 -32.95,172.87 -31.65,173.18 -30.35,173.50 -29.19,173.75 -28.02,174.01 -26.88,174.24 -25.74,174.48 -24.37,174.77 -23.01,175.07 -21.41,175.48 -19.80,175.88 -18.13,176.34 -16.46,176.80 -14.33,177.46 -12.19,178.11 -9.80,178.70 -7.42,179.28 -5.25,179.73 -3.09,180.18 -1.03,180.51 1.01,180.84 3.08,181.03 5.15,181.23 7.24,181.33 9.33,181.44 10.98,181.40 12.64,181.36 14.80,181.38 16.95,181.39 19.88,181.21 22.81,181.03 25.34,180.60 27.87,180.18 31.17,179.20 34.48,178.22 36.77,177.43 39.06,176.64 40.96,175.86 42.86,175.08 44.66,174.15 46.46,173.22 48.02,172.24 49.58,171.25 50.92,170.18 52.26,169.11 53.63,167.88 54.99,166.64 56.33,165.21 57.67,163.78 58.88,162.24 60.09,160.71 61.07,159.16 62.05,157.61 63.11,155.82 64.17,154.03 65.13,152.06 66.08,150.09 66.93,148.07 67.77,146.05 68.50,143.97 69.23,141.89 70.02,139.41 70.81,136.93 71.62,134.48 72.43,132.03 73.18,129.73 73.93,127.43 74.67,125.10 75.41,122.77 76.23,120.32 77.06,117.87 77.94,115.31 78.82,112.75 79.61,110.28 80.40,107.81 81.16,105.47 81.91,103.12 82.59,100.89 83.28,98.66 83.82,96.43 84.36,94.20 84.75,91.89 85.15,89.58 85.46,87.21 85.76,84.85 85.93,82.74 86.10,80.62 86.14,78.50 86.18,76.38 85.98,74.05 85.77,71.72 85.27,69.35 84.77,66.99 84.09,64.51 83.41,62.02 82.66,59.56 81.92,57.10 81.09,54.76 80.27,52.42 79.47,50.22 78.67,48.03 77.75,45.84 76.82,43.65 75.86,41.49 74.89,39.33 73.98,37.38 73.07,35.43 72.15,33.58 71.22,31.74 70.33,30.02 69.44,28.31 68.63,26.69 67.83,25.08 67.10,23.62 66.37,22.17 65.65,20.89 64.94,19.60 64.28,18.45 63.63,17.30 62.88,16.09 62.12,14.87 61.16,13.51 60.20,12.15 59.05,10.70 57.90,9.25 56.70,8.03 55.51,6.80 54.31,5.82 53.12,4.84 51.98,4.05 50.85,3.26 49.61,2.49 48.36,1.73 47.03,1.06 45.70,0.39 44.62,0.05 43.53,-0.28 41.99,-0.49 40.45,-0.69 39.23,-0.65 38.01,-0.61 36.24,-0.53 34.47,-0.45 33.32,-0.45 32.16,-0.45 30.85,-0.47 29.53,-0.49 27.67,-0.57 25.81,-0.64 23.87,-0.69 21.92,-0.74 20.42,-0.70 18.92,-0.67 17.75,-0.61 16.58,-0.56 15.10,-0.45 13.62,-0.34 12.22,-0.23 10.82,-0.13 9.64,-0.05 8.45,0.02 7.26,0.12 6.06,0.23 4.90,0.59 3.73,0.94 2.46,1.30 1.20,1.66 -0.00,2.07 -1.21,2.48 -2.35,2.97 -3.50,3.46 -2.27,3.34 -1.04,3.21 -1.41,3.31 -1.79,3.40 -2.18,3.40 -2.57,3.40 -2.95,3.30 -3.32,3.21 -3.67,3.03 -4.01,2.85 -4.30,2.59 -4.59,2.33 -4.81,2.01 -5.03,1.69 -5.17,1.33 -5.31,0.97 -5.36,0.58 -5.40,0.19 -5.35,-0.18 -5.31,-0.57 -5.17,-0.93 -5.03,-1.29 -4.81,-1.61 -4.59,-1.93 -4.30,-2.19 -4.01,-2.45 -3.66,-2.63 -3.32,-2.81 -2.38,-2.87 -1.43,-2.93 -0.95,-2.73 -0.47,-2.53 -0.08,-2.18 0.30,-1.84 0.56,-1.39 0.83,-0.94 0.93,-0.43 1.03,0.07 0.97,0.59 0.90,1.11 0.68,1.58 0.45,2.05 0.09,2.42 -0.27,2.79 -0.73,3.03 -1.20,3.27 -1.71,3.34 -2.23,3.42 -2.74,3.33 -3.26,3.24 -3.71,2.98 -4.17,2.73 -4.52,2.35 -4.87,1.96 -5.09,1.49 -5.30,1.01 -5.35,0.49 -5.39,-0.02 -5.27,-0.53 -5.15,-1.03 -4.88,-1.48 -4.60,-1.92 -4.20,-2.25 -3.80,-2.58 -3.31,-2.77 -2.82,-2.95 -2.30,-2.97 -1.78,-2.99 -1.28,-2.84 -0.78,-2.70 -0.35,-2.40 0.07,-2.10 0.38,-1.68 0.68,-1.26 0.84,-0.76 1.00,-0.26 0.99,0.25 0.99,0.77 0.81,1.26 0.64,1.75 0.31,2.16 -0.00,2.57 -0.43,2.86 -0.87,3.14 -1.38,3.28 -1.88,3.41 -1.46,3.31 -1.04,3.21 -1.41,3.31 -1.79,3.40 -2.18,3.40 -2.57,3.40 -2.95,3.30 -3.32,3.21 -3.67,3.03 -4.01,2.85 -4.30,2.59 -4.59,2.33 -4.81,2.01 -5.03,1.69 -5.17,1.33 -5.31,0.97 -5.36,0.58 -5.40,0.19 -5.35,-0.18 -5.31,-0.57 -5.17,-0.93 -5.03,-1.29 -4.81,-1.61 -4.59,-1.93 -4.30,-2.19 -4.01,-2.45 -3.66,-2.63 -3.32,-2.81 -3.92,-3.09 -4.53,-3.37 -3.27,-3.81 -2.01,-4.24 -0.55,-4.66 0.90,-5.07 2.04,-5.33 3.18,-5.60 4.27,-5.82 5.35,-6.04 6.90,-6.01 8.45,-5.98 9.64,-5.90 10.82,-5.83 12.21,-5.72 13.60,-5.62 15.05,-5.54 16.50,-5.45 17.67,-5.43 18.83,-5.41 20.29,-5.43 21.76,-5.46 23.71,-5.64 25.67,-5.83 27.60,-6.01 29.53,-6.19 30.85,-6.21 32.17,-6.23 33.32,-6.23 34.48,-6.23 35.92,-6.16 37.37,-6.10 38.62,-5.96 39.87,-5.81 41.40,-5.50 42.94,-5.19 44.01,-4.84 45.08,-4.48 46.37,-3.94 47.66,-3.40 49.15,-2.62 50.64,-1.83 51.99,-0.94 53.33,-0.04 54.51,0.89 55.68,1.83 56.97,2.97 58.27,4.11 59.57,5.44 60.88,6.78 62.18,8.29 63.49,9.80 64.58,11.31 65.67,12.82 66.40,14.19 67.14,15.56 67.66,16.78 68.19,18.00 68.80,19.40 69.41,20.80 70.01,22.30 70.61,23.80 71.30,25.43 71.98,27.06 72.80,28.81 73.62,30.55 74.54,32.44 75.45,34.32 76.37,36.29 77.29,38.26 78.27,40.44 79.24,42.63 80.19,44.88 81.14,47.13 81.94,49.34 82.75,51.55 83.59,53.95 84.43,56.34 85.19,58.84 85.94,61.33 86.64,63.89 87.34,66.45 87.86,68.97 88.39,71.49 88.60,73.96 88.81,76.43 88.77,78.64 88.72,80.84 88.54,83.01 88.37,85.18 88.06,87.60 87.75,90.03 87.33,92.42 86.92,94.82 86.36,97.13 85.80,99.43 85.11,101.68 84.42,103.93 83.67,106.27 82.92,108.62 82.12,111.11 81.32,113.60 80.45,116.16 79.58,118.72 78.77,121.15 77.95,123.57 77.22,125.92 76.49,128.26 75.74,130.56 75.00,132.87 74.21,135.31 73.42,137.74 72.64,140.27 71.86,142.80 71.13,144.96 70.40,147.12 69.56,149.23 68.72,151.33 67.76,153.43 66.80,155.53 65.76,157.44 64.71,159.34 63.62,160.98 62.53,162.61 61.25,164.26 59.97,165.92 58.54,167.47 57.12,169.03 55.63,170.33 54.14,171.63 52.61,172.70 51.09,173.76 49.40,174.72 47.72,175.68 45.81,176.65 43.91,177.62 41.94,178.43 39.97,179.24 37.63,180.07 35.28,180.90 31.82,181.95 28.36,183.00 25.69,183.49 23.03,183.97 20.01,184.22 16.99,184.47 14.78,184.54 12.58,184.61 10.90,184.51 9.22,184.41 7.07,184.36 4.92,184.31 2.75,184.20 0.58,184.08 -1.54,183.85 -3.67,183.62 -5.92,183.31 -8.17,183.01 -10.67,182.62 -13.17,182.22 -15.39,181.84 -17.61,181.46 -19.25,181.10 -20.89,180.75 -22.48,180.43 -24.08,180.12 -25.48,179.84 -26.88,179.55 -28.05,179.26 -29.21,178.98 -30.39,178.67 -31.57,178.36 -32.91,178.02 -34.25,177.67 -35.52,177.30 -36.79,176.92 -37.94,176.49 -39.09,176.06 -40.56,175.49 -42.04,174.92 -43.57,174.27 -45.11,173.63 -46.65,172.92 -48.20,172.21 -49.76,171.41 -51.32,170.60 -52.94,169.69 -54.56,168.78 -55.98,167.86 -57.39,166.94 -58.42,166.07 -59.45,165.21 -60.33,164.33 -61.22,163.45 -61.88,162.61 -62.53,161.76 -63.33,159.81 -64.14,157.86 -64.00,156.24 -63.86,154.61 -63.13,153.22 -62.39,151.83 -61.35,150.71 -60.31,149.59 -59.53,148.82 -58.74,148.04 -57.78,147.05 -56.82,146.05 -55.71,144.89 -54.60,143.74 -53.41,142.43 -52.22,141.12 -50.95,139.44 -49.68,137.77 -48.39,135.96 -47.10,134.16 -46.00,132.40 -44.90,130.65 -43.79,128.72 -42.68,126.78 -41.61,124.66 -40.54,122.54 -39.68,120.42 -38.83,118.30 -38.24,116.31 -37.65,114.31 -37.35,112.46 -37.05,110.60 -36.99,108.80 -36.92,107.00 -36.96,105.21 -36.99,103.42 -37.04,101.77 -37.09,100.11 -37.16,98.62 -37.24,97.14 -37.39,95.56 -37.55,93.99 -37.79,92.21 -38.02,90.43 -38.26,88.59 -38.49,86.76 -38.75,84.76 -39.01,82.75 -39.25,80.71 -39.49,78.66 -39.69,76.57 -39.90,74.47 -40.03,72.25 -40.16,70.03 -40.21,67.85 -40.25,65.68 -40.25,63.64 -40.24,61.61 -40.25,59.41 -40.27,57.20 -40.27,54.46 -40.28,51.73 -40.25,48.49 -40.22,45.26 -40.08,42.17 -39.95,39.08 -39.67,36.50 -39.39,33.93 -39.02,31.95 -38.64,29.98 -38.18,28.75 -37.71,27.52 -37.13,26.31 -36.55,25.11 -35.82,23.88 -35.08,22.64 -34.14,21.38 -33.19,20.13 -31.95,18.56 -30.70,16.99 -29.45,15.63 -28.20,14.27 -26.93,13.14 -25.65,12.00 -23.99,10.48 -22.32,8.95 -20.49,7.45 -18.66,5.96 -16.88,4.70 -15.11,3.44 -13.36,2.40 -11.62,1.35 -10.07,0.64 -8.52,-0.07 -7.35,-0.41 -6.19,-0.74 -4.95,-0.99 -3.72,-1.25 -2.04,-1.57 -0.37,-1.89 -0.14,-1.90 0.08,-1.92 0.31,-1.88 0.54,-1.84 0.75,-1.75 0.97,-1.66 1.15,-1.52 1.34,-1.38 1.48,-1.20 1.63,-1.02 1.73,-0.81 1.83,-0.60 1.87,-0.37 1.92,-0.14 1.91,0.08 1.90,0.31 1.83,0.54 1.76,0.76 1.65,0.96 1.53,1.16 1.37,1.33 1.21,1.49 1.01,1.62 0.81,1.74 0.59,1.81 0.37,1.89 0.37,1.89 L 0.37,1.89 Z"></path></g><g stroke-linecap="round" transform="translate(13.111364679755752 343.73378221263107) rotate(0 130.75957658013527 122.34969817669099)"><path d="M0 0 L261.52 0 L261.52 244.7 L0 244.7" stroke="none" stroke-width="0" fill="#f08c00"></path><path d="M0 0 C58.54 0, 117.08 0, 261.52 0 M0 0 C78.33 0, 156.66 0, 261.52 0 M261.52 0 C261.52 84.65, 261.52 169.29, 261.52 244.7 M261.52 0 C261.52 74.96, 261.52 149.93, 261.52 244.7 M261.52 244.7 C189.75 244.7, 117.98 244.7, 0 244.7 M261.52 244.7 C165.75 244.7, 69.99 244.7, 0 244.7 M0 244.7 C0 194.73, 0 144.76, 0 0 M0 244.7 C0 172.98, 0 101.27, 0 0" stroke="#1e1e1e" stroke-width="4" fill="none"></path></g><g transform="translate(130.69273483523466 373.439352676051) rotate(0 13.100785219561203 89.84728667921416)" stroke="none"><path d="M1.8 -1.76 C-0.39 -1.27, -6.72 1, -10.79 2.74 C-14.85 4.49, -19.96 6.06, -22.6 8.71 C-25.23 11.37, -24.62 15.15, -26.59 18.68 C-28.57 22.21, -32.23 25.91, -34.46 29.89 C-36.7 33.87, -39.41 36.48, -40.01 42.56 C-40.62 48.63, -39.12 57.21, -38.09 66.34 C-37.05 75.47, -34.09 89.64, -33.8 97.32 C-33.5 105, -35.36 107.35, -36.3 112.42 C-37.25 117.5, -37.87 123.81, -39.47 127.77 C-41.06 131.73, -42.52 131.48, -45.88 136.17 C-49.23 140.85, -56.96 152.08, -59.6 155.89 C-62.24 159.7, -62.39 157.75, -61.73 159.03 C-61.07 160.31, -58.63 161.74, -55.63 163.55 C-52.64 165.35, -47.47 168.09, -43.74 169.86 C-40.02 171.62, -40.5 171.66, -33.29 174.16 C-26.08 176.66, -10.62 183.92, -0.48 184.86 C9.67 185.8, 20.13 180.88, 27.59 179.81 C35.04 178.74, 39.96 180.29, 44.24 178.46 C48.52 176.63, 50.09 171.87, 53.25 168.84 C56.41 165.82, 61.61 162.54, 63.2 160.31 C64.79 158.08, 61.33 158.16, 62.79 155.44 C64.25 152.73, 67.8 153.93, 71.93 144.01 C76.05 134.08, 85.25 108.08, 87.54 95.89 C89.83 83.69, 86.68 78.18, 85.65 70.83 C84.63 63.47, 83.18 56.89, 81.38 51.77 C79.59 46.66, 77.74 46.1, 74.89 40.12 C72.03 34.15, 67.77 21.72, 64.26 15.93 C60.75 10.14, 56.64 8.27, 53.83 5.37 C51.01 2.47, 49.66 0.04, 47.34 -1.46 C45.03 -2.95, 46.89 -3.21, 39.93 -3.59 C32.97 -3.97, 13.4 -4.15, 5.59 -3.75 C-2.23 -3.36, -6.2 -1.83, -6.95 -1.23 C-7.7 -0.62, 0.07 -0.41, 1.08 -0.11" stroke="none" stroke-width="0" fill="#2f9e44" fill-rule="evenodd"></path><path fill="#1e1e1e" d="M 0.37,1.89 Q 0.37,1.89 -1.29,2.23 -2.95,2.57 -4.03,2.94 -5.11,3.30 -7.43,4.34 -9.74,5.38 -11.43,6.23 -13.11,7.07 -14.86,8.10 -16.61,9.12 -18.41,10.41 -20.22,11.70 -21.87,13.07 -23.53,14.44 -24.67,15.60 -25.82,16.77 -26.94,18.06 -28.07,19.35 -29.28,20.83 -30.50,22.30 -31.26,23.52 -32.02,24.74 -32.52,25.86 -33.01,26.97 -33.40,28.07 -33.79,29.16 -34.09,30.27 -34.40,31.37 -34.83,33.10 -35.27,34.83 -35.73,37.23 -36.19,39.64 -36.47,42.56 -36.74,45.49 -36.89,48.65 -37.03,51.82 -37.11,54.53 -37.19,57.24 -37.23,59.44 -37.28,61.63 -37.29,63.66 -37.29,65.69 -37.29,67.84 -37.29,70.00 -37.20,72.16 -37.10,74.33 -36.90,76.36 -36.70,78.39 -36.44,80.40 -36.19,82.41 -35.91,84.39 -35.63,86.37 -35.31,88.17 -34.99,89.97 -34.67,91.73 -34.35,93.49 -34.06,95.07 -33.78,96.65 -33.58,98.22 -33.38,99.78 -33.28,101.52 -33.18,103.26 -33.16,105.09 -33.13,106.93 -33.23,108.85 -33.32,110.77 -33.74,112.86 -34.15,114.95 -34.92,117.14 -35.68,119.32 -36.67,121.54 -37.67,123.76 -38.85,125.96 -40.03,128.16 -41.23,130.14 -42.42,132.12 -43.55,133.90 -44.69,135.68 -46.06,137.54 -47.42,139.41 -48.73,141.10 -50.04,142.79 -51.17,144.23 -52.31,145.67 -53.33,146.94 -54.35,148.22 -55.16,149.31 -55.97,150.40 -56.63,151.30 -57.29,152.19 -58.00,153.36 -58.71,154.53 -58.74,155.66 -58.78,156.78 -58.22,157.73 -57.67,158.68 -56.52,159.85 -55.36,161.01 -54.50,161.77 -53.63,162.52 -52.50,163.36 -51.38,164.20 -49.97,165.21 -48.55,166.21 -47.17,167.04 -45.79,167.87 -44.40,168.57 -43.02,169.26 -41.58,169.92 -40.13,170.58 -38.75,171.13 -37.37,171.67 -36.30,171.99 -35.24,172.30 -34.09,172.58 -32.95,172.87 -31.65,173.18 -30.35,173.50 -29.19,173.75 -28.02,174.01 -26.88,174.24 -25.74,174.48 -24.37,174.77 -23.01,175.07 -21.41,175.48 -19.80,175.88 -18.13,176.34 -16.46,176.80 -14.33,177.46 -12.19,178.11 -9.80,178.70 -7.42,179.28 -5.25,179.73 -3.09,180.18 -1.03,180.51 1.01,180.84 3.08,181.03 5.15,181.23 7.24,181.33 9.33,181.44 10.98,181.40 12.64,181.36 14.80,181.38 16.95,181.39 19.88,181.21 22.81,181.03 25.34,180.60 27.87,180.18 31.17,179.20 34.48,178.22 36.77,177.43 39.06,176.64 40.96,175.86 42.86,175.08 44.66,174.15 46.46,173.22 48.02,172.24 49.58,171.25 50.92,170.18 52.26,169.11 53.63,167.88 54.99,166.64 56.33,165.21 57.67,163.78 58.88,162.24 60.09,160.71 61.07,159.16 62.05,157.61 63.11,155.82 64.17,154.03 65.13,152.06 66.08,150.09 66.93,148.07 67.77,146.05 68.50,143.97 69.23,141.89 70.02,139.41 70.81,136.93 71.62,134.48 72.43,132.03 73.18,129.73 73.93,127.43 74.67,125.10 75.41,122.77 76.23,120.32 77.06,117.87 77.94,115.31 78.82,112.75 79.61,110.28 80.40,107.81 81.16,105.47 81.91,103.12 82.59,100.89 83.28,98.66 83.82,96.43 84.36,94.20 84.75,91.89 85.15,89.58 85.46,87.21 85.76,84.85 85.93,82.74 86.10,80.62 86.14,78.50 86.18,76.38 85.98,74.05 85.77,71.72 85.27,69.35 84.77,66.99 84.09,64.51 83.41,62.02 82.66,59.56 81.92,57.10 81.09,54.76 80.27,52.42 79.47,50.22 78.67,48.03 77.75,45.84 76.82,43.65 75.86,41.49 74.89,39.33 73.98,37.38 73.07,35.43 72.15,33.58 71.22,31.74 70.33,30.02 69.44,28.31 68.63,26.69 67.83,25.08 67.10,23.62 66.37,22.17 65.65,20.89 64.94,19.60 64.28,18.45 63.63,17.30 62.88,16.09 62.12,14.87 61.16,13.51 60.20,12.15 59.05,10.70 57.90,9.25 56.70,8.03 55.51,6.80 54.31,5.82 53.12,4.84 51.98,4.05 50.85,3.26 49.61,2.49 48.36,1.73 47.03,1.06 45.70,0.39 44.62,0.05 43.53,-0.28 41.99,-0.49 40.45,-0.69 39.23,-0.65 38.01,-0.61 36.24,-0.53 34.47,-0.45 33.32,-0.45 32.16,-0.45 30.85,-0.47 29.53,-0.49 27.67,-0.57 25.81,-0.64 23.87,-0.69 21.92,-0.74 20.42,-0.70 18.92,-0.67 17.75,-0.61 16.58,-0.56 15.10,-0.45 13.62,-0.34 12.22,-0.23 10.82,-0.13 9.64,-0.05 8.45,0.02 7.26,0.12 6.06,0.23 4.90,0.59 3.73,0.94 2.46,1.30 1.20,1.66 -0.00,2.07 -1.21,2.48 -2.35,2.97 -3.50,3.46 -2.27,3.34 -1.04,3.21 -1.41,3.31 -1.79,3.40 -2.18,3.40 -2.57,3.40 -2.95,3.30 -3.32,3.21 -3.67,3.03 -4.01,2.85 -4.30,2.59 -4.59,2.33 -4.81,2.01 -5.03,1.69 -5.17,1.33 -5.31,0.97 -5.36,0.58 -5.40,0.19 -5.35,-0.18 -5.31,-0.57 -5.17,-0.93 -5.03,-1.29 -4.81,-1.61 -4.59,-1.93 -4.30,-2.19 -4.01,-2.45 -3.66,-2.63 -3.32,-2.81 -2.38,-2.87 -1.43,-2.93 -0.95,-2.73 -0.47,-2.53 -0.08,-2.18 0.30,-1.84 0.56,-1.39 0.83,-0.94 0.93,-0.43 1.03,0.07 0.97,0.59 0.90,1.11 0.68,1.58 0.45,2.05 0.09,2.42 -0.27,2.79 -0.73,3.03 -1.20,3.27 -1.71,3.34 -2.23,3.42 -2.74,3.33 -3.26,3.24 -3.71,2.98 -4.17,2.73 -4.52,2.35 -4.87,1.96 -5.09,1.49 -5.30,1.01 -5.35,0.49 -5.39,-0.02 -5.27,-0.53 -5.15,-1.03 -4.88,-1.48 -4.60,-1.92 -4.20,-2.25 -3.80,-2.58 -3.31,-2.77 -2.82,-2.95 -2.30,-2.97 -1.78,-2.99 -1.28,-2.84 -0.78,-2.70 -0.35,-2.40 0.07,-2.10 0.38,-1.68 0.68,-1.26 0.84,-0.76 1.00,-0.26 0.99,0.25 0.99,0.77 0.81,1.26 0.64,1.75 0.31,2.16 -0.00,2.57 -0.43,2.86 -0.87,3.14 -1.38,3.28 -1.88,3.41 -1.46,3.31 -1.04,3.21 -1.41,3.31 -1.79,3.40 -2.18,3.40 -2.57,3.40 -2.95,3.30 -3.32,3.21 -3.67,3.03 -4.01,2.85 -4.30,2.59 -4.59,2.33 -4.81,2.01 -5.03,1.69 -5.17,1.33 -5.31,0.97 -5.36,0.58 -5.40,0.19 -5.35,-0.18 -5.31,-0.57 -5.17,-0.93 -5.03,-1.29 -4.81,-1.61 -4.59,-1.93 -4.30,-2.19 -4.01,-2.45 -3.66,-2.63 -3.32,-2.81 -3.92,-3.09 -4.53,-3.37 -3.27,-3.81 -2.01,-4.24 -0.55,-4.66 0.90,-5.07 2.04,-5.33 3.18,-5.60 4.27,-5.82 5.35,-6.04 6.90,-6.01 8.45,-5.98 9.64,-5.90 10.82,-5.83 12.21,-5.72 13.60,-5.62 15.05,-5.54 16.50,-5.45 17.67,-5.43 18.83,-5.41 20.29,-5.43 21.76,-5.46 23.71,-5.64 25.67,-5.83 27.60,-6.01 29.53,-6.19 30.85,-6.21 32.17,-6.23 33.32,-6.23 34.48,-6.23 35.92,-6.16 37.37,-6.10 38.62,-5.96 39.87,-5.81 41.40,-5.50 42.94,-5.19 44.01,-4.84 45.08,-4.48 46.37,-3.94 47.66,-3.40 49.15,-2.62 50.64,-1.83 51.99,-0.94 53.33,-0.04 54.51,0.89 55.68,1.83 56.97,2.97 58.27,4.11 59.57,5.44 60.88,6.78 62.18,8.29 63.49,9.80 64.58,11.31 65.67,12.82 66.40,14.19 67.14,15.56 67.66,16.78 68.19,18.00 68.80,19.40 69.41,20.80 70.01,22.30 70.61,23.80 71.30,25.43 71.98,27.06 72.80,28.81 73.62,30.55 74.54,32.44 75.45,34.32 76.37,36.29 77.29,38.26 78.27,40.44 79.24,42.63 80.19,44.88 81.14,47.13 81.94,49.34 82.75,51.55 83.59,53.95 84.43,56.34 85.19,58.84 85.94,61.33 86.64,63.89 87.34,66.45 87.86,68.97 88.39,71.49 88.60,73.96 88.81,76.43 88.77,78.64 88.72,80.84 88.54,83.01 88.37,85.18 88.06,87.60 87.75,90.03 87.33,92.42 86.92,94.82 86.36,97.13 85.80,99.43 85.11,101.68 84.42,103.93 83.67,106.27 82.92,108.62 82.12,111.11 81.32,113.60 80.45,116.16 79.58,118.72 78.77,121.15 77.95,123.57 77.22,125.92 76.49,128.26 75.74,130.56 75.00,132.87 74.21,135.31 73.42,137.74 72.64,140.27 71.86,142.80 71.13,144.96 70.40,147.12 69.56,149.23 68.72,151.33 67.76,153.43 66.80,155.53 65.76,157.44 64.71,159.34 63.62,160.98 62.53,162.61 61.25,164.26 59.97,165.92 58.54,167.47 57.12,169.03 55.63,170.33 54.14,171.63 52.61,172.70 51.09,173.76 49.40,174.72 47.72,175.68 45.81,176.65 43.91,177.62 41.94,178.43 39.97,179.24 37.63,180.07 35.28,180.90 31.82,181.95 28.36,183.00 25.69,183.49 23.03,183.97 20.01,184.22 16.99,184.47 14.78,184.54 12.58,184.61 10.90,184.51 9.22,184.41 7.07,184.36 4.92,184.31 2.75,184.20 0.58,184.08 -1.54,183.85 -3.67,183.62 -5.92,183.31 -8.17,183.01 -10.67,182.62 -13.17,182.22 -15.39,181.84 -17.61,181.46 -19.25,181.10 -20.89,180.75 -22.48,180.43 -24.08,180.12 -25.48,179.84 -26.88,179.55 -28.05,179.26 -29.21,178.98 -30.39,178.67 -31.57,178.36 -32.91,178.02 -34.25,177.67 -35.52,177.30 -36.79,176.92 -37.94,176.49 -39.09,176.06 -40.56,175.49 -42.04,174.92 -43.57,174.27 -45.11,173.63 -46.65,172.92 -48.20,172.21 -49.76,171.41 -51.32,170.60 -52.94,169.69 -54.56,168.78 -55.98,167.86 -57.39,166.94 -58.42,166.07 -59.45,165.21 -60.33,164.33 -61.22,163.45 -61.88,162.61 -62.53,161.76 -63.33,159.81 -64.14,157.86 -64.00,156.24 -63.86,154.61 -63.13,153.22 -62.39,151.83 -61.35,150.71 -60.31,149.59 -59.53,148.82 -58.74,148.04 -57.78,147.05 -56.82,146.05 -55.71,144.89 -54.60,143.74 -53.41,142.43 -52.22,141.12 -50.95,139.44 -49.68,137.77 -48.39,135.96 -47.10,134.16 -46.00,132.40 -44.90,130.65 -43.79,128.72 -42.68,126.78 -41.61,124.66 -40.54,122.54 -39.68,120.42 -38.83,118.30 -38.24,116.31 -37.65,114.31 -37.35,112.46 -37.05,110.60 -36.99,108.80 -36.92,107.00 -36.96,105.21 -36.99,103.42 -37.04,101.77 -37.09,100.11 -37.16,98.62 -37.24,97.14 -37.39,95.56 -37.55,93.99 -37.79,92.21 -38.02,90.43 -38.26,88.59 -38.49,86.76 -38.75,84.76 -39.01,82.75 -39.25,80.71 -39.49,78.66 -39.69,76.57 -39.90,74.47 -40.03,72.25 -40.16,70.03 -40.21,67.85 -40.25,65.68 -40.25,63.64 -40.24,61.61 -40.25,59.41 -40.27,57.20 -40.27,54.46 -40.28,51.73 -40.25,48.49 -40.22,45.26 -40.08,42.17 -39.95,39.08 -39.67,36.50 -39.39,33.93 -39.02,31.95 -38.64,29.98 -38.18,28.75 -37.71,27.52 -37.13,26.31 -36.55,25.11 -35.82,23.88 -35.08,22.64 -34.14,21.38 -33.19,20.13 -31.95,18.56 -30.70,16.99 -29.45,15.63 -28.20,14.27 -26.93,13.14 -25.65,12.00 -23.99,10.48 -22.32,8.95 -20.49,7.45 -18.66,5.96 -16.88,4.70 -15.11,3.44 -13.36,2.40 -11.62,1.35 -10.07,0.64 -8.52,-0.07 -7.35,-0.41 -6.19,-0.74 -4.95,-0.99 -3.72,-1.25 -2.04,-1.57 -0.37,-1.89 -0.14,-1.90 0.08,-1.92 0.31,-1.88 0.54,-1.84 0.75,-1.75 0.97,-1.66 1.15,-1.52 1.34,-1.38 1.48,-1.20 1.63,-1.02 1.73,-0.81 1.83,-0.60 1.87,-0.37 1.92,-0.14 1.91,0.08 1.90,0.31 1.83,0.54 1.76,0.76 1.65,0.96 1.53,1.16 1.37,1.33 1.21,1.49 1.01,1.62 0.81,1.74 0.59,1.81 0.37,1.89 0.37,1.89 L 0.37,1.89 Z"></path></g><g stroke-linecap="round" transform="translate(10 10) rotate(0 130.75957658013527 122.34969817669099)"><path d="M0 0 L261.52 0 L261.52 244.7 L0 244.7" stroke="none" stroke-width="0" fill="#f08c00"></path><path d="M0 0 C72.46 0, 144.93 0, 261.52 0 M0 0 C66.69 0, 133.38 0, 261.52 0 M261.52 0 C261.52 77.45, 261.52 154.89, 261.52 244.7 M261.52 0 C261.52 74.85, 261.52 149.7, 261.52 244.7 M261.52 244.7 C163.27 244.7, 65.01 244.7, 0 244.7 M261.52 244.7 C193.68 244.7, 125.85 244.7, 0 244.7 M0 244.7 C0 173.56, 0 102.42, 0 0 M0 244.7 C0 176.43, 0 108.15, 0 0" stroke="#1e1e1e" stroke-width="4" fill="none"></path></g><g transform="translate(166.554174173648 46.91658083422304) rotate(0 19.883913412536856 62.27449936842625)" stroke="none"><path d="M-6.34 -1.12 C-1.71 -0.98, 15.49 -0.66, 21.45 -0.32 C27.41 0.02, 24.45 -0.4, 29.41 0.92 C34.38 2.25, 46.63 6.11, 51.22 7.65 C55.81 9.2, 55.54 9.32, 56.94 10.18 C58.35 11.05, 58.28 9.85, 59.64 12.83 C60.99 15.8, 63.63 22.77, 65.06 28.04 C66.49 33.3, 68.47 40.28, 68.22 44.41 C67.96 48.54, 65.29 46.37, 63.51 52.81 C61.73 59.24, 60.33 73.97, 57.54 83 C54.76 92.04, 50.44 100.3, 46.8 107.02 C43.16 113.73, 38.74 119.55, 35.72 123.3 C32.7 127.05, 30.52 128.5, 28.68 129.54 C26.83 130.58, 25.77 129.83, 24.67 129.56 C23.57 129.29, 24.66 130.96, 22.08 127.89 C19.5 124.83, 14.44 117.35, 9.19 111.18 C3.94 105, -4.27 97.01, -9.42 90.84 C-14.57 84.68, -18.62 79.09, -21.69 74.19 C-24.75 69.29, -26.66 65.12, -27.79 61.46 C-28.92 57.79, -28.67 55.96, -28.45 52.19 C-28.23 48.42, -27.37 43.54, -26.48 38.82 C-25.59 34.1, -24.84 30.11, -23.11 23.87 C-21.37 17.64, -17.54 5.88, -16.06 1.43 C-14.59 -3.02, -15.06 -1.81, -14.24 -2.82 C-13.42 -3.83, -12.45 -4.23, -11.14 -4.62 C-9.84 -5.01, -7.23 -5.76, -6.43 -5.17 C-5.63 -4.59, -6.36 -1.79, -6.34 -1.12" stroke="none" stroke-width="0" fill="#f08c00" fill-rule="evenodd"></path><path fill="#1e1e1e" d="M -6.34,-2.74 Q -6.34,-2.74 -4.12,-2.70 -1.90,-2.65 0.60,-2.62 3.12,-2.59 8.42,-2.34 13.72,-2.08 18.29,-1.61 22.86,-1.14 26.45,-0.48 30.04,0.17 32.99,0.86 35.95,1.56 38.59,2.28 41.23,3.00 43.42,3.66 45.60,4.32 47.37,4.86 49.14,5.40 50.61,5.87 52.09,6.34 53.29,6.73 54.49,7.11 56.20,7.78 57.91,8.45 59.25,9.41 60.59,10.37 61.69,11.92 62.79,13.47 63.27,14.51 63.76,15.55 64.26,16.83 64.76,18.11 65.23,19.76 65.70,21.41 66.16,23.12 66.62,24.83 67.05,26.59 67.48,28.35 67.87,30.14 68.26,31.93 68.63,33.47 69.00,35.01 69.34,36.25 69.68,37.49 70.11,39.28 70.55,41.07 70.71,42.29 70.88,43.51 70.62,45.11 70.37,46.70 69.59,48.07 68.80,49.43 68.13,50.53 67.45,51.64 66.89,53.07 66.33,54.51 65.68,56.72 65.03,58.92 64.61,60.58 64.20,62.24 63.65,64.76 63.11,67.27 62.56,69.74 62.02,72.21 61.68,73.95 61.34,75.69 61.14,77.03 60.94,78.36 60.58,79.88 60.22,81.40 59.56,83.18 58.90,84.96 58.17,86.56 57.43,88.17 56.43,90.05 55.42,91.92 54.71,93.49 54.00,95.07 53.54,96.34 53.08,97.61 52.57,99.43 52.06,101.25 51.63,102.37 51.21,103.49 50.55,104.84 49.90,106.19 49.19,107.40 48.47,108.60 47.78,109.62 47.09,110.63 46.47,111.55 45.85,112.47 44.75,114.19 43.65,115.92 42.96,116.99 42.27,118.06 41.41,119.37 40.55,120.68 39.77,121.85 39.00,123.03 38.37,123.91 37.73,124.80 36.83,125.82 35.92,126.83 34.79,127.92 33.66,129.01 32.63,129.83 31.60,130.65 30.51,131.19 29.42,131.73 27.55,132.07 25.68,132.40 23.92,131.95 22.15,131.49 21.01,130.69 19.88,129.88 18.92,128.92 17.96,127.97 17.22,126.97 16.48,125.98 15.86,124.81 15.25,123.63 14.29,122.30 13.33,120.96 11.62,118.58 9.90,116.19 8.20,113.93 6.50,111.66 5.20,109.97 3.91,108.29 2.86,107.14 1.82,105.99 0.71,104.77 -0.38,103.56 -1.62,102.22 -2.85,100.87 -4.04,99.64 -5.22,98.40 -6.28,97.33 -7.34,96.26 -8.40,95.11 -9.47,93.97 -10.48,92.78 -11.50,91.59 -12.45,90.38 -13.41,89.18 -14.46,87.74 -15.52,86.30 -16.64,84.75 -17.76,83.21 -18.85,81.69 -19.94,80.18 -20.93,78.78 -21.92,77.37 -22.79,75.96 -23.66,74.56 -24.48,73.13 -25.30,71.70 -26.06,70.32 -26.83,68.95 -27.49,67.64 -28.16,66.34 -28.69,65.16 -29.23,63.99 -29.63,62.89 -30.03,61.79 -30.46,59.86 -30.88,57.93 -31.01,55.85 -31.14,53.76 -31.13,52.68 -31.13,51.61 -31.08,50.52 -31.03,49.44 -30.83,47.57 -30.63,45.69 -30.43,44.18 -30.23,42.67 -29.98,41.08 -29.72,39.50 -29.31,37.62 -28.89,35.74 -28.41,33.68 -27.94,31.63 -27.68,30.55 -27.43,29.47 -27.19,28.39 -26.95,27.32 -26.68,26.14 -26.41,24.97 -26.08,23.74 -25.74,22.51 -25.38,21.30 -25.01,20.10 -24.66,18.92 -24.31,17.75 -23.92,16.50 -23.53,15.25 -23.10,13.97 -22.66,12.69 -22.31,11.59 -21.95,10.49 -21.47,8.78 -21.00,7.08 -20.57,5.68 -20.14,4.28 -19.80,3.22 -19.47,2.16 -19.12,0.83 -18.76,-0.48 -18.34,-1.72 -17.92,-2.96 -17.25,-4.11 -16.58,-5.26 -15.47,-6.10 -14.37,-6.93 -12.81,-7.49 -11.26,-8.05 -10.08,-8.24 -8.91,-8.43 -7.94,-7.36 -6.96,-6.30 -6.54,-6.30 -6.12,-6.31 -5.71,-6.21 -5.30,-6.12 -4.92,-5.93 -4.54,-5.74 -4.22,-5.46 -3.90,-5.19 -3.66,-4.84 -3.41,-4.50 -3.26,-4.11 -3.10,-3.72 -3.05,-3.30 -2.99,-2.88 -3.03,-2.46 -3.08,-2.04 -3.22,-1.64 -3.37,-1.25 -3.60,-0.90 -3.84,-0.55 -4.15,-0.26 -4.46,0.01 -4.83,0.21 -5.20,0.41 -5.61,0.52 -6.02,0.63 -4.55,-0.68 -3.09,-2.00 -3.31,-1.48 -3.53,-0.96 -3.91,-0.54 -4.28,-0.11 -4.77,0.16 -5.26,0.44 -5.82,0.55 -6.37,0.66 -6.94,0.59 -7.50,0.51 -8.01,0.26 -8.51,0.01 -8.92,-0.37 -9.32,-0.77 -9.57,-1.28 -9.83,-1.78 -9.91,-2.34 -9.99,-2.90 -9.88,-3.46 -9.78,-4.02 -9.51,-4.51 -9.23,-5.01 -8.81,-5.39 -8.39,-5.77 -7.87,-5.99 -7.35,-6.22 -6.79,-6.27 -6.22,-6.32 -5.67,-6.19 -5.12,-6.05 -4.65,-5.75 -4.17,-5.45 -3.81,-5.01 -3.45,-4.57 -3.25,-4.04 -3.06,-3.51 -3.04,-2.94 -3.02,-2.38 -3.18,-1.83 -3.35,-1.29 -3.67,-0.83 -4.00,-0.37 -4.46,-0.04 -4.92,0.29 -5.46,0.46 -6.00,0.63 -6.56,0.61 -7.13,0.60 -7.66,0.41 -8.19,0.22 -8.64,-0.13 -9.08,-0.48 -9.39,-0.95 -9.70,-1.43 -9.84,-1.98 -9.98,-2.53 -8.47,-4.41 -6.96,-6.30 -6.54,-6.30 -6.12,-6.31 -5.71,-6.21 -5.30,-6.12 -4.92,-5.93 -4.54,-5.74 -4.22,-5.46 -3.90,-5.19 -3.66,-4.84 -3.41,-4.50 -3.26,-4.11 -3.10,-3.72 -3.05,-3.30 -2.99,-2.88 -3.03,-2.46 -3.08,-2.04 -3.22,-1.64 -3.37,-1.25 -3.60,-0.90 -3.84,-0.55 -4.15,-0.26 -4.46,0.01 -4.83,0.21 -5.20,0.41 -5.61,0.52 -6.02,0.63 -6.74,-0.41 -7.46,-1.46 -8.56,-1.31 -9.66,-1.16 -10.70,-0.83 -11.74,-0.50 -12.22,0.59 -12.70,1.69 -13.12,2.89 -13.55,4.09 -14.00,5.23 -14.45,6.37 -14.92,7.58 -15.39,8.79 -15.96,10.52 -16.54,12.24 -16.90,13.34 -17.26,14.44 -17.63,15.66 -18.01,16.89 -18.36,18.12 -18.70,19.36 -19.03,20.56 -19.36,21.76 -19.68,22.87 -19.99,23.99 -20.27,25.12 -20.54,26.24 -20.78,27.41 -21.02,28.59 -21.25,29.70 -21.48,30.80 -21.71,31.89 -21.95,32.98 -22.18,34.05 -22.41,35.13 -22.86,37.06 -23.30,38.99 -23.66,40.63 -24.01,42.26 -24.31,43.64 -24.61,45.02 -24.90,46.55 -25.19,48.08 -25.39,49.92 -25.60,51.76 -25.66,53.72 -25.72,55.68 -25.71,57.22 -25.70,58.77 -25.34,60.52 -24.99,62.27 -24.60,63.35 -24.21,64.44 -23.65,65.69 -23.09,66.94 -22.39,68.30 -21.68,69.66 -20.91,71.06 -20.14,72.45 -19.38,73.77 -18.62,75.09 -17.70,76.45 -16.77,77.81 -15.65,79.27 -14.52,80.72 -13.32,82.20 -12.11,83.69 -11.00,85.08 -9.89,86.47 -9.02,87.64 -8.15,88.80 -7.22,89.95 -6.30,91.09 -5.29,92.24 -4.28,93.38 -3.28,94.48 -2.29,95.59 -1.10,96.83 0.08,98.07 1.39,99.39 2.71,100.72 3.85,101.96 4.99,103.21 6.00,104.39 7.01,105.58 8.52,107.11 10.04,108.65 12.02,110.71 14.00,112.77 16.03,114.86 18.06,116.95 19.37,118.30 20.69,119.64 21.34,121.03 21.99,122.42 22.58,123.33 23.17,124.23 24.12,125.32 25.08,126.40 26.20,126.54 27.32,126.68 28.64,125.98 29.97,125.28 30.95,124.26 31.94,123.25 33.29,121.71 34.65,120.17 35.37,119.06 36.10,117.94 36.91,116.54 37.71,115.14 39.03,113.18 40.35,111.22 40.98,110.34 41.62,109.46 42.94,107.73 44.27,106.00 44.91,105.02 45.55,104.05 46.15,102.83 46.76,101.61 47.59,99.83 48.42,98.05 48.85,97.05 49.29,96.04 49.89,94.75 50.48,93.46 51.22,91.87 51.95,90.27 52.76,88.34 53.56,86.41 54.22,84.97 54.87,83.53 55.40,81.93 55.94,80.32 56.31,78.94 56.68,77.56 56.97,76.25 57.27,74.94 57.57,73.24 57.87,71.53 58.13,69.06 58.39,66.58 58.60,63.93 58.80,61.29 59.03,59.35 59.25,57.41 59.56,56.07 59.88,54.73 60.20,53.61 60.53,52.48 60.93,51.37 61.33,50.27 62.26,48.64 63.20,47.02 64.27,45.71 65.34,44.41 65.45,43.10 65.55,41.78 65.37,40.17 65.19,38.56 64.93,37.30 64.67,36.05 64.31,34.52 63.94,32.99 63.48,31.29 63.01,29.59 62.49,27.93 61.97,26.26 61.39,24.61 60.81,22.96 60.30,21.51 59.79,20.05 58.95,17.95 58.12,15.85 57.66,14.84 57.20,13.82 56.45,13.00 55.71,12.17 54.41,11.34 53.11,10.51 52.01,9.96 50.90,9.40 49.55,8.78 48.19,8.16 46.51,7.52 44.83,6.88 42.68,6.24 40.53,5.60 37.93,4.91 35.33,4.21 32.44,3.54 29.55,2.88 26.06,2.26 22.57,1.64 18.08,1.21 13.59,0.77 8.36,0.57 3.12,0.36 0.60,0.39 -1.90,0.42 -4.12,0.47 -6.34,0.51 -6.53,0.49 -6.73,0.46 -6.91,0.39 -7.10,0.32 -7.26,0.21 -7.42,0.10 -7.55,-0.04 -7.68,-0.18 -7.77,-0.36 -7.86,-0.53 -7.91,-0.72 -7.96,-0.91 -7.96,-1.11 -7.96,-1.31 -7.91,-1.50 -7.86,-1.69 -7.77,-1.86 -7.68,-2.04 -7.55,-2.18 -7.42,-2.33 -7.26,-2.44 -7.10,-2.55 -6.91,-2.62 -6.73,-2.69 -6.53,-2.72 -6.34,-2.74 -6.34,-2.74 L -6.34,-2.74 Z"></path></g></svg>