<?xml version="1.0" standalone="no"?>
<!DOCTYPE svg PUBLIC "-//W3C//DTD SVG 20010904//EN"
 "http://www.w3.org/TR/2001/REC-SVG-20010904/DTD/svg10.dtd">
<svg version="1.0" xmlns="http://www.w3.org/2000/svg"
 width="1053.000000pt" height="1536.000000pt" viewBox="0 0 1053.000000 1536.000000"
 preserveAspectRatio="xMidYMid meet">
<metadata>
Created by potrace 1.16, written by Peter Selinger 2001-2019
</metadata>
<g transform="translate(0.000000,1536.000000) scale(0.100000,-0.100000)"
fill="#000000" stroke="none">
<path d="M4640 15354 c-398 -46 -688 -173 -944 -415 -262 -248 -444 -596 -526
-1009 -44 -223 -53 -338 -47 -612 5 -257 22 -398 71 -617 l25 -113 -27 -24
c-15 -13 -86 -64 -158 -114 -144 -99 -229 -180 -267 -256 -27 -54 -47 -135
-47 -191 0 -31 -12 -47 -95 -135 -188 -198 -299 -373 -361 -568 -20 -63 -45
-138 -55 -166 -19 -49 -72 -124 -88 -124 -7 0 -32 135 -47 256 -6 46 -9 52
-40 63 -41 15 -75 69 -100 161 -25 94 -51 140 -84 153 -29 11 -29 12 -29 93 0
91 -13 153 -43 203 l-21 33 22 102 c28 132 27 144 -10 182 l-32 33 17 93 c82
453 233 857 405 1086 38 50 67 92 65 92 -17 0 -102 -72 -184 -155 -52 -53
-117 -112 -143 -132 -47 -35 -48 -35 -68 -17 -12 11 -61 100 -109 199 -85 172
-89 179 -99 152 -22 -58 -13 -100 48 -220 72 -139 79 -177 52 -272 -21 -72
-33 -191 -51 -525 -11 -205 -26 -301 -59 -374 l-19 -45 26 -63 c35 -86 42
-226 15 -279 l-19 -36 39 -44 c70 -78 96 -169 74 -255 -7 -28 -5 -32 23 -44
36 -15 77 -61 98 -110 20 -49 19 -141 -3 -190 -17 -38 -20 -40 -64 -40 -51 0
-115 -27 -118 -50 -2 -8 12 -24 29 -35 57 -36 73 -77 73 -187 0 -53 -3 -100
-8 -104 -4 -4 -37 -11 -74 -16 -65 -7 -119 -31 -109 -47 3 -5 33 -19 66 -31
96 -36 100 -46 100 -221 l0 -149 -32 -20 c-19 -12 -51 -20 -75 -20 -24 0 -43
-4 -43 -9 0 -26 17 -44 61 -66 27 -14 53 -34 59 -46 41 -75 -54 -56 -498 100
-79 27 -167 53 -196 56 -47 6 -54 11 -71 41 -43 81 -129 134 -217 134 -34 0
-38 3 -38 26 0 26 -34 135 -65 208 -12 29 -19 36 -28 27 -19 -19 -66 -12 -140
21 -56 25 -86 33 -135 33 -61 0 -62 0 -73 33 -7 23 -26 43 -56 62 -43 27 -47
28 -88 15 -24 -7 -57 -22 -74 -34 -27 -19 -31 -29 -31 -66 0 -84 33 -131 135
-192 33 -20 74 -49 90 -64 19 -17 63 -38 115 -54 118 -37 294 -123 499 -244
359 -211 544 -283 799 -309 79 -8 93 -19 49 -40 -41 -20 -42 -35 -4 -85 51
-67 72 -154 64 -270 -6 -89 -4 -103 39 -268 24 -96 109 -367 188 -604 80 -236
152 -458 161 -492 20 -71 14 -68 175 -100 66 -14 135 -17 310 -17 224 0 359
13 615 58 44 8 83 12 86 10 4 -2 9 -21 13 -42 3 -21 30 -89 61 -150 62 -127
67 -120 -65 -98 -47 8 -108 18 -136 21 l-51 7 -5 -84 c-2 -46 -8 -90 -13 -97
-7 -12 -39 -12 -184 -5 -97 4 -243 8 -324 9 l-148 0 -23 -56 c-13 -32 -51
-103 -86 -159 -129 -209 -147 -297 -161 -775 -10 -393 -18 -453 -70 -557 -25
-49 -6 -61 31 -19 19 20 38 31 56 31 l27 0 -6 -198 c-6 -224 -25 -373 -68
-541 -16 -64 -29 -119 -29 -123 0 -5 13 -8 30 -8 51 0 57 -31 22 -109 -17 -36
-54 -123 -82 -193 -30 -74 -73 -158 -102 -199 l-49 -70 -3 -117 c-2 -81 -9
-146 -25 -210 l-23 -93 26 -72 c33 -92 46 -185 33 -246 -5 -25 -9 -53 -9 -61
-1 -17 177 -398 218 -468 60 -102 162 -188 252 -212 48 -12 51 -21 20 -50
l-22 -20 21 -22 c59 -64 90 -178 99 -358 5 -88 12 -135 24 -160 32 -63 68
-194 85 -305 23 -149 25 -153 77 -157 l43 -3 -1 -45 c-6 -223 -25 -669 -30
-699 -5 -30 8 -89 61 -267 76 -259 120 -383 177 -499 113 -226 270 -362 478
-414 76 -19 85 -26 94 -72 5 -23 12 -27 58 -33 102 -12 161 -7 214 18 85 40
134 126 134 235 0 95 -29 166 -44 108 -9 -38 -73 -104 -117 -121 -23 -10 -69
-19 -103 -22 l-61 -5 -144 95 c-79 53 -174 121 -210 152 -153 128 -241 271
-265 429 -7 53 -23 110 -38 140 -14 28 -31 67 -38 88 -10 34 -10 41 6 58 25
28 22 81 -10 156 -14 34 -26 78 -26 98 0 32 2 35 31 35 24 0 29 3 25 18 -18
60 -26 214 -20 380 l7 185 26 -31 c18 -22 30 -29 39 -23 11 7 10 16 -8 51 -12
23 -19 48 -16 56 9 24 49 15 83 -18 26 -25 36 -29 45 -20 9 9 7 24 -11 64
-130 298 -216 549 -261 768 l-29 135 70 66 c38 37 76 83 84 103 17 40 20 106
5 106 -5 0 -24 -16 -42 -37 -86 -95 -96 -103 -127 -103 -25 0 -32 5 -37 28
-32 146 -100 380 -185 642 -125 385 -189 604 -192 650 -2 31 1 35 28 41 58 13
269 9 333 -6 70 -17 141 -50 146 -68 2 -7 11 -77 21 -157 44 -386 143 -732
295 -1030 112 -218 226 -377 401 -553 84 -86 120 -129 130 -159 l13 -41 267
-132 c343 -170 535 -234 782 -260 54 -6 57 -8 57 -34 0 -51 16 -55 157 -42 69
7 145 19 167 28 28 10 82 16 166 18 83 2 191 14 320 35 191 32 197 34 300 87
344 180 626 435 833 753 154 237 294 575 358 863 10 45 18 61 35 67 29 11 44
40 33 65 -16 41 -8 109 27 216 29 91 35 123 32 176 l-3 65 34 14 c64 27 201
44 351 44 l147 0 7 -57 c4 -32 9 -75 12 -96 5 -29 3 -36 -8 -32 -8 3 -29 -5
-48 -17 -27 -18 -38 -37 -56 -93 -12 -38 -30 -90 -39 -114 -9 -25 -15 -64 -14
-88 3 -37 -2 -49 -44 -100 -59 -72 -116 -188 -158 -318 -67 -210 -151 -387
-369 -775 -220 -393 -315 -594 -288 -611 20 -13 61 -10 82 6 11 8 32 15 47 15
24 0 27 -5 38 -57 10 -46 28 -372 31 -550 0 -32 2 -33 40 -33 37 0 40 -2 40
-27 0 -15 -10 -72 -21 -128 -19 -87 -20 -107 -10 -157 11 -53 10 -61 -15 -120
-56 -135 -141 -233 -371 -435 -147 -129 -245 -239 -288 -323 -19 -37 -33 -51
-66 -64 -75 -30 -118 -75 -119 -123 0 -35 32 -29 85 17 28 24 56 40 72 40 23
0 25 -3 19 -27 -12 -47 -12 -66 0 -70 7 -2 17 10 22 27 6 17 18 30 28 30 11 0
14 -5 9 -17 -26 -67 -8 -146 49 -211 58 -66 130 -80 177 -33 39 39 37 47 -12
43 -32 -3 -46 1 -65 19 -30 28 -54 105 -54 172 0 44 8 62 77 171 217 344 337
499 472 611 78 65 80 67 95 133 36 160 41 212 41 407 0 171 -5 227 -29 381
l-29 182 37 32 c72 64 104 141 160 383 19 85 47 184 61 220 29 71 81 139 125
162 25 13 28 21 38 97 16 126 45 201 178 463 101 198 135 277 194 450 80 233
119 314 181 370 l42 38 19 -67 c23 -85 49 -136 95 -187 l36 -40 -7 -90 c-15
-197 -64 -407 -126 -535 -75 -156 -191 -245 -322 -248 -35 0 -83 3 -107 7
l-43 8 7 -28 c18 -77 74 -108 190 -107 48 1 95 7 116 17 l37 15 6 -40 c9 -54
25 -45 58 33 28 67 58 109 78 109 9 0 11 -25 8 -93 -4 -109 -25 -159 -82 -196
l-37 -25 23 -13 c30 -16 53 -16 86 1 54 28 112 177 112 289 0 38 8 62 40 115
95 157 111 288 85 695 l-18 292 -44 50 c-23 27 -58 81 -78 120 -35 72 -70 198
-60 215 4 6 -9 10 -28 10 -72 0 -107 90 -107 273 l0 109 -30 -6 c-16 -3 -43
-9 -60 -12 -23 -5 -30 -3 -30 9 0 8 -18 42 -40 75 -45 67 -48 82 -21 106 29
26 58 12 86 -44 24 -47 41 -67 51 -58 2 3 -5 45 -15 94 -55 253 -59 611 -10
797 14 51 37 46 66 -16 13 -26 27 -47 33 -47 13 0 13 -4 -9 56 -44 114 -52
201 -61 619 -6 313 -12 414 -24 465 -23 91 -43 138 -81 191 -18 25 -36 61 -40
80 -4 19 -20 66 -36 104 -27 69 -28 70 -76 83 -48 13 -299 11 -514 -4 l-87 -6
-16 49 c-9 28 -18 79 -21 114 -3 59 -6 64 -28 67 -13 2 -54 -4 -91 -12 -107
-25 -106 -26 -106 43 0 167 96 307 281 410 l56 31 269 4 c352 5 527 31 664 99
l65 32 96 480 c53 264 117 582 144 706 l48 226 -21 29 c-49 66 -65 222 -37
342 29 122 81 188 128 163 13 -7 45 -11 72 -9 43 2 68 13 175 81 553 349 921
727 1131 1161 53 109 78 137 227 259 143 116 201 178 240 252 23 42 27 63 26
130 0 100 -12 125 -60 125 -44 0 -86 -20 -139 -64 l-40 -34 17 -53 c10 -29 16
-55 13 -57 -2 -2 -19 5 -38 17 -59 36 -67 31 -67 -49 0 -38 -2 -70 -5 -70 -3
0 -22 9 -42 20 -43 23 -73 26 -74 8 0 -7 0 -38 1 -69 1 -32 -3 -60 -9 -63 -6
-4 -24 8 -42 26 l-31 33 6 -39 c3 -22 -1 -72 -8 -110 -8 -39 -17 -87 -20 -107
-6 -31 -12 -38 -47 -49 -36 -12 -43 -21 -73 -84 -83 -180 -231 -381 -411 -562
-137 -137 -229 -216 -470 -403 l-170 -132 -23 53 c-38 84 -69 217 -112 469
-65 383 -95 463 -230 618 -93 107 -103 126 -93 184 6 43 17 55 137 163 30 26
46 49 46 64 0 47 40 107 111 166 87 73 201 240 294 429 100 205 150 381 162
567 l6 97 -33 37 c-39 45 -63 96 -85 184 -15 60 -20 69 -63 98 -81 55 -153 75
-272 76 -93 1 -109 -2 -142 -22 -39 -24 -85 -79 -74 -89 3 -3 31 6 63 20 42
19 62 23 75 16 24 -13 23 -31 -2 -47 -11 -7 -20 -17 -20 -22 0 -16 27 -12 71
11 81 41 123 14 168 -106 73 -196 36 -558 -90 -882 l-41 -103 -54 0 c-65 0
-68 -4 -114 -140 -44 -129 -57 -153 -78 -145 -39 15 -69 16 -79 3 -13 -15 -59
-165 -67 -218 -6 -34 -8 -36 -41 -32 -26 3 -42 -2 -66 -22 -17 -14 -36 -26
-42 -26 -21 0 -158 73 -232 122 -83 56 -207 166 -296 263 -108 117 -219 251
-219 265 0 7 14 56 31 109 74 230 109 442 116 707 9 306 -24 544 -108 797 -92
278 -223 492 -418 688 -185 184 -345 284 -584 364 -168 56 -312 77 -527 78
-182 1 -240 -4 -240 -23 0 -21 118 -133 183 -174 91 -57 148 -82 382 -168 301
-111 446 -194 529 -302 l27 -36 -33 -21 c-27 -17 -45 -20 -103 -16 -57 3 -88
13 -169 51 -54 25 -103 46 -107 46 -5 0 -9 -8 -9 -18 0 -9 -18 -39 -40 -66
-37 -45 -52 -86 -31 -86 5 0 70 -40 145 -90 159 -105 213 -133 295 -156 69
-19 65 -29 -14 -39 -101 -12 -105 -14 -105 -45 0 -16 9 -54 20 -84 l21 -54
107 -4 c153 -6 192 -32 192 -130 l0 -40 -60 6 c-33 3 -87 9 -119 12 l-60 6
-10 -39 c-19 -72 28 -163 99 -193 16 -7 30 -15 30 -19 0 -3 -20 -19 -45 -36
-66 -44 -71 -59 -49 -150 10 -43 24 -84 32 -91 8 -8 35 -14 63 -14 79 0 89
-10 89 -83 0 -70 -30 -146 -73 -185 -24 -22 -29 -23 -77 -13 -73 16 -216 14
-301 -4 -101 -21 -221 -63 -422 -146 -358 -149 -487 -182 -707 -183 -241 -1
-414 44 -817 213 -288 120 -403 151 -564 151 -86 0 -88 0 -115 33 -39 46 -54
88 -54 152 0 75 27 127 83 160 24 14 53 25 65 25 30 0 42 52 42 187 0 131 -1
133 -99 133 -35 0 -61 4 -61 10 0 6 15 33 34 60 19 27 42 70 52 95 l17 46 -32
46 c-43 60 -49 100 -22 134 22 29 84 49 148 49 97 0 153 36 153 99 0 45 -11
56 -65 65 -62 11 -75 16 -75 31 0 21 40 39 187 83 153 45 213 78 250 134 l27
40 -37 30 c-24 20 -37 38 -37 54 0 13 -2 24 -4 24 -2 0 -55 -16 -116 -35 -164
-51 -264 -45 -245 15 12 38 145 162 210 197 89 47 196 86 408 149 292 86 431
149 510 232 l28 29 -88 12 c-89 12 -409 23 -473 15z m3386 -3544 c23 -11 49
-29 59 -40 17 -19 16 -22 -23 -87 -56 -96 -74 -154 -74 -245 0 -42 3 -86 7
-97 9 -29 -21 -28 -67 4 -25 17 -47 47 -69 91 -30 60 -33 76 -34 158 -1 190
78 275 201 216z m-5286 -250 c32 -319 67 -436 159 -533 46 -49 51 -58 51 -100
0 -25 -9 -70 -21 -100 -25 -65 -23 -69 69 -193 78 -106 199 -216 317 -289 88
-54 96 -61 90 -85 -10 -39 -34 -57 -109 -82 l-70 -23 -113 -140 c-267 -330
-368 -530 -380 -750 -8 -147 5 -196 81 -302 73 -102 90 -132 105 -191 11 -40
10 -44 -11 -62 -13 -11 -48 -29 -78 -41 -49 -19 -77 -22 -260 -23 -181 -2
-211 -5 -257 -23 l-52 -21 -5 27 c-36 168 -84 949 -74 1181 l3 75 101 0 c66 0
106 4 116 13 26 21 66 123 79 199 17 103 0 229 -66 503 -82 340 -89 444 -45
636 24 104 57 178 124 278 49 73 214 262 222 254 2 -2 12 -96 24 -208z m5560
31 c79 -92 98 -118 92 -127 -4 -6 -22 -16 -40 -23 -29 -12 -35 -12 -52 4 -26
24 -74 23 -100 0 -15 -13 -24 -15 -31 -8 -8 8 -4 27 15 68 14 32 26 73 26 92
0 35 1 35 33 29 17 -3 43 -19 57 -35z m144 -260 c23 -25 42 -90 50 -173 8 -74
3 -80 -47 -57 -40 18 -62 66 -61 134 1 61 16 115 32 115 5 0 17 -9 26 -19z
m-641 -203 c20 -26 55 -57 76 -67 32 -17 43 -31 64 -85 56 -140 105 -355 132
-576 23 -197 34 -412 45 -885 6 -242 14 -479 18 -527 l8 -88 -81 6 c-56 5
-107 1 -170 -11 -164 -31 -200 -35 -245 -29 l-45 6 -1 176 c-1 192 -19 311
-71 462 -76 223 -221 417 -402 537 -47 32 -87 58 -89 59 -2 1 6 21 18 44 25
48 78 85 190 130 76 31 79 33 117 98 21 36 82 112 136 168 111 116 116 131 67
203 -47 69 -42 96 36 188 81 97 112 155 120 229 7 57 7 58 23 34 9 -13 33 -46
54 -72z m-5856 7 c22 -16 49 -88 38 -104 -10 -17 -46 1 -60 30 -16 30 -20 89
-7 89 4 0 17 -7 29 -15z m6552 -222 c13 -69 15 -170 1 -178 -20 -12 -42 45
-42 108 0 70 9 127 21 127 5 0 13 -26 20 -57z m-6262 -386 c25 -73 25 -294 -1
-430 l-18 -99 -28 27 c-57 55 -63 141 -24 380 14 88 28 166 30 173 7 23 22 4
41 -51z m6314 -17 c13 -7 19 -21 19 -43 0 -18 7 -42 15 -53 15 -22 11 -34 -11
-34 -18 0 -43 39 -59 95 -12 40 -12 45 1 45 8 0 24 -5 35 -10z m-5827 -3385
c65 -13 137 -34 162 -45 l44 -22 -5 -66 c-6 -72 -36 -507 -60 -872 -9 -124
-18 -386 -22 -583 -6 -322 -8 -357 -22 -351 -44 19 -151 15 -274 -10 -69 -14
-129 -26 -132 -26 -4 0 -5 14 -3 31 4 46 30 59 70 36 35 -20 53 -8 42 28 -4
11 -7 34 -8 50 -1 28 1 30 32 28 21 -1 44 -11 61 -27 15 -14 30 -26 34 -26 11
0 8 34 -5 85 -10 35 -9 52 0 79 12 32 10 39 -17 88 -52 93 -65 163 -64 348 0
92 10 255 21 370 43 409 39 584 -13 712 -31 75 -34 131 -11 176 12 24 22 31
35 27 9 -3 70 -16 135 -30z m5008 -92 c9 -10 23 -23 31 -30 19 -16 31 -117 22
-195 -4 -35 -25 -148 -47 -253 -48 -231 -55 -333 -39 -593 18 -290 -4 -409
-93 -509 l-44 -48 5 -70 c4 -63 2 -74 -20 -107 -32 -47 -14 -58 38 -22 20 13
42 24 50 24 21 0 37 -36 29 -65 -11 -43 -50 -55 -175 -55 l-112 0 7 78 c3 42
11 124 16 182 17 190 11 603 -14 1010 -14 212 -26 432 -28 489 -3 102 -2 104
23 123 15 11 54 23 95 28 38 6 98 14 134 18 98 14 104 13 122 -5z"/>
</g>
</svg>
