<?xml version="1.0" standalone="no"?>
<!DOCTYPE svg PUBLIC "-//W3C//DTD SVG 20010904//EN"
 "http://www.w3.org/TR/2001/REC-SVG-20010904/DTD/svg10.dtd">
<svg version="1.0" xmlns="http://www.w3.org/2000/svg"
 width="624.000000pt" height="1536.000000pt" viewBox="0 0 624.000000 1536.000000"
 preserveAspectRatio="xMidYMid meet">
<metadata>
Created by potrace 1.16, written by Peter Selinger 2001-2019
</metadata>
<g transform="translate(0.000000,1536.000000) scale(0.100000,-0.100000)"
fill="#000000" stroke="none">
<path d="M1817 15353 c-4 -3 -7 -23 -7 -44 0 -43 66 -183 111 -234 16 -18 29
-41 29 -52 0 -26 29 -109 75 -213 21 -47 44 -110 51 -140 7 -30 39 -114 72
-185 43 -95 58 -138 55 -161 -3 -21 15 -79 61 -197 53 -132 66 -177 66 -220 0
-62 19 -122 84 -263 28 -63 46 -115 46 -138 0 -50 40 -167 95 -276 39 -77 43
-93 34 -116 -14 -38 1 -101 52 -215 34 -77 42 -106 43 -159 1 -53 9 -82 45
-163 38 -85 42 -102 32 -123 -16 -36 -14 -48 19 -124 46 -105 48 -124 14 -153
l-28 -25 52 -85 c29 -46 52 -87 52 -91 0 -3 -7 -6 -15 -6 -20 0 -20 0 20 -80
30 -59 33 -73 23 -89 -10 -16 -8 -31 11 -84 13 -39 20 -74 16 -89 -4 -14 4
-65 18 -119 35 -131 39 -169 21 -176 -19 -7 -18 -36 7 -149 19 -90 20 -98 4
-137 -12 -29 -14 -52 -8 -81 4 -23 7 -44 8 -48 0 -4 -21 -22 -47 -40 -92 -66
-157 -179 -145 -253 5 -30 2 -36 -33 -60 -91 -63 -125 -136 -155 -326 -3 -20
-19 -56 -36 -79 -67 -92 -87 -189 -55 -256 8 -16 19 -85 24 -154 11 -142 33
-212 88 -284 33 -44 34 -47 23 -86 -7 -22 -14 -40 -16 -40 -2 0 -16 13 -31 29
-24 26 -50 35 -217 75 -655 157 -695 168 -744 203 -25 18 -56 40 -69 50 -34
24 -87 18 -150 -18 -36 -20 -53 -26 -49 -16 35 92 220 833 242 969 l15 97 -31
56 c-30 54 -31 56 -15 89 21 44 20 55 -4 91 -11 17 -61 109 -111 205 -101 198
-149 270 -179 270 -11 0 -20 -5 -20 -11 0 -7 -12 6 -26 27 -15 21 -46 60 -71
87 l-44 47 2 97 c1 84 -1 98 -17 110 -23 17 -84 12 -119 -11 -26 -17 -95 -147
-95 -179 0 -17 5 -19 31 -13 57 11 101 -30 232 -216 26 -37 46 -71 45 -75 -1
-4 14 -33 34 -63 19 -30 76 -126 126 -214 l91 -158 -38 -37 c-31 -29 -44 -55
-69 -136 -53 -168 -101 -435 -142 -795 -26 -224 -26 -276 0 -318 11 -18 26
-35 34 -38 12 -5 12 -10 0 -39 -37 -89 -2 -133 127 -159 14 -3 63 -33 110 -67
153 -111 271 -156 429 -165 52 -3 134 -14 181 -25 120 -27 256 -39 325 -29 33
4 60 7 62 5 1 -1 -5 -65 -15 -141 -11 -89 -17 -216 -17 -354 l-1 -215 28 -60
c19 -41 24 -61 16 -64 -22 -7 -90 -74 -105 -102 -34 -66 -11 -131 65 -183 l41
-28 -24 -19 c-28 -22 -66 -85 -91 -151 l-17 -46 -72 -6 c-230 -18 -450 -39
-586 -57 -167 -21 -489 -74 -540 -89 -22 -6 -32 -5 -35 3 -2 7 -34 98 -71 202
-84 240 -101 295 -114 370 -26 147 -84 254 -144 269 -16 4 -28 17 -36 40 -15
47 -98 163 -148 208 -41 37 -111 78 -133 78 -7 0 -20 7 -30 16 -10 9 -33 19
-50 23 -50 10 -73 49 -77 134 -5 84 -27 121 -100 168 -113 71 -206 8 -207
-141 0 -117 62 -198 212 -274 48 -24 96 -51 106 -58 17 -13 17 -15 3 -27 -35
-29 -11 -64 84 -128 53 -35 140 -81 188 -97 33 -11 33 -12 36 -81 4 -87 49
-224 141 -430 146 -328 152 -356 96 -443 -29 -45 -32 -57 -23 -77 12 -27 45
-46 110 -66 24 -7 49 -20 55 -29 19 -26 60 -50 85 -50 13 0 63 13 111 29 157
52 583 156 886 215 179 35 195 38 195 29 0 -4 -5 -42 -10 -83 -6 -41 -10 -147
-11 -235 0 -174 16 -286 50 -354 12 -22 21 -45 21 -50 0 -5 -15 -33 -33 -62
-31 -51 -32 -55 -31 -163 0 -99 4 -120 33 -200 18 -48 31 -89 29 -91 -2 -1
-28 -15 -60 -30 -84 -41 -218 -145 -332 -259 -122 -122 -203 -222 -306 -376
-42 -63 -158 -227 -256 -365 -197 -275 -247 -351 -280 -434 -15 -38 -29 -57
-42 -59 -56 -9 -37 -182 55 -512 43 -154 58 -224 69 -335 7 -77 14 -147 14
-155 0 -8 -17 -26 -37 -40 -107 -72 -234 -182 -259 -226 -26 -45 -27 -48 -12
-75 16 -27 15 -30 -35 -116 -29 -48 -73 -109 -100 -136 -57 -58 -60 -86 -14
-132 53 -53 145 -71 188 -36 23 18 23 21 10 53 -29 66 -21 116 34 208 31 51
65 94 90 112 22 16 86 72 142 125 76 71 111 97 133 100 86 9 144 85 143 187 0
52 -8 79 -52 181 -79 179 -112 280 -118 366 -7 95 6 135 57 183 33 30 40 43
40 74 0 20 -9 51 -19 69 l-20 31 32 13 c71 30 270 255 389 441 150 236 334
472 503 645 l90 93 37 -35 38 -35 -20 -32 c-18 -29 -20 -51 -20 -194 0 -174
10 -227 53 -293 l25 -38 -15 -109 c-8 -64 -13 -161 -11 -234 3 -114 6 -130 32
-182 l29 -57 -18 -43 c-41 -98 -28 -407 24 -577 17 -55 17 -56 -7 -109 -33
-74 -40 -206 -18 -341 10 -58 15 -119 11 -141 -3 -21 -2 -55 4 -77 14 -52 69
-133 89 -133 15 0 17 -17 17 -147 1 -125 4 -157 22 -208 20 -54 20 -62 6 -88
-10 -21 -13 -44 -9 -81 9 -73 9 -98 1 -222 -7 -92 -5 -125 10 -189 18 -75 18
-78 0 -112 -23 -41 -23 -83 0 -143 11 -31 17 -78 17 -147 1 -98 0 -104 -25
-129 -31 -31 -35 -75 -15 -182 10 -56 10 -66 -3 -76 -9 -6 -21 -20 -26 -31
-16 -30 -33 -186 -33 -302 l0 -103 -37 -47 c-77 -101 -126 -245 -126 -373 -1
-76 3 -95 37 -180 70 -174 110 -241 188 -323 41 -42 80 -77 86 -77 7 0 16 10
21 23 9 22 -35 160 -115 360 -32 79 -34 91 -24 125 21 67 103 287 110 295 4 5
35 0 70 -10 l62 -18 32 -80 c57 -143 127 -251 184 -282 31 -17 33 -17 68 2 61
33 151 173 222 346 9 22 19 27 80 37 102 17 95 21 87 -54 -15 -143 -68 -269
-133 -316 -20 -15 -65 -47 -99 -72 -74 -54 -105 -107 -107 -181 l-1 -50 36 1
c22 1 79 22 145 55 238 118 316 257 299 532 -3 60 -9 115 -11 122 -4 9 3 16
19 20 59 15 70 63 57 230 -16 187 -59 324 -115 361 l-24 16 26 39 c16 24 28
59 31 89 4 46 2 52 -28 80 l-32 30 5 148 c4 117 9 156 25 190 21 48 17 99 -11
130 -13 14 -15 39 -10 148 4 87 2 142 -5 164 -11 29 -9 36 14 63 24 29 26 37
22 106 -3 49 2 108 13 165 23 116 35 315 21 343 -9 17 -7 24 13 43 28 26 34
52 40 165 2 44 9 108 16 143 10 49 10 89 1 186 -6 68 -16 135 -21 149 -8 19
-6 28 5 38 26 21 52 82 64 150 8 44 10 116 5 229 -8 195 -16 244 -43 273 -20
21 -20 23 -4 33 22 14 47 92 68 214 21 125 16 276 -13 341 -13 30 -18 51 -12
60 19 31 49 138 58 207 17 134 -12 260 -80 345 -23 28 -26 37 -14 37 37 0 74
30 86 71 l12 40 65 -63 c155 -152 346 -394 495 -627 234 -367 494 -691 554
-691 8 0 28 11 45 25 20 17 42 25 68 25 36 0 44 -7 142 -112 57 -62 188 -210
290 -328 103 -118 199 -223 213 -233 l26 -19 -3 -163 c-2 -147 -1 -166 16
-184 18 -19 18 -23 1 -84 -16 -58 -16 -66 -1 -94 25 -49 59 -193 60 -256 1
-54 -2 -61 -30 -85 -44 -38 -49 -58 -20 -87 45 -45 167 -45 212 0 27 27 30 56
10 88 -30 46 -100 470 -118 706 -8 119 -8 139 7 172 17 36 17 39 -4 82 -21 43
-107 131 -269 275 -92 83 -353 371 -393 435 -15 23 -46 78 -70 122 -24 44
-127 204 -228 355 -102 151 -236 351 -298 444 -143 213 -199 283 -342 426
-130 130 -225 204 -321 253 -36 17 -66 32 -67 32 -1 0 5 27 13 60 9 33 16 109
16 170 1 91 -3 120 -22 170 -12 33 -22 71 -22 85 4 224 8 340 14 345 4 4 33
-3 65 -15 126 -50 680 -336 938 -484 50 -29 98 -55 107 -59 22 -8 39 20 32 54
l-5 24 17 -22 c25 -34 58 -29 83 11 33 54 80 66 255 71 l151 4 105 -84 c58
-46 113 -86 123 -89 10 -2 25 6 37 22 l20 25 23 -20 c12 -12 50 -36 85 -54
144 -77 165 -89 178 -100 20 -16 17 -60 -6 -89 -23 -29 -26 -50 -7 -50 18 0
74 60 86 93 6 15 17 27 24 27 8 0 22 9 32 20 33 36 0 150 -44 150 -10 0 -21 6
-24 14 -3 8 -31 20 -62 26 -61 13 -95 38 -95 71 0 24 -47 46 -118 56 -28 3
-57 15 -72 28 -48 44 -272 167 -294 162 -11 -3 -48 -17 -81 -31 -51 -22 -75
-26 -158 -26 -84 0 -103 3 -128 21 -66 47 -595 281 -1030 455 l-197 79 -4 120
c-4 134 -22 187 -91 278 -21 26 -37 50 -37 53 0 3 11 19 25 36 32 37 31 43 -5
114 -16 32 -25 63 -21 69 4 5 33 41 65 80 92 113 98 133 98 293 -1 97 -8 184
-27 297 -37 231 -47 306 -41 312 3 3 50 0 104 -7 111 -13 179 -6 353 36 177
42 662 184 714 208 94 43 133 101 137 205 1 38 7 62 15 65 20 8 16 209 -8 371
-25 169 -69 389 -110 545 -17 63 -41 160 -54 215 -13 55 -33 127 -44 161 l-22
61 69 140 c37 77 79 177 93 223 23 80 26 84 90 136 146 117 236 252 226 340
-6 54 -39 94 -109 130 -77 39 -134 30 -163 -26 -20 -38 -19 -119 1 -148 20
-29 13 -76 -22 -144 -20 -40 -29 -48 -52 -48 -77 0 -162 -116 -257 -350 -52
-125 -99 -295 -88 -314 4 -6 6 -42 5 -81 -2 -54 3 -86 21 -140 14 -38 89 -279
167 -535 79 -256 145 -470 147 -476 2 -7 -21 -13 -64 -17 -37 -3 -122 -22
-188 -42 -165 -50 -876 -193 -908 -182 -6 2 5 13 24 24 19 12 52 40 74 63 l40
41 0 143 c0 142 0 143 -30 186 -23 34 -27 44 -16 48 8 3 26 16 39 29 23 23 24
28 17 106 -9 116 -19 140 -77 190 -46 40 -52 49 -59 98 -4 30 -8 78 -8 107 -1
42 -6 57 -24 75 -22 21 -24 28 -19 107 4 81 3 87 -22 117 -17 20 -45 37 -86
49 -33 11 -60 24 -60 30 0 6 11 60 25 120 13 60 25 129 26 154 2 30 10 52 23
66 26 27 61 172 52 216 -4 22 4 50 34 111 47 99 68 177 54 208 -9 19 -5 27 28
57 37 33 50 73 29 87 -5 3 6 31 25 63 23 37 34 67 32 87 -1 18 12 59 35 105
23 47 37 89 37 113 0 25 8 50 24 70 58 77 80 153 57 195 -7 13 1 35 34 86 55
88 73 147 57 190 -11 28 -8 41 38 148 36 82 52 133 54 170 2 42 12 67 44 120
99 161 126 240 98 282 -15 24 -13 29 45 143 41 79 62 131 63 158 1 26 20 77
55 143 56 110 91 201 91 237 0 13 25 53 58 91 70 85 118 159 128 199 4 17 26
53 50 80 63 75 142 193 155 233 7 20 40 73 75 119 73 95 97 155 72 179 -23 23
-53 9 -87 -39 -38 -57 -87 -155 -95 -194 -4 -17 -22 -47 -40 -66 -18 -19 -65
-88 -105 -152 -40 -65 -85 -131 -102 -147 -16 -17 -54 -72 -85 -124 -30 -52
-61 -94 -69 -94 -42 0 -115 -148 -161 -328 -13 -51 -35 -109 -49 -130 -27 -39
-85 -206 -85 -245 0 -12 -14 -42 -30 -65 -42 -63 -69 -141 -87 -256 -8 -56
-19 -108 -24 -116 -44 -75 -64 -128 -81 -210 -11 -52 -23 -96 -28 -98 -31 -11
-60 -47 -65 -80 -24 -156 -37 -205 -61 -226 -20 -18 -26 -36 -35 -111 -10 -81
-14 -92 -41 -115 -32 -28 -47 -76 -48 -154 0 -43 -4 -53 -32 -77 -29 -23 -33
-33 -34 -78 0 -37 -6 -57 -22 -73 -26 -29 -42 -70 -42 -110 0 -17 -7 -36 -16
-43 -16 -11 -83 -246 -84 -293 0 -12 -6 -25 -14 -28 -19 -7 -42 -67 -51 -131
-4 -31 -13 -54 -21 -57 -43 -17 -113 -252 -121 -410 l-6 -108 -46 6 c-25 4
-99 9 -164 13 -97 5 -117 8 -113 20 4 8 6 23 6 34 0 11 11 24 25 31 21 9 25
18 25 53 0 22 -6 47 -12 53 -7 7 -18 49 -24 92 -13 89 -33 127 -74 143 -27 10
-28 11 -14 49 7 22 16 61 20 87 5 40 3 52 -12 67 -16 16 -19 35 -19 134 0 98
-3 121 -22 159 -18 36 -21 54 -16 111 5 64 4 70 -20 94 -24 24 -25 30 -20 99
5 67 3 77 -16 96 -14 14 -21 34 -21 61 0 67 -21 142 -46 165 -20 18 -24 32
-24 78 0 83 -19 157 -46 182 -21 19 -24 31 -24 92 0 134 -27 213 -72 213 -15
0 -18 8 -18 53 -1 65 -24 196 -40 228 -7 13 -21 33 -31 45 -12 13 -25 53 -34
104 -28 160 -65 269 -105 315 -12 13 -22 51 -29 106 -19 148 -44 228 -87 279
-19 22 -39 70 -61 148 -28 96 -83 230 -122 292 -5 8 -18 56 -29 106 -27 116
-57 195 -86 227 -13 14 -30 54 -39 90 -28 110 -78 238 -107 271 -15 17 -32 52
-39 79 -18 72 -50 152 -72 181 -20 25 -48 34 -62 19z m1221 -4639 c3 -29 0
-31 -45 -42 -26 -6 -58 -14 -70 -18 -18 -5 -23 -2 -23 13 0 30 22 52 65 68 55
20 69 15 73 -21z m766 -46 c6 -24 8 -98 3 -98 -2 0 -28 10 -58 23 -50 20 -54
24 -51 52 5 36 16 45 63 45 30 0 38 -4 43 -22z"/>
</g>
</svg>
