<?xml version="1.0" standalone="no"?>
<!DOCTYPE svg PUBLIC "-//W3C//DTD SVG 20010904//EN"
 "http://www.w3.org/TR/2001/REC-SVG-20010904/DTD/svg10.dtd">
<svg version="1.0" xmlns="http://www.w3.org/2000/svg"
 width="803.000000pt" height="846.000000pt" viewBox="0 0 803.000000 846.000000"
 preserveAspectRatio="xMidYMid meet">
<metadata>
Created by potrace 1.16, written by Peter Selinger 2001-2019
</metadata>
<g transform="translate(0.000000,846.000000) scale(0.100000,-0.100000)"
fill="#000000" stroke="none">
<path d="M751 8201 c-11 -11 -21 -28 -21 -36 0 -14 38 -55 51 -55 4 0 46 -37
92 -83 47 -46 125 -110 173 -142 218 -145 405 -299 505 -416 35 -41 118 -131
184 -200 66 -69 167 -189 224 -267 128 -175 237 -293 356 -384 197 -153 369
-232 637 -292 470 -106 670 -170 808 -257 41 -26 93 -52 116 -57 22 -5 66 -25
97 -46 32 -20 101 -58 155 -85 102 -51 142 -80 229 -162 l53 -50 -56 -52 c-31
-28 -67 -68 -80 -88 -33 -53 -64 -151 -64 -204 0 -43 -1 -45 -28 -45 -16 0
-102 18 -193 41 -232 57 -249 60 -393 60 -102 0 -162 6 -280 29 -83 16 -180
34 -216 41 -44 9 -233 14 -595 16 -291 2 -658 5 -815 6 -314 2 -355 -3 -366
-49 -8 -30 19 -64 51 -64 69 0 546 -154 601 -194 16 -12 1 -23 -219 -172 -164
-110 -388 -352 -497 -536 -27 -46 -66 -106 -87 -135 -21 -29 -64 -88 -96 -132
-56 -77 -267 -496 -331 -656 -41 -103 -102 -245 -162 -375 -158 -347 -152
-322 -160 -653 -3 -159 -11 -290 -20 -334 -23 -117 -18 -202 16 -312 17 -53
39 -114 50 -136 38 -83 186 -313 263 -410 132 -165 140 -175 205 -247 76 -85
104 -131 153 -256 61 -155 99 -159 149 -15 35 100 137 277 181 313 3 3 31 35
61 71 64 76 134 146 195 196 23 19 45 43 48 53 3 9 31 34 62 55 118 78 188
172 211 280 6 28 14 100 18 160 8 125 16 117 39 -45 7 -52 32 -216 55 -365 36
-237 46 -280 77 -350 20 -44 49 -98 64 -119 47 -65 37 -109 -47 -218 -97 -125
-115 -214 -68 -333 26 -65 46 -82 82 -71 25 8 38 37 52 116 14 76 28 106 82
176 94 125 184 314 228 482 l20 76 -51 361 c-28 198 -62 410 -76 470 -23 100
-24 116 -13 177 10 59 20 79 77 155 35 49 81 115 101 148 19 33 51 78 69 100
55 65 85 137 91 218 4 65 10 82 62 172 79 137 106 193 120 245 19 70 99 210
120 210 4 0 37 -20 72 -44 77 -53 175 -95 240 -103 53 -6 169 12 213 35 38 19
112 79 143 115 13 15 29 27 34 27 6 0 34 -24 62 -52 28 -29 77 -76 109 -103
56 -49 58 -53 67 -115 19 -134 87 -303 152 -381 21 -25 38 -48 38 -52 0 -9 58
-95 97 -144 19 -24 55 -55 81 -70 26 -15 60 -38 77 -51 16 -14 63 -40 104 -58
103 -47 190 -113 248 -186 66 -83 74 -100 93 -188 12 -58 20 -77 37 -86 l23
-11 -31 -29 c-93 -89 -109 -236 -37 -336 10 -14 4 -25 -45 -77 -63 -65 -67
-82 -37 -141 24 -47 25 -90 4 -147 -9 -24 -14 -53 -10 -67 7 -30 44 -43 74
-27 30 16 101 127 107 169 4 20 12 48 19 62 7 14 16 37 20 52 10 43 55 88 114
114 30 13 74 40 96 60 23 20 117 85 209 146 124 81 175 120 192 149 24 37 69
69 98 69 35 0 152 91 237 185 111 122 145 170 175 243 51 126 41 247 -29 351
-34 51 -34 51 -8 37 15 -7 60 -25 100 -40 40 -14 94 -42 119 -61 26 -20 68
-43 94 -52 53 -19 68 -43 103 -162 23 -78 20 -129 -14 -231 -29 -89 -37 -144
-22 -166 23 -35 103 -36 151 -1 49 33 122 169 145 267 22 98 99 252 189 383
21 30 52 93 67 138 l29 83 -5 -104 c-2 -58 -9 -132 -15 -165 -5 -33 -18 -132
-29 -220 -48 -401 -82 -654 -95 -717 -14 -70 -32 -103 -92 -171 -36 -40 -38
-48 -23 -78 19 -35 59 -24 111 31 71 73 94 126 118 275 12 72 26 153 31 180
29 160 55 356 61 470 14 273 36 439 69 521 19 48 30 93 30 125 0 27 3 49 8 49
19 -1 137 -205 167 -289 8 -25 20 -74 26 -110 8 -55 7 -74 -7 -111 -13 -36
-18 -102 -25 -315 -5 -170 -14 -304 -24 -360 -9 -52 -18 -174 -21 -290 -7
-286 -37 -449 -100 -542 -45 -66 -45 -106 2 -111 25 -2 37 4 68 38 21 23 46
61 56 85 36 83 62 243 71 430 9 191 26 404 34 427 2 7 12 105 20 218 8 113 20
234 25 270 16 110 12 243 -10 333 -26 100 -113 281 -175 362 -26 33 -58 77
-71 98 -14 21 -36 42 -51 48 -23 9 -25 13 -19 47 4 20 11 75 16 122 5 47 18
135 29 195 11 61 29 166 41 235 31 175 25 314 -20 460 -46 151 -70 190 -181
291 -101 91 -122 105 -210 138 -61 24 -182 27 -237 8 -45 -17 -129 -91 -163
-146 l-29 -45 0 40 c0 21 -7 66 -16 99 -8 33 -22 89 -30 125 -17 76 -85 224
-143 308 -70 103 -213 220 -431 352 -381 230 -569 283 -772 216 l-88 -28 -98
74 c-53 40 -127 91 -162 113 -36 21 -111 74 -168 117 -56 43 -131 92 -165 109
-134 68 -235 130 -291 179 -146 128 -447 336 -586 405 -80 40 -289 163 -405
237 -143 93 -507 296 -805 450 -63 33 -126 70 -140 83 -14 12 -40 31 -59 40
-19 10 -91 54 -160 98 -69 45 -171 104 -226 130 -55 27 -140 73 -190 102 -173
101 -289 148 -404 165 -36 5 -115 26 -176 45 -150 49 -187 53 -214 26z m5343
-4513 c3 -18 7 -69 9 -113 6 -98 32 -175 96 -280 27 -44 58 -100 69 -125 12
-25 34 -63 51 -85 16 -22 32 -50 36 -62 6 -21 3 -23 -28 -23 -20 0 -55 8 -79
18 -24 11 -63 22 -87 26 -63 10 -149 59 -205 115 -43 44 -51 58 -72 141 -17
64 -24 120 -24 182 0 84 1 90 28 115 15 14 46 34 70 45 24 12 50 31 58 44 14
21 31 30 61 33 7 0 14 -14 17 -31z m-376 -316 c13 -140 36 -202 106 -279 l46
-51 -142 64 c-78 35 -145 67 -149 72 -8 7 -33 241 -27 247 5 5 143 64 149 65
3 0 11 -53 17 -118z m-923 -107 c61 0 137 4 171 8 l61 9 6 -42 c4 -32 15 -52
47 -83 57 -57 51 -69 -40 -85 -142 -25 -148 -78 -17 -145 66 -34 89 -53 148
-122 95 -113 110 -120 284 -120 l140 -1 75 -39 c60 -32 70 -40 51 -43 -13 -2
-47 -28 -77 -58 -30 -29 -73 -63 -97 -75 -23 -12 -67 -41 -97 -64 -30 -23 -70
-50 -88 -59 -19 -10 -55 -39 -80 -65 -26 -26 -65 -61 -87 -77 -22 -16 -42 -31
-45 -34 -9 -10 -100 -61 -100 -56 0 2 15 22 33 43 17 22 43 60 57 86 31 58 25
71 -51 111 -65 34 -176 123 -228 182 -74 84 -131 215 -131 301 0 43 -8 68 -47
140 -118 222 -141 283 -110 297 6 3 35 2 62 -1 28 -4 100 -7 160 -8z m2341
-107 c-1 -13 -7 -32 -14 -43 -10 -17 -11 -17 -12 -3 0 16 20 68 26 68 1 0 2
-10 0 -22z"/>
</g>
</svg>
