<?xml version="1.0" standalone="no"?>
<!DOCTYPE svg PUBLIC "-//W3C//DTD SVG 20010904//EN"
 "http://www.w3.org/TR/2001/REC-SVG-20010904/DTD/svg10.dtd">
<svg version="1.0" xmlns="http://www.w3.org/2000/svg"
 width="1536.000000pt" height="1107.000000pt" viewBox="0 0 1536.000000 1107.000000"
 preserveAspectRatio="xMidYMid meet">
<metadata>
Created by potrace 1.16, written by Peter Selinger 2001-2019
</metadata>
<g transform="translate(0.000000,1107.000000) scale(0.100000,-0.100000)"
fill="#000000" stroke="none">
<path d="M760 11054 c-129 -20 -203 -40 -262 -69 -27 -14 -56 -25 -64 -25 -8
0 -14 -9 -14 -20 0 -13 -7 -20 -19 -20 -19 0 -191 -173 -191 -193 0 -5 -13
-36 -29 -67 -17 -32 -33 -74 -36 -94 -4 -20 -12 -36 -17 -36 -7 0 -7 -5 0 -13
8 -10 6 -16 -9 -25 -10 -7 -19 -21 -19 -31 0 -11 -4 -21 -9 -23 -5 -1 -15 -32
-21 -68 -7 -36 -16 -74 -21 -85 -5 -11 -10 -46 -11 -77 -2 -32 -6 -58 -9 -58
-3 0 -6 -39 -5 -87 1 -49 -3 -94 -8 -101 -12 -16 -15 -298 -4 -377 4 -33 11
-80 14 -105 3 -25 8 -52 11 -60 4 -8 5 -19 4 -25 -5 -16 21 -189 30 -200 4 -5
13 -39 20 -75 7 -36 19 -71 26 -78 7 -8 13 -35 13 -62 0 -27 4 -52 10 -55 5
-3 10 -17 10 -30 0 -12 7 -26 16 -29 12 -4 15 -18 13 -55 -2 -27 2 -55 8 -63
6 -7 13 -40 15 -74 3 -33 7 -65 11 -71 4 -6 1 -13 -5 -16 -9 -3 -4 -23 18 -73
33 -72 63 -153 71 -191 3 -13 9 -23 13 -23 5 0 6 -8 3 -19 -3 -10 0 -22 6 -25
6 -4 11 -14 11 -22 0 -8 5 -20 10 -27 26 -30 90 -148 85 -156 -3 -5 2 -22 10
-38 8 -15 17 -40 20 -55 3 -16 12 -28 20 -28 8 0 15 -4 15 -10 0 -5 -4 -10 -9
-10 -14 0 48 -144 90 -210 8 -14 17 -45 18 -69 1 -24 6 -52 11 -62 6 -10 10
-26 10 -36 0 -10 7 -31 15 -47 8 -15 15 -37 15 -47 0 -10 4 -20 9 -23 4 -3 19
-38 31 -78 13 -40 30 -79 39 -86 9 -7 15 -18 14 -23 -2 -5 1 -9 7 -9 5 0 15
-19 22 -42 7 -24 19 -48 28 -55 8 -7 11 -13 6 -13 -4 0 3 -15 16 -32 27 -37
62 -118 50 -118 -4 0 -2 -4 4 -8 6 -4 24 -44 39 -89 15 -46 32 -83 36 -83 5 0
9 -8 9 -18 0 -10 3 -22 7 -26 4 -4 8 -13 9 -19 2 -32 17 -76 24 -72 4 3 8 -5
7 -18 0 -12 10 -56 22 -97 13 -41 23 -85 23 -97 0 -13 3 -23 7 -23 4 0 13 -23
20 -52 8 -28 22 -65 31 -82 10 -17 21 -42 25 -56 4 -14 14 -33 23 -42 8 -10
16 -35 18 -57 3 -26 18 -61 46 -101 24 -34 48 -72 55 -84 7 -12 24 -35 38 -50
14 -15 25 -31 25 -35 0 -4 11 -18 25 -31 14 -13 25 -29 25 -36 0 -7 14 -15 30
-19 17 -4 30 -13 30 -21 0 -16 163 -97 255 -128 64 -21 181 -45 265 -56 640
-78 748 -83 1592 -84 399 -1 729 -4 733 -7 8 -9 -141 -58 -550 -179 -385 -115
-639 -198 -812 -266 -187 -73 -448 -205 -578 -292 -125 -84 -282 -212 -292
-239 -3 -8 -26 -34 -51 -57 -40 -37 -172 -224 -176 -251 -1 -5 -14 -23 -29
-39 -15 -16 -27 -40 -27 -53 0 -13 -7 -26 -15 -29 -8 -4 -15 -14 -15 -23 0 -9
-12 -40 -25 -70 -27 -58 -38 -95 -61 -206 -8 -38 -21 -92 -29 -120 -7 -27 -16
-70 -19 -95 -7 -64 18 -250 34 -250 4 0 7 -12 7 -27 0 -43 30 -193 42 -207 6
-7 8 -16 5 -19 -4 -4 0 -17 8 -29 8 -13 15 -37 16 -55 1 -18 10 -51 20 -75 10
-24 26 -72 36 -108 10 -36 27 -84 37 -107 11 -24 19 -47 19 -53 0 -5 5 -10 11
-10 6 0 8 -9 4 -20 -4 -11 -2 -20 4 -20 6 0 11 -9 11 -19 0 -31 11 -50 24 -45
9 3 11 -4 8 -24 -2 -17 2 -35 11 -43 7 -8 17 -32 21 -54 4 -22 25 -92 46 -155
21 -63 42 -133 46 -154 4 -22 17 -54 30 -73 12 -19 26 -47 29 -64 4 -17 13
-33 21 -36 9 -3 12 -13 9 -23 -3 -10 -1 -21 4 -25 6 -3 16 -25 22 -48 6 -23
14 -44 18 -47 13 -10 31 -50 31 -69 0 -11 5 -23 10 -26 15 -9 100 -140 100
-153 0 -6 9 -14 20 -17 11 -3 33 -26 49 -49 17 -24 41 -50 55 -60 14 -9 26
-20 26 -25 0 -5 17 -26 38 -47 69 -72 142 -157 142 -166 0 -5 4 -7 9 -3 6 3
17 -10 26 -29 9 -20 25 -38 36 -41 10 -4 19 -11 19 -16 0 -12 80 -99 90 -99 4
0 33 -25 64 -55 32 -30 62 -52 67 -49 5 3 9 -6 9 -19 0 -25 23 -42 41 -31 5 3
9 -3 9 -14 0 -22 74 -74 95 -66 10 4 15 0 15 -14 0 -15 5 -19 20 -15 12 3 20
0 20 -6 0 -7 5 -9 11 -6 6 4 13 -2 16 -14 3 -12 13 -21 24 -21 10 0 23 -9 29
-20 6 -11 20 -20 30 -20 11 0 20 -7 20 -15 0 -8 11 -17 25 -21 13 -3 29 -12
36 -20 6 -8 20 -14 30 -14 11 0 19 -7 19 -15 0 -8 5 -15 11 -15 6 0 24 -9 40
-21 16 -11 33 -17 39 -14 6 3 13 -2 17 -12 9 -24 23 -33 51 -33 19 0 22 -4 17
-21 -6 -17 -3 -20 17 -18 14 2 36 -6 52 -19 16 -12 38 -22 48 -22 11 0 31 -9
45 -20 15 -11 34 -18 44 -15 9 3 20 1 24 -5 3 -6 10 -8 15 -5 16 10 91 -18
101 -37 5 -10 15 -18 21 -18 6 0 34 -11 62 -24 28 -13 77 -36 109 -50 31 -15
57 -31 57 -36 0 -6 33 -10 75 -10 56 0 85 -5 112 -20 21 -11 45 -20 55 -20 9
0 18 -5 20 -10 2 -6 36 -12 76 -15 40 -2 82 -10 94 -16 13 -7 43 -9 78 -6 42
5 62 2 76 -8 15 -11 56 -14 179 -15 105 0 165 -4 172 -11 22 -22 146 -4 203
30 8 5 29 15 45 22 17 7 48 27 70 45 22 17 56 39 75 49 46 24 117 78 139 107
57 73 217 309 278 408 158 258 279 488 858 1620 111 217 273 526 360 685 172
315 218 403 283 540 53 114 100 195 111 195 5 0 12 -11 15 -25 3 -13 17 -41
31 -60 13 -20 27 -55 30 -78 3 -23 4 -175 2 -337 l-3 -295 -30 -85 c-16 -47
-33 -90 -37 -97 -4 -6 -14 -46 -22 -88 -9 -49 -25 -94 -44 -124 -25 -38 -31
-62 -40 -146 -9 -91 -9 -101 8 -120 25 -28 29 -43 46 -162 8 -57 19 -112 25
-122 7 -15 4 -27 -15 -55 -15 -22 -20 -36 -12 -36 13 0 14 -73 1 -198 -6 -61
-4 -75 9 -85 19 -13 58 -118 60 -157 1 -14 8 -30 17 -37 10 -9 11 -12 2 -13
-9 0 -7 -11 8 -40 11 -21 20 -51 20 -66 0 -74 75 -161 129 -151 22 5 34 0 52
-19 28 -30 81 -59 126 -68 28 -6 34 -3 60 28 15 20 33 36 39 36 16 0 22 28 36
161 12 119 7 192 -23 326 -10 47 -9 58 11 104 31 73 31 151 0 184 -29 31 -33
104 -8 152 14 29 14 34 2 41 -22 12 -28 147 -8 177 13 20 12 27 -8 71 -17 38
-23 77 -29 179 -4 72 -14 166 -22 210 -9 44 -25 175 -37 290 -11 116 -26 236
-32 268 -9 47 -8 73 6 145 17 82 64 203 85 216 14 9 152 -186 200 -282 23 -45
129 -270 235 -500 310 -669 385 -826 484 -1022 250 -496 411 -819 474 -955
175 -375 338 -618 435 -649 23 -7 113 -101 113 -117 0 -5 9 -9 20 -9 10 0 40
-13 65 -29 56 -35 127 -54 181 -47 22 2 47 1 54 -4 8 -5 19 -5 25 0 10 8 87
10 278 7 45 0 81 3 85 9 8 12 152 13 152 2 0 -5 5 -8 11 -8 7 0 9 9 6 21 -5
20 -3 21 40 14 29 -4 43 -3 39 3 -9 15 13 20 75 14 40 -3 59 0 70 10 8 8 19
13 25 11 5 -2 19 5 29 14 27 24 71 43 100 43 30 0 77 20 88 37 4 7 15 13 22
13 8 0 15 4 15 9 0 5 9 7 20 4 12 -3 20 0 20 8 0 7 3 9 6 6 4 -4 15 3 25 15
15 16 22 18 33 9 8 -7 16 -8 18 -4 5 13 108 63 128 63 13 0 17 6 13 19 -5 21
29 35 46 18 8 -8 11 -6 11 7 0 13 5 16 16 12 10 -4 31 6 54 24 20 16 40 27 44
23 3 -4 19 8 34 25 16 18 34 32 40 32 7 0 12 5 12 11 0 5 5 7 10 4 6 -3 10 -1
10 4 0 6 9 11 20 11 11 0 25 12 33 26 9 18 17 23 21 15 5 -8 15 -5 33 9 14 11
34 20 44 20 12 0 19 7 19 19 0 13 9 21 30 26 17 4 36 15 43 26 7 11 23 19 39
19 19 0 34 9 49 29 12 17 28 27 35 24 9 -3 14 2 14 12 0 9 4 14 9 11 5 -3 14
1 21 9 7 8 18 15 26 15 7 0 21 13 31 30 9 16 22 30 28 30 6 0 16 13 22 30 8
22 18 30 35 30 22 0 68 52 68 76 0 6 12 17 27 25 15 8 38 26 51 42 13 15 30
27 38 27 14 0 63 48 64 62 0 4 38 46 85 93 47 47 85 91 85 99 0 8 19 30 42 51
70 60 98 88 98 97 0 4 6 8 14 8 20 0 42 30 38 53 -3 15 0 18 12 14 11 -5 16
-1 16 13 0 10 11 31 24 47 13 16 26 49 30 76 4 26 11 45 15 42 10 -6 51 99 51
131 0 13 4 24 10 24 5 0 13 18 16 40 4 21 15 47 25 56 11 9 19 25 19 36 0 10
6 18 13 18 7 0 12 14 11 38 0 20 6 45 14 54 7 9 16 36 19 60 4 24 13 53 21 65
8 13 12 30 8 38 -3 8 -1 15 4 15 6 0 10 6 10 13 0 18 24 67 33 67 4 0 7 6 7
13 0 6 12 35 25 62 14 28 25 58 25 68 0 10 5 15 10 12 6 -3 10 4 10 16 0 12 3
19 7 16 7 -7 30 47 40 93 3 14 15 35 26 48 14 15 21 37 22 62 0 25 5 40 13 40
6 0 12 6 12 14 0 8 5 16 11 18 11 4 98 213 99 239 0 9 7 33 15 52 8 20 12 43
9 51 -3 9 -2 16 2 16 22 0 67 168 68 252 1 32 5 58 10 58 4 0 5 8 2 17 -4 9
-9 44 -10 78 -2 33 -16 91 -30 129 -14 37 -26 78 -26 90 0 34 -55 190 -90 253
-16 31 -30 65 -30 74 0 10 -9 23 -20 29 -11 6 -18 16 -14 21 3 6 -8 28 -25 49
-17 22 -36 51 -41 66 -12 31 -73 114 -112 154 -16 16 -28 32 -28 38 0 17 -148
151 -255 230 -136 101 -298 201 -360 224 -27 10 -212 74 -410 144 -198 69
-477 168 -620 220 -143 52 -304 106 -358 119 -122 31 -259 76 -252 83 3 3 215
-1 472 -8 819 -23 1244 -4 1893 86 175 24 191 28 283 71 53 26 104 55 114 65
9 10 22 18 30 18 7 0 31 18 53 40 22 22 43 40 46 40 11 0 33 28 27 34 -4 3 1
14 10 24 47 51 57 63 57 72 0 6 5 16 10 23 27 32 60 90 60 105 0 9 7 26 15 36
8 11 15 28 15 39 0 10 9 30 20 44 11 14 20 35 20 46 0 11 11 35 25 53 14 18
21 35 15 39 -11 7 7 54 29 75 9 8 15 23 13 32 -2 10 4 28 12 40 9 12 16 31 16
41 0 10 13 44 29 75 17 31 33 69 37 85 3 15 10 30 15 33 5 3 9 16 9 30 0 13 5
24 10 24 6 0 10 7 10 16 0 8 9 36 21 61 11 25 23 61 26 79 3 19 9 34 14 34 4
0 11 10 14 23 12 40 30 77 37 77 5 0 8 6 8 13 0 6 9 23 20 37 11 14 20 33 20
43 0 9 7 17 16 17 10 0 14 6 11 15 -4 8 -2 17 4 21 6 3 8 12 5 20 -3 7 0 17 7
21 7 5 18 19 25 33 6 14 16 32 21 40 9 13 21 47 61 160 7 19 16 58 21 86 5 28
16 64 24 80 8 16 15 35 15 43 0 27 24 81 36 81 6 0 14 15 18 32 10 51 29 88
46 88 12 0 12 2 1 9 -9 6 -10 11 -2 15 6 4 11 20 11 36 0 52 51 150 78 150 6
0 12 7 12 14 0 8 11 35 24 60 14 26 22 46 19 46 -4 0 1 8 10 18 8 9 19 30 23
47 4 16 16 38 26 49 10 11 18 33 18 50 0 16 7 37 16 47 15 17 21 44 43 216 6
39 18 91 29 115 43 97 45 107 32 123 -11 13 -9 19 7 38 13 13 23 43 26 76 4
29 10 58 15 65 10 11 11 15 37 155 14 69 14 85 3 92 -10 7 -10 9 0 9 7 0 12
14 12 36 0 19 5 45 11 56 7 12 13 54 14 95 1 40 4 76 7 79 4 3 2 19 -2 35 -6
19 -5 39 2 54 8 19 7 46 -6 114 -10 49 -16 98 -15 108 2 10 0 24 -4 31 -5 6
-8 53 -9 102 0 54 -4 90 -10 90 -7 0 -6 5 1 13 10 13 2 54 -20 99 -5 10 -9 25
-9 34 0 15 -36 82 -50 94 -3 3 -14 31 -24 63 -10 32 -29 71 -42 86 -13 16 -24
36 -24 45 0 9 -4 16 -8 16 -4 0 -15 12 -24 28 -45 75 -118 136 -218 182 -25
12 -56 27 -70 34 -14 8 -95 29 -180 47 -137 30 -172 34 -300 33 -153 0 -211
-7 -458 -55 -216 -42 -593 -174 -1022 -359 -321 -138 -690 -341 -865 -475 -44
-34 -152 -113 -240 -175 -88 -63 -214 -155 -279 -204 -66 -50 -156 -117 -200
-150 -201 -145 -524 -420 -962 -816 -127 -115 -661 -630 -914 -880 -259 -257
-666 -739 -772 -915 -205 -340 -539 -856 -586 -905 -51 -53 -54 -54 -68 -36
-9 13 -14 46 -14 96 0 139 -46 265 -106 294 -37 17 -37 17 -31 69 24 205 19
283 -13 206 -14 -32 -65 -89 -81 -89 -16 0 -10 49 16 125 28 84 295 622 531
1072 208 396 221 419 489 853 128 206 241 393 253 415 11 22 36 62 56 90 53
74 45 92 -28 61 -45 -19 -67 -54 -111 -176 -42 -119 -55 -143 -175 -330 -173
-269 -337 -556 -576 -1007 -146 -275 -370 -734 -394 -808 -7 -22 -22 -52 -33
-66 -16 -23 -62 -162 -86 -263 -7 -30 -35 -56 -47 -43 -5 4 -14 38 -21 75 -6
37 -17 90 -23 117 -11 54 -130 302 -234 486 -140 250 -546 924 -759 1260 -114
181 -186 326 -257 519 -32 87 -73 180 -91 206 -31 46 -33 47 -41 24 -11 -30 6
-113 41 -205 35 -92 245 -464 327 -580 34 -49 89 -133 122 -185 135 -217 585
-976 659 -1110 82 -148 203 -383 203 -392 0 -3 -8 -8 -18 -10 -20 -6 -35 -63
-48 -184 l-6 -62 -37 -6 c-53 -8 -101 -44 -128 -95 -30 -57 -30 -114 1 -175
20 -40 23 -53 14 -78 -6 -16 -8 -52 -5 -79 3 -27 3 -49 -2 -49 -22 0 -92 75
-101 108 -7 24 -21 44 -42 57 -22 14 -52 54 -91 125 -209 373 -425 712 -523
822 -31 35 -88 104 -126 155 -37 51 -73 95 -79 98 -5 4 -196 205 -423 448
-227 243 -449 476 -493 517 -44 41 -219 208 -389 370 -580 552 -752 708 -1164
1051 -388 323 -455 374 -767 581 -221 147 -297 190 -538 310 -490 245 -615
298 -925 391 -198 60 -229 67 -475 99 -210 27 -310 30 -425 12z"/>
</g>
</svg>
