<?xml version="1.0" standalone="no"?>
<!DOCTYPE svg PUBLIC "-//W3C//DTD SVG 20010904//EN"
 "http://www.w3.org/TR/2001/REC-SVG-20010904/DTD/svg10.dtd">
<svg version="1.0" xmlns="http://www.w3.org/2000/svg"
 width="991.000000pt" height="1536.000000pt" viewBox="0 0 991.000000 1536.000000"
 preserveAspectRatio="xMidYMid meet">
<metadata>
Created by potrace 1.16, written by Peter Selinger 2001-2019
</metadata>
<g transform="translate(0.000000,1536.000000) scale(0.100000,-0.100000)"
fill="#000000" stroke="none">
<path d="M5195 15354 c-93 -14 -210 -42 -365 -86 -96 -28 -209 -56 -250 -64
-145 -26 -318 -12 -438 35 l-46 18 -99 -83 c-55 -46 -173 -132 -264 -191 -562
-368 -552 -362 -559 -390 -53 -247 -195 -534 -405 -818 -32 -43 -48 -129 -49
-255 0 -86 -14 -133 -53 -177 -30 -33 -96 -72 -124 -73 -7 0 -22 19 -34 43
-108 212 -276 358 -699 603 -102 59 -232 139 -290 177 -128 87 -299 254 -352
347 l-37 64 -20 -45 c-69 -158 -40 -307 87 -436 80 -81 204 -158 482 -298 273
-138 399 -216 475 -294 52 -54 52 -58 -2 -39 -29 10 -36 10 -43 -2 -18 -29 -9
-66 40 -165 55 -109 98 -234 127 -365 27 -128 25 -418 -5 -557 -44 -205 -145
-437 -266 -613 l-65 -95 30 -19 c34 -21 59 -64 59 -101 0 -44 -38 -108 -140
-236 -167 -210 -200 -283 -166 -373 9 -24 25 -51 36 -61 19 -17 18 -19 -29
-89 -69 -101 -116 -159 -291 -360 -85 -98 -183 -217 -218 -264 -62 -86 -176
-301 -188 -355 l-6 -27 82 34 c147 62 244 130 381 266 147 146 233 269 339
485 92 187 144 321 295 760 144 420 219 613 297 769 l55 109 28 -74 c104 -276
264 -498 590 -819 l198 -194 5 -261 c5 -276 -3 -395 -40 -564 -39 -185 -119
-379 -238 -579 l-54 -92 -126 0 c-121 -1 -229 -15 -319 -42 -40 -12 -48 -21
-98 -103 -81 -135 -204 -390 -276 -575 -174 -443 -292 -878 -465 -1710 l-68
-325 -99 -88 c-155 -136 -265 -217 -641 -473 -438 -297 -550 -380 -771 -578
l-103 -91 0 -82 c0 -61 3 -83 13 -83 7 0 28 -11 47 -23 46 -31 75 -38 111 -25
40 14 36 32 -11 53 -39 17 -58 45 -45 65 3 6 67 51 141 100 165 110 224 154
575 435 483 386 710 532 1009 650 52 21 96 38 97 39 1 1 11 57 22 126 11 69
34 193 51 275 31 146 46 210 204 825 115 449 171 751 198 1056 l12 144 38 15
c81 32 188 13 419 -75 l136 -52 7 -236 c9 -288 -5 -637 -45 -1187 -51 -699
-59 -859 -66 -1228 l-6 -357 -62 6 c-78 8 -126 -11 -209 -85 -67 -58 -96 -69
-133 -52 -14 7 -27 10 -28 9 -7 -9 -67 -184 -84 -248 -69 -255 -95 -478 -95
-820 1 -539 89 -1119 303 -1995 46 -186 56 -156 -89 -277 -133 -112 -356 -258
-695 -453 -485 -280 -708 -437 -885 -621 -88 -91 -170 -193 -170 -211 0 -29
111 -103 155 -103 44 0 69 22 116 101 57 95 70 101 119 50 l38 -40 28 52 c84
161 247 306 484 429 47 24 192 93 323 153 235 107 237 108 237 139 0 17 11 52
25 77 13 26 21 49 18 53 -4 3 -22 6 -42 6 -36 0 -35 0 24 29 74 35 124 75 287
228 163 153 206 178 310 178 43 0 78 2 78 4 0 2 -31 162 -69 355 -183 924
-333 1837 -392 2384 -19 174 -20 205 -8 213 28 18 101 8 206 -27 86 -29 119
-35 161 -32 l52 5 0 -73 c0 -195 36 -663 75 -972 80 -629 194 -1118 511 -2196
151 -511 225 -773 285 -1010 34 -131 48 -169 84 -225 63 -97 87 -149 186 -398
49 -124 101 -248 116 -277 73 -146 175 -267 271 -323 45 -27 52 -28 177 -28
104 1 146 5 208 23 265 76 495 281 692 616 470 801 932 2346 1224 4091 33 197
101 641 101 660 0 3 108 5 241 5 226 0 241 -1 234 -17 -3 -10 -26 -76 -50
-148 -91 -270 -146 -544 -225 -1105 -60 -432 -94 -635 -116 -710 -9 -30 -54
-143 -100 -251 -100 -237 -129 -321 -145 -419 -20 -134 8 -225 98 -314 26 -27
126 -100 222 -164 255 -170 341 -267 372 -420 l11 -57 106 -52 c59 -28 172
-95 252 -148 203 -135 346 -204 477 -230 44 -9 77 -51 153 -196 76 -144 110
-179 176 -179 29 0 61 8 86 22 l39 22 -7 51 c-18 136 -107 300 -228 421 -131
130 -287 234 -641 424 -413 222 -582 335 -723 485 l-74 77 7 71 c22 240 74
469 236 1041 208 732 258 1005 246 1340 -8 223 -38 349 -119 514 -83 165 -242
326 -418 423 -120 66 -111 55 -100 124 47 285 62 682 54 1410 -9 820 9 1131
82 1470 l15 70 82 -3 c45 -2 152 4 238 13 147 17 226 16 258 -4 11 -7 11 -27
-4 -122 -23 -150 -31 -518 -16 -686 24 -252 56 -425 180 -965 39 -167 82 -368
97 -448 15 -84 34 -153 43 -164 9 -10 149 -125 311 -254 162 -130 351 -281
420 -336 621 -497 940 -846 1056 -1155 27 -71 38 -88 67 -105 72 -42 118 15
125 157 4 84 5 87 28 87 l24 0 0 136 0 136 -64 77 c-182 216 -380 381 -801
665 -571 387 -709 535 -803 866 -16 58 -62 249 -102 425 -100 444 -160 642
-245 815 -29 59 -31 69 -22 110 17 80 13 384 -7 485 -76 387 -259 631 -541
721 -85 27 -231 46 -319 42 l-58 -3 -15 50 c-8 28 -47 158 -88 290 -127 412
-155 549 -155 771 0 154 18 271 63 403 l32 95 75 18 c126 30 248 97 339 186
108 105 182 224 324 515 66 136 124 244 128 240 13 -14 97 -296 190 -638 123
-449 179 -641 242 -830 245 -727 521 -1055 888 -1055 l76 0 6 -61 c6 -73 27
-101 71 -97 l31 3 3 92 c2 72 -2 105 -18 154 -44 129 -112 209 -320 374 -69
54 -144 117 -169 139 -147 136 -318 491 -521 1085 l-64 184 12 96 c26 212 13
261 -112 416 -111 137 -111 135 -113 307 -1 130 -4 153 -23 193 -12 26 -33 53
-46 62 -13 8 -24 18 -24 22 0 4 37 75 81 157 163 297 202 415 197 592 l-3 112
207 70 c236 79 393 147 525 226 216 128 358 275 454 470 71 143 50 160 -185
149 l-154 -7 -13 -45 c-31 -111 -161 -257 -327 -367 -53 -35 -203 -124 -332
-196 -386 -217 -507 -306 -630 -461 -24 -31 -42 -45 -44 -37 -2 7 -26 90 -52
183 -154 557 -327 923 -574 1218 -265 316 -655 520 -1075 562 -129 13 -132 14
-149 50 -12 25 -14 40 -6 60 29 77 -3 117 -115 140 -78 16 -310 28 -370 19z
m-975 -505 c36 -5 68 -13 72 -17 4 -4 -32 -35 -80 -69 -312 -221 -558 -596
-728 -1108 -155 -470 -246 -1016 -295 -1772 l-12 -183 -44 0 c-27 0 -75 12
-121 31 -60 25 -92 32 -145 32 l-67 0 -10 36 c-52 192 -74 386 -74 646 0 224
10 349 45 555 108 632 420 1289 751 1582 242 212 483 304 708 267z m2005 -94
c39 -8 112 -35 162 -60 147 -72 228 -160 453 -486 78 -114 195 -247 246 -280
17 -11 30 -46 58 -159 19 -80 81 -305 136 -500 153 -540 187 -735 177 -1005
-7 -171 -36 -329 -93 -503 -35 -107 -37 -111 -74 -126 -104 -41 -269 -45 -385
-9 -70 22 -66 -1 -40 228 25 216 26 646 2 865 -79 718 -337 1422 -723 1972
l-54 78 32 0 c18 0 65 -7 103 -15z"/>
</g>
</svg>
