<?xml version="1.0" standalone="no"?>
<!DOCTYPE svg PUBLIC "-//W3C//DTD SVG 20010904//EN"
 "http://www.w3.org/TR/2001/REC-SVG-20010904/DTD/svg10.dtd">
<svg version="1.0" xmlns="http://www.w3.org/2000/svg"
 width="1536.000000pt" height="817.000000pt" viewBox="0 0 1536.000000 817.000000"
 preserveAspectRatio="xMidYMid meet">
<metadata>
Created by potrace 1.16, written by Peter Selinger 2001-2019
</metadata>
<g transform="translate(0.000000,817.000000) scale(0.100000,-0.100000)"
fill="#000000" stroke="none">
<path d="M15123 8123 c-64 -88 -196 -242 -249 -293 -32 -30 -87 -86 -123 -125
-37 -38 -112 -115 -168 -171 -57 -56 -103 -106 -103 -111 0 -5 -12 -15 -27
-22 -15 -7 -83 -56 -152 -110 -69 -54 -205 -152 -301 -218 -156 -108 -207
-140 -340 -215 -19 -11 -44 -29 -55 -39 -45 -44 -181 -138 -287 -199 -62 -35
-206 -119 -320 -187 -113 -67 -255 -147 -315 -179 -229 -120 -452 -247 -480
-273 -21 -19 -41 -27 -71 -28 -23 -1 -85 -16 -139 -32 -151 -47 -405 -106
-648 -151 -121 -23 -330 -63 -465 -90 -135 -27 -290 -54 -345 -60 -254 -28
-385 -51 -697 -126 -119 -28 -402 -66 -473 -63 -5 0 18 12 53 26 70 28 79 42
13 18 -62 -22 -141 -44 -141 -41 0 2 34 20 76 40 43 20 75 38 73 40 -2 3 -37
-11 -78 -31 l-74 -35 -51 28 c-107 57 -127 75 -650 600 -177 177 -404 395
-506 485 -337 299 -492 449 -729 708 -52 57 -118 119 -148 138 -29 20 -53 37
-53 39 0 2 14 11 31 19 17 9 29 19 26 22 -3 2 -16 -3 -30 -12 -13 -8 -39 -20
-56 -25 -34 -9 -34 -8 2 43 10 16 17 31 13 34 -3 3 -20 -18 -37 -46 -31 -50
-55 -68 -45 -33 13 43 18 72 12 72 -3 0 -11 -20 -17 -45 -7 -27 -18 -47 -29
-50 -33 -10 -50 -41 -64 -116 -8 -41 -21 -89 -29 -108 l-15 -34 -6 34 c-17 81
-58 256 -67 284 -18 54 -19 67 -3 96 19 38 2 37 -28 -1 -17 -22 -29 -29 -42
-24 -14 5 -16 14 -11 41 3 19 9 42 12 51 4 13 3 14 -6 6 -6 -6 -15 -28 -18
-50 -4 -24 -17 -49 -34 -65 -15 -14 -32 -45 -39 -70 -6 -24 -74 -171 -151
-327 l-141 -283 -83 -39 c-46 -21 -104 -52 -129 -69 -25 -18 -46 -30 -46 -28
0 3 36 35 81 71 44 36 75 66 67 66 -17 0 -98 -50 -158 -99 -41 -33 -39 -29 28
52 40 48 69 87 64 87 -6 0 -48 -40 -94 -88 -46 -49 -89 -87 -96 -84 -16 5 14
42 34 42 7 0 16 4 19 10 4 6 -1 7 -12 4 -10 -3 3 15 29 40 26 25 42 46 36 46
-6 0 -3 9 7 20 34 38 8 30 -38 -11 -54 -47 -60 -43 -17 11 16 21 30 41 30 46
0 12 -67 -54 -113 -111 l-40 -50 8 35 c4 19 9 45 12 58 3 12 1 22 -4 22 -15 0
-33 -39 -40 -86 -4 -34 -10 -44 -20 -40 -8 4 -23 6 -34 6 -24 0 -24 16 0 63
23 46 16 47 -21 5 -19 -23 -26 -27 -22 -13 5 15 -1 12 -24 -12 -31 -33 -65
-47 -101 -41 -21 3 -21 4 8 51 17 26 28 47 24 47 -9 0 -31 -30 -53 -72 -16
-29 -27 -38 -46 -38 -24 0 -25 2 -13 18 7 9 2 7 -13 -6 -14 -13 -47 -29 -74
-36 -27 -7 -60 -16 -74 -20 l-25 -7 25 20 c38 31 18 25 -49 -14 -54 -32 -141
-69 -146 -63 -1 2 -12 107 -24 233 -12 127 -29 280 -38 340 -9 67 -12 133 -8
170 5 45 4 57 -5 49 -6 -6 -14 -29 -17 -51 l-5 -39 -34 10 c-28 9 -36 18 -45
49 -5 20 -12 37 -16 37 -6 0 1 -44 12 -71 5 -14 -1 -16 -47 -11 -29 2 -59 10
-67 16 -11 9 -13 8 -9 -4 3 -9 -11 -25 -36 -42 -56 -36 -309 -288 -611 -606
-228 -240 -378 -382 -403 -382 -5 0 -34 -11 -63 -25 -59 -28 -39 -28 26 0 l40
17 -55 -57 c-30 -32 -136 -129 -235 -217 -99 -88 -219 -201 -267 -251 l-88
-92 0 53 c0 33 -4 51 -10 47 -5 -3 -10 -30 -10 -60 0 -46 -4 -56 -26 -74 -35
-27 -45 -26 -77 7 -26 27 -57 135 -57 198 0 13 -4 24 -10 24 -9 0 -8 -23 5
-128 l4 -33 -37 30 c-20 16 -54 47 -76 69 l-38 40 -6 128 c-4 95 -8 122 -14
103 -6 -13 -8 -66 -6 -118 l4 -94 -53 59 c-30 32 -100 110 -155 172 l-102 114
-15 161 c-13 138 -16 156 -24 122 -4 -22 -7 -84 -5 -137 2 -53 1 -94 -2 -90
-3 4 -26 32 -51 62 -24 30 -50 62 -57 71 -7 9 -19 65 -27 124 -9 60 -18 111
-21 114 -3 3 -4 -36 -3 -87 l4 -94 -28 34 c-102 120 -114 143 -126 235 -17
124 -20 130 -18 31 1 -47 1 -85 -1 -84 -1 2 -27 36 -57 75 -49 66 -54 78 -60
139 -3 37 -9 83 -13 102 l-6 35 -4 -37 c-2 -20 1 -60 6 -87 5 -28 8 -51 7 -51
-11 0 -120 191 -123 215 -2 16 -7 53 -11 80 l-9 50 -1 -60 c-2 -57 -3 -59 -17
-40 -9 11 -29 48 -45 82 -37 79 -49 87 -49 29 0 -59 23 -109 109 -238 39 -60
69 -108 67 -108 -2 0 -20 7 -39 15 -20 8 -47 15 -59 14 -15 0 -18 -3 -8 -6
109 -39 127 -53 194 -154 36 -54 66 -101 66 -104 0 -3 -17 3 -38 14 -45 23
-138 51 -166 51 -18 -1 164 -67 201 -74 6 -1 39 -38 72 -81 63 -82 118 -150
198 -244 l47 -54 -85 6 c-50 3 -72 2 -54 -3 17 -4 56 -8 87 -9 l58 -1 60 -76
c33 -41 60 -77 60 -79 0 -2 -30 -2 -67 0 l-68 5 80 -17 c73 -17 84 -22 120
-63 22 -24 62 -68 88 -98 27 -30 46 -56 44 -58 -2 -3 -37 3 -76 12 -40 9 -75
14 -77 11 -3 -2 37 -14 88 -26 l93 -21 58 -65 c33 -36 90 -91 129 -122 67 -54
69 -58 47 -66 -13 -5 -43 -18 -66 -29 -35 -17 -47 -18 -74 -9 -43 15 -51 13
-14 -4 26 -12 27 -14 8 -15 -12 0 -33 4 -47 10 -14 5 -26 6 -26 1 0 -12 56
-31 91 -31 16 0 29 -4 29 -8 0 -11 -128 -29 -295 -42 -71 -5 -143 -13 -161
-16 -27 -5 -35 -1 -63 32 -32 40 -41 37 -16 -6 20 -36 19 -38 -25 -45 -26 -4
-56 -1 -90 10 -44 15 -57 26 -112 100 -35 46 -65 82 -67 80 -5 -6 25 -51 71
-107 22 -27 38 -48 35 -48 -23 0 -283 103 -294 117 -8 10 -27 38 -44 62 -16
25 -29 39 -29 32 0 -7 14 -32 30 -57 l31 -44 -103 37 c-57 20 -111 43 -121 52
-10 8 -36 45 -58 81 -21 36 -39 58 -39 49 0 -10 16 -41 35 -69 20 -29 34 -54
33 -55 -2 -2 -52 18 -113 44 l-110 47 -42 75 c-42 72 -58 74 -28 2 8 -20 13
-38 11 -40 -2 -2 -53 20 -113 50 l-109 55 -19 79 c-21 82 -35 67 -16 -17 5
-25 9 -46 7 -47 -1 -2 -20 10 -42 27 -39 30 -64 38 -64 21 0 -16 52 -72 94
-102 l39 -29 -61 0 c-33 0 -63 -3 -65 -7 -3 -5 30 -7 73 -5 77 3 78 3 186 -52
l109 -55 -55 -1 c-30 -1 -66 -6 -80 -10 -14 -5 14 -6 65 -3 l90 6 110 -55 110
-55 -53 -8 c-28 -4 -52 -11 -52 -15 0 -4 8 -6 17 -4 37 9 181 -15 265 -44 113
-40 136 -52 83 -45 -22 3 -56 0 -75 -5 -30 -9 -23 -10 55 -11 72 -1 108 -7
183 -32 51 -17 92 -32 90 -34 -2 -1 -84 -10 -183 -20 -99 -9 -212 -20 -251
-24 -49 -5 -84 -3 -110 6 -35 11 -37 11 -20 -2 18 -14 8 -15 -101 -15 -66 0
-134 -5 -151 -11 -24 -8 -37 -7 -61 5 -16 9 -34 16 -38 16 -4 -1 10 -11 32
-22 l40 -22 -93 -12 c-91 -12 -95 -11 -140 13 l-47 25 30 -27 30 -26 -65 5
c-36 2 -132 9 -215 15 -82 5 -185 16 -228 23 -63 9 -83 9 -99 -1 -15 -9 -49
-11 -132 -5 -102 6 -114 5 -131 -12 -14 -15 -37 -20 -95 -22 -75 -4 -78 -3
-114 28 -20 18 -38 31 -40 29 -1 -2 -1 -23 2 -47 7 -72 44 -83 257 -76 22 1
171 3 332 4 258 2 297 0 337 -15 45 -17 96 -18 276 -3 8 1 51 0 95 -1 76 -3
78 -4 43 -15 -20 -6 -40 -15 -45 -20 -5 -5 0 -6 12 -2 11 4 45 12 75 17 30 6
93 19 140 31 137 34 218 46 376 57 82 6 228 18 325 27 l177 16 76 -22 c80 -24
104 -39 64 -41 -23 0 -113 -37 -93 -38 6 0 48 8 94 17 l85 18 132 -36 c73 -20
136 -38 139 -41 3 -4 -22 -12 -56 -18 -33 -7 -59 -15 -56 -18 3 -2 39 3 81 12
73 16 78 16 178 -5 57 -12 107 -25 112 -28 5 -2 -13 -14 -40 -26 -63 -27 -97
-47 -92 -52 3 -2 28 7 56 21 97 47 125 49 241 22 l104 -24 -34 -21 c-19 -11
-50 -38 -69 -58 -33 -35 -33 -36 -5 -15 118 87 125 90 197 84 l67 -6 -25 -33
c-23 -30 -76 -149 -58 -131 4 4 30 42 58 85 48 72 53 77 86 77 29 0 36 -4 38
-23 2 -12 -6 -34 -18 -50 l-22 -27 21 -3 c26 -4 27 -26 3 -44 -43 -30 -53 -85
-27 -158 19 -54 20 -51 -11 -40 -39 15 -98 12 -183 -10 -138 -35 -201 -72
-201 -117 0 -22 3 -24 27 -18 23 5 25 4 14 -9 -18 -22 -10 -59 17 -72 20 -10
-3 -20 -200 -89 -149 -51 -253 -81 -313 -90 -49 -7 -133 -20 -185 -29 -106
-18 -679 -103 -780 -117 -36 -4 -89 -8 -118 -9 -29 0 -97 -11 -150 -24 -53
-14 -137 -32 -187 -41 -49 -9 -112 -27 -140 -40 -27 -13 -69 -28 -92 -33 -52
-12 -99 -39 -163 -94 l-48 -42 46 -30 c39 -25 57 -31 103 -31 35 1 65 7 82 18
15 9 33 14 43 10 12 -4 24 2 39 21 31 39 264 108 440 131 72 9 202 29 290 45
88 16 255 43 370 60 291 43 349 54 600 115 268 65 389 107 556 191 71 35 129
63 129 61 0 -2 -9 -21 -19 -43 -11 -21 -17 -41 -15 -43 2 -2 5 -2 7 0 44 63
90 119 98 119 6 0 1 -13 -10 -29 -38 -53 -22 -51 30 5 29 30 55 54 59 54 5 0
-7 -30 -26 -67 -44 -88 -46 -123 -3 -65 17 23 33 42 36 42 3 0 3 -14 -1 -32
-8 -42 -2 -34 40 48 31 61 34 65 31 34 -2 -19 -1 -48 3 -65 5 -27 7 -24 14 25
7 50 9 53 18 30 10 -23 12 -22 20 25 13 79 18 95 27 95 5 0 11 -17 13 -38 6
-41 46 -142 57 -142 4 0 -4 43 -17 96 -13 52 -22 98 -19 100 3 3 33 -5 68 -17
108 -36 250 -13 334 54 19 15 48 56 66 92 17 35 35 62 40 59 5 -3 9 -35 10
-72 0 -56 2 -63 10 -42 6 14 9 53 7 87 -2 34 -2 61 -1 59 2 -2 12 -27 23 -57
15 -42 19 -48 20 -27 0 15 -7 46 -16 68 -21 53 -12 61 16 16 25 -41 30 -44 30
-16 0 12 -11 32 -25 46 -40 40 -29 52 12 13 23 -20 30 -24 18 -9 -11 14 -28
31 -39 39 -14 10 -17 22 -13 47 4 21 1 37 -8 44 -14 12 -27 50 -17 50 4 0 22
-9 40 -20 17 -11 32 -16 32 -12 0 4 -20 19 -45 34 -61 37 -57 55 5 23 28 -14
50 -21 50 -16 0 12 -42 39 -74 47 -19 4 -26 13 -26 30 0 32 27 44 102 44 82 0
96 -9 63 -40 -38 -35 -30 -46 10 -15 41 30 80 29 53 -3 -19 -21 -41 -86 -36
-108 2 -10 15 9 32 45 16 33 33 61 37 61 3 0 -2 -17 -13 -39 -13 -27 -17 -47
-12 -67 l8 -29 12 40 12 40 2 -45 c2 -48 5 -42 15 32 5 35 10 46 21 41 9 -3
14 -22 15 -57 1 -28 3 -40 6 -26 9 60 14 70 33 70 11 0 20 -2 20 -5 0 -24 -45
-97 -127 -210 -79 -108 -106 -137 -142 -155 -24 -11 -41 -23 -38 -26 3 -3 14
-1 25 5 12 6 23 11 26 11 4 0 -70 -102 -164 -226 -153 -204 -176 -230 -230
-262 -33 -20 -58 -37 -56 -40 3 -2 26 9 52 24 l47 28 -83 -115 c-208 -284
-317 -428 -366 -480 -50 -51 -70 -64 -192 -115 -17 -8 -40 -27 -50 -44 -11
-17 -22 -26 -28 -21 -11 11 -104 19 -104 9 0 -5 20 -8 44 -8 52 0 74 -19 24
-21 -32 -2 -32 -2 7 -8 l40 -6 -35 -19 c-19 -10 -87 -60 -150 -111 -127 -103
-311 -230 -468 -324 -162 -98 -418 -221 -461 -222 -26 0 -31 -2 -17 -8 15 -6
6 -15 -50 -48 -38 -22 -97 -54 -131 -71 -34 -17 -71 -46 -84 -63 -43 -61 -133
-109 -383 -204 -81 -31 -109 -47 -151 -89 -57 -55 -197 -160 -217 -162 -7 -1
-22 -3 -33 -4 -12 -1 -15 -4 -7 -7 8 -3 -9 -15 -37 -29 -28 -13 -51 -30 -51
-38 0 -8 -38 -37 -84 -65 -46 -28 -107 -71 -134 -96 -56 -50 -141 -169 -177
-248 -46 -99 -42 -208 10 -257 33 -31 36 -27 70 109 33 134 71 221 96 221 10
0 23 6 28 13 50 64 108 117 177 162 45 30 89 61 97 70 9 8 29 15 44 15 20 0
39 11 64 36 18 20 70 60 114 89 44 28 86 59 94 68 8 10 28 17 47 17 27 0 46
11 95 56 36 33 66 53 75 50 8 -3 14 0 14 7 0 7 48 36 108 66 59 29 128 68 153
87 26 19 56 34 68 34 30 0 50 11 155 91 50 38 95 68 100 66 6 -2 19 7 31 19
11 12 124 80 250 150 301 167 766 445 809 482 18 16 18 16 13 -18 l-6 -35 11
33 c14 40 32 41 48 2 15 -37 25 -34 11 3 -9 22 -7 26 13 31 59 15 194 86 214
112 82 107 218 298 288 404 45 69 94 140 107 158 l25 34 5 -29 c3 -24 4 -23 6
8 1 40 46 109 236 358 l110 144 5 -66 c3 -36 8 -68 12 -72 3 -4 4 29 1 72 l-6
79 75 105 c41 57 108 155 149 218 46 71 75 107 77 96 2 -9 -6 -23 -17 -32 -22
-15 -44 -52 -55 -93 -6 -22 -4 -21 14 7 12 18 26 30 31 27 5 -3 14 6 20 20 7
14 16 23 20 20 16 -10 9 -35 -16 -62 -14 -15 -34 -51 -45 -80 -23 -60 -24 -72
-10 -72 6 0 10 3 10 8 0 4 11 21 25 37 l25 30 -16 -45 c-9 -25 -18 -81 -20
-125 l-5 -80 20 59 c20 60 50 106 37 56 -4 -14 -10 -49 -13 -79 l-6 -54 26 19
c15 10 27 24 27 30 0 6 10 19 22 30 21 19 21 19 14 -1 -5 -11 -10 -69 -12
-130 l-4 -110 24 93 c13 51 25 95 28 97 2 2 2 -26 0 -63 -3 -45 -13 -83 -29
-115 -31 -62 -24 -72 10 -15 l26 43 1 -45 c0 -25 3 -56 7 -70 6 -20 10 -11 19
45 l12 70 1 -65 c1 -78 11 -140 21 -140 4 0 11 28 14 63 14 122 24 140 25 45
1 -49 4 -88 9 -88 4 0 6 38 4 86 -3 84 -3 85 17 72 18 -11 21 -23 21 -76 0
-54 4 -66 26 -89 21 -21 32 -24 61 -20 41 7 95 54 113 98 7 16 27 37 46 48 29
18 34 26 34 59 0 21 -11 71 -25 110 -28 79 -26 109 8 140 42 37 53 34 66 -19
15 -58 89 -166 158 -230 27 -26 62 -71 77 -102 56 -115 183 -130 264 -31 18
21 39 58 48 80 l16 42 43 -15 c24 -8 51 -26 60 -40 9 -13 32 -31 51 -39 42
-18 105 -5 150 31 27 21 29 28 30 96 1 55 8 92 29 144 31 80 216 460 238 490
15 19 15 19 66 -5 43 -20 53 -29 61 -61 14 -51 30 -59 24 -12 -4 27 -3 34 4
24 6 -8 18 -16 27 -17 10 -1 27 -12 39 -23 12 -12 27 -21 32 -21 12 0 64 -55
88 -93 10 -16 20 -26 23 -24 3 3 -2 16 -10 28 -15 20 -14 23 8 40 13 11 27 19
32 19 4 0 27 -37 50 -83 24 -46 71 -117 105 -158 35 -41 108 -129 162 -194 54
-66 132 -154 171 -195 l73 -75 17 -100 c9 -55 48 -222 85 -370 84 -330 117
-494 126 -621 6 -85 10 -101 34 -128 22 -26 25 -36 19 -66 -4 -19 -4 -39 -1
-45 4 -5 9 8 12 29 8 64 27 54 35 -18 3 -36 11 -69 17 -72 6 -4 8 1 5 12 -3
11 -8 42 -11 69 l-7 50 27 -57 c15 -32 31 -58 36 -58 4 0 -1 18 -12 40 -11 21
-20 42 -20 45 0 11 200 -157 310 -260 299 -282 343 -327 357 -369 11 -36 13
-37 10 -10 -3 29 8 21 167 -120 366 -325 515 -473 610 -603 46 -65 91 -103
120 -103 15 0 27 -9 35 -26 16 -35 25 -25 11 12 -11 28 -10 28 32 -12 24 -22
59 -51 78 -64 140 -95 289 -213 300 -240 7 -17 17 -33 22 -36 6 -4 5 3 -1 14
-6 11 -11 24 -11 27 0 12 64 -38 136 -106 79 -75 119 -99 163 -99 24 0 31 -6
40 -32 6 -17 14 -29 17 -25 3 3 0 15 -6 27 -6 12 -10 23 -8 25 2 2 46 -34 98
-81 127 -114 247 -204 271 -204 23 0 192 -125 261 -194 26 -25 56 -46 66 -46
10 0 27 -10 38 -21 10 -12 51 -36 89 -54 79 -36 180 -112 216 -163 58 -81 87
-90 74 -24 -20 108 -146 239 -289 303 -40 17 -45 23 -40 43 5 21 -2 27 -58 53
-60 28 -264 174 -281 201 -18 27 -53 52 -96 69 -101 37 -299 190 -316 243 -8
26 -54 60 -135 100 -36 18 -108 62 -160 99 -52 37 -147 102 -210 143 -156 103
-237 174 -261 228 -31 69 -76 117 -297 317 -114 103 -281 257 -372 343 -91 85
-226 211 -300 279 -177 163 -490 473 -491 486 0 5 -21 24 -46 40 -55 36 -50
26 -112 196 -84 227 -235 788 -217 806 3 3 23 -10 46 -30 113 -96 215 -121
477 -115 158 3 211 17 234 61 11 19 9 20 -22 13 -19 -4 -71 -10 -116 -13 -66
-5 -89 -3 -119 12 -28 13 -50 16 -94 11 -84 -10 -204 27 -296 91 -142 98 -143
99 -169 209 -13 55 -26 126 -30 159 -4 33 -9 68 -11 78 -9 30 13 18 35 -19 12
-20 24 -34 27 -31 3 3 -2 17 -11 30 -16 25 -16 25 4 20 12 -3 19 -9 16 -13 -5
-8 46 -83 64 -95 19 -11 12 5 -21 46 -17 21 -29 41 -27 44 10 9 78 -48 83 -71
4 -13 10 -24 15 -24 5 0 7 8 4 19 -8 29 16 36 45 12 15 -12 42 -31 60 -42 17
-12 32 -25 32 -31 0 -14 41 -70 47 -65 2 3 -3 19 -12 36 -18 37 -14 38 53 10
43 -18 53 -27 63 -58 6 -20 16 -40 22 -46 7 -7 8 -4 3 8 -3 11 -9 31 -11 45
l-6 27 17 -22 c9 -13 21 -23 26 -23 6 0 5 7 -2 16 -11 12 -2 11 41 -6 30 -11
61 -30 71 -40 10 -13 18 -16 20 -8 7 20 112 -48 143 -92 33 -47 44 -46 19 2
-17 32 -17 33 2 18 18 -15 18 -14 1 12 -22 35 -22 35 11 30 22 -3 32 -15 56
-68 16 -35 31 -62 33 -60 2 2 -7 27 -21 55 -14 28 -26 53 -26 56 0 4 30 -10
68 -30 53 -29 73 -47 97 -86 16 -27 33 -49 37 -49 5 0 -3 17 -16 37 -14 20
-24 39 -21 41 10 10 64 -34 89 -74 15 -24 33 -47 39 -51 6 -3 0 11 -13 32
l-24 39 49 -27 c39 -22 57 -27 89 -22 50 7 55 3 84 -59 13 -26 25 -46 28 -43
3 3 -4 24 -16 48 l-22 42 34 -19 c18 -11 40 -35 50 -53 22 -44 32 -52 24 -19
-9 38 6 35 39 -8 15 -19 29 -33 32 -30 3 3 0 13 -8 22 -10 12 2 9 37 -9 38
-19 59 -39 78 -72 15 -25 31 -45 37 -45 6 0 1 14 -11 31 -12 16 -20 32 -17 35
8 9 66 -25 80 -46 14 -23 29 -27 21 -5 -10 26 21 17 51 -15 16 -17 33 -30 39
-30 5 0 -1 11 -13 24 -20 21 -20 24 -6 30 25 9 112 -43 136 -81 12 -19 23 -32
26 -29 3 2 -4 17 -14 32 l-18 28 25 -7 c14 -4 28 -7 32 -7 4 0 16 -17 27 -38
11 -21 27 -45 37 -53 12 -9 8 3 -11 36 -27 47 -28 49 -5 30 13 -11 20 -14 15
-6 -6 11 -2 12 21 7 17 -5 50 -31 77 -62 27 -30 54 -54 60 -54 7 1 -4 14 -23
30 -19 17 -30 30 -26 30 5 0 1 9 -8 19 -17 19 -17 19 6 14 12 -4 37 -16 53
-28 48 -35 63 -41 42 -18 -18 20 -18 20 25 11 24 -5 56 -14 72 -18 28 -9 28
-9 11 10 -17 19 -17 20 3 20 12 0 22 6 22 13 0 8 9 22 19 31 18 17 20 16 33
-10 11 -25 78 -73 101 -74 4 0 -18 25 -50 56 -32 31 -45 46 -29 35 33 -24 117
-63 123 -57 2 2 -22 19 -54 37 -52 30 -55 34 -32 37 18 2 36 -6 58 -27 27 -26
107 -55 120 -44 5 4 8 2 -69 40 -38 18 -59 33 -50 36 74 22 147 34 162 26 9
-5 36 -8 60 -8 l43 1 -47 10 c-27 6 -48 14 -48 18 0 16 60 33 83 23 13 -6 31
-7 45 -2 l23 9 -21 40 c-22 43 -18 50 13 23 19 -17 20 -17 8 4 -6 12 -16 25
-21 28 -6 3 -10 18 -10 33 l1 27 17 -21 c9 -12 23 -30 30 -40 7 -11 6 -5 -3
13 -8 17 -12 38 -10 45 3 8 -3 23 -15 33 -11 10 -20 25 -20 34 1 11 8 7 25
-14 36 -44 30 -16 -7 35 l-32 43 27 -18 c15 -10 30 -15 34 -11 3 3 4 7 2 9 -2
1 -24 20 -48 41 l-44 39 39 -7 c36 -7 37 -6 19 7 -26 19 -102 40 -115 32 -6
-3 -10 2 -11 12 0 11 -3 13 -6 5 -6 -16 -23 -6 -23 14 0 9 5 12 12 8 6 -4 70
-9 142 -11 157 -5 163 -2 172 78 l6 57 -113 74 c-63 41 -168 107 -234 146 -66
39 -132 79 -147 89 l-27 19 292 98 c161 55 407 141 547 192 401 145 989 335
1210 390 52 13 106 31 120 41 20 15 32 17 63 9 27 -7 41 -6 49 2 9 9 6 12 -13
12 -33 0 -69 11 -69 20 0 4 20 13 45 20 25 7 45 16 45 21 0 4 -19 2 -41 -6
-51 -18 -49 -18 -49 0 0 8 4 15 8 15 5 0 35 16 68 36 32 20 95 57 139 82 95
52 237 148 430 287 237 171 325 229 465 309 74 42 165 99 203 127 l68 51 40
-16 c22 -9 38 -12 35 -8 -3 5 -19 15 -34 21 l-29 12 116 119 c108 111 134 130
382 293 241 159 329 225 329 246 0 5 21 22 48 38 63 40 289 249 308 284 7 15
14 36 14 47 0 10 21 40 48 68 74 77 180 224 197 273 8 25 15 58 14 75 l0 31
-17 -25 c-77 -112 -308 -366 -554 -610 -54 -52 -98 -100 -98 -106 0 -6 -15
-17 -33 -26 -18 -9 -69 -44 -112 -79 -132 -105 -443 -324 -553 -390 -57 -34
-116 -72 -132 -85 -15 -13 -35 -24 -44 -24 -8 0 -113 -73 -233 -163 -414 -310
-704 -512 -978 -682 -60 -37 -119 -76 -130 -86 -11 -9 -33 -21 -50 -25 -16 -4
-104 -44 -195 -90 -212 -106 -273 -131 -640 -257 -168 -58 -420 -146 -560
-195 -258 -91 -392 -133 -689 -216 l-163 -46 -137 87 c-185 118 -291 173 -472
242 -293 112 -410 169 -854 416 -170 95 -353 194 -405 220 -74 37 -114 66
-180 129 -47 45 -132 121 -190 170 -58 49 -139 122 -180 161 -142 137 -273
225 -334 225 -42 0 -95 -39 -126 -92 -24 -43 -37 -54 -86 -74 l-57 -23 -56 22
-55 22 -38 290 c-58 452 -57 403 -5 522 47 107 54 119 99 172 l27 31 83 -59
c46 -33 115 -88 155 -123 259 -228 325 -288 468 -428 88 -85 232 -216 320
-290 194 -164 726 -691 859 -852 116 -140 165 -182 215 -183 20 -1 47 -8 61
-18 29 -18 111 -49 117 -43 2 2 -25 17 -62 34 -73 35 -83 45 -28 30 73 -20
249 6 478 72 61 17 232 55 380 85 149 30 360 73 470 95 110 23 337 63 505 90
168 27 406 70 530 95 276 56 388 73 565 86 6 0 34 -9 63 -20 28 -12 52 -17 52
-13 0 4 -23 15 -51 25 -57 21 -55 34 6 40 l40 4 -45 1 -45 2 30 19 c17 10 53
38 80 63 68 61 229 155 545 318 146 76 303 160 350 187 138 81 291 174 346
210 38 25 69 36 115 42 l64 8 -55 2 c-40 2 -49 5 -35 10 11 5 59 51 107 103
78 85 111 111 313 244 315 208 367 245 390 280 11 17 36 40 55 52 51 30 298
259 315 293 8 15 15 36 15 46 0 11 18 37 41 58 50 49 159 195 188 252 20 41
39 123 28 123 -3 0 -18 -17 -34 -37z m-8316 -1011 l17 -130 -57 -124 c-31 -67
-64 -145 -75 -172 l-19 -50 -87 -16 c-104 -20 -115 -3 -13 20 84 18 88 35 7
26 -33 -4 -60 -3 -60 2 0 11 51 160 79 232 50 126 175 370 183 356 4 -7 15
-72 25 -144z m-1812 88 c3 -6 -5 -14 -19 -20 -35 -13 -33 -21 3 -14 27 6 30 4
35 -27 3 -19 7 -115 10 -214 3 -99 9 -225 12 -280 l6 -100 -92 -57 c-76 -48
-89 -53 -75 -32 9 14 15 28 12 30 -3 3 -14 -11 -26 -30 -24 -38 -61 -69 -154
-129 l-57 -38 15 37 c22 54 12 52 -15 -4 -26 -53 -180 -211 -180 -184 0 9 4
34 9 55 5 20 5 37 1 37 -9 0 -30 -79 -30 -115 0 -14 -11 -42 -25 -63 -53 -81
-71 -195 -41 -266 20 -49 79 -110 126 -131 27 -12 40 -24 40 -38 0 -11 9 -35
20 -53 l21 -33 -22 -12 c-13 -6 -56 -22 -97 -35 l-74 -22 6 21 c4 12 9 38 12
57 l5 35 -21 -35 -21 -35 5 33 c7 40 -3 40 -29 0 -30 -47 -45 -47 -34 -1 14
60 9 82 -8 35 -8 -24 -20 -41 -26 -39 -6 2 -16 26 -22 53 -10 43 -12 46 -19
25 -6 -18 -10 -21 -17 -10 -7 11 -9 9 -9 -7 0 -17 -5 -20 -30 -16 -16 2 -30 9
-30 16 -1 6 -7 25 -15 41 l-15 30 6 -44 c4 -25 2 -41 -3 -38 -5 3 -15 2 -23
-3 -11 -7 -24 0 -48 28 l-34 37 21 -36 c27 -46 26 -52 -3 -47 -15 3 -27 0 -30
-8 -2 -6 -28 -19 -57 -27 l-53 -16 -69 40 c-37 23 -71 39 -73 36 -2 -2 20 -23
51 -47 58 -45 70 -59 33 -39 -13 7 -48 12 -78 13 -57 0 -160 -21 -160 -33 0
-3 45 -15 101 -25 116 -21 127 -30 18 -16 -41 5 -98 10 -127 10 l-53 0 6 63 5
62 -16 -40 c-9 -22 -19 -73 -22 -114 l-7 -74 -54 49 -53 48 4 108 c2 61 0 104
-5 99 -5 -5 -10 -50 -11 -100 l-1 -90 -52 51 c-29 29 -53 56 -53 61 0 17 182
197 365 359 159 143 190 167 196 151 6 -15 8 -14 9 7 0 19 50 73 201 219 164
159 199 189 194 165 -4 -20 2 -13 19 21 18 38 103 129 358 383 183 182 339
332 345 332 7 0 15 -5 18 -10z m1365 -395 c0 -2 -10 -10 -22 -16 -21 -11 -22
-11 -9 4 13 16 31 23 31 12z m-535 -15 c-3 -5 -12 -10 -18 -10 -7 0 -6 4 3 10
19 12 23 12 15 0z m515 -35 c0 -2 -15 -12 -32 -20 l-33 -16 25 20 c24 20 40
26 40 16z m545 -132 c3 -32 7 -119 9 -193 2 -74 7 -143 11 -152 10 -25 -3 -23
-96 13 l-80 31 7 31 c9 43 76 238 105 309 27 65 34 59 44 -39z m-590 52 c-26
-22 -65 -34 -65 -20 0 6 72 44 85 44 6 0 -3 -11 -20 -24z m5 -40 c0 -9 -6 -12
-16 -8 -13 5 -13 7 -2 14 17 11 18 11 18 -6z m343 -78 l-17 -47 -58 -1 c-32
-1 -64 -2 -70 -3 -15 -1 -21 24 -10 42 7 10 161 62 170 57 1 -1 -6 -23 -15
-48z m-33 -92 c0 -3 -7 -21 -14 -40 -17 -39 -52 -50 -43 -13 3 12 2 30 -4 40
-9 16 -6 18 26 18 19 0 35 -2 35 -5z m1019 -372 c53 -55 134 -130 179 -166 46
-37 82 -67 80 -67 -1 0 -104 43 -227 94 -258 108 -259 109 -233 195 l17 53 44
-5 c41 -5 52 -13 140 -104z m-4342 -648 c45 -41 46 -44 18 -35 -16 5 -49 14
-72 20 -43 11 -43 11 -27 35 9 14 20 25 24 25 5 0 30 -20 57 -45z m349 -12
l49 -7 -50 -12 c-47 -12 -43 -12 53 -7 89 5 102 4 96 -10 -3 -8 -22 -18 -42
-22 -43 -8 -132 -44 -132 -54 0 -4 31 -2 70 3 38 5 72 8 74 5 2 -2 7 -20 11
-40 l7 -37 -54 -4 c-48 -4 -58 -1 -106 31 -72 48 -74 51 -66 110 7 56 6 56 90
44z m-285 -59 c12 -7 135 -108 149 -122 3 -3 -10 -2 -27 1 -18 4 -46 4 -61 1
l-28 -6 42 -46 c24 -26 42 -47 41 -49 -6 -6 -163 40 -168 49 -4 6 -12 8 -18 4
-10 -7 -206 46 -243 66 -15 7 -78 103 -78 118 0 3 10 6 23 6 12 1 29 4 37 5
11 3 15 -4 13 -31 -2 -32 -1 -33 9 -12 7 14 20 22 37 22 15 0 42 11 61 24 l35
23 81 -22 c45 -12 88 -26 95 -31z m5992 49 c-7 -2 -19 -2 -25 0 -7 3 -2 5 12
5 14 0 19 -2 13 -5z m-6370 -89 c24 -48 25 -55 10 -50 -10 3 -58 15 -108 27
-61 15 -95 28 -107 43 -17 21 -16 21 25 27 23 3 67 7 97 7 l56 2 27 -56z
m-229 21 c4 -12 0 -14 -22 -9 -60 15 -69 23 -26 23 29 1 44 -4 48 -14z m829
-147 c31 -17 58 -40 60 -50 5 -16 -2 -18 -62 -18 l-67 0 -49 50 -49 50 56 0
c45 0 67 -6 111 -32z m2987 -193 c0 -1 -22 -50 -48 -106 -27 -57 -70 -158 -97
-224 -26 -66 -51 -124 -55 -128 -4 -4 -17 16 -30 45 -18 42 -20 58 -12 78 6
14 35 84 64 155 30 72 66 150 80 174 l26 43 12 -38 c7 -22 16 -43 21 -48 12
-14 11 -5 -6 44 -20 55 -20 55 15 30 17 -12 30 -23 30 -25z m-1530 -296 c0 -6
-8 -18 -17 -27 -16 -16 -16 -16 -10 1 4 10 7 23 7 28 0 5 5 9 10 9 6 0 10 -5
10 -11z m1 -96 c-6 -21 -11 -52 -11 -69 0 -16 -7 -39 -15 -50 -10 -12 -14 -13
-11 -4 2 8 9 44 16 80 15 80 19 94 26 87 3 -3 1 -22 -5 -44z m37 -20 c9 -29 8
-33 -14 -48 l-25 -16 6 38 c13 74 16 77 33 26z m2527 -31 c21 -39 25 -42 20
-17 -6 26 -5 28 8 15 13 -13 47 -177 47 -225 0 -15 -2 -16 -16 -4 -23 19 -170
196 -205 246 l-29 42 41 -14 c22 -8 50 -26 61 -40 25 -32 36 -26 14 8 -9 13
-14 31 -10 40 10 26 40 4 69 -51z m-2492 -81 c-5 -3 -15 -15 -21 -26 -11 -18
-12 -16 -6 10 11 57 14 62 26 41 6 -11 7 -21 1 -25z m33 -99 c-15 -15 -16 -13
-16 28 l1 45 15 -29 c14 -26 14 -30 0 -44z m54 -53 c0 -6 -4 -7 -10 -4 -5 3
-10 11 -10 16 0 6 5 7 10 4 6 -3 10 -11 10 -16z m5455 -560 c16 -30 16 -31 -6
-24 -15 5 -19 4 -14 -5 6 -9 3 -9 -14 -1 -25 14 -28 23 -4 14 11 -4 14 -3 9 6
-8 12 -1 41 8 41 3 0 13 -14 21 -31z"/>
<path d="M3980 5581 c0 -5 7 -15 17 -22 15 -13 15 -12 4 9 -12 23 -21 28 -21
13z"/>
<path d="M3180 5304 c0 -13 88 -99 95 -93 2 3 -18 27 -45 54 -28 27 -50 45
-50 39z"/>
<path d="M6857 7564 c-16 -9 -27 -18 -24 -21 3 -2 22 5 44 16 21 11 31 20 23
20 -8 0 -28 -7 -43 -15z"/>
<path d="M5136 7445 c-3 -9 -6 -29 -5 -43 1 -22 3 -19 10 12 10 40 6 60 -5 31z"/>
<path d="M4615 7130 c-17 -7 -16 -9 10 -9 17 0 39 4 50 9 17 7 16 9 -10 9 -16
0 -39 -4 -50 -9z"/>
<path d="M1820 7089 c30 -11 59 -18 65 -16 10 4 -91 38 -109 36 -6 0 14 -9 44
-20z"/>
<path d="M13822 6509 c-19 -30 -8 -34 12 -4 9 14 13 25 9 25 -5 0 -14 -9 -21
-21z"/>
<path d="M2160 6503 c-60 -6 -77 -23 -23 -23 23 0 76 -5 118 -11 85 -11 101
-8 58 14 -34 18 -93 25 -153 20z"/>
<path d="M2725 6263 c2 -74 8 -113 22 -140 36 -73 41 -46 13 74 -16 65 -31
129 -34 143 -2 14 -3 -21 -1 -77z"/>
<path d="M990 6067 c0 -15 32 -55 48 -62 11 -4 9 2 -8 22 -14 15 -28 32 -32
38 -5 5 -8 6 -8 2z"/>
<path d="M2924 5699 c49 -10 91 -17 94 -15 8 9 -103 36 -142 35 -33 -1 -23 -5
48 -20z"/>
<path d="M6771 4965 c0 -11 4 -27 9 -35 9 -13 10 -13 9 0 0 8 -4 24 -9 35 l-9
20 0 -20z"/>
<path d="M10570 4140 c8 -5 20 -10 25 -10 6 0 3 5 -5 10 -8 5 -19 10 -25 10
-5 0 -3 -5 5 -10z"/>
<path d="M8745 4080 c9 -30 55 -113 60 -108 4 4 -51 118 -62 127 -3 3 -2 -5 2
-19z"/>
<path d="M7755 3754 c-4 -16 -8 -35 -11 -41 -2 -7 0 -13 5 -13 9 0 23 71 16
78 -2 2 -7 -9 -10 -24z"/>
<path d="M10395 3655 c17 -8 55 -14 85 -14 50 1 52 2 20 9 -19 4 -57 10 -85
13 -49 5 -49 5 -20 -8z"/>
<path d="M3351 3092 c-6 -12 -11 -27 -11 -34 1 -7 8 0 16 15 9 16 13 31 11 34
-3 2 -10 -4 -16 -15z"/>
<path d="M8170 3046 c0 -3 25 -18 55 -34 30 -17 55 -27 55 -24 0 4 -22 19 -49
35 -48 26 -61 31 -61 23z"/>
<path d="M2996 2891 c-11 -17 -27 -66 -19 -56 12 13 34 65 28 65 -2 0 -6 -4
-9 -9z"/>
<path d="M1763 2379 c12 -7 27 -7 45 0 25 9 24 9 -18 10 -36 0 -41 -2 -27 -10z"/>
<path d="M9200 2065 c0 -6 93 -46 97 -41 3 2 -17 14 -42 25 -50 22 -55 24 -55
16z"/>
</g>
</svg>
