<svg version="1.1" xmlns="http://www.w3.org/2000/svg" viewBox="0 0 1843.80219127016 462.3278012809516" width="1843.80219127016" height="462.3278012809516">
  <!-- svg-source:excalidraw -->
  
  <defs>
    <style class="style-fonts">
      @font-face {
        font-family: "Virgil";
        src: url("https://excalidraw.com/Virgil.woff2");
      }
      @font-face {
        font-family: "Cascadia";
        src: url("https://excalidraw.com/Cascadia.woff2");
      }
      @font-face {
        font-family: "Assistant";
        src: url("https://excalidraw.com/Assistant-Regular.woff2");
      }
    </style>
    
  </defs>
  <g stroke-linecap="round" transform="translate(586.3997446448732 162.22976186771209) rotate(0 153.1631777668874 59.69021820429478)"><path d="M0 0 C64.24 0, 128.49 0, 306.33 0 M0 0 C102.33 0, 204.66 0, 306.33 0 M306.33 0 C306.33 37.1, 306.33 74.2, 306.33 119.38 M306.33 0 C306.33 42.25, 306.33 84.51, 306.33 119.38 M306.33 119.38 C228.99 119.38, 151.66 119.38, 0 119.38 M306.33 119.38 C219.63 119.38, 132.93 119.38, 0 119.38 M0 119.38 C0 83.02, 0 46.67, 0 0 M0 119.38 C0 80.37, 0 41.36, 0 0" stroke="#1e1e1e" stroke-width="2" fill="none"></path></g><g transform="translate(616.8330046758241 193.35745355724467) rotate(0 119.8408203125 32.19999999999999)"><text x="119.8408203125" y="25.760546874999996" font-family="Helvetica, Segoe UI Emoji" font-size="28px" fill="#1e1e1e" text-anchor="middle" style="white-space: pre;" direction="ltr" dominant-baseline="alphabetic">Simulate threshold </text><text x="119.8408203125" y="57.96054687499999" font-family="Helvetica, Segoe UI Emoji" font-size="28px" fill="#1e1e1e" text-anchor="middle" style="white-space: pre;" direction="ltr" dominant-baseline="alphabetic">2DSS model</text></g><g stroke-linecap="round" transform="translate(590.0227811720418 10) rotate(0 153.16317776688734 59.69021820429478)"><path d="M0 0 C117.57 0, 235.15 0, 306.33 0 M0 0 C62.84 0, 125.68 0, 306.33 0 M306.33 0 C306.33 33.38, 306.33 66.75, 306.33 119.38 M306.33 0 C306.33 40.64, 306.33 81.29, 306.33 119.38 M306.33 119.38 C222.38 119.38, 138.44 119.38, 0 119.38 M306.33 119.38 C224.48 119.38, 142.64 119.38, 0 119.38 M0 119.38 C0 93.99, 0 68.6, 0 0 M0 119.38 C0 95.21, 0 71.03, 0 0" stroke="#1e1e1e" stroke-width="2" fill="none"></path></g><g transform="translate(644.269819788574 37.99495420903398) rotate(0 96.4892578125 32.199999999999996)"><text x="96.4892578125" y="25.760546874999996" font-family="Helvetica, Segoe UI Emoji" font-size="28px" fill="#1e1e1e" text-anchor="middle" style="white-space: pre;" direction="ltr" dominant-baseline="alphabetic">Simulate linear </text><text x="96.4892578125" y="57.96054687499999" font-family="Helvetica, Segoe UI Emoji" font-size="28px" fill="#1e1e1e" text-anchor="middle" style="white-space: pre;" direction="ltr" dominant-baseline="alphabetic">2DSS model</text></g><g transform="translate(1123.7403489227079 97.72035194693487) rotate(0 115.1240234375 32.199999999999996)"><text x="115.1240234375" y="25.760546874999996" font-family="Helvetica, Segoe UI Emoji" font-size="28px" fill="#1e1e1e" text-anchor="middle" style="white-space: pre;" direction="ltr" dominant-baseline="alphabetic">Calculate genetic </text><text x="115.1240234375" y="57.96054687499999" font-family="Helvetica, Segoe UI Emoji" font-size="28px" fill="#1e1e1e" text-anchor="middle" style="white-space: pre;" direction="ltr" dominant-baseline="alphabetic">summary statistics</text></g><g stroke-linecap="round" transform="translate(1521.9521291004419 78.25690190116984) rotate(0 153.16317776688743 59.69021820429478)"><path d="M0 0 C85.97 0, 171.94 0, 306.33 0 M0 0 C97.29 0, 194.58 0, 306.33 0 M306.33 0 C306.33 40.39, 306.33 80.77, 306.33 119.38 M306.33 0 C306.33 41.02, 306.33 82.04, 306.33 119.38 M306.33 119.38 C204.18 119.38, 102.03 119.38, 0 119.38 M306.33 119.38 C197.74 119.38, 89.15 119.38, 0 119.38 M0 119.38 C0 85.77, 0 52.16, 0 0 M0 119.38 C0 74.17, 0 28.97, 0 0" stroke="#e9ecef" stroke-width="2" fill="none"></path></g><g transform="translate(1557.9333933220407 115.17116359121158) rotate(0 121.3857421875 16.099999999999998)"><text x="121.3857421875" y="25.760546874999996" font-family="Helvetica, Segoe UI Emoji" font-size="28px" fill="#e9ecef" text-anchor="middle" style="white-space: pre;" direction="ltr" dominant-baseline="alphabetic">Model classification</text></g><g stroke-linecap="round"><g transform="translate(1682.2750975807112 212.35967594713867) rotate(0 0.6884448200535189 55.00428396175321)"><path d="M0 0 C0.43 34.19, 0.86 68.37, 1.38 110.01 M0 0 C0.49 38.94, 0.97 77.87, 1.38 110.01" stroke="#e9ecef" stroke-width="2" fill="none"></path></g><g transform="translate(1682.2750975807112 212.35967594713867) rotate(0 0.6884448200535189 55.00428396175321)"><path d="M-7.47 86.63 C-4.72 93.89, -1.97 101.16, 1.38 110.01 M-7.47 86.63 C-4.34 94.9, -1.21 103.18, 1.38 110.01" stroke="#e9ecef" stroke-width="2" fill="none"></path></g><g transform="translate(1682.2750975807112 212.35967594713867) rotate(0 0.6884448200535189 55.00428396175321)"><path d="M9.63 86.41 C7.07 93.74, 4.5 101.08, 1.38 110.01 M9.63 86.41 C6.71 94.76, 3.79 103.12, 1.38 110.01" stroke="#e9ecef" stroke-width="2" fill="none"></path></g></g><mask></mask><g stroke-linecap="round" transform="translate(1082.5068379605873 74.33655512463383) rotate(0 153.16317776688732 59.69021820429478)"><path d="M0 0 C116.01 0, 232.01 0, 306.33 0 M0 0 C63.99 0, 127.98 0, 306.33 0 M306.33 0 C306.33 40.16, 306.33 80.33, 306.33 119.38 M306.33 0 C306.33 40.87, 306.33 81.74, 306.33 119.38 M306.33 119.38 C235.08 119.38, 163.83 119.38, 0 119.38 M306.33 119.38 C184.35 119.38, 62.37 119.38, 0 119.38 M0 119.38 C0 78.79, 0 38.2, 0 0 M0 119.38 C0 80.13, 0 40.88, 0 0" stroke="#1e1e1e" stroke-width="2" fill="none"></path></g><g stroke-linecap="round"><g transform="translate(910.4195171119029 57.3829567188733) rotate(0 82.80781864053472 35.787856993563)"><path d="M0 0 C46.3 20.01, 92.6 40.02, 165.62 71.58 M0 0 C56.39 24.37, 112.77 48.74, 165.62 71.58" stroke="#1e1e1e" stroke-width="2" fill="none"></path></g><g transform="translate(910.4195171119029 57.3829567188733) rotate(0 82.80781864053472 35.787856993563)"><path d="M140.66 70.1 C147.64 70.52, 154.61 70.93, 165.62 71.58 M140.66 70.1 C149.16 70.61, 157.65 71.11, 165.62 71.58" stroke="#1e1e1e" stroke-width="2" fill="none"></path></g><g transform="translate(910.4195171119029 57.3829567188733) rotate(0 82.80781864053472 35.787856993563)"><path d="M147.44 54.41 C152.52 59.21, 157.6 64.01, 165.62 71.58 M147.44 54.41 C153.63 60.25, 159.82 66.1, 165.62 71.58" stroke="#1e1e1e" stroke-width="2" fill="none"></path></g></g><mask></mask><g stroke-linecap="round"><g transform="translate(907.8059525942123 225.78501331377697) rotate(0 83.82420484185894 -40.918187343103966)"><path d="M0 0 C64.08 -31.28, 128.16 -62.56, 167.65 -81.84 M0 0 C52.37 -25.56, 104.74 -51.13, 167.65 -81.84" stroke="#1e1e1e" stroke-width="2" fill="none"></path></g><g transform="translate(907.8059525942123 225.78501331377697) rotate(0 83.82420484185894 -40.918187343103966)"><path d="M150.29 -63.85 C156.92 -70.72, 163.56 -77.6, 167.65 -81.84 M150.29 -63.85 C155.71 -69.47, 161.13 -75.09, 167.65 -81.84" stroke="#1e1e1e" stroke-width="2" fill="none"></path></g><g transform="translate(907.8059525942123 225.78501331377697) rotate(0 83.82420484185894 -40.918187343103966)"><path d="M142.79 -79.21 C152.29 -80.22, 161.79 -81.22, 167.65 -81.84 M142.79 -79.21 C150.55 -80.03, 158.32 -80.85, 167.65 -81.84" stroke="#1e1e1e" stroke-width="2" fill="none"></path></g></g><mask></mask><g stroke-linecap="round" transform="translate(1527.475835736385 327.8699173820617) rotate(0 153.16317776688743 59.690218204294766)"><path d="M0 0 C103.63 0, 207.26 0, 306.33 0 M0 0 C105.26 0, 210.52 0, 306.33 0 M306.33 0 C306.33 39.81, 306.33 79.62, 306.33 119.38 M306.33 0 C306.33 42.32, 306.33 84.64, 306.33 119.38 M306.33 119.38 C220.08 119.38, 133.84 119.38, 0 119.38 M306.33 119.38 C190.33 119.38, 74.33 119.38, 0 119.38 M0 119.38 C0 76.77, 0 34.16, 0 0 M0 119.38 C0 90.49, 0 61.6, 0 0" stroke="#e9ecef" stroke-width="2" fill="none"></path></g><g transform="translate(1537.555831720492 364.4384694798164) rotate(0 140.0478515625 16.099999999999994)"><text x="140.0478515625" y="25.760546874999996" font-family="Helvetica, Segoe UI Emoji" font-size="28px" fill="#e9ecef" text-anchor="middle" style="white-space: pre;" direction="ltr" dominant-baseline="alphabetic">Classify empirical data</text></g><g stroke-linecap="round"><g transform="translate(1505.972277988193 382.36902684968925) rotate(0 -53.39142128327194 0.16374994943242882)"><path d="M0 0 C-29.26 0.09, -58.52 0.18, -106.78 0.33 M0 0 C-28.53 0.09, -57.06 0.18, -106.78 0.33" stroke="#e9ecef" stroke-width="2" fill="none"></path></g><g transform="translate(1505.972277988193 382.36902684968925) rotate(0 -53.39142128327194 0.16374994943242882)"><path d="M-83.32 -8.3 C-89.75 -5.93, -96.18 -3.57, -106.78 0.33 M-83.32 -8.3 C-89.59 -5.99, -95.86 -3.69, -106.78 0.33" stroke="#e9ecef" stroke-width="2" fill="none"></path></g><g transform="translate(1505.972277988193 382.36902684968925) rotate(0 -53.39142128327194 0.16374994943242882)"><path d="M-83.26 8.81 C-89.71 6.48, -96.15 4.16, -106.78 0.33 M-83.26 8.81 C-89.55 6.54, -95.83 4.28, -106.78 0.33" stroke="#e9ecef" stroke-width="2" fill="none"></path></g></g><mask></mask><g stroke-linecap="round" transform="translate(1074.2677950217353 327.4830220210024) rotate(0 153.16317776688732 59.690218204294794)"><path d="M0 0 C90.98 0, 181.95 0, 306.33 0 M0 0 C77.22 0, 154.44 0, 306.33 0 M306.33 0 C306.33 30.08, 306.33 60.15, 306.33 119.38 M306.33 0 C306.33 30.16, 306.33 60.32, 306.33 119.38 M306.33 119.38 C215.74 119.38, 125.16 119.38, 0 119.38 M306.33 119.38 C221.15 119.38, 135.97 119.38, 0 119.38 M0 119.38 C0 71.82, 0 24.26, 0 0 M0 119.38 C0 80.31, 0 41.24, 0 0" stroke="#e9ecef" stroke-width="2" fill="none"></path></g><g transform="translate(1095.671952735716 365.6382573763369) rotate(0 133.0546875 16.10000000000001)"><text x="133.0546875" y="25.760546874999996" font-family="Helvetica, Segoe UI Emoji" font-size="28px" fill="#e9ecef" text-anchor="middle" style="white-space: pre;" direction="ltr" dominant-baseline="alphabetic">Parameter estimation</text></g><g stroke-linecap="round" transform="translate(590.4103546872853 332.94736487236196) rotate(0 153.16317776688737 59.690218204294794)"><path d="M0 0 C71.25 0, 142.49 0, 306.33 0 M0 0 C121.98 0, 243.96 0, 306.33 0 M306.33 0 C306.33 40.59, 306.33 81.18, 306.33 119.38 M306.33 0 C306.33 39.25, 306.33 78.5, 306.33 119.38 M306.33 119.38 C236.49 119.38, 166.66 119.38, 0 119.38 M306.33 119.38 C200.28 119.38, 94.23 119.38, 0 119.38 M0 119.38 C0 77.61, 0 35.85, 0 0 M0 119.38 C0 79.4, 0 39.43, 0 0" stroke="#e9ecef" stroke-width="2" fill="none"></path></g><g transform="translate(611.3880044500089 372.30880331636695) rotate(0 134.6064453125 16.10000000000001)"><text x="134.6064453125" y="25.760546874999996" font-family="Helvetica, Segoe UI Emoji" font-size="28px" fill="#e9ecef" text-anchor="middle" style="white-space: pre;" direction="ltr" dominant-baseline="alphabetic">Genetic diversity map</text></g><g stroke-linecap="round"><g transform="translate(1055.7176240094361 387.6141295111397) rotate(0 -69.71968725540825 1.028264798024054)"><path d="M0 0 C-35.13 0.52, -70.26 1.04, -139.44 2.06 M0 0 C-35.23 0.52, -70.45 1.04, -139.44 2.06" stroke="#e9ecef" stroke-width="2" fill="none"></path></g><g transform="translate(1055.7176240094361 387.6141295111397) rotate(0 -69.71968725540825 1.028264798024054)"><path d="M-116.08 -6.84 C-121.96 -4.6, -127.85 -2.36, -139.44 2.06 M-116.08 -6.84 C-121.98 -4.59, -127.88 -2.34, -139.44 2.06" stroke="#e9ecef" stroke-width="2" fill="none"></path></g><g transform="translate(1055.7176240094361 387.6141295111397) rotate(0 -69.71968725540825 1.028264798024054)"><path d="M-115.82 10.26 C-121.77 8.19, -127.72 6.13, -139.44 2.06 M-115.82 10.26 C-121.79 8.19, -127.76 6.12, -139.44 2.06" stroke="#e9ecef" stroke-width="2" fill="none"></path></g></g><mask></mask><g stroke-linecap="round" transform="translate(10 94.6939212303476) rotate(0 153.16317776688737 59.69021820429478)"><path d="M0 0 C112.9 0, 225.81 0, 306.33 0 M0 0 C116.21 0, 232.42 0, 306.33 0 M306.33 0 C306.33 35.21, 306.33 70.42, 306.33 119.38 M306.33 0 C306.33 26.89, 306.33 53.78, 306.33 119.38 M306.33 119.38 C210.76 119.38, 115.19 119.38, 0 119.38 M306.33 119.38 C242.67 119.38, 179.01 119.38, 0 119.38 M0 119.38 C0 90.28, 0 61.18, 0 0 M0 119.38 C0 94.37, 0 69.36, 0 0" stroke="#1e1e1e" stroke-width="2" fill="none"></path></g><g transform="translate(73.80785226691202 134.3756954852311) rotate(0 84.0205078125 16.099999999999998)"><text x="84.0205078125" y="25.760546874999996" font-family="Helvetica, Segoe UI Emoji" font-size="28px" fill="#1e1e1e" text-anchor="middle" style="white-space: pre;" direction="ltr" dominant-baseline="alphabetic">Create SDMs</text></g><g stroke-linecap="round"><g transform="translate(330.53397547334146 147.74597478558343) rotate(0 122.63199656862002 -34.34845439750828)"><path d="M0 0 C83.39 -23.36, 166.77 -46.71, 245.26 -68.7 M0 0 C80.64 -22.59, 161.27 -45.17, 245.26 -68.7" stroke="#1e1e1e" stroke-width="2" fill="none"></path></g><g transform="translate(330.53397547334146 147.74597478558343) rotate(0 122.63199656862002 -34.34845439750828)"><path d="M224.95 -54.13 C231.86 -59.08, 238.76 -64.03, 245.26 -68.7 M224.95 -54.13 C231.63 -58.92, 238.31 -63.71, 245.26 -68.7" stroke="#1e1e1e" stroke-width="2" fill="none"></path></g><g transform="translate(330.53397547334146 147.74597478558343) rotate(0 122.63199656862002 -34.34845439750828)"><path d="M220.34 -70.59 C228.81 -69.95, 237.29 -69.3, 245.26 -68.7 M220.34 -70.59 C228.53 -69.97, 236.73 -69.35, 245.26 -68.7" stroke="#1e1e1e" stroke-width="2" fill="none"></path></g></g><mask></mask><g stroke-linecap="round"><g transform="translate(333.9582969935267 162.39041362722682) rotate(0 122.73723576427588 25.840270194873092)"><path d="M0 0 C88.98 18.73, 177.96 37.47, 245.47 51.68 M0 0 C73.24 15.42, 146.48 30.84, 245.47 51.68" stroke="#1e1e1e" stroke-width="2" fill="none"></path></g><g transform="translate(333.9582969935267 162.39041362722682) rotate(0 122.73723576427588 25.840270194873092)"><path d="M220.72 55.21 C229.7 53.93, 238.67 52.65, 245.47 51.68 M220.72 55.21 C228.11 54.16, 235.49 53.1, 245.47 51.68" stroke="#1e1e1e" stroke-width="2" fill="none"></path></g><g transform="translate(333.9582969935267 162.39041362722682) rotate(0 122.73723576427588 25.840270194873092)"><path d="M224.25 38.47 C231.94 43.26, 239.64 48.05, 245.47 51.68 M224.25 38.47 C230.58 42.41, 236.91 46.35, 245.47 51.68" stroke="#1e1e1e" stroke-width="2" fill="none"></path></g></g><mask></mask><g stroke-linecap="round"><g transform="translate(1405.1875164045125 135.40225973644047) rotate(0 49.88375826134302 -0.08892821174782739)"><path d="M0 0 C39.83 -0.07, 79.66 -0.14, 99.77 -0.18 M0 0 C28.87 -0.05, 57.75 -0.1, 99.77 -0.18" stroke="#e9ecef" stroke-width="2" fill="none"></path></g><g transform="translate(1405.1875164045125 135.40225973644047) rotate(0 49.88375826134302 -0.08892821174782739)"><path d="M76.29 8.41 C85.66 4.98, 95.04 1.55, 99.77 -0.18 M76.29 8.41 C83.09 5.93, 89.88 3.44, 99.77 -0.18" stroke="#e9ecef" stroke-width="2" fill="none"></path></g><g transform="translate(1405.1875164045125 135.40225973644047) rotate(0 49.88375826134302 -0.08892821174782739)"><path d="M76.26 -8.69 C85.64 -5.29, 95.03 -1.89, 99.77 -0.18 M76.26 -8.69 C83.06 -6.22, 89.87 -3.76, 99.77 -0.18" stroke="#e9ecef" stroke-width="2" fill="none"></path></g></g><mask></mask></svg>