<svg version="1.1" xmlns="http://www.w3.org/2000/svg" viewBox="0 0 1352.38079298606 338.79138415854254" width="1352.38079298606" height="338.79138415854254">
  <!-- svg-source:excalidraw -->
  
  <defs>
    <style class="style-fonts">
      @font-face {
        font-family: "Virgil";
        src: url("https://excalidraw.com/Virgil.woff2");
      }
      @font-face {
        font-family: "Cascadia";
        src: url("https://excalidraw.com/Cascadia.woff2");
      }
      @font-face {
        font-family: "Assistant";
        src: url("https://excalidraw.com/Assistant-Regular.woff2");
      }
    </style>
    
  </defs>
  <g stroke-linecap="round" transform="translate(13.124923258833292 136.95870284877537) rotate(0 153.16317776688737 59.69021820429475)"><path d="M0 0 C116.03 0, 232.07 0, 306.33 0 M0 0 C61.43 0, 122.87 0, 306.33 0 M306.33 0 C306.33 33.92, 306.33 67.84, 306.33 119.38 M306.33 0 C306.33 42.61, 306.33 85.21, 306.33 119.38 M306.33 119.38 C212.01 119.38, 117.7 119.38, 0 119.38 M306.33 119.38 C207.35 119.38, 108.38 119.38, 0 119.38 M0 119.38 C0 84.47, 0 49.56, 0 0 M0 119.38 C0 89.4, 0 59.42, 0 0" stroke="#1e1e1e" stroke-width="2" fill="none"></path></g><g transform="translate(25.03617761210569 164.1167127718013) rotate(0 145.5302734375 32.200000000000045)"><text x="145.5302734375" y="25.760546874999996" font-family="Helvetica, Segoe UI Emoji" font-size="28px" fill="#1e1e1e" text-anchor="middle" style="white-space: pre;" direction="ltr" dominant-baseline="alphabetic">Convert tree sequence </text><text x="145.5302734375" y="57.96054687499999" font-family="Helvetica, Segoe UI Emoji" font-size="28px" fill="#1e1e1e" text-anchor="middle" style="white-space: pre;" direction="ltr" dominant-baseline="alphabetic">to genotype matrix</text></g><g stroke-linecap="round" transform="translate(536.5835509831843 138.52673553517002) rotate(0 153.16317776688732 59.69021820429475)"><path d="M0 0 C65.08 0, 130.16 0, 306.33 0 M0 0 C119.55 0, 239.1 0, 306.33 0 M306.33 0 C306.33 30.86, 306.33 61.72, 306.33 119.38 M306.33 0 C306.33 28.51, 306.33 57.02, 306.33 119.38 M306.33 119.38 C234.7 119.38, 163.08 119.38, 0 119.38 M306.33 119.38 C188.83 119.38, 71.33 119.38, 0 119.38 M0 119.38 C0 89.24, 0 59.09, 0 0 M0 119.38 C0 76.04, 0 32.7, 0 0" stroke="#1e1e1e" stroke-width="2" fill="none"></path></g><g transform="translate(567.9703912739565 150.46560467848371) rotate(0 126.0546875 48.299999999999955)"><text x="126.0546875" y="25.760546874999996" font-family="Helvetica, Segoe UI Emoji" font-size="28px" fill="#1e1e1e" text-anchor="middle" style="white-space: pre;" direction="ltr" dominant-baseline="alphabetic">Filter simulated and </text><text x="126.0546875" y="57.96054687499999" font-family="Helvetica, Segoe UI Emoji" font-size="28px" fill="#1e1e1e" text-anchor="middle" style="white-space: pre;" direction="ltr" dominant-baseline="alphabetic">empirical genotype </text><text x="126.0546875" y="90.160546875" font-family="Helvetica, Segoe UI Emoji" font-size="28px" fill="#1e1e1e" text-anchor="middle" style="white-space: pre;" direction="ltr" dominant-baseline="alphabetic">matrices</text></g><g stroke-linecap="round" transform="translate(1036.0544374522854 140.50889645883808) rotate(0 153.16317776688732 59.69021820429475)"><path d="M0 0 C77.22 0, 154.45 0, 306.33 0 M0 0 C87.98 0, 175.95 0, 306.33 0 M306.33 0 C306.33 47.06, 306.33 94.13, 306.33 119.38 M306.33 0 C306.33 33.78, 306.33 67.56, 306.33 119.38 M306.33 119.38 C202.59 119.38, 98.85 119.38, 0 119.38 M306.33 119.38 C229.48 119.38, 152.64 119.38, 0 119.38 M0 119.38 C0 83.8, 0 48.23, 0 0 M0 119.38 C0 89.83, 0 60.28, 0 0" stroke="#1e1e1e" stroke-width="2" fill="none"></path></g><g transform="translate(1075.1846335345203 166.67279415584903) rotate(0 115.1240234375 32.200000000000045)"><text x="115.1240234375" y="25.760546874999996" font-family="Helvetica, Segoe UI Emoji" font-size="28px" fill="#1e1e1e" text-anchor="middle" style="white-space: pre;" direction="ltr" dominant-baseline="alphabetic">Calculate genetic </text><text x="115.1240234375" y="57.96054687499999" font-family="Helvetica, Segoe UI Emoji" font-size="28px" fill="#1e1e1e" text-anchor="middle" style="white-space: pre;" direction="ltr" dominant-baseline="alphabetic">summary statistics</text></g><g transform="translate(10 295.19138415854263) rotate(0 164.0625 16.799999999999955)"><text x="164.0625" y="27.0375" font-family="Cascadia, Segoe UI Emoji" font-size="28px" fill="#1971c2" text-anchor="middle" style="white-space: pre;" direction="ltr" dominant-baseline="alphabetic">ts.genotype_matrix()</text></g><g transform="translate(595.4436676291659 64.11428902395505) rotate(0 90.234375 16.799999999999955)"><text x="90.234375" y="27.0375" font-family="Cascadia, Segoe UI Emoji" font-size="28px" fill="#343a40" text-anchor="middle" style="white-space: pre;" direction="ltr" dominant-baseline="alphabetic">filter_gt()</text></g><g transform="translate(1057.76690490647 67.19304797013365) rotate(0 123.046875 16.799999999999955)"><text x="123.046875" y="27.0375" font-family="Cascadia, Segoe UI Emoji" font-size="28px" fill="#343a40" text-anchor="middle" style="white-space: pre;" direction="ltr" dominant-baseline="alphabetic">calc_sumstats()</text></g><g stroke-linecap="round"><g transform="translate(343.67243387944313 184.74115791298505) rotate(0 84.01576473196519 0.3473754130386624)"><path d="M0 0 C61.37 0.25, 122.74 0.51, 168.03 0.69 M0 0 C36.88 0.15, 73.77 0.31, 168.03 0.69" stroke="#343a40" stroke-width="2" fill="none"></path></g><g transform="translate(343.67243387944313 184.74115791298505) rotate(0 84.01576473196519 0.3473754130386624)"><path d="M144.5 9.15 C153.1 6.06, 161.69 2.97, 168.03 0.69 M144.5 9.15 C149.67 7.29, 154.83 5.44, 168.03 0.69" stroke="#343a40" stroke-width="2" fill="none"></path></g><g transform="translate(343.67243387944313 184.74115791298505) rotate(0 84.01576473196519 0.3473754130386624)"><path d="M144.57 -7.95 C153.14 -4.79, 161.71 -1.64, 168.03 0.69 M144.57 -7.95 C149.72 -6.05, 154.87 -4.16, 168.03 0.69" stroke="#343a40" stroke-width="2" fill="none"></path></g></g><mask></mask><g stroke-linecap="round"><g transform="translate(853.4793397309461 191.38655833800112) rotate(0 84.2121340483892 -0.20615601460747257)"><path d="M0 0 C52.79 -0.13, 105.57 -0.26, 168.42 -0.41 M0 0 C58.83 -0.14, 117.65 -0.29, 168.42 -0.41" stroke="#343a40" stroke-width="2" fill="none"></path></g><g transform="translate(853.4793397309461 191.38655833800112) rotate(0 84.2121340483892 -0.20615601460747257)"><path d="M144.95 8.2 C152.31 5.5, 159.67 2.8, 168.42 -0.41 M144.95 8.2 C153.15 5.19, 161.35 2.18, 168.42 -0.41" stroke="#343a40" stroke-width="2" fill="none"></path></g><g transform="translate(853.4793397309461 191.38655833800112) rotate(0 84.2121340483892 -0.20615601460747257)"><path d="M144.91 -8.91 C152.28 -6.24, 159.65 -3.58, 168.42 -0.41 M144.91 -8.91 C153.12 -5.94, 161.34 -2.97, 168.42 -0.41" stroke="#343a40" stroke-width="2" fill="none"></path></g></g><mask></mask><g transform="translate(510.2250504175472 10) rotate(0 172.265625 16.799999999999955)"><text x="172.265625" y="27.0375" font-family="Cascadia, Segoe UI Emoji" font-size="28px" fill="#343a40" text-anchor="middle" style="white-space: pre;" direction="ltr" dominant-baseline="alphabetic">coords_to_deme_dict()</text></g></svg>