<svg version="1.1" xmlns="http://www.w3.org/2000/svg" viewBox="0 0 428.4937004474359 712.834726885126" width="856.9874008948718" height="1425.669453770252">
  <!-- svg-source:excalidraw -->
  
  <defs>
    <style class="style-fonts">
      @font-face {
        font-family: "Virgil";
        src: url("https://excalidraw.com/Virgil.woff2");
      }
      @font-face {
        font-family: "Cascadia";
        src: url("https://excalidraw.com/Cascadia.woff2");
      }
      @font-face {
        font-family: "Assistant";
        src: url("https://excalidraw.com/Assistant-Regular.woff2");
      }
    </style>
    
  </defs>
  <g transform="translate(307.4606702294801 10) rotate(0 21.93286194594282 114.37627360886843)" stroke="none"><path d="M1.53 0.77 C0.38 0.74, -2.69 -0.12, -5.21 0.44 C-7.74 1, -9.12 0.95, -13.63 4.12 C-18.14 7.29, -27.06 15.03, -32.27 19.46 C-37.48 23.88, -42.24 26.7, -44.87 30.67 C-47.49 34.65, -46.25 38.84, -48.02 43.3 C-49.8 47.76, -53.97 52.39, -55.51 57.45 C-57.05 62.51, -56.6 68.22, -57.25 73.64 C-57.9 79.07, -58.96 85.34, -59.41 90 C-59.85 94.66, -60.92 97.44, -59.92 101.59 C-58.92 105.74, -57.73 107.53, -53.41 114.9 C-49.09 122.27, -40.19 130.79, -34 145.81 C-27.81 160.83, -20.66 192.91, -16.26 205 C-11.87 217.1, -9.19 215.34, -7.63 218.39 C-6.08 221.44, -7.74 222.49, -6.91 223.32 C-6.08 224.14, -4.65 222.69, -2.65 223.35 C-0.66 224.02, 1.08 226.88, 5.08 227.3 C9.07 227.72, 14.89 225.8, 21.3 225.87 C27.72 225.94, 36.52 227.28, 43.57 227.73 C50.61 228.17, 57.76 229.72, 63.57 228.54 C69.37 227.37, 75.04 222.66, 78.39 220.67 C81.75 218.68, 80.85 218.59, 83.71 216.6 C86.57 214.6, 93.25 212.04, 95.57 208.69 C97.9 205.34, 97.28 199.88, 97.68 196.52 C98.08 193.15, 96.83 194.9, 97.97 188.48 C99.11 182.05, 103.74 165.44, 104.51 157.98 C105.29 150.52, 103.51 148.46, 102.63 143.7 C101.75 138.94, 101.32 135.89, 99.24 129.42 C97.15 122.95, 92.83 112.16, 90.11 104.88 C87.38 97.6, 85.82 91.45, 82.88 85.72 C79.95 80, 77.3 78.5, 72.5 70.51 C67.69 62.52, 60.59 47.19, 54.06 37.78 C47.52 28.36, 37.48 18.45, 33.27 14 C29.05 9.56, 32.68 12.74, 28.79 11.1 C24.89 9.46, 15.3 5.93, 9.9 4.16 C4.5 2.39, -2 1.06, -3.62 0.47 C-5.25 -0.13, -0.43 0.29, 0.17 0.58" stroke="none" stroke-width="0" fill="#2f9e44" fill-rule="evenodd"></path><path fill="#1e1e1e" d="M 0.37,1.52 Q 0.37,1.52 -1.60,1.99 -3.58,2.46 -6.37,3.62 -9.16,4.78 -12.36,6.48 -15.56,8.18 -18.67,10.12 -21.78,12.06 -24.62,14.12 -27.46,16.18 -30.16,18.56 -32.86,20.94 -35.80,24.42 -38.74,27.91 -41.69,32.32 -44.65,36.73 -46.81,40.57 -48.97,44.41 -50.41,47.33 -51.86,50.24 -52.85,52.64 -53.85,55.04 -54.67,58.07 -55.48,61.10 -56.14,64.44 -56.79,67.79 -57.18,70.40 -57.58,73.02 -57.80,75.34 -58.01,77.65 -58.11,79.96 -58.21,82.26 -58.20,84.17 -58.19,86.07 -58.15,88.06 -58.10,90.05 -57.96,92.48 -57.82,94.91 -57.46,97.18 -57.09,99.46 -56.43,101.75 -55.76,104.05 -54.84,106.55 -53.91,109.06 -52.99,111.25 -52.06,113.44 -50.92,115.56 -49.78,117.67 -47.86,120.62 -45.95,123.56 -43.03,127.62 -40.11,131.68 -38.29,134.28 -36.47,136.88 -35.04,139.16 -33.61,141.44 -32.28,144.25 -30.94,147.06 -29.83,150.07 -28.72,153.09 -27.94,155.69 -27.17,158.29 -26.38,161.18 -25.59,164.07 -24.42,168.32 -23.25,172.58 -21.83,177.64 -20.42,182.70 -19.16,187.07 -17.89,191.44 -16.85,194.75 -15.82,198.05 -14.73,201.10 -13.63,204.16 -12.02,207.66 -10.40,211.17 -8.55,214.26 -6.70,217.35 -5.31,219.20 -3.92,221.05 -2.93,221.90 -1.94,222.74 -0.53,223.22 0.86,223.69 3.57,224.23 6.28,224.77 10.02,225.20 13.76,225.63 18.56,226.02 23.36,226.41 28.68,226.68 34.00,226.96 39.57,226.89 45.14,226.83 49.74,226.44 54.35,226.05 57.09,225.63 59.84,225.20 62.60,224.47 65.37,223.73 68.30,222.67 71.24,221.62 73.58,220.47 75.92,219.33 78.00,218.05 80.08,216.78 81.68,215.62 83.28,214.46 85.27,212.71 87.26,210.96 88.65,209.52 90.03,208.09 91.31,206.50 92.60,204.91 93.46,203.47 94.32,202.03 94.93,200.73 95.54,199.42 96.09,197.94 96.65,196.45 97.07,194.84 97.49,193.23 97.78,191.72 98.06,190.21 98.46,188.02 98.87,185.82 99.30,182.72 99.74,179.61 100.13,176.44 100.51,173.27 100.87,170.37 101.22,167.48 101.47,164.78 101.72,162.08 101.84,158.72 101.97,155.37 101.89,151.37 101.81,147.38 101.25,142.99 100.70,138.61 99.71,134.13 98.72,129.66 97.48,125.19 96.23,120.72 94.71,116.05 93.19,111.39 91.61,107.08 90.03,102.78 88.63,99.26 87.23,95.73 86.01,92.94 84.80,90.15 83.34,87.13 81.87,84.11 79.27,79.76 76.68,75.41 73.37,70.56 70.06,65.70 67.31,61.81 64.55,57.93 62.13,54.41 59.71,50.89 57.55,47.68 55.39,44.48 53.60,42.00 51.82,39.52 50.17,37.41 48.52,35.29 47.10,33.56 45.67,31.83 44.37,30.35 43.07,28.87 41.86,27.59 40.64,26.31 39.53,25.21 38.43,24.10 37.47,23.16 36.50,22.22 35.62,21.37 34.75,20.51 33.94,19.72 33.13,18.92 31.62,17.61 30.11,16.29 28.48,14.99 26.84,13.68 25.34,12.72 23.85,11.77 22.32,11.02 20.79,10.28 19.24,9.70 17.69,9.12 15.98,8.51 14.27,7.89 12.68,7.19 11.09,6.48 10.05,5.99 9.01,5.49 7.74,5.07 6.46,4.64 5.16,4.46 3.86,4.28 2.59,4.31 1.32,4.34 0.65,3.90 -0.00,3.45 -0.41,3.40 -0.83,3.35 -1.22,3.20 -1.61,3.06 -1.95,2.82 -2.29,2.58 -2.57,2.27 -2.84,1.96 -3.04,1.59 -3.23,1.22 -3.33,0.81 -3.43,0.41 -3.43,-0.00 -3.43,-0.42 -3.33,-0.82 -3.23,-1.22 -3.03,-1.59 -2.84,-1.96 -2.56,-2.27 -2.29,-2.59 -1.94,-2.82 -1.60,-3.06 -1.21,-3.21 -0.82,-3.35 -0.41,-3.40 0.00,-3.45 -0.66,-3.32 -1.32,-3.19 -0.77,-3.32 -0.23,-3.45 0.32,-3.39 0.88,-3.34 1.39,-3.11 1.90,-2.88 2.31,-2.50 2.72,-2.13 2.99,-1.63 3.26,-1.14 3.36,-0.59 3.45,-0.04 3.37,0.50 3.29,1.06 3.03,1.55 2.78,2.05 2.38,2.44 1.97,2.83 1.47,3.07 0.97,3.32 0.41,3.38 -0.14,3.45 -0.68,3.34 -1.23,3.23 -1.72,2.94 -2.20,2.66 -2.57,2.24 -2.93,1.82 -3.15,1.30 -3.36,0.78 -3.40,0.23 -3.44,-0.32 -3.30,-0.86 -3.15,-1.41 -2.85,-1.87 -2.54,-2.34 -2.10,-2.68 -1.66,-3.03 -1.13,-3.21 -0.60,-3.40 -0.04,-3.41 0.51,-3.42 1.04,-3.24 1.57,-3.07 2.02,-2.74 2.47,-2.41 2.79,-1.95 3.11,-1.49 3.27,-0.95 3.43,-0.41 3.41,0.13 3.38,0.69 3.18,1.22 2.98,1.74 2.63,2.17 2.27,2.60 1.13,3.03 -0.00,3.45 -0.41,3.40 -0.83,3.35 -1.22,3.20 -1.60,3.06 -1.95,2.82 -2.29,2.58 -2.57,2.27 -2.84,1.96 -3.04,1.59 -3.23,1.22 -3.33,0.81 -3.43,0.41 -3.43,-0.00 -3.43,-0.41 -3.33,-0.82 -3.23,-1.22 -3.03,-1.59 -2.84,-1.96 -2.56,-2.27 -2.29,-2.59 -1.94,-2.82 -1.60,-3.06 -1.21,-3.21 -0.82,-3.35 -0.41,-3.40 0.00,-3.45 0.91,-2.99 1.82,-2.52 3.02,-2.46 4.22,-2.40 5.37,-2.25 6.52,-2.11 8.04,-1.61 9.55,-1.11 10.67,-0.61 11.80,-0.11 12.85,0.47 13.91,1.07 15.14,1.70 16.36,2.33 18.09,3.02 19.81,3.71 21.56,4.49 23.31,5.26 25.03,6.24 26.74,7.23 28.43,8.51 30.12,9.78 30.94,10.52 31.76,11.26 32.58,12.05 33.40,12.83 34.13,13.61 34.87,14.38 35.60,15.22 36.33,16.06 37.03,16.95 37.72,17.84 38.48,18.80 39.23,19.76 40.07,20.81 40.91,21.87 41.90,23.09 42.89,24.31 44.04,25.70 45.18,27.08 46.44,28.62 47.70,30.16 49.15,31.92 50.59,33.68 52.27,35.83 53.95,37.99 55.76,40.50 57.57,43.01 59.72,46.20 61.87,49.39 64.29,52.90 66.70,56.41 69.47,60.31 72.23,64.22 75.58,69.14 78.94,74.06 81.59,78.51 84.25,82.96 85.73,86.03 87.22,89.09 88.45,91.93 89.68,94.76 91.10,98.31 92.51,101.87 94.11,106.21 95.72,110.56 97.26,115.28 98.81,120.00 100.08,124.54 101.35,129.08 102.37,133.67 103.40,138.26 103.98,142.79 104.56,147.32 104.66,151.39 104.77,155.46 104.67,158.89 104.57,162.32 104.37,165.06 104.16,167.81 103.87,170.70 103.58,173.60 103.27,176.80 102.97,180.00 102.64,183.17 102.31,186.34 102.04,188.68 101.77,191.02 101.38,192.61 100.98,194.19 100.46,195.99 99.93,197.79 99.22,199.41 98.50,201.03 97.67,202.36 96.85,203.70 95.79,205.16 94.73,206.63 93.37,208.32 92.00,210.01 90.53,211.50 89.05,212.99 86.96,214.84 84.86,216.69 83.16,217.86 81.46,219.04 79.27,220.37 77.08,221.71 74.61,222.92 72.14,224.12 69.10,225.22 66.06,226.31 63.16,227.09 60.25,227.87 57.42,228.31 54.58,228.76 49.88,229.17 45.18,229.59 39.52,229.67 33.86,229.76 28.50,229.52 23.14,229.27 18.29,228.93 13.44,228.58 9.57,228.20 5.70,227.81 2.66,227.27 -0.37,226.72 -2.22,225.84 -4.07,224.96 -5.04,223.79 -6.02,222.63 -7.49,220.67 -8.96,218.70 -10.87,215.49 -12.78,212.27 -14.45,208.66 -16.11,205.04 -17.22,201.94 -18.32,198.84 -19.37,195.50 -20.42,192.17 -21.68,187.79 -22.95,183.40 -24.37,178.34 -25.79,173.27 -26.95,169.02 -28.12,164.76 -28.90,161.90 -29.69,159.05 -30.44,156.52 -31.19,154.00 -32.26,151.09 -33.33,148.18 -34.59,145.51 -35.85,142.84 -37.24,140.61 -38.64,138.39 -40.45,135.81 -42.26,133.22 -45.21,129.12 -48.17,125.01 -50.15,121.97 -52.12,118.94 -53.32,116.71 -54.53,114.48 -55.48,112.24 -56.43,109.99 -57.40,107.40 -58.37,104.81 -59.09,102.36 -59.81,99.90 -60.21,97.50 -60.61,95.09 -60.79,92.59 -60.97,90.10 -60.99,88.06 -61.01,86.02 -60.92,84.08 -60.83,82.15 -60.73,79.78 -60.63,77.40 -60.41,75.02 -60.18,72.63 -59.78,69.96 -59.38,67.28 -58.70,63.84 -58.03,60.41 -57.16,57.22 -56.29,54.03 -55.26,51.55 -54.24,49.06 -52.76,46.09 -51.29,43.11 -49.08,39.17 -46.87,35.24 -43.84,30.71 -40.80,26.18 -37.73,22.54 -34.66,18.90 -31.87,16.43 -29.08,13.96 -26.18,11.82 -23.28,9.69 -20.10,7.67 -16.92,5.65 -13.62,3.85 -10.31,2.05 -7.32,0.76 -4.32,-0.53 -2.34,-1.02 -0.37,-1.52 -0.18,-1.54 0.00,-1.57 0.19,-1.54 0.37,-1.52 0.55,-1.45 0.73,-1.38 0.88,-1.28 1.04,-1.17 1.16,-1.03 1.29,-0.88 1.38,-0.72 1.46,-0.55 1.51,-0.37 1.55,-0.18 1.55,0.00 1.55,0.19 1.51,0.37 1.46,0.55 1.37,0.72 1.29,0.89 1.16,1.03 1.03,1.17 0.88,1.28 0.72,1.39 0.54,1.45 0.37,1.52 0.37,1.52 L 0.37,1.52 Z"></path></g><g transform="translate(342.8305453155185 330.3056796650652) rotate(0 13.189453065253133 50.619235113355955)" stroke="none"><path d="M-1.52 -2.38 C-4.49 -0.43, -14.33 9.06, -17.74 13.81 C-21.15 18.57, -20.2 22.86, -21.98 26.15 C-23.76 29.43, -27.23 30.46, -28.43 33.52 C-29.64 36.58, -29.08 40.02, -29.22 44.5 C-29.36 48.98, -30.35 54.72, -29.25 60.41 C-28.16 66.11, -23.87 72.02, -22.65 78.67 C-21.43 85.31, -22.72 95.27, -21.94 100.28 C-21.15 105.29, -21.61 105.79, -17.94 108.72 C-14.26 111.65, -4.82 116.12, 0.13 117.85 C5.07 119.59, 7.09 120.56, 11.72 119.11 C16.34 117.66, 22.12 113.62, 27.88 109.16 C33.63 104.7, 41.93 97.32, 46.24 92.34 C50.54 87.35, 52.2 82.69, 53.72 79.24 C55.23 75.78, 54.91 74.21, 55.33 71.61 C55.75 69.01, 56.39 66.31, 56.25 63.66 C56.1 61, 57.66 58.89, 54.45 55.67 C51.23 52.44, 41.45 48.11, 36.94 44.31 C32.42 40.5, 28.82 36.58, 27.35 32.85 C25.88 29.13, 28.76 29.1, 28.13 21.94 C27.5 14.79, 25.23 -3.39, 23.56 -10.06 C21.89 -16.73, 19.81 -17.11, 18.13 -18.08 C16.45 -19.06, 15.69 -15.92, 13.49 -15.91 C11.29 -15.89, 7.25 -19.14, 4.92 -18 C2.59 -16.87, 0.73 -12.77, -0.49 -9.1 C-1.71 -5.43, -2.09 2.47, -2.42 4.02" stroke="none" stroke-width="0" fill="#2f9e44" fill-rule="evenodd"></path><path fill="#1e1e1e" d="M 1.25,1.47 Q 1.25,1.47 -0.11,2.63 -1.48,3.79 -2.92,5.03 -4.36,6.27 -6.42,8.07 -8.47,9.88 -10.39,11.64 -12.31,13.41 -13.88,14.96 -15.46,16.51 -16.83,18.03 -18.20,19.55 -19.22,20.94 -20.23,22.32 -20.94,23.51 -21.65,24.70 -22.16,25.75 -22.66,26.81 -23.32,28.68 -23.98,30.56 -24.42,32.56 -24.86,34.55 -25.20,36.65 -25.54,38.74 -25.86,40.70 -26.18,42.67 -26.50,44.61 -26.81,46.55 -27.00,48.22 -27.20,49.89 -27.33,51.63 -27.46,53.37 -27.50,55.38 -27.53,57.39 -27.49,59.22 -27.45,61.05 -27.20,62.55 -26.95,64.04 -26.43,65.47 -25.91,66.90 -25.20,68.59 -24.50,70.28 -23.72,72.26 -22.95,74.24 -22.33,76.01 -21.71,77.78 -21.26,79.18 -20.81,80.58 -20.49,81.83 -20.16,83.08 -19.90,84.48 -19.63,85.89 -19.37,87.83 -19.11,89.77 -18.85,91.82 -18.58,93.87 -18.19,95.93 -17.80,98.00 -17.33,99.63 -16.85,101.27 -16.34,102.48 -15.83,103.68 -15.15,104.59 -14.48,105.51 -13.21,106.38 -11.95,107.25 -10.51,107.96 -9.08,108.68 -8.08,109.24 -7.08,109.81 -5.84,110.59 -4.59,111.37 -3.43,112.10 -2.26,112.83 -1.15,113.49 -0.03,114.16 0.97,114.67 1.97,115.18 3.90,115.70 5.82,116.22 7.01,116.27 8.20,116.32 9.36,116.17 10.51,116.01 11.57,115.71 12.63,115.40 13.74,114.97 14.86,114.54 16.04,114.04 17.22,113.54 18.40,112.99 19.59,112.44 20.86,111.83 22.13,111.22 23.39,110.58 24.64,109.95 25.83,109.26 27.03,108.57 28.20,107.78 29.38,106.98 30.58,106.02 31.79,105.07 33.01,103.98 34.23,102.89 35.54,101.65 36.85,100.40 38.13,99.11 39.40,97.82 40.59,96.51 41.78,95.21 43.02,93.83 44.26,92.44 45.50,90.99 46.74,89.53 47.85,88.04 48.96,86.55 49.90,85.05 50.84,83.55 51.61,82.05 52.38,80.54 52.91,79.03 53.44,77.52 53.81,75.97 54.18,74.41 54.39,72.81 54.61,71.22 54.69,69.60 54.78,67.98 54.72,66.63 54.66,65.28 54.49,64.22 54.32,63.16 53.66,61.51 52.99,59.86 51.97,58.69 50.94,57.52 49.65,56.53 48.35,55.54 46.62,54.21 44.90,52.89 43.91,52.05 42.92,51.21 41.98,50.41 41.03,49.61 40.16,48.92 39.30,48.23 37.83,47.06 36.36,45.89 35.26,44.83 34.16,43.78 33.30,42.80 32.45,41.81 31.61,40.83 30.76,39.84 29.87,38.64 28.98,37.44 28.10,35.94 27.22,34.44 26.50,32.92 25.79,31.39 25.28,30.04 24.77,28.69 24.49,27.61 24.20,26.52 23.93,25.21 23.66,23.89 23.45,22.79 23.24,21.69 23.07,20.62 22.89,19.54 22.72,18.22 22.54,16.90 22.36,15.28 22.17,13.66 21.97,12.10 21.78,10.54 21.58,9.28 21.37,8.02 21.19,6.95 21.00,5.88 20.84,4.62 20.69,3.35 20.56,2.04 20.43,0.72 20.20,-1.21 19.97,-3.15 19.70,-4.73 19.44,-6.30 19.11,-7.91 18.78,-9.51 18.40,-10.59 18.02,-11.67 17.18,-12.74 16.34,-13.80 15.31,-14.19 14.29,-14.58 12.76,-14.74 11.23,-14.89 10.19,-14.67 9.14,-14.44 8.36,-13.67 7.58,-12.90 7.00,-11.92 6.42,-10.95 5.65,-9.61 4.88,-8.26 4.37,-7.07 3.86,-5.88 3.43,-4.54 3.00,-3.21 2.58,-2.10 2.16,-1.00 1.39,0.54 0.62,2.08 0.46,2.64 0.31,3.20 -0.01,3.69 -0.34,4.17 -0.80,4.52 -1.27,4.87 -1.82,5.06 -2.38,5.25 -2.96,5.25 -3.55,5.24 -4.10,5.06 -4.65,4.87 -5.12,4.52 -5.58,4.16 -5.91,3.68 -6.23,3.20 -6.39,2.63 -6.55,2.07 -6.51,1.49 -6.48,0.90 -6.26,0.36 -6.05,-0.17 -5.67,-0.62 -5.29,-1.06 -4.79,-1.36 -4.29,-1.66 -3.72,-1.79 -3.15,-1.91 -2.57,-1.85 -1.99,-1.78 -1.46,-1.54 -0.93,-1.29 -0.50,-0.89 -0.08,-0.49 0.18,0.02 0.46,0.54 0.55,1.11 0.64,1.69 0.55,2.26 0.45,2.84 0.18,3.36 -0.09,3.87 -0.51,4.27 -0.94,4.67 -1.47,4.92 -2.00,5.16 -2.58,5.23 -3.16,5.29 -3.73,5.16 -4.30,5.03 -4.80,4.73 -5.30,4.43 -5.68,3.99 -6.05,3.54 -6.27,3.00 -6.48,2.45 -6.51,1.87 -6.54,1.29 -6.54,1.29 -6.54,1.29 -5.71,-0.72 -4.87,-2.74 -4.37,-3.86 -3.88,-4.98 -3.48,-6.04 -3.09,-7.10 -2.65,-8.20 -2.21,-9.30 -1.67,-10.42 -1.13,-11.54 -0.32,-13.02 0.49,-14.49 1.54,-16.04 2.58,-17.59 3.58,-18.49 4.59,-19.38 5.65,-19.99 6.71,-20.59 7.88,-20.90 9.04,-21.21 10.34,-21.23 11.65,-21.25 12.73,-21.17 13.81,-21.09 15.10,-20.87 16.40,-20.65 17.62,-20.18 18.85,-19.72 19.88,-19.02 20.92,-18.32 22.17,-16.67 23.42,-15.02 23.82,-13.97 24.21,-12.91 24.46,-11.78 24.70,-10.64 24.98,-8.93 25.26,-7.22 25.46,-5.46 25.66,-3.69 25.80,-1.77 25.94,0.14 26.09,1.41 26.23,2.69 26.37,3.84 26.51,4.99 26.66,6.06 26.82,7.12 27.03,8.39 27.25,9.65 27.55,11.17 27.86,12.69 28.22,14.29 28.58,15.90 28.84,17.21 29.10,18.51 29.48,20.46 29.85,22.41 30.45,24.51 31.05,26.61 31.42,27.70 31.79,28.80 32.36,30.09 32.93,31.37 33.60,32.58 34.27,33.78 35.00,34.85 35.72,35.92 36.50,36.94 37.29,37.96 37.95,38.86 38.61,39.76 39.39,40.64 40.16,41.53 41.49,42.70 42.82,43.88 43.72,44.62 44.61,45.35 45.57,46.15 46.52,46.95 47.46,47.74 48.40,48.52 49.25,49.22 50.10,49.92 51.73,51.26 53.35,52.61 54.11,53.36 54.87,54.11 55.55,54.98 56.23,55.85 56.84,56.91 57.45,57.96 57.87,59.13 58.29,60.30 58.50,61.52 58.71,62.73 58.76,64.00 58.81,65.26 58.77,66.74 58.73,68.23 58.60,70.00 58.48,71.78 58.21,73.56 57.93,75.35 57.48,77.09 57.02,78.83 56.36,80.55 55.70,82.28 54.84,83.89 53.98,85.51 52.98,87.11 51.97,88.71 50.84,90.33 49.71,91.95 48.50,93.51 47.29,95.06 46.09,96.51 44.89,97.96 43.71,99.34 42.52,100.73 41.28,102.13 40.04,103.53 38.76,104.93 37.48,106.34 36.20,107.59 34.93,108.85 33.62,109.99 32.30,111.13 30.98,112.09 29.66,113.04 28.36,113.82 27.06,114.60 25.78,115.28 24.51,115.96 23.20,116.64 21.89,117.32 20.63,117.93 19.37,118.54 18.10,119.09 16.84,119.64 15.49,120.17 14.14,120.70 12.71,121.10 11.29,121.50 9.67,121.73 8.05,121.97 6.37,121.93 4.70,121.90 3.24,121.61 1.78,121.32 0.57,120.88 -0.63,120.44 -1.78,119.87 -2.94,119.31 -4.12,118.68 -5.30,118.05 -6.48,117.41 -7.66,116.77 -8.92,116.13 -10.17,115.49 -11.83,114.64 -13.49,113.79 -15.20,112.85 -16.90,111.90 -18.25,110.67 -19.59,109.44 -20.66,107.79 -21.72,106.13 -22.28,104.66 -22.83,103.18 -23.36,101.30 -23.89,99.41 -24.18,98.23 -24.47,97.05 -24.69,95.93 -24.90,94.80 -25.23,92.71 -25.55,90.62 -25.82,88.79 -26.09,86.96 -26.39,85.20 -26.69,83.45 -26.98,82.26 -27.26,81.08 -27.68,79.65 -28.09,78.22 -28.79,76.38 -29.48,74.55 -30.25,72.70 -31.01,70.86 -31.70,69.05 -32.40,67.25 -32.86,65.29 -33.32,63.34 -33.41,62.27 -33.50,61.20 -33.50,59.26 -33.49,57.32 -33.48,56.21 -33.47,55.09 -33.43,54.01 -33.39,52.93 -33.18,51.01 -32.96,49.10 -32.65,47.34 -32.34,45.59 -31.92,43.58 -31.50,41.58 -31.06,39.68 -30.61,37.78 -30.37,36.66 -30.13,35.54 -29.86,34.46 -29.59,33.37 -29.26,32.27 -28.93,31.16 -28.54,30.06 -28.15,28.96 -27.67,27.92 -27.19,26.88 -26.61,25.88 -26.02,24.87 -25.29,23.79 -24.57,22.70 -23.65,21.53 -22.74,20.35 -21.58,18.97 -20.43,17.58 -19.03,15.98 -17.64,14.37 -16.09,12.73 -14.53,11.09 -12.67,9.22 -10.81,7.36 -8.82,5.42 -6.84,3.48 -5.41,2.17 -3.98,0.85 -2.62,-0.31 -1.25,-1.47 -1.06,-1.60 -0.86,-1.73 -0.64,-1.81 -0.42,-1.89 -0.19,-1.91 0.03,-1.94 0.27,-1.90 0.50,-1.87 0.72,-1.78 0.93,-1.70 1.12,-1.56 1.31,-1.42 1.46,-1.24 1.62,-1.07 1.72,-0.86 1.82,-0.65 1.88,-0.42 1.93,-0.19 1.92,0.03 1.92,0.27 1.86,0.49 1.80,0.72 1.68,0.93 1.57,1.13 1.41,1.30 1.25,1.47 1.25,1.47 L 1.25,1.47 Z"></path></g><g transform="translate(330.8170300867307 519.7969986735177) rotate(0 13.100785219561203 89.84728667921416)" stroke="none"><path d="M1.02 1.52 C-0.69 1.98, -8.31 1.02, -11.64 2.18 C-14.98 3.34, -16.33 6.24, -18.99 8.47 C-21.66 10.69, -24.81 12.67, -27.66 15.53 C-30.51 18.39, -33.96 21.32, -36.1 25.63 C-38.24 29.93, -39.88 34.09, -40.49 41.35 C-41.1 48.61, -40.94 59.23, -39.77 69.2 C-38.6 79.16, -34.1 94.16, -33.46 101.14 C-32.83 108.11, -34.73 106.67, -35.94 111.06 C-37.14 115.44, -39.14 122.84, -40.7 127.43 C-42.26 132.02, -41.74 133.85, -45.3 138.58 C-48.86 143.32, -59.57 152.5, -62.05 155.82 C-64.52 159.14, -61.59 156.78, -60.15 158.5 C-58.7 160.21, -56.15 163.84, -53.37 166.1 C-50.58 168.35, -46.68 170.35, -43.44 172.02 C-40.2 173.68, -41.14 174.18, -33.95 176.09 C-26.76 177.99, -10.14 182.63, -0.27 183.46 C9.59 184.28, 17.97 182.04, 25.23 181.06 C32.49 180.07, 38.35 179.54, 43.29 177.54 C48.22 175.54, 52.15 171.2, 54.84 169.05 C57.53 166.9, 57.49 166.51, 59.44 164.64 C61.39 162.77, 64.42 161.57, 66.53 157.82 C68.65 154.07, 69.11 152.78, 72.13 142.13 C75.15 131.48, 82.18 105.22, 84.67 93.93 C87.15 82.64, 87.23 81.27, 87.02 74.41 C86.82 67.54, 84.8 58.85, 83.46 52.72 C82.12 46.6, 82.15 44.29, 78.98 37.63 C75.82 30.98, 68.71 18.83, 64.47 12.8 C60.22 6.77, 56.28 3.84, 53.51 1.45 C50.74 -0.94, 49.57 -0.45, 47.82 -1.54 C46.08 -2.62, 49.67 -4.91, 43.04 -5.08 C36.41 -5.26, 16.1 -3.93, 8.04 -2.59 C-0.02 -1.24, -3.98 2.51, -5.34 2.99 C-6.7 3.47, -1.06 0.62, -0.11 0.3" stroke="none" stroke-width="0" fill="#2f9e44" fill-rule="evenodd"></path><path fill="#1e1e1e" d="M 0.37,1.89 Q 0.37,1.89 -1.29,2.23 -2.95,2.57 -4.03,2.94 -5.11,3.30 -7.43,4.34 -9.74,5.38 -11.43,6.23 -13.11,7.07 -14.86,8.10 -16.61,9.12 -18.41,10.41 -20.22,11.70 -21.87,13.07 -23.53,14.44 -24.67,15.60 -25.82,16.77 -26.94,18.06 -28.07,19.35 -29.28,20.83 -30.50,22.30 -31.26,23.52 -32.02,24.74 -32.52,25.86 -33.01,26.97 -33.40,28.07 -33.79,29.16 -34.09,30.27 -34.40,31.37 -34.83,33.10 -35.27,34.83 -35.73,37.23 -36.19,39.64 -36.47,42.56 -36.74,45.49 -36.89,48.65 -37.03,51.82 -37.11,54.53 -37.19,57.24 -37.23,59.44 -37.28,61.63 -37.29,63.66 -37.29,65.69 -37.29,67.84 -37.29,70.00 -37.20,72.16 -37.10,74.33 -36.90,76.36 -36.70,78.39 -36.44,80.40 -36.19,82.41 -35.91,84.39 -35.63,86.37 -35.31,88.17 -34.99,89.97 -34.67,91.73 -34.35,93.49 -34.06,95.07 -33.78,96.65 -33.58,98.22 -33.38,99.78 -33.28,101.52 -33.18,103.26 -33.16,105.09 -33.13,106.93 -33.23,108.85 -33.32,110.77 -33.74,112.86 -34.15,114.95 -34.92,117.14 -35.68,119.32 -36.67,121.54 -37.67,123.76 -38.85,125.96 -40.03,128.16 -41.23,130.14 -42.42,132.12 -43.55,133.90 -44.69,135.68 -46.06,137.54 -47.42,139.41 -48.73,141.10 -50.04,142.79 -51.17,144.23 -52.31,145.67 -53.33,146.94 -54.35,148.22 -55.16,149.31 -55.97,150.40 -56.63,151.30 -57.29,152.19 -58.00,153.36 -58.71,154.53 -58.74,155.66 -58.78,156.78 -58.22,157.73 -57.67,158.68 -56.52,159.85 -55.36,161.01 -54.50,161.77 -53.63,162.52 -52.50,163.36 -51.38,164.20 -49.97,165.21 -48.55,166.21 -47.17,167.04 -45.79,167.87 -44.40,168.57 -43.02,169.26 -41.58,169.92 -40.13,170.58 -38.75,171.13 -37.37,171.67 -36.30,171.99 -35.24,172.30 -34.09,172.58 -32.95,172.87 -31.65,173.18 -30.35,173.50 -29.19,173.75 -28.02,174.01 -26.88,174.24 -25.74,174.48 -24.37,174.77 -23.01,175.07 -21.41,175.48 -19.80,175.88 -18.13,176.34 -16.46,176.80 -14.33,177.46 -12.19,178.11 -9.80,178.70 -7.42,179.28 -5.25,179.73 -3.09,180.18 -1.03,180.51 1.01,180.84 3.08,181.03 5.15,181.23 7.24,181.33 9.33,181.44 10.98,181.40 12.64,181.36 14.80,181.38 16.95,181.39 19.88,181.21 22.81,181.03 25.34,180.60 27.87,180.18 31.17,179.20 34.48,178.22 36.77,177.43 39.06,176.64 40.96,175.86 42.86,175.08 44.66,174.15 46.46,173.22 48.02,172.24 49.58,171.25 50.92,170.18 52.26,169.11 53.63,167.88 54.99,166.64 56.33,165.21 57.67,163.78 58.88,162.24 60.09,160.71 61.07,159.16 62.05,157.61 63.11,155.82 64.17,154.03 65.13,152.06 66.08,150.09 66.93,148.07 67.77,146.05 68.50,143.97 69.23,141.89 70.02,139.41 70.81,136.93 71.62,134.48 72.43,132.03 73.18,129.73 73.93,127.43 74.67,125.10 75.41,122.77 76.23,120.32 77.06,117.87 77.94,115.31 78.82,112.75 79.61,110.28 80.40,107.81 81.16,105.47 81.91,103.12 82.59,100.89 83.28,98.66 83.82,96.43 84.36,94.20 84.75,91.89 85.15,89.58 85.46,87.21 85.76,84.85 85.93,82.74 86.10,80.62 86.14,78.50 86.18,76.38 85.98,74.05 85.77,71.72 85.27,69.35 84.77,66.99 84.09,64.51 83.41,62.02 82.66,59.56 81.92,57.10 81.09,54.76 80.27,52.42 79.47,50.22 78.67,48.03 77.75,45.84 76.82,43.65 75.86,41.49 74.89,39.33 73.98,37.38 73.07,35.43 72.15,33.58 71.22,31.74 70.33,30.02 69.44,28.31 68.63,26.69 67.83,25.08 67.10,23.62 66.37,22.17 65.65,20.89 64.94,19.60 64.28,18.45 63.63,17.30 62.88,16.09 62.12,14.87 61.16,13.51 60.20,12.15 59.05,10.70 57.90,9.25 56.70,8.03 55.51,6.80 54.31,5.82 53.12,4.84 51.98,4.05 50.85,3.26 49.61,2.49 48.36,1.73 47.03,1.06 45.70,0.39 44.62,0.05 43.53,-0.28 41.99,-0.49 40.45,-0.69 39.23,-0.65 38.01,-0.61 36.24,-0.53 34.47,-0.45 33.32,-0.45 32.16,-0.45 30.85,-0.47 29.53,-0.49 27.67,-0.57 25.81,-0.64 23.87,-0.69 21.92,-0.74 20.42,-0.70 18.92,-0.67 17.75,-0.61 16.58,-0.56 15.10,-0.45 13.62,-0.34 12.22,-0.23 10.82,-0.13 9.64,-0.05 8.45,0.02 7.26,0.12 6.06,0.23 4.90,0.59 3.73,0.94 2.46,1.30 1.20,1.66 -0.00,2.07 -1.21,2.48 -2.35,2.97 -3.50,3.46 -3.71,3.56 -3.93,3.66 -4.32,3.76 -4.72,3.85 -5.13,3.85 -5.54,3.85 -5.94,3.76 -6.34,3.66 -6.71,3.47 -7.07,3.27 -7.38,3.00 -7.68,2.73 -7.92,2.39 -8.15,2.05 -8.30,1.67 -8.44,1.28 -8.49,0.88 -8.54,0.47 -8.49,0.06 -8.44,-0.34 -8.29,-0.72 -8.15,-1.11 -7.91,-1.44 -7.68,-1.78 -7.37,-2.05 -7.06,-2.33 -6.70,-2.52 -6.34,-2.71 -3.30,-2.80 -0.26,-2.90 0.20,-2.86 0.67,-2.83 1.10,-2.65 1.54,-2.47 1.89,-2.16 2.25,-1.85 2.48,-1.44 2.72,-1.03 2.81,-0.57 2.91,-0.11 2.85,0.35 2.79,0.82 2.59,1.24 2.38,1.67 2.05,2.01 1.72,2.34 1.30,2.56 0.88,2.77 0.42,2.84 -0.04,2.91 -0.51,2.83 -0.97,2.74 -1.38,2.51 -1.80,2.29 -2.11,1.94 -2.43,1.59 -2.62,1.16 -2.82,0.73 -2.86,0.26 -2.90,-0.20 -2.79,-0.66 -2.69,-1.12 -2.44,-1.52 -2.19,-1.92 -1.82,-2.22 -1.46,-2.52 -1.02,-2.68 -0.58,-2.85 -0.10,-2.87 0.36,-2.89 0.81,-2.75 1.26,-2.62 1.65,-2.35 2.03,-2.08 2.31,-1.70 2.59,-1.32 2.74,-0.87 2.88,-0.42 2.87,0.04 2.86,0.51 2.71,0.96 2.55,1.40 2.26,1.77 1.97,2.14 1.57,2.40 1.18,2.66 0.72,2.78 0.26,2.90 0.26,2.90 0.26,2.90 -1.83,3.28 -3.93,3.66 -4.32,3.76 -4.72,3.85 -5.13,3.85 -5.54,3.85 -5.94,3.76 -6.34,3.66 -6.71,3.47 -7.07,3.27 -7.38,3.00 -7.68,2.73 -7.92,2.39 -8.15,2.05 -8.30,1.67 -8.44,1.28 -8.49,0.88 -8.54,0.47 -8.49,0.06 -8.44,-0.34 -8.29,-0.72 -8.15,-1.11 -7.91,-1.44 -7.68,-1.78 -7.37,-2.05 -7.06,-2.33 -6.70,-2.52 -6.34,-2.71 -5.43,-3.04 -4.53,-3.37 -3.27,-3.81 -2.01,-4.24 -0.55,-4.66 0.90,-5.07 2.04,-5.33 3.18,-5.60 4.27,-5.82 5.35,-6.04 6.90,-6.01 8.45,-5.98 9.64,-5.90 10.82,-5.83 12.21,-5.72 13.60,-5.62 15.05,-5.54 16.50,-5.45 17.67,-5.43 18.83,-5.41 20.29,-5.43 21.76,-5.46 23.71,-5.64 25.67,-5.83 27.60,-6.01 29.53,-6.19 30.85,-6.21 32.17,-6.23 33.32,-6.23 34.48,-6.23 35.92,-6.16 37.37,-6.10 38.62,-5.96 39.87,-5.81 41.40,-5.50 42.94,-5.19 44.01,-4.84 45.08,-4.48 46.37,-3.94 47.66,-3.40 49.15,-2.62 50.64,-1.83 51.99,-0.94 53.33,-0.04 54.51,0.89 55.68,1.83 56.97,2.97 58.27,4.11 59.57,5.44 60.88,6.78 62.18,8.29 63.49,9.80 64.58,11.31 65.67,12.82 66.40,14.19 67.14,15.56 67.66,16.78 68.19,18.00 68.80,19.40 69.41,20.80 70.01,22.30 70.61,23.80 71.30,25.43 71.98,27.06 72.80,28.81 73.62,30.55 74.54,32.44 75.45,34.32 76.37,36.29 77.29,38.26 78.27,40.44 79.24,42.63 80.19,44.88 81.14,47.13 81.94,49.34 82.75,51.55 83.59,53.95 84.43,56.34 85.19,58.84 85.94,61.33 86.64,63.89 87.34,66.45 87.86,68.97 88.39,71.49 88.60,73.96 88.81,76.43 88.77,78.64 88.72,80.84 88.54,83.01 88.37,85.18 88.06,87.60 87.75,90.03 87.33,92.42 86.92,94.82 86.36,97.13 85.80,99.43 85.11,101.68 84.42,103.93 83.67,106.27 82.92,108.62 82.12,111.11 81.32,113.60 80.45,116.16 79.58,118.72 78.77,121.15 77.95,123.57 77.22,125.92 76.49,128.26 75.74,130.56 75.00,132.87 74.21,135.31 73.42,137.74 72.64,140.27 71.86,142.80 71.13,144.96 70.40,147.12 69.56,149.23 68.72,151.33 67.76,153.43 66.80,155.53 65.76,157.44 64.71,159.34 63.62,160.98 62.53,162.61 61.25,164.26 59.97,165.92 58.54,167.47 57.12,169.03 55.63,170.33 54.14,171.63 52.61,172.70 51.09,173.76 49.40,174.72 47.72,175.68 45.81,176.65 43.91,177.62 41.94,178.43 39.97,179.24 37.63,180.07 35.28,180.90 31.82,181.95 28.36,183.00 25.69,183.49 23.03,183.97 20.01,184.22 16.99,184.47 14.78,184.54 12.58,184.61 10.90,184.51 9.22,184.41 7.07,184.36 4.92,184.31 2.75,184.20 0.58,184.08 -1.54,183.85 -3.67,183.62 -5.92,183.31 -8.17,183.01 -10.67,182.62 -13.17,182.22 -15.39,181.84 -17.61,181.46 -19.25,181.10 -20.89,180.75 -22.48,180.43 -24.08,180.12 -25.48,179.84 -26.88,179.55 -28.05,179.26 -29.21,178.98 -30.39,178.67 -31.57,178.36 -32.91,178.02 -34.25,177.67 -35.52,177.30 -36.79,176.92 -37.94,176.49 -39.09,176.06 -40.56,175.49 -42.04,174.92 -43.57,174.27 -45.11,173.63 -46.65,172.92 -48.20,172.21 -49.76,171.41 -51.32,170.60 -52.94,169.69 -54.56,168.78 -55.98,167.86 -57.39,166.94 -58.42,166.07 -59.45,165.21 -60.33,164.33 -61.22,163.45 -61.88,162.61 -62.53,161.76 -63.33,159.81 -64.14,157.86 -64.00,156.24 -63.86,154.61 -63.13,153.22 -62.39,151.83 -61.35,150.71 -60.31,149.59 -59.53,148.82 -58.74,148.04 -57.78,147.05 -56.82,146.05 -55.71,144.89 -54.60,143.74 -53.41,142.43 -52.22,141.12 -50.95,139.44 -49.68,137.77 -48.39,135.96 -47.10,134.16 -46.00,132.40 -44.90,130.65 -43.79,128.72 -42.68,126.78 -41.61,124.66 -40.54,122.54 -39.68,120.42 -38.83,118.30 -38.24,116.31 -37.65,114.31 -37.35,112.46 -37.05,110.60 -36.99,108.80 -36.92,107.00 -36.96,105.21 -36.99,103.42 -37.04,101.77 -37.09,100.11 -37.16,98.62 -37.24,97.14 -37.39,95.56 -37.55,93.99 -37.79,92.21 -38.02,90.43 -38.26,88.59 -38.49,86.76 -38.75,84.76 -39.01,82.75 -39.25,80.71 -39.49,78.66 -39.69,76.57 -39.90,74.47 -40.03,72.25 -40.16,70.03 -40.21,67.85 -40.25,65.68 -40.25,63.64 -40.24,61.61 -40.25,59.41 -40.27,57.20 -40.27,54.46 -40.28,51.73 -40.25,48.49 -40.22,45.26 -40.08,42.17 -39.95,39.08 -39.67,36.50 -39.39,33.93 -39.02,31.95 -38.64,29.98 -38.18,28.75 -37.71,27.52 -37.13,26.31 -36.55,25.11 -35.82,23.88 -35.08,22.64 -34.14,21.38 -33.19,20.13 -31.95,18.56 -30.70,16.99 -29.45,15.63 -28.20,14.27 -26.93,13.14 -25.65,12.00 -23.99,10.48 -22.32,8.95 -20.49,7.45 -18.66,5.96 -16.88,4.70 -15.11,3.44 -13.36,2.40 -11.62,1.35 -10.07,0.64 -8.52,-0.07 -7.35,-0.41 -6.19,-0.74 -4.95,-0.99 -3.72,-1.25 -2.04,-1.57 -0.37,-1.89 -0.14,-1.90 0.08,-1.92 0.31,-1.88 0.54,-1.84 0.75,-1.75 0.97,-1.66 1.15,-1.52 1.34,-1.38 1.48,-1.20 1.63,-1.02 1.73,-0.81 1.83,-0.60 1.87,-0.37 1.92,-0.14 1.91,0.08 1.90,0.31 1.83,0.54 1.76,0.76 1.65,0.96 1.53,1.16 1.37,1.33 1.21,1.49 1.01,1.62 0.81,1.74 0.59,1.81 0.37,1.89 0.37,1.89 L 0.37,1.89 Z"></path></g><g stroke-linecap="round"><g transform="translate(354.60588213312633 510.3758575407211) rotate(0 0.03125922661797631 -26.699547428608867)"><path d="M0 0 C0.01 -8.9, 0.05 -44.5, 0.06 -53.4 M0 0 C0.01 -8.9, 0.05 -44.5, 0.06 -53.4" stroke="#1e1e1e" stroke-width="4" fill="none"></path></g><g transform="translate(354.60588213312633 510.3758575407211) rotate(0 0.03125922661797631 -26.699547428608867)"><path d="M8.59 -29.9 C6.34 -36.08, 4.1 -42.27, 0.06 -53.4 M8.59 -29.9 C5.85 -37.45, 3.11 -45, 0.06 -53.4" stroke="#1e1e1e" stroke-width="4" fill="none"></path></g><g transform="translate(354.60588213312633 510.3758575407211) rotate(0 0.03125922661797631 -26.699547428608867)"><path d="M-8.52 -29.92 C-6.26 -36.1, -4 -42.28, 0.06 -53.4 M-8.52 -29.92 C-5.76 -37.46, -3 -45.01, 0.06 -53.4" stroke="#1e1e1e" stroke-width="4" fill="none"></path></g></g><mask></mask><g stroke-linecap="round"><g transform="translate(353.67018928302923 300.6639580062406) rotate(0 0.03125922661797631 -26.699547428608867)"><path d="M0 0 C0.01 -8.9, 0.05 -44.5, 0.06 -53.4 M0 0 C0.01 -8.9, 0.05 -44.5, 0.06 -53.4" stroke="#1e1e1e" stroke-width="4" fill="none"></path></g><g transform="translate(353.67018928302923 300.6639580062406) rotate(0 0.03125922661797631 -26.699547428608867)"><path d="M8.59 -29.9 C6.87 -34.62, 5.16 -39.34, 0.06 -53.4 M8.59 -29.9 C6.86 -34.66, 5.13 -39.43, 0.06 -53.4" stroke="#1e1e1e" stroke-width="4" fill="none"></path></g><g transform="translate(353.67018928302923 300.6639580062406) rotate(0 0.03125922661797631 -26.699547428608867)"><path d="M-8.52 -29.92 C-6.79 -34.64, -5.07 -39.36, 0.06 -53.4 M-8.52 -29.92 C-6.78 -34.68, -5.04 -39.44, 0.06 -53.4" stroke="#1e1e1e" stroke-width="4" fill="none"></path></g></g><mask></mask><g stroke-linecap="round"><g transform="translate(148.17828534197133 29.071293458872844) rotate(0 0.8377472733609466 329.9869838181333)"><path d="M0 0 C0.28 110, 1.4 549.98, 1.68 659.97 M0 0 C0.28 110, 1.4 549.98, 1.68 659.97" stroke="#1e1e1e" stroke-width="4" fill="none"></path></g><g transform="translate(148.17828534197133 29.071293458872844) rotate(0 0.8377472733609466 329.9869838181333)"><path d="M-6.93 636.5 C-4.88 642.12, -2.82 647.73, 1.68 659.97 M-6.93 636.5 C-4.1 644.23, -1.26 651.96, 1.68 659.97" stroke="#1e1e1e" stroke-width="4" fill="none"></path></g><g transform="translate(148.17828534197133 29.071293458872844) rotate(0 0.8377472733609466 329.9869838181333)"><path d="M10.17 636.46 C8.14 642.08, 6.11 647.71, 1.68 659.97 M10.17 636.46 C7.37 644.2, 4.57 651.95, 1.68 659.97" stroke="#1e1e1e" stroke-width="4" fill="none"></path></g></g><mask></mask><g transform="translate(10 320.5602823436449) rotate(0 39.33984375 20.69999999999999)"><text x="0" y="33.120703125" font-family="Helvetica, Segoe UI Emoji" font-size="36px" fill="#1e1e1e" text-anchor="start" style="white-space: pre;" direction="ltr" dominant-baseline="alphabetic">Time</text></g></svg>