<svg xmlns="http://www.w3.org/2000/svg" xmlns:ev="http://www.w3.org/2001/xml-events" xmlns:xlink="http://www.w3.org/1999/xlink" baseProfile="full" height="300" version="1.1" width="500"><defs><style type="text/css"><![CDATA[.background path {fill: #808080; fill-opacity: 0}.background path:nth-child(odd) {fill-opacity: .1}.axes {font-size: 14px}.x-axis .tick .lab {font-weight: bold; dominant-baseline: hanging}.axes, .tree {font-size: 14px; text-anchor: middle}.axes line, .edge {stroke: black; fill: none}.axes .ax-skip {stroke-dasharray: 4}.y-axis .grid {stroke: #FAFAFA}.node > .sym {fill: black; stroke: none}.site > .sym {stroke: black}.mut text {fill: red; font-style: italic}.mut.extra text {fill: hotpink}.mut line {fill: none; stroke: none}.mut .sym {fill: none; stroke: red}.mut.extra .sym {stroke: hotpink}.node .mut .sym {stroke-width: 1.5px}.tree text, .tree-sequence text {dominant-baseline: central}.plotbox .lab.lft {text-anchor: end}.plotbox .lab.rgt {text-anchor: start}]]></style></defs><g class="tree-sequence"><g class="background"><path d="M20,0 l460,0 l0,238.2 l0,25 l0,5 l-460,0 l0,-5 l0,-25 l0,-238.2z"/></g><g class="axes"><g class="x-axis"><g class="title" transform="translate(250 300)"><text class="lab" text-anchor="middle" transform="translate(0 -11)">Genome position</text></g><line class="ax-line" x1="20" x2="480" y1="263.2" y2="263.2"/><g class="ticks"><g class="tick" transform="translate(20 263.2)"><line x1="0" x2="0" y1="0" y2="5"/><g transform="translate(0 6)"><text class="lab">0</text></g></g><g class="tick" transform="translate(480 263.2)"><line x1="0" x2="0" y1="0" y2="5"/><g transform="translate(0 6)"><text class="lab">1</text></g></g></g><g class="site s0" transform="translate(20 263.2)"><line class="sym" x1="0" x2="0" y1="0" y2="-10"/><g class="mut m6"><polyline class="sym" points="2.5,-6.5 0,-1.5 -2.5,-6.5"/></g><g class="mut m5"><polyline class="sym" points="2.5,-10.5 0,-5.5 -2.5,-10.5"/></g><g class="mut m4"><polyline class="sym" points="2.5,-14.5 0,-9.5 -2.5,-14.5"/></g><g class="mut m3"><polyline class="sym" points="2.5,-18.5 0,-13.5 -2.5,-18.5"/></g><g class="mut m2"><polyline class="sym" points="2.5,-22.5 0,-17.5 -2.5,-22.5"/></g><g class="mut m1"><polyline class="sym" points="2.5,-26.5 0,-21.5 -2.5,-26.5"/></g><g class="mut m0"><polyline class="sym" points="2.5,-30.5 0,-25.5 -2.5,-30.5"/></g></g></g></g><g class="plotbox trees"><g class="tree t0" transform="translate(20 0)"><g class="plotbox"><g class="c2 node n14 p2 root" transform="translate(295.625 26.8)"><g class="a14 c2 node n8 p0" transform="translate(91.875 187.641)"><g class="a8 i2 leaf node n5 p1 sample" transform="translate(-26.25 6.95866)"><path class="edge" d="M 0 0 V -6.95866 H 26.25"/><rect class="sym" height="6" width="6" x="-3" y="-3"/><text class="lab" transform="translate(0 11)">5</text></g><g class="a8 i3 leaf node n7 p1 sample" transform="translate(26.25 6.95866)"><path class="edge" d="M 0 0 V -6.95866 H -26.25"/><rect class="sym" height="6" width="6" x="-3" y="-3"/><text class="lab" transform="translate(0 11)">7</text></g><path class="edge" d="M 0 0 V -187.641 H -91.875"/><circle class="sym" cx="0" cy="0" r="3"/><text class="lab rgt" transform="translate(3 -7.0)">8</text></g><g class="a14 c2 m0 m1 m2 m3 node n13 p2 s0" transform="translate(-91.875 95.9969)"><g class="a13 c2 m4 m5 node n10 p2 s0" transform="translate(78.75 72.6713)"><g class="a10 i0 leaf node n1 p0 sample" transform="translate(-26.25 25.9317)"><path class="edge" d="M 0 0 V -25.9317 H 26.25"/><rect class="sym" height="6" width="6" x="-3" y="-3"/><text class="lab" transform="translate(0 11)">1</text></g><g class="a10 i3 leaf node n6 p1 sample" transform="translate(26.25 25.9317)"><path class="edge" d="M 0 0 V -25.9317 H -26.25"/><rect class="sym" height="6" width="6" x="-3" y="-3"/><text class="lab" transform="translate(0 11)">6</text></g><path class="edge" d="M 0 0 V -72.6713 H -78.75"/><g class="mut m4 s0" transform="translate(0 -47.3009)"><line x1="0" x2="0" y1="0" y2="47.3009"/><path class="sym" d="M -3,-3 l 6,6 M -3,3 l 6,-6"/><text class="lab rgt" transform="translate(5 0)">4</text></g><g class="mut m5 s0" transform="translate(0 -10.3823)"><line x1="0" x2="0" y1="0" y2="10.3823"/><path class="sym" d="M -3,-3 l 6,6 M -3,3 l 6,-6"/><text class="lab rgt" transform="translate(5 0)">5</text></g><circle class="sym" cx="0" cy="0" r="3"/><text class="lab rgt" transform="translate(3 -7.0)">10</text></g><g class="a13 c2 node n12 p2" transform="translate(-78.75 24.8488)"><g class="a12 c2 node n9 p1" transform="translate(-52.5 54.3425)"><g class="a9 i0 leaf m6 node n0 p0 s0 sample" transform="translate(-26.25 19.4117)"><path class="edge" d="M 0 0 V -19.4117 H 26.25"/><g class="mut m6 s0" transform="translate(0 -15.1351)"><line x1="0" x2="0" y1="0" y2="15.1351"/><path class="sym" d="M -3,-3 l 6,6 M -3,3 l 6,-6"/><text class="lab lft" transform="translate(-5 0)">6</text></g><rect class="sym" height="6" width="6" x="-3" y="-3"/><text class="lab" transform="translate(0 11)">0</text></g><g class="a9 i2 leaf node n4 p1 sample" transform="translate(26.25 19.4117)"><path class="edge" d="M 0 0 V -19.4117 H -26.25"/><rect class="sym" height="6" width="6" x="-3" y="-3"/><text class="lab" transform="translate(0 11)">4</text></g><path class="edge" d="M 0 0 V -54.3425 H 52.5"/><circle class="sym" cx="0" cy="0" r="3"/><text class="lab lft" transform="translate(-3 -7.0)">9</text></g><g class="a12 c2 node n11 p2" transform="translate(52.5 45.0835)"><g class="a11 i1 leaf node n2 p0 sample" transform="translate(-26.25 28.6707)"><path class="edge" d="M 0 0 V -28.6707 H 26.25"/><rect class="sym" height="6" width="6" x="-3" y="-3"/><text class="lab" transform="translate(0 11)">2</text></g><g class="a11 i1 leaf node n3 p0 sample" transform="translate(26.25 28.6707)"><path class="edge" d="M 0 0 V -28.6707 H -26.25"/><rect class="sym" height="6" width="6" x="-3" y="-3"/><text class="lab" transform="translate(0 11)">3</text></g><path class="edge" d="M 0 0 V -45.0835 H -52.5"/><circle class="sym" cx="0" cy="0" r="3"/><text class="lab rgt" transform="translate(3 -7.0)">11</text></g><path class="edge" d="M 0 0 V -24.8488 H 78.75"/><circle class="sym" cx="0" cy="0" r="3"/><text class="lab lft" transform="translate(-3 -7.0)">12</text></g><path class="edge" d="M 0 0 V -95.9969 H 91.875"/><g class="mut m0 s0" transform="translate(0 -50.375)"><line x1="0" x2="0" y1="0" y2="50.375"/><path class="sym" d="M -3,-3 l 6,6 M -3,3 l 6,-6"/><text class="lab lft" transform="translate(-5 0)">0</text></g><g class="mut m1 s0" transform="translate(0 -29.2063)"><line x1="0" x2="0" y1="0" y2="29.2063"/><path class="sym" d="M -3,-3 l 6,6 M -3,3 l 6,-6"/><text class="lab lft" transform="translate(-5 0)">1</text></g><g class="mut m2 s0" transform="translate(0 -17.6063)"><line x1="0" x2="0" y1="0" y2="17.6063"/><path class="sym" d="M -3,-3 l 6,6 M -3,3 l 6,-6"/><text class="lab lft" transform="translate(-5 0)">2</text></g><g class="mut m3 s0" transform="translate(0 -17.4546)"><line x1="0" x2="0" y1="0" y2="17.4546"/><path class="sym" d="M -3,-3 l 6,6 M -3,3 l 6,-6"/><text class="lab lft" transform="translate(-5 0)">3</text></g><circle class="sym" cx="0" cy="0" r="3"/><text class="lab lft" transform="translate(-3 -7.0)">13</text></g><circle class="sym" cx="0" cy="0" r="3"/><text class="lab" transform="translate(0 -11)">14</text></g></g></g></g></g></svg>