<svg version="1.1" xmlns="http://www.w3.org/2000/svg" viewBox="0 0 346.83984375 265.3576823197552" width="346.83984375" height="265.3576823197552">
  <!-- svg-source:excalidraw -->
  
  <defs>
    <style class="style-fonts">
      @font-face {
        font-family: "Virgil";
        src: url("https://excalidraw.com/Virgil.woff2");
      }
      @font-face {
        font-family: "Cascadia";
        src: url("https://excalidraw.com/Cascadia.woff2");
      }
      @font-face {
        font-family: "Assistant";
        src: url("https://excalidraw.com/Assistant-Regular.woff2");
      }
    </style>
    
  </defs>
  <g stroke-linecap="round" transform="translate(111.05063024755862 121.42332300419005) rotate(0 19.10665520937158 21.314930205340133)"><path d="M0 0 L38.21 0 L38.21 42.63 L0 42.63" stroke="none" stroke-width="0" fill="#ffc9c9"></path><path d="M0 0 C12.17 0, 24.34 0, 38.21 0 M0 0 C14.2 0, 28.41 0, 38.21 0 M38.21 0 C38.21 9.64, 38.21 19.29, 38.21 42.63 M38.21 0 C38.21 13.22, 38.21 26.43, 38.21 42.63 M38.21 42.63 C25.56 42.63, 12.91 42.63, 0 42.63 M38.21 42.63 C28.45 42.63, 18.68 42.63, 0 42.63 M0 42.63 C0 29.62, 0 16.6, 0 0 M0 42.63 C0 32.52, 0 22.41, 0 0" stroke="#1e1e1e" stroke-width="1" fill="none"></path></g><g stroke-linecap="round" transform="translate(152.3850562706766 121.57473242638437) rotate(0 19.10665520937158 21.314930205340133)"><path d="M0 0 L38.21 0 L38.21 42.63 L0 42.63" stroke="none" stroke-width="0" fill="#ffc9c9"></path><path d="M0 0 C9.38 0, 18.76 0, 38.21 0 M0 0 C8.01 0, 16.01 0, 38.21 0 M38.21 0 C38.21 10.23, 38.21 20.47, 38.21 42.63 M38.21 0 C38.21 11.96, 38.21 23.92, 38.21 42.63 M38.21 42.63 C25.53 42.63, 12.84 42.63, 0 42.63 M38.21 42.63 C27.32 42.63, 16.42 42.63, 0 42.63 M0 42.63 C0 32.31, 0 21.98, 0 0 M0 42.63 C0 26.63, 0 10.64, 0 0" stroke="#1e1e1e" stroke-width="1" fill="none"></path></g><g stroke-linecap="round" transform="translate(193.9950237943401 121.21239290584415) rotate(0 19.10665520937158 21.314930205340133)"><path d="M0 0 L38.21 0 L38.21 42.63 L0 42.63" stroke="none" stroke-width="0" fill="#ffc9c9"></path><path d="M0 0 C7.72 0, 15.44 0, 38.21 0 M0 0 C14.6 0, 29.19 0, 38.21 0 M38.21 0 C38.21 9.23, 38.21 18.47, 38.21 42.63 M38.21 0 C38.21 13.01, 38.21 26.01, 38.21 42.63 M38.21 42.63 C24.46 42.63, 10.71 42.63, 0 42.63 M38.21 42.63 C26.36 42.63, 14.51 42.63, 0 42.63 M0 42.63 C0 32.19, 0 21.75, 0 0 M0 42.63 C0 28.63, 0 14.64, 0 0" stroke="#1e1e1e" stroke-width="1" fill="none"></path></g><g stroke-linecap="round" transform="translate(111.79735064985516 166.72042435612727) rotate(0 19.10665520937158 21.314930205340147)"><path d="M0 0 L38.21 0 L38.21 42.63 L0 42.63" stroke="none" stroke-width="0" fill="#ffec99"></path><path d="M0 0 C12.66 0, 25.32 0, 38.21 0 M0 0 C13.69 0, 27.38 0, 38.21 0 M38.21 0 C38.21 8.56, 38.21 17.13, 38.21 42.63 M38.21 0 C38.21 11.63, 38.21 23.26, 38.21 42.63 M38.21 42.63 C24.17 42.63, 10.12 42.63, 0 42.63 M38.21 42.63 C25.47 42.63, 12.73 42.63, 0 42.63 M0 42.63 C0 26.39, 0 10.15, 0 0 M0 42.63 C0 29.53, 0 16.44, 0 0" stroke="#1e1e1e" stroke-width="1" fill="none"></path></g><g stroke-linecap="round" transform="translate(153.4748703772965 167.2326013271751) rotate(0 19.10665520937158 21.31493020534012)"><path d="M0 0 L38.21 0 L38.21 42.63 L0 42.63" stroke="none" stroke-width="0" fill="#ffc9c9"></path><path d="M0 0 C12.6 0, 25.2 0, 38.21 0 M0 0 C9.85 0, 19.7 0, 38.21 0 M38.21 0 C38.21 14.27, 38.21 28.53, 38.21 42.63 M38.21 0 C38.21 11.92, 38.21 23.83, 38.21 42.63 M38.21 42.63 C24.88 42.63, 11.55 42.63, 0 42.63 M38.21 42.63 C25.94 42.63, 13.67 42.63, 0 42.63 M0 42.63 C0 29.77, 0 16.91, 0 0 M0 42.63 C0 32.33, 0 22.03, 0 0" stroke="#1e1e1e" stroke-width="1" fill="none"></path></g><g stroke-linecap="round" transform="translate(194.47757191998676 167.41191928404297) rotate(0 19.10665520937158 21.31493020534012)"><path d="M0 0 L38.21 0 L38.21 42.63 L0 42.63" stroke="none" stroke-width="0" fill="#ffc9c9"></path><path d="M0 0 C13.47 0, 26.94 0, 38.21 0 M0 0 C9.31 0, 18.62 0, 38.21 0 M38.21 0 C38.21 15.45, 38.21 30.9, 38.21 42.63 M38.21 0 C38.21 9.42, 38.21 18.85, 38.21 42.63 M38.21 42.63 C28.9 42.63, 19.6 42.63, 0 42.63 M38.21 42.63 C23.11 42.63, 8 42.63, 0 42.63 M0 42.63 C0 27.76, 0 12.88, 0 0 M0 42.63 C0 26.7, 0 10.77, 0 0" stroke="#1e1e1e" stroke-width="1" fill="none"></path></g><g stroke-linecap="round" transform="translate(112.13833352871768 212.5886370814333) rotate(0 19.10665520937158 21.31493020534012)"><path d="M0 0 L38.21 0 L38.21 42.63 L0 42.63" stroke="none" stroke-width="0" fill="#b2f2bb"></path><path d="M0 0 C12.25 0, 24.49 0, 38.21 0 M0 0 C12.11 0, 24.22 0, 38.21 0 M38.21 0 C38.21 14.42, 38.21 28.83, 38.21 42.63 M38.21 0 C38.21 16.51, 38.21 33.02, 38.21 42.63 M38.21 42.63 C28.85 42.63, 19.49 42.63, 0 42.63 M38.21 42.63 C29.48 42.63, 20.75 42.63, 0 42.63 M0 42.63 C0 31.49, 0 20.35, 0 0 M0 42.63 C0 31.86, 0 21.1, 0 0" stroke="#1e1e1e" stroke-width="1" fill="none"></path></g><g stroke-linecap="round" transform="translate(153.4934540687641 212.7278219090749) rotate(0 19.10665520937158 21.314930205340147)"><path d="M0 0 L38.21 0 L38.21 42.63 L0 42.63" stroke="none" stroke-width="0" fill="#b2f2bb"></path><path d="M0 0 C8.64 0, 17.29 0, 38.21 0 M0 0 C11.85 0, 23.69 0, 38.21 0 M38.21 0 C38.21 14.11, 38.21 28.22, 38.21 42.63 M38.21 0 C38.21 10.9, 38.21 21.79, 38.21 42.63 M38.21 42.63 C26.55 42.63, 14.88 42.63, 0 42.63 M38.21 42.63 C29.15 42.63, 20.09 42.63, 0 42.63 M0 42.63 C0 30.67, 0 18.72, 0 0 M0 42.63 C0 28.69, 0 14.75, 0 0" stroke="#1e1e1e" stroke-width="1" fill="none"></path></g><g stroke-linecap="round" transform="translate(194.6570228295726 212.65668439704294) rotate(0 19.10665520937158 21.31493020534012)"><path d="M0 0 L38.21 0 L38.21 42.63 L0 42.63" stroke="none" stroke-width="0" fill="#ffec99"></path><path d="M0 0 C9.17 0, 18.35 0, 38.21 0 M0 0 C10.72 0, 21.44 0, 38.21 0 M38.21 0 C38.21 14.15, 38.21 28.3, 38.21 42.63 M38.21 0 C38.21 12.16, 38.21 24.31, 38.21 42.63 M38.21 42.63 C28.96 42.63, 19.71 42.63, 0 42.63 M38.21 42.63 C23.88 42.63, 9.54 42.63, 0 42.63 M0 42.63 C0 31.68, 0 20.72, 0 0 M0 42.63 C0 28.13, 0 13.63, 0 0" stroke="#1e1e1e" stroke-width="1" fill="none"></path></g><g transform="translate(119.37842403149114 133.6759493695121) rotate(0 11.12109375 9.200000000000003)"><text x="0" y="14.720312499999999" font-family="Helvetica, Segoe UI Emoji" font-size="16px" fill="#1e1e1e" text-anchor="start" style="white-space: pre;" direction="ltr" dominant-baseline="alphabetic">1.0</text></g><g transform="translate(120.35029729711226 178.00805293080836) rotate(0 11.12109375 9.200000000000003)"><text x="0" y="14.720312499999999" font-family="Helvetica, Segoe UI Emoji" font-size="16px" fill="#1e1e1e" text-anchor="start" style="white-space: pre;" direction="ltr" dominant-baseline="alphabetic">0.5</text></g><g transform="translate(203.2262884622877 223.90185269506455) rotate(0 11.12109375 9.199999999999989)"><text x="0" y="14.720312499999999" font-family="Helvetica, Segoe UI Emoji" font-size="16px" fill="#1e1e1e" text-anchor="start" style="white-space: pre;" direction="ltr" dominant-baseline="alphabetic">0.5</text></g><g transform="translate(160.7976955104873 133.448301195406) rotate(0 11.12109375 9.200000000000003)"><text x="0" y="14.720312499999999" font-family="Helvetica, Segoe UI Emoji" font-size="16px" fill="#1e1e1e" text-anchor="start" style="white-space: pre;" direction="ltr" dominant-baseline="alphabetic">1.0</text></g><g transform="translate(201.18001768109661 132.9571870278252) rotate(0 11.12109375 9.200000000000003)"><text x="0" y="14.720312499999999" font-family="Helvetica, Segoe UI Emoji" font-size="16px" fill="#1e1e1e" text-anchor="start" style="white-space: pre;" direction="ltr" dominant-baseline="alphabetic">1.0</text></g><g transform="translate(161.5996401101691 178.32900845109683) rotate(0 11.12109375 9.200000000000003)"><text x="0" y="14.720312499999999" font-family="Helvetica, Segoe UI Emoji" font-size="16px" fill="#1e1e1e" text-anchor="start" style="white-space: pre;" direction="ltr" dominant-baseline="alphabetic">1.0</text></g><g transform="translate(201.46151119020868 178.5552749637864) rotate(0 11.12109375 9.200000000000003)"><text x="0" y="14.720312499999999" font-family="Helvetica, Segoe UI Emoji" font-size="16px" fill="#1e1e1e" text-anchor="start" style="white-space: pre;" direction="ltr" dominant-baseline="alphabetic">1.0</text></g><g transform="translate(120.30602824414461 224.01567593773288) rotate(0 11.12109375 9.199999999999989)"><text x="0" y="14.720312499999999" font-family="Helvetica, Segoe UI Emoji" font-size="16px" fill="#1e1e1e" text-anchor="start" style="white-space: pre;" direction="ltr" dominant-baseline="alphabetic">0.1</text></g><g transform="translate(162.1835621289107 223.87532675969967) rotate(0 11.12109375 9.199999999999989)"><text x="0" y="14.720312499999999" font-family="Helvetica, Segoe UI Emoji" font-size="16px" fill="#1e1e1e" text-anchor="start" style="white-space: pre;" direction="ltr" dominant-baseline="alphabetic">0.1</text></g><g transform="translate(10 75.30208500464079) rotate(0 163.419921875 16.099999999999994)"><text x="0" y="25.760546874999996" font-family="Helvetica, Segoe UI Emoji" font-size="28px" fill="#1e1e1e" text-anchor="start" style="white-space: pre;" direction="ltr" dominant-baseline="alphabetic">Species distribution model</text></g><g transform="translate(60.21108896571127 10) rotate(0 97.0224609375 20.7)"><text x="97.0224609375" y="33.120703125" font-family="Helvetica, Segoe UI Emoji" font-size="36px" fill="#1e1e1e" text-anchor="middle" style="white-space: pre;" direction="ltr" dominant-baseline="alphabetic">iDDC Model</text></g></svg>