<svg version="1.1" xmlns="http://www.w3.org/2000/svg" viewBox="0 0 705.0422036415164 700.626938143588" width="705.0422036415164" height="700.626938143588">
  <!-- svg-source:excalidraw -->
  
  <defs>
    <style class="style-fonts">
      @font-face {
        font-family: "Virgil";
        src: url("https://excalidraw.com/Virgil.woff2");
      }
      @font-face {
        font-family: "Cascadia";
        src: url("https://excalidraw.com/Cascadia.woff2");
      }
      @font-face {
        font-family: "Assistant";
        src: url("https://excalidraw.com/Assistant-Regular.woff2");
      }
    </style>
    
  </defs>
  <g stroke-linecap="round" transform="translate(138.3787609161559 437.2564922454151) rotate(0 19.10665520937158 21.314930205340147)"><path d="M0 0 L38.21 0 L38.21 42.63 L0 42.63" stroke="none" stroke-width="0" fill="#ffc9c9"></path><path d="M0 0 C11.32 0, 22.65 0, 38.21 0 M0 0 C11.97 0, 23.94 0, 38.21 0 M38.21 0 C38.21 9.45, 38.21 18.89, 38.21 42.63 M38.21 0 C38.21 9.94, 38.21 19.89, 38.21 42.63 M38.21 42.63 C28.55 42.63, 18.89 42.63, 0 42.63 M38.21 42.63 C23.63 42.63, 9.05 42.63, 0 42.63 M0 42.63 C0 34.06, 0 25.49, 0 0 M0 42.63 C0 30.86, 0 19.1, 0 0" stroke="#1e1e1e" stroke-width="1" fill="none"></path></g><g stroke-linecap="round" transform="translate(215.16821236007922 437.43416954394127) rotate(0 19.10665520937158 21.314930205340147)"><path d="M0 0 L38.21 0 L38.21 42.63 L0 42.63" stroke="none" stroke-width="0" fill="#ffc9c9"></path><path d="M0 0 C13.46 0, 26.92 0, 38.21 0 M0 0 C7.87 0, 15.75 0, 38.21 0 M38.21 0 C38.21 9.07, 38.21 18.15, 38.21 42.63 M38.21 0 C38.21 14.99, 38.21 29.98, 38.21 42.63 M38.21 42.63 C28.24 42.63, 18.26 42.63, 0 42.63 M38.21 42.63 C26.09 42.63, 13.97 42.63, 0 42.63 M0 42.63 C0 29.29, 0 15.95, 0 0 M0 42.63 C0 30.37, 0 18.11, 0 0" stroke="#1e1e1e" stroke-width="1" fill="none"></path></g><g stroke-linecap="round" transform="translate(290.31188800947507 438.2680530894439) rotate(0 19.10665520937158 21.314930205340147)"><path d="M0 0 L38.21 0 L38.21 42.63 L0 42.63" stroke="none" stroke-width="0" fill="#ffc9c9"></path><path d="M0 0 C11.35 0, 22.71 0, 38.21 0 M0 0 C8.33 0, 16.66 0, 38.21 0 M38.21 0 C38.21 13.3, 38.21 26.61, 38.21 42.63 M38.21 0 C38.21 12.82, 38.21 25.64, 38.21 42.63 M38.21 42.63 C25.95 42.63, 13.68 42.63, 0 42.63 M38.21 42.63 C25.85 42.63, 13.48 42.63, 0 42.63 M0 42.63 C0 26.06, 0 9.49, 0 0 M0 42.63 C0 25.81, 0 8.99, 0 0" stroke="#1e1e1e" stroke-width="1" fill="none"></path></g><g stroke-linecap="round" transform="translate(139.20369123074192 519.7304868505969) rotate(0 19.10665520937158 21.314930205340147)"><path d="M0 0 L38.21 0 L38.21 42.63 L0 42.63" stroke="none" stroke-width="0" fill="#ffec99"></path><path d="M0 0 C8.94 0, 17.88 0, 38.21 0 M0 0 C9.76 0, 19.52 0, 38.21 0 M38.21 0 C38.21 16.2, 38.21 32.4, 38.21 42.63 M38.21 0 C38.21 10.7, 38.21 21.4, 38.21 42.63 M38.21 42.63 C28.37 42.63, 18.52 42.63, 0 42.63 M38.21 42.63 C25.65 42.63, 13.09 42.63, 0 42.63 M0 42.63 C0 33.09, 0 23.54, 0 0 M0 42.63 C0 26.6, 0 10.56, 0 0" stroke="#1e1e1e" stroke-width="1" fill="none"></path></g><g stroke-linecap="round" transform="translate(218.17377441625536 519.9525834737547) rotate(0 19.10665520937158 21.314930205340147)"><path d="M0 0 L38.21 0 L38.21 42.63 L0 42.63" stroke="none" stroke-width="0" fill="#ffc9c9"></path><path d="M0 0 C11.93 0, 23.85 0, 38.21 0 M0 0 C10.74 0, 21.49 0, 38.21 0 M38.21 0 C38.21 11.43, 38.21 22.85, 38.21 42.63 M38.21 0 C38.21 16.42, 38.21 32.85, 38.21 42.63 M38.21 42.63 C29.41 42.63, 20.61 42.63, 0 42.63 M38.21 42.63 C29.45 42.63, 20.69 42.63, 0 42.63 M0 42.63 C0 30.18, 0 17.73, 0 0 M0 42.63 C0 28.27, 0 13.92, 0 0" stroke="#1e1e1e" stroke-width="1" fill="none"></path></g><g stroke-linecap="round" transform="translate(292.729915222944 518.556547556763) rotate(0 19.10665520937158 21.314930205340147)"><path d="M0 0 L38.21 0 L38.21 42.63 L0 42.63" stroke="none" stroke-width="0" fill="#ffc9c9"></path><path d="M0 0 C8.95 0, 17.89 0, 38.21 0 M0 0 C11.79 0, 23.57 0, 38.21 0 M38.21 0 C38.21 13.81, 38.21 27.63, 38.21 42.63 M38.21 0 C38.21 12.49, 38.21 24.98, 38.21 42.63 M38.21 42.63 C29.09 42.63, 19.97 42.63, 0 42.63 M38.21 42.63 C27.32 42.63, 16.43 42.63, 0 42.63 M0 42.63 C0 31.93, 0 21.22, 0 0 M0 42.63 C0 29.85, 0 17.06, 0 0" stroke="#1e1e1e" stroke-width="1" fill="none"></path></g><g stroke-linecap="round" transform="translate(141.11372218989857 607.4967267047377) rotate(0 19.10665520937158 21.314930205340147)"><path d="M0 0 L38.21 0 L38.21 42.63 L0 42.63" stroke="none" stroke-width="0" fill="#b2f2bb"></path><path d="M0 0 C13.82 0, 27.64 0, 38.21 0 M0 0 C15.06 0, 30.13 0, 38.21 0 M38.21 0 C38.21 12.74, 38.21 25.49, 38.21 42.63 M38.21 0 C38.21 15.51, 38.21 31.03, 38.21 42.63 M38.21 42.63 C29.46 42.63, 20.7 42.63, 0 42.63 M38.21 42.63 C26.3 42.63, 14.38 42.63, 0 42.63 M0 42.63 C0 32.02, 0 21.41, 0 0 M0 42.63 C0 34.03, 0 25.44, 0 0" stroke="#1e1e1e" stroke-width="1" fill="none"></path></g><g stroke-linecap="round" transform="translate(219.0293024282837 608.5183711712634) rotate(0 19.10665520937158 21.314930205340147)"><path d="M0 0 L38.21 0 L38.21 42.63 L0 42.63" stroke="none" stroke-width="0" fill="#b2f2bb"></path><path d="M0 0 C8.47 0, 16.94 0, 38.21 0 M0 0 C8.91 0, 17.83 0, 38.21 0 M38.21 0 C38.21 10.78, 38.21 21.55, 38.21 42.63 M38.21 0 C38.21 16.27, 38.21 32.53, 38.21 42.63 M38.21 42.63 C30.53 42.63, 22.85 42.63, 0 42.63 M38.21 42.63 C27.67 42.63, 17.12 42.63, 0 42.63 M0 42.63 C0 32.8, 0 22.97, 0 0 M0 42.63 C0 30.49, 0 18.36, 0 0" stroke="#1e1e1e" stroke-width="1" fill="none"></path></g><g stroke-linecap="round" transform="translate(295.1513463650334 608.5389898402901) rotate(0 19.10665520937158 21.314930205340147)"><path d="M0 0 L38.21 0 L38.21 42.63 L0 42.63" stroke="none" stroke-width="0" fill="#ffec99"></path><path d="M0 0 C8.13 0, 16.27 0, 38.21 0 M0 0 C13.44 0, 26.87 0, 38.21 0 M38.21 0 C38.21 11.13, 38.21 22.26, 38.21 42.63 M38.21 0 C38.21 13.52, 38.21 27.05, 38.21 42.63 M38.21 42.63 C26.26 42.63, 14.3 42.63, 0 42.63 M38.21 42.63 C27.22 42.63, 16.23 42.63, 0 42.63 M0 42.63 C0 32.24, 0 21.86, 0 0 M0 42.63 C0 30.2, 0 17.76, 0 0" stroke="#1e1e1e" stroke-width="1" fill="none"></path></g><g stroke-linecap="round"><g transform="translate(181.56703569363287 450.34750177611363) rotate(0 15.02064253905894 0)"><path d="M0 0 C9.37 0, 18.75 0, 30.04 0 M0 0 C9.04 0, 18.07 0, 30.04 0" stroke="#1e1e1e" stroke-width="1" fill="none"></path></g><g transform="translate(181.56703569363287 450.34750177611363) rotate(0 15.02064253905894 0)"><path d="M15.93 5.14 C20.33 3.53, 24.74 1.93, 30.04 0 M15.93 5.14 C20.17 3.59, 24.42 2.05, 30.04 0" stroke="#1e1e1e" stroke-width="1" fill="none"></path></g><g transform="translate(181.56703569363287 450.34750177611363) rotate(0 15.02064253905894 0)"><path d="M15.93 -5.14 C20.33 -3.53, 24.74 -1.93, 30.04 0 M15.93 -5.14 C20.17 -3.59, 24.42 -2.05, 30.04 0" stroke="#1e1e1e" stroke-width="1" fill="none"></path></g></g><mask></mask><g stroke-linecap="round"><g transform="translate(210.82646872259477 469.58777945308634) rotate(0 -14.765882567155074 -0.10116222316889889)"><path d="M0 0 C-11.22 -0.08, -22.45 -0.15, -29.53 -0.2 M0 0 C-7.41 -0.05, -14.82 -0.1, -29.53 -0.2" stroke="#1e1e1e" stroke-width="1" fill="none"></path></g><g transform="translate(210.82646872259477 469.58777945308634) rotate(0 -14.765882567155074 -0.10116222316889889)"><path d="M-15.62 -5.16 C-20.91 -3.27, -26.19 -1.39, -29.53 -0.2 M-15.62 -5.16 C-19.11 -3.91, -22.6 -2.67, -29.53 -0.2" stroke="#1e1e1e" stroke-width="1" fill="none"></path></g><g transform="translate(210.82646872259477 469.58777945308634) rotate(0 -14.765882567155074 -0.10116222316889889)"><path d="M-15.69 4.94 C-20.95 2.99, -26.21 1.03, -29.53 -0.2 M-15.69 4.94 C-19.16 3.65, -22.64 2.36, -29.53 -0.2" stroke="#1e1e1e" stroke-width="1" fill="none"></path></g></g><mask></mask><g stroke-linecap="round"><g transform="translate(132.26984730360869 498.07713603849913) rotate(267.32195676919287 14.02156778805903 0.6471628944615873)"><path d="M0 0 C6.98 0.32, 13.96 0.64, 28.04 1.29 M0 0 C5.66 0.26, 11.31 0.52, 28.04 1.29" stroke="#1e1e1e" stroke-width="1" fill="none"></path></g><g transform="translate(132.26984730360869 498.07713603849913) rotate(267.32195676919287 14.02156778805903 0.6471628944615873)"><path d="M14.65 5.48 C17.98 4.44, 21.32 3.4, 28.04 1.29 M14.65 5.48 C17.35 4.64, 20.05 3.79, 28.04 1.29" stroke="#1e1e1e" stroke-width="1" fill="none"></path></g><g transform="translate(132.26984730360869 498.07713603849913) rotate(267.32195676919287 14.02156778805903 0.6471628944615873)"><path d="M15.09 -4.11 C18.31 -2.76, 21.54 -1.42, 28.04 1.29 M15.09 -4.11 C17.7 -3.02, 20.31 -1.93, 28.04 1.29" stroke="#1e1e1e" stroke-width="1" fill="none"></path></g></g><mask></mask><g stroke-linecap="round"><g transform="translate(178.30040929640546 499.56472983384583) rotate(267.32195676919287 -13.584197762095386 -0.41147045028543516)"><path d="M0 0 C-6.26 -0.19, -12.53 -0.38, -27.17 -0.82 M0 0 C-7.73 -0.23, -15.47 -0.47, -27.17 -0.82" stroke="#1e1e1e" stroke-width="1" fill="none"></path></g><g transform="translate(178.30040929640546 499.56472983384583) rotate(267.32195676919287 -13.584197762095386 -0.41147045028543516)"><path d="M-14.26 -5.08 C-17.24 -4.1, -20.21 -3.12, -27.17 -0.82 M-14.26 -5.08 C-17.94 -3.87, -21.61 -2.66, -27.17 -0.82" stroke="#1e1e1e" stroke-width="1" fill="none"></path></g><g transform="translate(178.30040929640546 499.56472983384583) rotate(267.32195676919287 -13.584197762095386 -0.41147045028543516)"><path d="M-14.54 4.21 C-17.45 3.05, -20.36 1.89, -27.17 -0.82 M-14.54 4.21 C-18.14 2.78, -21.73 1.34, -27.17 -0.82" stroke="#1e1e1e" stroke-width="1" fill="none"></path></g></g><mask></mask><g stroke-linecap="round" transform="translate(343.88216001596874 113.1818648743882) rotate(0 11.19691472655677 12.491011812190038)"><path d="M0 0 L22.39 0 L22.39 24.98 L0 24.98" stroke="none" stroke-width="0" fill="#ffc9c9"></path><path d="M0 0 C7.13 0, 14.27 0, 22.39 0 M0 0 C8.32 0, 16.65 0, 22.39 0 M22.39 0 C22.39 5.65, 22.39 11.3, 22.39 24.98 M22.39 0 C22.39 7.74, 22.39 15.49, 22.39 24.98 M22.39 24.98 C14.98 24.98, 7.57 24.98, 0 24.98 M22.39 24.98 C16.67 24.98, 10.95 24.98, 0 24.98 M0 24.98 C0 17.36, 0 9.73, 0 0 M0 24.98 C0 19.06, 0 13.13, 0 0" stroke="#1e1e1e" stroke-width="1" fill="none"></path></g><g stroke-linecap="round" transform="translate(368.1050309675006 113.27059408264208) rotate(0 11.196914726556784 12.491011812190038)"><path d="M0 0 L22.39 0 L22.39 24.98 L0 24.98" stroke="none" stroke-width="0" fill="#ffc9c9"></path><path d="M0 0 C5.5 0, 10.99 0, 22.39 0 M0 0 C4.69 0, 9.38 0, 22.39 0 M22.39 0 C22.39 6, 22.39 11.99, 22.39 24.98 M22.39 0 C22.39 7.01, 22.39 14.02, 22.39 24.98 M22.39 24.98 C14.96 24.98, 7.53 24.98, 0 24.98 M22.39 24.98 C16.01 24.98, 9.62 24.98, 0 24.98 M0 24.98 C0 18.93, 0 12.88, 0 0 M0 24.98 C0 15.61, 0 6.23, 0 0" stroke="#1e1e1e" stroke-width="1" fill="none"></path></g><g stroke-linecap="round" transform="translate(392.4893752199021 113.05825525781418) rotate(0 11.196914726556784 12.491011812190038)"><path d="M0 0 L22.39 0 L22.39 24.98 L0 24.98" stroke="none" stroke-width="0" fill="#ffc9c9"></path><path d="M0 0 C4.52 0, 9.05 0, 22.39 0 M0 0 C8.55 0, 17.11 0, 22.39 0 M22.39 0 C22.39 5.41, 22.39 10.82, 22.39 24.98 M22.39 0 C22.39 7.62, 22.39 15.24, 22.39 24.98 M22.39 24.98 C14.34 24.98, 6.28 24.98, 0 24.98 M22.39 24.98 C15.45 24.98, 8.51 24.98, 0 24.98 M0 24.98 C0 18.86, 0 12.74, 0 0 M0 24.98 C0 16.78, 0 8.58, 0 0" stroke="#1e1e1e" stroke-width="1" fill="none"></path></g><g stroke-linecap="round" transform="translate(344.3197543817787 139.7269495917317) rotate(0 11.19691472655677 12.491011812190038)"><path d="M0 0 L22.39 0 L22.39 24.98 L0 24.98" stroke="none" stroke-width="0" fill="#ffec99"></path><path d="M0 0 C7.42 0, 14.84 0, 22.39 0 M0 0 C8.02 0, 16.05 0, 22.39 0 M22.39 0 C22.39 5.02, 22.39 10.04, 22.39 24.98 M22.39 0 C22.39 6.82, 22.39 13.63, 22.39 24.98 M22.39 24.98 C14.16 24.98, 5.93 24.98, 0 24.98 M22.39 24.98 C14.93 24.98, 7.46 24.98, 0 24.98 M0 24.98 C0 15.47, 0 5.95, 0 0 M0 24.98 C0 17.31, 0 9.63, 0 0" stroke="#1e1e1e" stroke-width="1" fill="none"></path></g><g stroke-linecap="round" transform="translate(368.7436856920406 140.02709641528017) rotate(0 11.196914726556784 12.491011812190038)"><path d="M0 0 L22.39 0 L22.39 24.98 L0 24.98" stroke="none" stroke-width="0" fill="#ffc9c9"></path><path d="M0 0 C7.38 0, 14.77 0, 22.39 0 M0 0 C5.77 0, 11.54 0, 22.39 0 M22.39 0 C22.39 8.36, 22.39 16.72, 22.39 24.98 M22.39 0 C22.39 6.98, 22.39 13.97, 22.39 24.98 M22.39 24.98 C14.58 24.98, 6.77 24.98, 0 24.98 M22.39 24.98 C15.2 24.98, 8.01 24.98, 0 24.98 M0 24.98 C0 17.45, 0 9.91, 0 0 M0 24.98 C0 18.95, 0 12.91, 0 0" stroke="#1e1e1e" stroke-width="1" fill="none"></path></g><g stroke-linecap="round" transform="translate(392.7721588968523 140.13218063070084) rotate(0 11.196914726556784 12.491011812190038)"><path d="M0 0 L22.39 0 L22.39 24.98 L0 24.98" stroke="none" stroke-width="0" fill="#ffc9c9"></path><path d="M0 0 C7.89 0, 15.79 0, 22.39 0 M0 0 C5.46 0, 10.91 0, 22.39 0 M22.39 0 C22.39 9.05, 22.39 18.11, 22.39 24.98 M22.39 0 C22.39 5.52, 22.39 11.04, 22.39 24.98 M22.39 24.98 C16.94 24.98, 11.48 24.98, 0 24.98 M22.39 24.98 C13.54 24.98, 4.69 24.98, 0 24.98 M0 24.98 C0 16.27, 0 7.55, 0 0 M0 24.98 C0 15.65, 0 6.31, 0 0" stroke="#1e1e1e" stroke-width="1" fill="none"></path></g><g stroke-linecap="round" transform="translate(344.51957775096616 166.6067179717521) rotate(0 11.19691472655677 12.491011812190038)"><path d="M0 0 L22.39 0 L22.39 24.98 L0 24.98" stroke="none" stroke-width="0" fill="#b2f2bb"></path><path d="M0 0 C7.18 0, 14.35 0, 22.39 0 M0 0 C7.1 0, 14.19 0, 22.39 0 M22.39 0 C22.39 8.45, 22.39 16.9, 22.39 24.98 M22.39 0 C22.39 9.67, 22.39 19.35, 22.39 24.98 M22.39 24.98 C16.91 24.98, 11.42 24.98, 0 24.98 M22.39 24.98 C17.28 24.98, 12.16 24.98, 0 24.98 M0 24.98 C0 18.45, 0 11.92, 0 0 M0 24.98 C0 18.67, 0 12.36, 0 0" stroke="#1e1e1e" stroke-width="1" fill="none"></path></g><g stroke-linecap="round" transform="translate(368.7545761386618 166.6882833022224) rotate(0 11.196914726556784 12.491011812190038)"><path d="M0 0 L22.39 0 L22.39 24.98 L0 24.98" stroke="none" stroke-width="0" fill="#b2f2bb"></path><path d="M0 0 C5.07 0, 10.13 0, 22.39 0 M0 0 C6.94 0, 13.88 0, 22.39 0 M22.39 0 C22.39 8.27, 22.39 16.54, 22.39 24.98 M22.39 0 C22.39 6.39, 22.39 12.77, 22.39 24.98 M22.39 24.98 C15.56 24.98, 8.72 24.98, 0 24.98 M22.39 24.98 C17.08 24.98, 11.77 24.98, 0 24.98 M0 24.98 C0 17.98, 0 10.97, 0 0 M0 24.98 C0 16.81, 0 8.64, 0 0" stroke="#1e1e1e" stroke-width="1" fill="none"></path></g><g stroke-linecap="round" transform="translate(392.8773210254519 166.6465951758939) rotate(0 11.196914726556784 12.491011812190038)"><path d="M0 0 L22.39 0 L22.39 24.98 L0 24.98" stroke="none" stroke-width="0" fill="#ffec99"></path><path d="M0 0 C5.38 0, 10.75 0, 22.39 0 M0 0 C6.28 0, 12.57 0, 22.39 0 M22.39 0 C22.39 8.29, 22.39 16.59, 22.39 24.98 M22.39 0 C22.39 7.12, 22.39 14.25, 22.39 24.98 M22.39 24.98 C16.97 24.98, 11.55 24.98, 0 24.98 M22.39 24.98 C13.99 24.98, 5.59 24.98, 0 24.98 M0 24.98 C0 18.56, 0 12.14, 0 0 M0 24.98 C0 16.48, 0 7.99, 0 0" stroke="#1e1e1e" stroke-width="1" fill="none"></path></g><g stroke-linecap="round" transform="translate(435.85917355301274 435.2660555043765) rotate(0 19.10665520937158 21.314930205340147)"><path d="M0 0 L38.21 0 L38.21 42.63 L0 42.63" stroke="none" stroke-width="0" fill="#ffc9c9"></path><path d="M0 0 C8.28 0, 16.55 0, 38.21 0 M0 0 C11.66 0, 23.32 0, 38.21 0 M38.21 0 C38.21 15.34, 38.21 30.68, 38.21 42.63 M38.21 0 C38.21 13.22, 38.21 26.44, 38.21 42.63 M38.21 42.63 C28.85 42.63, 19.49 42.63, 0 42.63 M38.21 42.63 C25.67 42.63, 13.12 42.63, 0 42.63 M0 42.63 C0 27.41, 0 12.2, 0 0 M0 42.63 C0 28.88, 0 15.13, 0 0" stroke="#1e1e1e" stroke-width="1" fill="none"></path></g><g stroke-linecap="round" transform="translate(513.6486249969361 435.4437328029028) rotate(0 19.10665520937158 21.314930205340147)"><path d="M0 0 L38.21 0 L38.21 42.63 L0 42.63" stroke="none" stroke-width="0" fill="#ffc9c9"></path><path d="M0 0 C7.68 0, 15.35 0, 38.21 0 M0 0 C10.43 0, 20.85 0, 38.21 0 M38.21 0 C38.21 15.67, 38.21 31.34, 38.21 42.63 M38.21 0 C38.21 14.22, 38.21 28.43, 38.21 42.63 M38.21 42.63 C23.66 42.63, 9.1 42.63, 0 42.63 M38.21 42.63 C26.47 42.63, 14.73 42.63, 0 42.63 M0 42.63 C0 26.93, 0 11.23, 0 0 M0 42.63 C0 26.16, 0 9.69, 0 0" stroke="#1e1e1e" stroke-width="1" fill="none"></path></g><g stroke-linecap="round" transform="translate(588.7923006463319 436.2776163484052) rotate(359.69520719526514 19.10665520937158 21.314930205340147)"><path d="M0 0 L38.21 0 L38.21 42.63 L0 42.63" stroke="none" stroke-width="0" fill="#ffc9c9"></path><path d="M0 0 C12.79 0, 25.57 0, 38.21 0 M0 0 C10.68 0, 21.36 0, 38.21 0 M38.21 0 C38.21 14.87, 38.21 29.74, 38.21 42.63 M38.21 0 C38.21 13.69, 38.21 27.38, 38.21 42.63 M38.21 42.63 C26.69 42.63, 15.16 42.63, 0 42.63 M38.21 42.63 C28.98 42.63, 19.75 42.63, 0 42.63 M0 42.63 C0 33.83, 0 25.02, 0 0 M0 42.63 C0 29.04, 0 15.45, 0 0" stroke="#1e1e1e" stroke-width="1" fill="none"></path></g><g stroke-linecap="round" transform="translate(436.68410386759876 517.7400501095583) rotate(0 19.10665520937158 21.314930205340147)"><path d="M0 0 L38.21 0 L38.21 42.63 L0 42.63" stroke="none" stroke-width="0" fill="#b2f2bb"></path><path d="M0 0 C13.85 0, 27.7 0, 38.21 0 M0 0 C8.45 0, 16.89 0, 38.21 0 M38.21 0 C38.21 10.38, 38.21 20.77, 38.21 42.63 M38.21 0 C38.21 16.85, 38.21 33.71, 38.21 42.63 M38.21 42.63 C24.88 42.63, 11.55 42.63, 0 42.63 M38.21 42.63 C23.93 42.63, 9.65 42.63, 0 42.63 M0 42.63 C0 33.18, 0 23.72, 0 0 M0 42.63 C0 26.59, 0 10.55, 0 0" stroke="#1e1e1e" stroke-width="1" fill="none"></path></g><g stroke-linecap="round" transform="translate(516.6541870531122 517.9621467327161) rotate(0 19.10665520937158 21.314930205340147)"><path d="M0 0 L38.21 0 L38.21 42.63 L0 42.63" stroke="none" stroke-width="0" fill="#ffc9c9"></path><path d="M0 0 C12.92 0, 25.85 0, 38.21 0 M0 0 C14.8 0, 29.6 0, 38.21 0 M38.21 0 C38.21 10.44, 38.21 20.89, 38.21 42.63 M38.21 0 C38.21 9.74, 38.21 19.48, 38.21 42.63 M38.21 42.63 C28.23 42.63, 18.24 42.63, 0 42.63 M38.21 42.63 C28.56 42.63, 18.91 42.63, 0 42.63 M0 42.63 C0 29.66, 0 16.69, 0 0 M0 42.63 C0 30.8, 0 18.97, 0 0" stroke="#1e1e1e" stroke-width="1" fill="none"></path></g><g stroke-linecap="round" transform="translate(591.2103278598008 517.5661108157244) rotate(0 19.10665520937158 21.314930205340147)"><path d="M0 0 L38.21 0 L38.21 42.63 L0 42.63" stroke="none" stroke-width="0" fill="#ffc9c9"></path><path d="M0 0 C12.65 0, 25.3 0, 38.21 0 M0 0 C9.77 0, 19.54 0, 38.21 0 M38.21 0 C38.21 13.01, 38.21 26.03, 38.21 42.63 M38.21 0 C38.21 10.11, 38.21 20.22, 38.21 42.63 M38.21 42.63 C27.5 42.63, 16.78 42.63, 0 42.63 M38.21 42.63 C25.72 42.63, 13.22 42.63, 0 42.63 M0 42.63 C0 25.96, 0 9.29, 0 0 M0 42.63 C0 25.66, 0 8.69, 0 0" stroke="#1e1e1e" stroke-width="1" fill="none"></path></g><g stroke-linecap="round" transform="translate(437.5941348267554 605.5062899636991) rotate(0 19.10665520937158 21.314930205340147)"><path d="M0 0 L38.21 0 L38.21 42.63 L0 42.63" stroke="none" stroke-width="0" fill="#b2f2bb"></path><path d="M0 0 C12.69 0, 25.37 0, 38.21 0 M0 0 C10.9 0, 21.8 0, 38.21 0 M38.21 0 C38.21 10.32, 38.21 20.65, 38.21 42.63 M38.21 0 C38.21 16, 38.21 31.99, 38.21 42.63 M38.21 42.63 C28.39 42.63, 18.57 42.63, 0 42.63 M38.21 42.63 C25.22 42.63, 12.22 42.63, 0 42.63 M0 42.63 C0 26.77, 0 10.92, 0 0 M0 42.63 C0 27.14, 0 11.64, 0 0" stroke="#1e1e1e" stroke-width="1" fill="none"></path></g><g stroke-linecap="round" transform="translate(517.5097150651405 606.5279344302248) rotate(0 19.10665520937158 21.314930205340147)"><path d="M0 0 L38.21 0 L38.21 42.63 L0 42.63" stroke="none" stroke-width="0" fill="#b2f2bb"></path><path d="M0 0 C13.75 0, 27.5 0, 38.21 0 M0 0 C11.85 0, 23.7 0, 38.21 0 M38.21 0 C38.21 10.44, 38.21 20.88, 38.21 42.63 M38.21 0 C38.21 14, 38.21 27.99, 38.21 42.63 M38.21 42.63 C24.57 42.63, 10.93 42.63, 0 42.63 M38.21 42.63 C25.89 42.63, 13.56 42.63, 0 42.63 M0 42.63 C0 25.73, 0 8.84, 0 0 M0 42.63 C0 32.26, 0 21.9, 0 0" stroke="#1e1e1e" stroke-width="1" fill="none"></path></g><g stroke-linecap="round" transform="translate(592.6317590018903 608.5485530992516) rotate(0 19.10665520937158 21.314930205340147)"><path d="M0 0 L38.21 0 L38.21 42.63 L0 42.63" stroke="none" stroke-width="0" fill="#b2f2bb"></path><path d="M0 0 C14.05 0, 28.1 0, 38.21 0 M0 0 C12.74 0, 25.49 0, 38.21 0 M38.21 0 C38.21 16.24, 38.21 32.48, 38.21 42.63 M38.21 0 C38.21 13.1, 38.21 26.19, 38.21 42.63 M38.21 42.63 C24.14 42.63, 10.07 42.63, 0 42.63 M38.21 42.63 C23.45 42.63, 8.69 42.63, 0 42.63 M0 42.63 C0 26.49, 0 10.35, 0 0 M0 42.63 C0 27.94, 0 13.26, 0 0" stroke="#1e1e1e" stroke-width="1" fill="none"></path></g><g stroke-linecap="round"><g transform="translate(264.1309266149846 248.33329039020938) rotate(0 0.2905805516624014 33.01436295816501)"><path d="M0 0 C0.18 20.99, 0.37 41.99, 0.58 66.03 M0 0 C0.16 18.45, 0.32 36.89, 0.58 66.03" stroke="#1e1e1e" stroke-width="2" fill="none"></path></g></g><mask></mask><g stroke-linecap="round"><g transform="translate(338.3820866700486 314.31516248680214) rotate(0 -36.63631976497618 0.2681469285830076)"><path d="M0 0 C-17.27 0.13, -34.53 0.25, -73.27 0.54 M0 0 C-27.75 0.2, -55.5 0.41, -73.27 0.54" stroke="#1e1e1e" stroke-width="2" fill="none"></path></g></g><mask></mask><g stroke-linecap="round"><g transform="translate(270.13294686808763 310.7411590302503) rotate(0 29.97123556761514 -28.036009514767073)"><path d="M0 0 C13.35 -12.48, 26.69 -24.97, 59.94 -56.07 M0 0 C23.06 -21.57, 46.11 -43.13, 59.94 -56.07" stroke="#1e1e1e" stroke-width="2" fill="none"></path></g></g><mask></mask><g transform="translate(268.4784276659087 319.61026929170237) rotate(0 31.00192185983485 5.391399716774913)"><text x="0" y="8.626422678623765" font-family="Helvetica, Segoe UI Emoji" font-size="9.376347333521638px" fill="#1e1e1e" text-anchor="start" style="white-space: pre;" direction="ltr" dominant-baseline="alphabetic">SDM suitability</text></g><g transform="translate(216.84013455918205 276.9506793630518) rotate(269.6945020765236 33.877090866402995 5.3913997167749415)"><text x="0" y="8.626422678623765" font-family="Helvetica, Segoe UI Emoji" font-size="9.376347333521638px" fill="#1e1e1e" text-anchor="start" style="white-space: pre;" direction="ltr" dominant-baseline="alphabetic">Local deme size</text></g><g stroke-linecap="round"><g transform="translate(415.36559252273685 248.3619978497472) rotate(0 0.25047170451610157 33.05626772384028)"><path d="M0 0 C0.13 17.08, 0.26 34.16, 0.5 66.11 M0 0 C0.17 22.11, 0.34 44.22, 0.5 66.11" stroke="#1e1e1e" stroke-width="2" fill="none"></path></g></g><mask></mask><g stroke-linecap="round"><g transform="translate(489.5365348835082 314.4276794776905) rotate(0 -36.63631976497618 0.2681469285830076)"><path d="M0 0 C-20.78 0.15, -41.57 0.3, -73.27 0.54 M0 0 C-27.32 0.2, -54.65 0.4, -73.27 0.54" stroke="#1e1e1e" stroke-width="2" fill="none"></path></g></g><mask></mask><g stroke-linecap="round"><g transform="translate(420.2307291195192 307.8269651032026) rotate(0 16.069304333710647 -0.11207023637331304)"><path d="M0 0 C7.48 -0.05, 14.97 -0.1, 32.14 -0.22 M0 0 C10.05 -0.07, 20.11 -0.14, 32.14 -0.22" stroke="#1e1e1e" stroke-width="2" fill="none"></path></g></g><mask></mask><g transform="translate(419.6328758793683 319.7227862825906) rotate(0 31.00192185983485 5.391399716774913)"><text x="0" y="8.626422678623765" font-family="Helvetica, Segoe UI Emoji" font-size="9.376347333521638px" fill="#1e1e1e" text-anchor="start" style="white-space: pre;" direction="ltr" dominant-baseline="alphabetic">SDM suitability</text></g><g transform="translate(368.0316984222398 277.1003120035382) rotate(270.0114200752181 33.877090866402995 5.3913997167749415)"><text x="0" y="8.626422678623765" font-family="Helvetica, Segoe UI Emoji" font-size="9.376347333521638px" fill="#1e1e1e" text-anchor="start" style="white-space: pre;" direction="ltr" dominant-baseline="alphabetic">Local deme size</text></g><g stroke-linecap="round"><g transform="translate(452.41858076549784 307.5242922385323) rotate(0 0.05114547536906855 -17.6662904202077)"><path d="M0 0 C0.03 -11.86, 0.07 -23.72, 0.1 -35.33 M0 0 C0.02 -8.39, 0.05 -16.78, 0.1 -35.33" stroke="#1e1e1e" stroke-width="2" fill="none"></path></g></g><mask></mask><g stroke-linecap="round"><g transform="translate(452.6251280866009 271.966401421452) rotate(0 16.581876530629003 -0.13352285623136595)"><path d="M0 0 C8.31 -0.07, 16.62 -0.13, 33.16 -0.27 M0 0 C7.85 -0.06, 15.71 -0.13, 33.16 -0.27" stroke="#1e1e1e" stroke-width="2" fill="none"></path></g></g><mask></mask><g stroke-linecap="round"><g transform="translate(368.5474336340611 197.30604036892382) rotate(0 -26.41302429008178 14.076655033465101)"><path d="M0 0 C-18.74 9.99, -37.49 19.98, -52.83 28.15 M0 0 C-21.12 11.26, -42.24 22.51, -52.83 28.15" stroke="#1e1e1e" stroke-width="2" fill="none"></path></g><g transform="translate(368.5474336340611 197.30604036892382) rotate(0 -26.41302429008178 14.076655033465101)"><path d="M-36.12 9.56 C-42.04 16.16, -47.97 22.75, -52.83 28.15 M-36.12 9.56 C-42.8 16.99, -49.48 24.43, -52.83 28.15" stroke="#1e1e1e" stroke-width="2" fill="none"></path></g><g transform="translate(368.5474336340611 197.30604036892382) rotate(0 -26.41302429008178 14.076655033465101)"><path d="M-28.07 24.65 C-36.86 25.89, -45.64 27.14, -52.83 28.15 M-28.07 24.65 C-37.97 26.05, -47.87 27.45, -52.83 28.15" stroke="#1e1e1e" stroke-width="2" fill="none"></path></g></g><mask></mask><g stroke-linecap="round"><g transform="translate(388.1710117298177 196.87886553691808) rotate(0 29.129608390448027 11.283972399828997)"><path d="M0 0 C13.48 5.22, 26.96 10.45, 58.26 22.57 M0 0 C18.54 7.18, 37.08 14.36, 58.26 22.57" stroke="#1e1e1e" stroke-width="2" fill="none"></path></g><g transform="translate(388.1710117298177 196.87886553691808) rotate(0 29.129608390448027 11.283972399828997)"><path d="M33.26 22.06 C39.05 22.17, 44.83 22.29, 58.26 22.57 M33.26 22.06 C41.22 22.22, 49.17 22.38, 58.26 22.57" stroke="#1e1e1e" stroke-width="2" fill="none"></path></g><g transform="translate(388.1710117298177 196.87886553691808) rotate(0 29.129608390448027 11.283972399828997)"><path d="M39.44 6.11 C43.8 9.92, 48.15 13.73, 58.26 22.57 M39.44 6.11 C45.43 11.35, 51.42 16.59, 58.26 22.57" stroke="#1e1e1e" stroke-width="2" fill="none"></path></g></g><mask></mask><g transform="translate(348.7624279559746 120.36216990870852) rotate(0 6.5172023580410325 5.3913997167749415)"><text x="0" y="8.626422678623765" font-family="Helvetica, Segoe UI Emoji" font-size="9.376347333521638px" fill="#1e1e1e" text-anchor="start" style="white-space: pre;" direction="ltr" dominant-baseline="alphabetic">1.0</text></g><g transform="translate(349.3319667873888 146.34174497223134) rotate(0 6.5172023580410325 5.3913997167749415)"><text x="0" y="8.626422678623765" font-family="Helvetica, Segoe UI Emoji" font-size="9.376347333521638px" fill="#1e1e1e" text-anchor="start" style="white-space: pre;" direction="ltr" dominant-baseline="alphabetic">0.5</text></g><g transform="translate(397.8990967107985 173.23650791252882) rotate(0 6.517202358041047 5.3913997167749415)"><text x="0" y="8.626422678623765" font-family="Helvetica, Segoe UI Emoji" font-size="9.376347333521638px" fill="#1e1e1e" text-anchor="start" style="white-space: pre;" direction="ltr" dominant-baseline="alphabetic">0.5</text></g><g transform="translate(373.0350201865055 120.22876313681715) rotate(0 6.5172023580410325 5.3913997167749415)"><text x="0" y="8.626422678623765" font-family="Helvetica, Segoe UI Emoji" font-size="9.376347333521638px" fill="#1e1e1e" text-anchor="start" style="white-space: pre;" direction="ltr" dominant-baseline="alphabetic">1.0</text></g><g transform="translate(396.6999376118683 119.94095957333897) rotate(0 6.517202358041047 5.3913997167749415)"><text x="0" y="8.626422678623765" font-family="Helvetica, Segoe UI Emoji" font-size="9.376347333521638px" fill="#1e1e1e" text-anchor="start" style="white-space: pre;" direction="ltr" dominant-baseline="alphabetic">1.0</text></g><g transform="translate(373.50497713080915 146.52983187453353) rotate(0 6.5172023580410325 5.3913997167749415)"><text x="0" y="8.626422678623765" font-family="Helvetica, Segoe UI Emoji" font-size="9.376347333521638px" fill="#1e1e1e" text-anchor="start" style="white-space: pre;" direction="ltr" dominant-baseline="alphabetic">1.0</text></g><g transform="translate(396.8648989189662 146.66242896284118) rotate(0 6.517202358041047 5.3913997167749415)"><text x="0" y="8.626422678623765" font-family="Helvetica, Segoe UI Emoji" font-size="9.376347333521638px" fill="#1e1e1e" text-anchor="start" style="white-space: pre;" direction="ltr" dominant-baseline="alphabetic">1.0</text></g><g transform="translate(349.3060241613419 173.3032108036467) rotate(0 6.5172023580410325 5.3913997167749415)"><text x="0" y="8.626422678623765" font-family="Helvetica, Segoe UI Emoji" font-size="9.376347333521638px" fill="#1e1e1e" text-anchor="start" style="white-space: pre;" direction="ltr" dominant-baseline="alphabetic">0.1</text></g><g transform="translate(373.84716810977244 173.2209631385708) rotate(0 6.5172023580410325 5.3913997167749415)"><text x="0" y="8.626422678623765" font-family="Helvetica, Segoe UI Emoji" font-size="9.376347333521638px" fill="#1e1e1e" text-anchor="start" style="white-space: pre;" direction="ltr" dominant-baseline="alphabetic">0.1</text></g><g transform="translate(139.54467696622635 448.8380303557468) rotate(0 17.796875 9.199999999999989)"><text x="0" y="14.720312499999999" font-family="Helvetica, Segoe UI Emoji" font-size="16px" fill="#1e1e1e" text-anchor="start" style="white-space: pre;" direction="ltr" dominant-baseline="alphabetic">1000</text></g><g transform="translate(216.01398667915038 449.3417079263936) rotate(0 17.796875 9.199999999999989)"><text x="0" y="14.720312499999999" font-family="Helvetica, Segoe UI Emoji" font-size="16px" fill="#1e1e1e" text-anchor="start" style="white-space: pre;" direction="ltr" dominant-baseline="alphabetic">1000</text></g><g transform="translate(290.9825834351707 449.3373558569234) rotate(0 17.796875 9.199999999999989)"><text x="0" y="14.720312499999999" font-family="Helvetica, Segoe UI Emoji" font-size="16px" fill="#1e1e1e" text-anchor="start" style="white-space: pre;" direction="ltr" dominant-baseline="alphabetic">1000</text></g><g transform="translate(293.65474103476333 530.0675805198385) rotate(0 17.796875 9.199999999999989)"><text x="0" y="14.720312499999999" font-family="Helvetica, Segoe UI Emoji" font-size="16px" fill="#1e1e1e" text-anchor="start" style="white-space: pre;" direction="ltr" dominant-baseline="alphabetic">1000</text></g><g transform="translate(218.73023281404494 531.1345711080191) rotate(0 17.796875 9.199999999999989)"><text x="0" y="14.720312499999999" font-family="Helvetica, Segoe UI Emoji" font-size="16px" fill="#1e1e1e" text-anchor="start" style="white-space: pre;" direction="ltr" dominant-baseline="alphabetic">1000</text></g><g transform="translate(144.25445600509295 531.6780230882528) rotate(0 13.34765625 9.199999999999989)"><text x="0" y="14.720312499999999" font-family="Helvetica, Segoe UI Emoji" font-size="16px" fill="#1e1e1e" text-anchor="start" style="white-space: pre;" direction="ltr" dominant-baseline="alphabetic">500</text></g><g transform="translate(300.66904974416013 619.4675333316) rotate(0 13.34765625 9.199999999999989)"><text x="0" y="14.720312499999999" font-family="Helvetica, Segoe UI Emoji" font-size="16px" fill="#1e1e1e" text-anchor="start" style="white-space: pre;" direction="ltr" dominant-baseline="alphabetic">500</text></g><g transform="translate(223.95696789737474 619.2898966319268) rotate(0 13.34765625 9.199999999999989)"><text x="0" y="14.720312499999999" font-family="Helvetica, Segoe UI Emoji" font-size="16px" fill="#1e1e1e" text-anchor="start" style="white-space: pre;" direction="ltr" dominant-baseline="alphabetic">100</text></g><g transform="translate(145.90881033432169 618.8390607554629) rotate(0 13.34765625 9.199999999999989)"><text x="0" y="14.720312499999999" font-family="Helvetica, Segoe UI Emoji" font-size="16px" fill="#1e1e1e" text-anchor="start" style="white-space: pre;" direction="ltr" dominant-baseline="alphabetic">100</text></g><g stroke-linecap="round"><g transform="translate(472.3081913519235 332.6281393182885) rotate(0 21.767561772458635 46.952796088609716)"><path d="M0 0 C9.54 20.58, 19.08 41.16, 43.54 93.91 M0 0 C8.92 19.24, 17.84 38.47, 43.54 93.91" stroke="#1e1e1e" stroke-width="2" fill="none"></path></g><g transform="translate(472.3081913519235 332.6281393182885) rotate(0 21.767561772458635 46.952796088609716)"><path d="M25.9 76.19 C29.76 80.07, 33.63 83.95, 43.54 93.91 M25.9 76.19 C29.51 79.82, 33.12 83.45, 43.54 93.91" stroke="#1e1e1e" stroke-width="2" fill="none"></path></g><g transform="translate(472.3081913519235 332.6281393182885) rotate(0 21.767561772458635 46.952796088609716)"><path d="M41.41 69 C41.88 74.46, 42.34 79.91, 43.54 93.91 M41.41 69 C41.85 74.1, 42.28 79.2, 43.54 93.91" stroke="#1e1e1e" stroke-width="2" fill="none"></path></g></g><mask></mask><g stroke-linecap="round"><g transform="translate(261.9931473912935 331.5650984731958) rotate(0 -23.351092821963675 47.001624089446864)"><path d="M0 0 C-10.61 21.35, -21.21 42.7, -46.7 94 M0 0 C-18.25 36.72, -36.49 73.45, -46.7 94" stroke="#343a40" stroke-width="2" fill="none"></path></g><g transform="translate(261.9931473912935 331.5650984731958) rotate(0 -23.351092821963675 47.001624089446864)"><path d="M-43.91 69.16 C-44.54 74.8, -45.18 80.44, -46.7 94 M-43.91 69.16 C-45 78.87, -46.09 88.57, -46.7 94" stroke="#343a40" stroke-width="2" fill="none"></path></g><g transform="translate(261.9931473912935 331.5650984731958) rotate(0 -23.351092821963675 47.001624089446864)"><path d="M-28.59 76.77 C-32.71 80.68, -36.82 84.6, -46.7 94 M-28.59 76.77 C-35.67 83.5, -42.74 90.23, -46.7 94" stroke="#343a40" stroke-width="2" fill="none"></path></g></g><mask></mask><g transform="translate(441.34214635663534 446.0392779566364) rotate(0 13.34765625 9.199999999999989)"><text x="0" y="14.720312499999999" font-family="Helvetica, Segoe UI Emoji" font-size="16px" fill="#1e1e1e" text-anchor="start" style="white-space: pre;" direction="ltr" dominant-baseline="alphabetic">690</text></g><g transform="translate(519.6836730600194 446.7119359147139) rotate(0 13.34765625 9.199999999999989)"><text x="0" y="14.720312499999999" font-family="Helvetica, Segoe UI Emoji" font-size="16px" fill="#1e1e1e" text-anchor="start" style="white-space: pre;" direction="ltr" dominant-baseline="alphabetic">690</text></g><g transform="translate(594.568820232901 448.17537059114227) rotate(0 13.34765625 9.199999999999989)"><text x="0" y="14.720312499999999" font-family="Helvetica, Segoe UI Emoji" font-size="16px" fill="#1e1e1e" text-anchor="start" style="white-space: pre;" direction="ltr" dominant-baseline="alphabetic">690</text></g><g transform="translate(522.4430949232725 528.3462280692298) rotate(0 13.34765625 9.199999999999989)"><text x="0" y="14.720312499999999" font-family="Helvetica, Segoe UI Emoji" font-size="16px" fill="#1e1e1e" text-anchor="start" style="white-space: pre;" direction="ltr" dominant-baseline="alphabetic">690</text></g><g transform="translate(597.2089962009435 528.1398530170148) rotate(0 13.34765625 9.199999999999989)"><text x="0" y="14.720312499999999" font-family="Helvetica, Segoe UI Emoji" font-size="16px" fill="#1e1e1e" text-anchor="start" style="white-space: pre;" direction="ltr" dominant-baseline="alphabetic">690</text></g><g transform="translate(451.2081986247119 529.3109308311928) rotate(0 4.44921875 9.199999999999989)"><text x="0" y="14.720312499999999" font-family="Helvetica, Segoe UI Emoji" font-size="16px" fill="#1e1e1e" text-anchor="start" style="white-space: pre;" direction="ltr" dominant-baseline="alphabetic">0</text></g><g transform="translate(451.92039902862564 617.9590342325088) rotate(0 4.44921875 9.199999999999989)"><text x="0" y="14.720312499999999" font-family="Helvetica, Segoe UI Emoji" font-size="16px" fill="#1e1e1e" text-anchor="start" style="white-space: pre;" direction="ltr" dominant-baseline="alphabetic">0</text></g><g transform="translate(532.5982907180913 617.2370010040062) rotate(0 4.44921875 9.199999999999989)"><text x="0" y="14.720312499999999" font-family="Helvetica, Segoe UI Emoji" font-size="16px" fill="#1e1e1e" text-anchor="start" style="white-space: pre;" direction="ltr" dominant-baseline="alphabetic">0</text></g><g transform="translate(607.6920923133794 619.1407227154295) rotate(0 4.44921875 9.199999999999989)"><text x="0" y="14.720312499999999" font-family="Helvetica, Segoe UI Emoji" font-size="16px" fill="#1e1e1e" text-anchor="start" style="white-space: pre;" direction="ltr" dominant-baseline="alphabetic">0</text></g><g transform="translate(284.6642970489452 86.15381819090132) rotate(0 95.76762179481065 9.434949504356155)"><text x="0" y="15.096239687591584" font-family="Helvetica, Segoe UI Emoji" font-size="16.408607833662863px" fill="#1e1e1e" text-anchor="start" style="white-space: pre;" direction="ltr" dominant-baseline="alphabetic">Species distribution model</text></g><g transform="translate(255.38928835014121 356.62397591974957) rotate(0 116.744140625 32.19999999999999)"><text x="116.744140625" y="25.760546874999996" font-family="Helvetica, Segoe UI Emoji" font-size="28px" fill="#1e1e1e" text-anchor="middle" style="white-space: pre;" direction="ltr" dominant-baseline="alphabetic">2D stepping stone </text><text x="116.744140625" y="57.96054687499999" font-family="Helvetica, Segoe UI Emoji" font-size="28px" fill="#1e1e1e" text-anchor="middle" style="white-space: pre;" direction="ltr" dominant-baseline="alphabetic">      model</text></g><g transform="translate(154.60813852113438 661.6968071203304) rotate(0 18.8916015625 11.5)"><text x="0" y="18.400390625" font-family="Helvetica, Segoe UI Emoji" font-size="20px" fill="#1e1e1e" text-anchor="start" style="white-space: pre;" direction="ltr" dominant-baseline="alphabetic">max</text></g><g transform="translate(195.3341087842241 672.226938143588) rotate(0 24.453125 9.199999999999989)"><text x="0" y="14.720312499999999" font-family="Helvetica, Segoe UI Emoji" font-size="16px" fill="#1e1e1e" text-anchor="start" style="white-space: pre;" direction="ltr" dominant-baseline="alphabetic">local N</text></g><g transform="translate(255.56811060421376 664.5950916381767) rotate(0 30.8642578125 11.5)"><text x="0" y="18.400390625" font-family="Helvetica, Segoe UI Emoji" font-size="20px" fill="#1e1e1e" text-anchor="start" style="white-space: pre;" direction="ltr" dominant-baseline="alphabetic">= 1000</text></g><g transform="translate(393.7824380165164 665.1241871547951) rotate(0 150.6298828125 11.5)"><text x="0" y="18.400390625" font-family="Helvetica, Segoe UI Emoji" font-size="20px" fill="#1e1e1e" text-anchor="start" style="white-space: pre;" direction="ltr" dominant-baseline="alphabetic">local N = avg(linear local N) = 690</text></g><g stroke-linecap="round"><g transform="translate(258.7984526981538 448.8922158525145) rotate(0 13.054711253892606 -0.18370505474894117)"><path d="M0 0 C8.23 -0.12, 16.46 -0.23, 26.11 -0.37 M0 0 C9.39 -0.13, 18.79 -0.26, 26.11 -0.37" stroke="#1e1e1e" stroke-width="1" fill="none"></path></g><g transform="translate(258.7984526981538 448.8922158525145) rotate(0 13.054711253892606 -0.18370505474894117)"><path d="M13.9 4.27 C17.75 2.81, 21.6 1.35, 26.11 -0.37 M13.9 4.27 C18.3 2.6, 22.69 0.93, 26.11 -0.37" stroke="#1e1e1e" stroke-width="1" fill="none"></path></g><g transform="translate(258.7984526981538 448.8922158525145) rotate(0 13.054711253892606 -0.18370505474894117)"><path d="M13.78 -4.66 C17.67 -3.31, 21.55 -1.95, 26.11 -0.37 M13.78 -4.66 C18.21 -3.12, 22.65 -1.57, 26.11 -0.37" stroke="#1e1e1e" stroke-width="1" fill="none"></path></g></g><mask></mask><g stroke-linecap="round"><g transform="translate(283.758681132311 468.0180137258103) rotate(0 -12.433542909972147 0.07395862918679086)"><path d="M0 0 C-5.37 0.03, -10.75 0.06, -24.87 0.15 M0 0 C-8.26 0.05, -16.51 0.1, -24.87 0.15" stroke="#1e1e1e" stroke-width="1" fill="none"></path></g><g transform="translate(283.758681132311 468.0180137258103) rotate(0 -12.433542909972147 0.07395862918679086)"><path d="M-13.21 -4.17 C-15.73 -3.24, -18.25 -2.31, -24.87 0.15 M-13.21 -4.17 C-17.08 -2.74, -20.95 -1.3, -24.87 0.15" stroke="#1e1e1e" stroke-width="1" fill="none"></path></g><g transform="translate(283.758681132311 468.0180137258103) rotate(0 -12.433542909972147 0.07395862918679086)"><path d="M-13.16 4.33 C-15.69 3.43, -18.22 2.52, -24.87 0.15 M-13.16 4.33 C-17.05 2.94, -20.93 1.55, -24.87 0.15" stroke="#1e1e1e" stroke-width="1" fill="none"></path></g></g><mask></mask><g stroke-linecap="round"><g transform="translate(183.77059424818015 530.2213806160808) rotate(0 13.085542095492372 0)"><path d="M0 0 C8.17 0, 16.33 0, 26.17 0 M0 0 C9.62 0, 19.23 0, 26.17 0" stroke="#1e1e1e" stroke-width="1" fill="none"></path></g><g transform="translate(183.77059424818015 530.2213806160808) rotate(0 13.085542095492372 0)"><path d="M13.87 4.48 C17.71 3.08, 21.55 1.68, 26.17 0 M13.87 4.48 C18.39 2.83, 22.91 1.19, 26.17 0" stroke="#1e1e1e" stroke-width="1" fill="none"></path></g><g transform="translate(183.77059424818015 530.2213806160808) rotate(0 13.085542095492372 0)"><path d="M13.87 -4.48 C17.71 -3.08, 21.55 -1.68, 26.17 0 M13.87 -4.48 C18.39 -2.83, 22.91 -1.19, 26.17 0" stroke="#1e1e1e" stroke-width="1" fill="none"></path></g></g><mask></mask><g stroke-linecap="round"><g transform="translate(208.79382072446288 549.4557501017748) rotate(0 -12.424646337752023 -0.08952449507143001)"><path d="M0 0 C-9.18 -0.07, -18.35 -0.13, -24.85 -0.18 M0 0 C-7.55 -0.05, -15.1 -0.11, -24.85 -0.18" stroke="#1e1e1e" stroke-width="1" fill="none"></path></g><g transform="translate(208.79382072446288 549.4557501017748) rotate(0 -12.424646337752023 -0.08952449507143001)"><path d="M-13.14 -4.34 C-17.47 -2.81, -21.79 -1.27, -24.85 -0.18 M-13.14 -4.34 C-16.7 -3.08, -20.26 -1.81, -24.85 -0.18" stroke="#1e1e1e" stroke-width="1" fill="none"></path></g><g transform="translate(208.79382072446288 549.4557501017748) rotate(0 -12.424646337752023 -0.08952449507143001)"><path d="M-13.2 4.15 C-17.51 2.55, -21.81 0.95, -24.85 -0.18 M-13.2 4.15 C-16.74 2.84, -20.28 1.52, -24.85 -0.18" stroke="#1e1e1e" stroke-width="1" fill="none"></path></g></g><mask></mask><g stroke-linecap="round"><g transform="translate(261.40690317086126 530.0466553907993) rotate(0 12.56218954260325 0)"><path d="M0 0 C7.39 0, 14.78 0, 25.12 0 M0 0 C7.41 0, 14.82 0, 25.12 0" stroke="#1e1e1e" stroke-width="1" fill="none"></path></g><g transform="translate(261.40690317086126 530.0466553907993) rotate(0 12.56218954260325 0)"><path d="M13.32 4.3 C16.79 3.03, 20.26 1.77, 25.12 0 M13.32 4.3 C16.8 3.03, 20.28 1.76, 25.12 0" stroke="#1e1e1e" stroke-width="1" fill="none"></path></g><g transform="translate(261.40690317086126 530.0466553907993) rotate(0 12.56218954260325 0)"><path d="M13.32 -4.3 C16.79 -3.03, 20.26 -1.77, 25.12 0 M13.32 -4.3 C16.8 -3.03, 20.28 -1.76, 25.12 0" stroke="#1e1e1e" stroke-width="1" fill="none"></path></g></g><mask></mask><g stroke-linecap="round"><g transform="translate(285.4711105482341 549.281756214926) rotate(0 -11.944846719534382 -0.08736051536436662)"><path d="M0 0 C-7.5 -0.05, -15.01 -0.11, -23.89 -0.17 M0 0 C-8.63 -0.06, -17.25 -0.13, -23.89 -0.17" stroke="#1e1e1e" stroke-width="1" fill="none"></path></g><g transform="translate(285.4711105482341 549.281756214926) rotate(0 -11.944846719534382 -0.08736051536436662)"><path d="M-12.64 -4.18 C-16.17 -2.92, -19.71 -1.66, -23.89 -0.17 M-12.64 -4.18 C-16.7 -2.73, -20.76 -1.29, -23.89 -0.17" stroke="#1e1e1e" stroke-width="1" fill="none"></path></g><g transform="translate(285.4711105482341 549.281756214926) rotate(0 -11.944846719534382 -0.08736051536436662)"><path d="M-12.7 3.99 C-16.21 2.68, -19.73 1.37, -23.89 -0.17 M-12.7 3.99 C-16.74 2.49, -20.78 0.98, -23.89 -0.17" stroke="#1e1e1e" stroke-width="1" fill="none"></path></g></g><mask></mask><g stroke-linecap="round"><g transform="translate(187.15895436297944 619.2128895231394) rotate(0 14.02064253905894 0)"><path d="M0 0 C6.03 0, 12.05 0, 28.04 0 M0 0 C7.4 0, 14.79 0, 28.04 0" stroke="#1e1e1e" stroke-width="1" fill="none"></path></g><g transform="translate(187.15895436297944 619.2128895231394) rotate(0 14.02064253905894 0)"><path d="M14.87 4.8 C17.7 3.76, 20.53 2.73, 28.04 0 M14.87 4.8 C18.34 3.53, 21.82 2.27, 28.04 0" stroke="#1e1e1e" stroke-width="1" fill="none"></path></g><g transform="translate(187.15895436297944 619.2128895231394) rotate(0 14.02064253905894 0)"><path d="M14.87 -4.8 C17.7 -3.76, 20.53 -2.73, 28.04 0 M14.87 -4.8 C18.34 -3.53, 21.82 -2.27, 28.04 0" stroke="#1e1e1e" stroke-width="1" fill="none"></path></g></g><mask></mask><g stroke-linecap="round"><g transform="translate(214.0996977033701 638.4504144846089) rotate(0 -13.424646337752023 -0.09440451621065904)"><path d="M0 0 C-7.48 -0.05, -14.96 -0.11, -26.85 -0.19 M0 0 C-7.72 -0.05, -15.45 -0.11, -26.85 -0.19" stroke="#1e1e1e" stroke-width="1" fill="none"></path></g><g transform="translate(214.0996977033701 638.4504144846089) rotate(0 -13.424646337752023 -0.09440451621065904)"><path d="M-14.2 -4.69 C-17.73 -3.44, -21.25 -2.18, -26.85 -0.19 M-14.2 -4.69 C-17.84 -3.4, -21.48 -2.1, -26.85 -0.19" stroke="#1e1e1e" stroke-width="1" fill="none"></path></g><g transform="translate(214.0996977033701 638.4504144846089) rotate(0 -13.424646337752023 -0.09440451621065904)"><path d="M-14.27 4.49 C-17.77 3.19, -21.28 1.88, -26.85 -0.19 M-14.27 4.49 C-17.89 3.14, -21.51 1.8, -26.85 -0.19" stroke="#1e1e1e" stroke-width="1" fill="none"></path></g></g><mask></mask><g stroke-linecap="round"><g transform="translate(262.1020291130918 621.9441027527878) rotate(0 14.02064253905894 -0.5688365236186428)"><path d="M0 0 C9.96 -0.4, 19.93 -0.81, 28.04 -1.14 M0 0 C9.71 -0.39, 19.41 -0.79, 28.04 -1.14" stroke="#1e1e1e" stroke-width="1" fill="none"></path></g><g transform="translate(262.1020291130918 621.9441027527878) rotate(0 14.02064253905894 -0.5688365236186428)"><path d="M15.06 4.19 C19.67 2.3, 24.28 0.4, 28.04 -1.14 M15.06 4.19 C19.55 2.35, 24.05 0.5, 28.04 -1.14" stroke="#1e1e1e" stroke-width="1" fill="none"></path></g><g transform="translate(262.1020291130918 621.9441027527878) rotate(0 14.02064253905894 -0.5688365236186428)"><path d="M14.67 -5.4 C19.42 -3.88, 24.17 -2.37, 28.04 -1.14 M14.67 -5.4 C19.3 -3.92, 23.93 -2.45, 28.04 -1.14" stroke="#1e1e1e" stroke-width="1" fill="none"></path></g></g><mask></mask><g stroke-linecap="round"><g transform="translate(289.3420573836639 640.488519349301) rotate(0 -13.811853060095473 0.23938924921401394)"><path d="M0 0 C-5.54 0.1, -11.07 0.19, -27.62 0.48 M0 0 C-7.09 0.12, -14.17 0.25, -27.62 0.48" stroke="#1e1e1e" stroke-width="1" fill="none"></path></g><g transform="translate(289.3420573836639 640.488519349301) rotate(0 -13.811853060095473 0.23938924921401394)"><path d="M-14.73 -4.47 C-17.31 -3.48, -19.9 -2.49, -27.62 0.48 M-14.73 -4.47 C-18.04 -3.2, -21.34 -1.93, -27.62 0.48" stroke="#1e1e1e" stroke-width="1" fill="none"></path></g><g transform="translate(289.3420573836639 640.488519349301) rotate(0 -13.811853060095473 0.23938924921401394)"><path d="M-14.56 4.98 C-17.18 4.08, -19.8 3.17, -27.62 0.48 M-14.56 4.98 C-17.91 3.82, -21.26 2.67, -27.62 0.48" stroke="#1e1e1e" stroke-width="1" fill="none"></path></g></g><mask></mask><g stroke-linecap="round"><g transform="translate(477.461627785024 446.1502966082213) rotate(0 15.527700152868078 0)"><path d="M0 0 C12.42 0, 24.84 0, 31.06 0 M0 0 C9.73 0, 19.45 0, 31.06 0" stroke="#1e1e1e" stroke-width="1" fill="none"></path></g><g transform="translate(477.461627785024 446.1502966082213) rotate(0 15.527700152868078 0)"><path d="M16.46 5.31 C22.3 3.19, 28.13 1.06, 31.06 0 M16.46 5.31 C21.03 3.65, 25.6 1.98, 31.06 0" stroke="#1e1e1e" stroke-width="1" fill="none"></path></g><g transform="translate(477.461627785024 446.1502966082213) rotate(0 15.527700152868078 0)"><path d="M16.46 -5.31 C22.3 -3.19, 28.13 -1.06, 31.06 0 M16.46 -5.31 C21.03 -3.65, 25.6 -1.98, 31.06 0" stroke="#1e1e1e" stroke-width="1" fill="none"></path></g></g><mask></mask><g stroke-linecap="round"><g transform="translate(507.405566868076 465.39208863786257) rotate(0 -14.941054031034 -0.10129828775137639)"><path d="M0 0 C-11.51 -0.08, -23.02 -0.16, -29.88 -0.2 M0 0 C-7.65 -0.05, -15.31 -0.1, -29.88 -0.2" stroke="#1e1e1e" stroke-width="1" fill="none"></path></g><g transform="translate(507.405566868076 465.39208863786257) rotate(0 -14.941054031034 -0.10129828775137639)"><path d="M-15.81 -5.22 C-21.23 -3.29, -26.65 -1.35, -29.88 -0.2 M-15.81 -5.22 C-19.41 -3.93, -23.02 -2.65, -29.88 -0.2" stroke="#1e1e1e" stroke-width="1" fill="none"></path></g><g transform="translate(507.405566868076 465.39208863786257) rotate(0 -14.941054031034 -0.10129828775137639)"><path d="M-15.88 5 C-21.27 3, -26.67 0.99, -29.88 -0.2 M-15.88 5 C-19.46 3.67, -23.05 2.34, -29.88 -0.2" stroke="#1e1e1e" stroke-width="1" fill="none"></path></g></g><mask></mask><g stroke-linecap="round"><g transform="translate(557.3085629092004 447.6931765223576) rotate(0 13.045442415843688 0)"><path d="M0 0 C10.09 0, 20.18 0, 26.09 0 M0 0 C9.49 0, 18.98 0, 26.09 0" stroke="#1e1e1e" stroke-width="1" fill="none"></path></g><g transform="translate(557.3085629092004 447.6931765223576) rotate(0 13.045442415843688 0)"><path d="M13.83 4.46 C18.57 2.74, 23.31 1.01, 26.09 0 M13.83 4.46 C18.29 2.84, 22.75 1.22, 26.09 0" stroke="#1e1e1e" stroke-width="1" fill="none"></path></g><g transform="translate(557.3085629092004 447.6931765223576) rotate(0 13.045442415843688 0)"><path d="M13.83 -4.46 C18.57 -2.74, 23.31 -1.01, 26.09 0 M13.83 -4.46 C18.29 -2.84, 22.75 -1.22, 26.09 0" stroke="#1e1e1e" stroke-width="1" fill="none"></path></g></g><mask></mask><g stroke-linecap="round"><g transform="translate(582.2935578136035 466.92770283081177) rotate(0 -12.507800163846543 -0.09004034266757799)"><path d="M0 0 C-9.82 -0.07, -19.64 -0.14, -25.02 -0.18 M0 0 C-9 -0.06, -18.01 -0.13, -25.02 -0.18" stroke="#1e1e1e" stroke-width="1" fill="none"></path></g><g transform="translate(582.2935578136035 466.92770283081177) rotate(0 -12.507800163846543 -0.09004034266757799)"><path d="M-13.23 -4.37 C-17.86 -2.73, -22.48 -1.08, -25.02 -0.18 M-13.23 -4.37 C-17.47 -2.86, -21.72 -1.35, -25.02 -0.18" stroke="#1e1e1e" stroke-width="1" fill="none"></path></g><g transform="translate(582.2935578136035 466.92770283081177) rotate(0 -12.507800163846543 -0.09004034266757799)"><path d="M-13.29 4.18 C-17.89 2.47, -22.5 0.76, -25.02 -0.18 M-13.29 4.18 C-17.51 2.61, -21.73 1.04, -25.02 -0.18" stroke="#1e1e1e" stroke-width="1" fill="none"></path></g></g><mask></mask><g stroke-linecap="round"><g transform="translate(481.31182591104164 528.562736174367) rotate(0 13.520642539058954 0)"><path d="M0 0 C5.69 0, 11.38 0, 27.04 0 M0 0 C8.41 0, 16.82 0, 27.04 0" stroke="#1e1e1e" stroke-width="1" fill="none"></path></g><g transform="translate(481.31182591104164 528.562736174367) rotate(0 13.520642539058954 0)"><path d="M14.34 4.62 C17.01 3.65, 19.68 2.68, 27.04 0 M14.34 4.62 C18.29 3.19, 22.24 1.75, 27.04 0" stroke="#1e1e1e" stroke-width="1" fill="none"></path></g><g transform="translate(481.31182591104164 528.562736174367) rotate(0 13.520642539058954 0)"><path d="M14.34 -4.62 C17.01 -3.65, 19.68 -2.68, 27.04 0 M14.34 -4.62 C18.29 -3.19, 22.24 -1.75, 27.04 0" stroke="#1e1e1e" stroke-width="1" fill="none"></path></g></g><mask></mask><g stroke-linecap="round"><g transform="translate(507.2890321911416 547.7981087171529) rotate(0 -12.942877807606635 -0.0920315526293507)"><path d="M0 0 C-7.34 -0.05, -14.68 -0.1, -25.89 -0.18 M0 0 C-5.96 -0.04, -11.92 -0.08, -25.89 -0.18" stroke="#1e1e1e" stroke-width="1" fill="none"></path></g><g transform="translate(507.2890321911416 547.7981087171529) rotate(0 -12.942877807606635 -0.0920315526293507)"><path d="M-13.69 -4.52 C-17.15 -3.29, -20.61 -2.06, -25.89 -0.18 M-13.69 -4.52 C-16.5 -3.53, -19.31 -2.53, -25.89 -0.18" stroke="#1e1e1e" stroke-width="1" fill="none"></path></g><g transform="translate(507.2890321911416 547.7981087171529) rotate(0 -12.942877807606635 -0.0920315526293507)"><path d="M-13.75 4.33 C-17.19 3.05, -20.63 1.77, -25.89 -0.18 M-13.75 4.33 C-16.55 3.29, -19.34 2.25, -25.89 -0.18" stroke="#1e1e1e" stroke-width="1" fill="none"></path></g></g><mask></mask><g stroke-linecap="round"><g transform="translate(560.7971607704739 528.3001218009497) rotate(0 12.52068812239878 0)"><path d="M0 0 C8.46 0, 16.92 0, 25.04 0 M0 0 C7.66 0, 15.32 0, 25.04 0" stroke="#1e1e1e" stroke-width="1" fill="none"></path></g><g transform="translate(560.7971607704739 528.3001218009497) rotate(0 12.52068812239878 0)"><path d="M13.28 4.28 C17.25 2.84, 21.22 1.39, 25.04 0 M13.28 4.28 C16.87 2.97, 20.47 1.66, 25.04 0" stroke="#1e1e1e" stroke-width="1" fill="none"></path></g><g transform="translate(560.7971607704739 528.3001218009497) rotate(0 12.52068812239878 0)"><path d="M13.28 -4.28 C17.25 -2.84, 21.22 -1.39, 25.04 0 M13.28 -4.28 C16.87 -2.97, 20.47 -1.66, 25.04 0" stroke="#1e1e1e" stroke-width="1" fill="none"></path></g></g><mask></mask><g stroke-linecap="round"><g transform="translate(584.7776358449512 547.5334040881186) rotate(0 -11.952460794094378 -0.08720592540572625)"><path d="M0 0 C-5.04 -0.04, -10.07 -0.07, -23.9 -0.17 M0 0 C-7.85 -0.06, -15.71 -0.11, -23.9 -0.17" stroke="#1e1e1e" stroke-width="1" fill="none"></path></g><g transform="translate(584.7776358449512 547.5334040881186) rotate(0 -11.952460794094378 -0.08720592540572625)"><path d="M-12.64 -4.18 C-15.02 -3.34, -17.39 -2.49, -23.9 -0.17 M-12.64 -4.18 C-16.34 -2.86, -20.04 -1.55, -23.9 -0.17" stroke="#1e1e1e" stroke-width="1" fill="none"></path></g><g transform="translate(584.7776358449512 547.5334040881186) rotate(0 -11.952460794094378 -0.08720592540572625)"><path d="M-12.7 4 C-15.06 3.12, -17.42 2.24, -23.9 -0.17 M-12.7 4 C-16.38 2.63, -20.06 1.26, -23.9 -0.17" stroke="#1e1e1e" stroke-width="1" fill="none"></path></g></g><mask></mask><g stroke-linecap="round"><g transform="translate(482.91314540096107 617.8437839011991) rotate(0 13.020642539058954 0)"><path d="M0 0 C6.65 0, 13.29 0, 26.04 0 M0 0 C6.24 0, 12.47 0, 26.04 0" stroke="#1e1e1e" stroke-width="1" fill="none"></path></g><g transform="translate(482.91314540096107 617.8437839011991) rotate(0 13.020642539058954 0)"><path d="M13.81 4.45 C16.93 3.32, 20.05 2.18, 26.04 0 M13.81 4.45 C16.74 3.39, 19.67 2.32, 26.04 0" stroke="#1e1e1e" stroke-width="1" fill="none"></path></g><g transform="translate(482.91314540096107 617.8437839011991) rotate(0 13.020642539058954 0)"><path d="M13.81 -4.45 C16.93 -3.32, 20.05 -2.18, 26.04 0 M13.81 -4.45 C16.74 -3.39, 19.67 -2.32, 26.04 0" stroke="#1e1e1e" stroke-width="1" fill="none"></path></g></g><mask></mask><g stroke-linecap="round"><g transform="translate(507.85388874135185 637.0753630928089) rotate(0 -12.424646337752023 -0.08905464504277916)"><path d="M0 0 C-6.86 -0.05, -13.72 -0.1, -24.85 -0.18 M0 0 C-8.61 -0.06, -17.22 -0.12, -24.85 -0.18" stroke="#1e1e1e" stroke-width="1" fill="none"></path></g><g transform="translate(507.85388874135185 637.0753630928089) rotate(0 -12.424646337752023 -0.08905464504277916)"><path d="M-13.14 -4.34 C-16.37 -3.19, -19.61 -2.04, -24.85 -0.18 M-13.14 -4.34 C-17.2 -2.9, -21.25 -1.46, -24.85 -0.18" stroke="#1e1e1e" stroke-width="1" fill="none"></path></g><g transform="translate(507.85388874135185 637.0753630928089) rotate(0 -12.424646337752023 -0.08905464504277916)"><path d="M-13.2 4.16 C-16.42 2.96, -19.63 1.76, -24.85 -0.18 M-13.2 4.16 C-17.24 2.65, -21.27 1.15, -24.85 -0.18" stroke="#1e1e1e" stroke-width="1" fill="none"></path></g></g><mask></mask><g stroke-linecap="round"><g transform="translate(559.5981604491179 620.1197751374816) rotate(0 13.520642539058954 0)"><path d="M0 0 C10.79 0, 21.58 0, 27.04 0 M0 0 C8.53 0, 17.07 0, 27.04 0" stroke="#1e1e1e" stroke-width="1" fill="none"></path></g><g transform="translate(559.5981604491179 620.1197751374816) rotate(0 13.520642539058954 0)"><path d="M14.34 4.62 C19.41 2.78, 24.48 0.93, 27.04 0 M14.34 4.62 C18.35 3.17, 22.35 1.71, 27.04 0" stroke="#1e1e1e" stroke-width="1" fill="none"></path></g><g transform="translate(559.5981604491179 620.1197751374816) rotate(0 13.520642539058954 0)"><path d="M14.34 -4.62 C19.41 -2.78, 24.48 -0.93, 27.04 0 M14.34 -4.62 C18.35 -3.17, 22.35 -1.71, 27.04 0" stroke="#1e1e1e" stroke-width="1" fill="none"></path></g></g><mask></mask><g stroke-linecap="round"><g transform="translate(585.5389037895087 639.3534902584709) rotate(0 -12.924646337752023 -0.09159591679770074)"><path d="M0 0 C-8.65 -0.06, -17.31 -0.12, -25.85 -0.18 M0 0 C-6.79 -0.05, -13.58 -0.1, -25.85 -0.18" stroke="#1e1e1e" stroke-width="1" fill="none"></path></g><g transform="translate(585.5389037895087 639.3534902584709) rotate(0 -12.924646337752023 -0.09159591679770074)"><path d="M-13.67 -4.52 C-17.75 -3.07, -21.83 -1.62, -25.85 -0.18 M-13.67 -4.52 C-16.87 -3.38, -20.07 -2.24, -25.85 -0.18" stroke="#1e1e1e" stroke-width="1" fill="none"></path></g><g transform="translate(585.5389037895087 639.3534902584709) rotate(0 -12.924646337752023 -0.09159591679770074)"><path d="M-13.74 4.32 C-17.79 2.81, -21.85 1.31, -25.85 -0.18 M-13.74 4.32 C-16.92 3.14, -20.1 1.96, -25.85 -0.18" stroke="#1e1e1e" stroke-width="1" fill="none"></path></g></g><mask></mask><g stroke-linecap="round"><g transform="translate(213.8602266677437 498.1325825012749) rotate(267.32195676919287 14.02156778805903 0.6471628944615873)"><path d="M0 0 C9.56 0.44, 19.12 0.88, 28.04 1.29 M0 0 C6.86 0.32, 13.72 0.63, 28.04 1.29" stroke="#1e1e1e" stroke-width="1" fill="none"></path></g><g transform="translate(213.8602266677437 498.1325825012749) rotate(267.32195676919287 14.02156778805903 0.6471628944615873)"><path d="M14.65 5.48 C19.21 4.05, 23.78 2.63, 28.04 1.29 M14.65 5.48 C17.92 4.46, 21.2 3.43, 28.04 1.29" stroke="#1e1e1e" stroke-width="1" fill="none"></path></g><g transform="translate(213.8602266677437 498.1325825012749) rotate(267.32195676919287 14.02156778805903 0.6471628944615873)"><path d="M15.09 -4.11 C19.5 -2.27, 23.92 -0.43, 28.04 1.29 M15.09 -4.11 C18.26 -2.79, 21.43 -1.47, 28.04 1.29" stroke="#1e1e1e" stroke-width="1" fill="none"></path></g></g><mask></mask><g stroke-linecap="round"><g transform="translate(259.89078866054064 499.6201762966217) rotate(267.32195676919287 -13.584197762095386 -0.41147045028543516)"><path d="M0 0 C-6.79 -0.21, -13.57 -0.41, -27.17 -0.82 M0 0 C-9.56 -0.29, -19.12 -0.58, -27.17 -0.82" stroke="#1e1e1e" stroke-width="1" fill="none"></path></g><g transform="translate(259.89078866054064 499.6201762966217) rotate(267.32195676919287 -13.584197762095386 -0.41147045028543516)"><path d="M-14.26 -5.08 C-17.49 -4.02, -20.71 -2.95, -27.17 -0.82 M-14.26 -5.08 C-18.8 -3.58, -23.34 -2.09, -27.17 -0.82" stroke="#1e1e1e" stroke-width="1" fill="none"></path></g><g transform="translate(259.89078866054064 499.6201762966217) rotate(267.32195676919287 -13.584197762095386 -0.41147045028543516)"><path d="M-14.54 4.21 C-17.7 2.95, -20.85 1.7, -27.17 -0.82 M-14.54 4.21 C-18.99 2.44, -23.43 0.67, -27.17 -0.82" stroke="#1e1e1e" stroke-width="1" fill="none"></path></g></g><mask></mask><g stroke-linecap="round"><g transform="translate(286.45984799076865 498.3827949736161) rotate(267.32195676919287 14.02156778805903 0.6471628944615873)"><path d="M0 0 C9.52 0.44, 19.04 0.88, 28.04 1.29 M0 0 C8.25 0.38, 16.5 0.76, 28.04 1.29" stroke="#1e1e1e" stroke-width="1" fill="none"></path></g><g transform="translate(286.45984799076865 498.3827949736161) rotate(267.32195676919287 14.02156778805903 0.6471628944615873)"><path d="M14.65 5.48 C19.19 4.06, 23.74 2.64, 28.04 1.29 M14.65 5.48 C18.59 4.25, 22.53 3.02, 28.04 1.29" stroke="#1e1e1e" stroke-width="1" fill="none"></path></g><g transform="translate(286.45984799076865 498.3827949736161) rotate(267.32195676919287 14.02156778805903 0.6471628944615873)"><path d="M15.09 -4.11 C19.49 -2.28, 23.88 -0.44, 28.04 1.29 M15.09 -4.11 C18.9 -2.52, 22.71 -0.93, 28.04 1.29" stroke="#1e1e1e" stroke-width="1" fill="none"></path></g></g><mask></mask><g stroke-linecap="round"><g transform="translate(332.4904099835656 499.8703887689627) rotate(267.32195676919287 -13.584197762095386 -0.41147045028543516)"><path d="M0 0 C-6.01 -0.18, -12.03 -0.36, -27.17 -0.82 M0 0 C-5.52 -0.17, -11.03 -0.33, -27.17 -0.82" stroke="#1e1e1e" stroke-width="1" fill="none"></path></g><g transform="translate(332.4904099835656 499.8703887689627) rotate(267.32195676919287 -13.584197762095386 -0.41147045028543516)"><path d="M-14.26 -5.08 C-17.12 -4.14, -19.98 -3.2, -27.17 -0.82 M-14.26 -5.08 C-16.88 -4.22, -19.5 -3.35, -27.17 -0.82" stroke="#1e1e1e" stroke-width="1" fill="none"></path></g><g transform="translate(332.4904099835656 499.8703887689627) rotate(267.32195676919287 -13.584197762095386 -0.41147045028543516)"><path d="M-14.54 4.21 C-17.34 3.1, -20.13 1.98, -27.17 -0.82 M-14.54 4.21 C-17.11 3.19, -19.67 2.17, -27.17 -0.82" stroke="#1e1e1e" stroke-width="1" fill="none"></path></g></g><mask></mask><g stroke-linecap="round"><g transform="translate(137.0100979840072 582.8534634019392) rotate(267.32195676919287 14.02156778805903 0.6471628944615873)"><path d="M0 0 C6.24 0.29, 12.47 0.58, 28.04 1.29 M0 0 C7.2 0.33, 14.4 0.66, 28.04 1.29" stroke="#1e1e1e" stroke-width="1" fill="none"></path></g><g transform="translate(137.0100979840072 582.8534634019392) rotate(267.32195676919287 14.02156778805903 0.6471628944615873)"><path d="M14.65 5.48 C17.62 4.55, 20.6 3.62, 28.04 1.29 M14.65 5.48 C18.09 4.41, 21.52 3.33, 28.04 1.29" stroke="#1e1e1e" stroke-width="1" fill="none"></path></g><g transform="translate(137.0100979840072 582.8534634019392) rotate(267.32195676919287 14.02156778805903 0.6471628944615873)"><path d="M15.09 -4.11 C17.97 -2.91, 20.85 -1.71, 28.04 1.29 M15.09 -4.11 C18.41 -2.72, 21.74 -1.33, 28.04 1.29" stroke="#1e1e1e" stroke-width="1" fill="none"></path></g></g><mask></mask><g stroke-linecap="round"><g transform="translate(183.0406599768039 584.341057197286) rotate(267.32195676919287 -13.584197762095386 -0.41147045028543516)"><path d="M0 0 C-9.09 -0.28, -18.18 -0.55, -27.17 -0.82 M0 0 C-10.76 -0.33, -21.52 -0.65, -27.17 -0.82" stroke="#1e1e1e" stroke-width="1" fill="none"></path></g><g transform="translate(183.0406599768039 584.341057197286) rotate(267.32195676919287 -13.584197762095386 -0.41147045028543516)"><path d="M-14.26 -5.08 C-18.58 -3.66, -22.9 -2.23, -27.17 -0.82 M-14.26 -5.08 C-19.37 -3.4, -24.48 -1.71, -27.17 -0.82" stroke="#1e1e1e" stroke-width="1" fill="none"></path></g><g transform="translate(183.0406599768039 584.341057197286) rotate(267.32195676919287 -13.584197762095386 -0.41147045028543516)"><path d="M-14.54 4.21 C-18.77 2.53, -22.99 0.84, -27.17 -0.82 M-14.54 4.21 C-19.54 2.22, -24.54 0.22, -27.17 -0.82" stroke="#1e1e1e" stroke-width="1" fill="none"></path></g></g><mask></mask><g stroke-linecap="round"><g transform="translate(215.0538332052958 584.0461994928409) rotate(267.32195676919287 14.02156778805903 0.6471628944615873)"><path d="M0 0 C11.2 0.52, 22.39 1.03, 28.04 1.29 M0 0 C10.92 0.5, 21.85 1.01, 28.04 1.29" stroke="#1e1e1e" stroke-width="1" fill="none"></path></g><g transform="translate(215.0538332052958 584.0461994928409) rotate(267.32195676919287 14.02156778805903 0.6471628944615873)"><path d="M14.65 5.48 C19.99 3.81, 25.34 2.14, 28.04 1.29 M14.65 5.48 C19.86 3.85, 25.08 2.22, 28.04 1.29" stroke="#1e1e1e" stroke-width="1" fill="none"></path></g><g transform="translate(215.0538332052958 584.0461994928409) rotate(267.32195676919287 14.02156778805903 0.6471628944615873)"><path d="M15.09 -4.11 C20.26 -1.95, 25.43 0.21, 28.04 1.29 M15.09 -4.11 C20.14 -2, 25.18 0.1, 28.04 1.29" stroke="#1e1e1e" stroke-width="1" fill="none"></path></g></g><mask></mask><g stroke-linecap="round"><g transform="translate(261.0843951980925 585.5337932881877) rotate(267.32195676919287 -13.584197762095386 -0.41147045028543516)"><path d="M0 0 C-7.32 -0.22, -14.64 -0.44, -27.17 -0.82 M0 0 C-9.93 -0.3, -19.87 -0.6, -27.17 -0.82" stroke="#1e1e1e" stroke-width="1" fill="none"></path></g><g transform="translate(261.0843951980925 585.5337932881877) rotate(267.32195676919287 -13.584197762095386 -0.41147045028543516)"><path d="M-14.26 -5.08 C-17.74 -3.93, -21.22 -2.79, -27.17 -0.82 M-14.26 -5.08 C-18.98 -3.53, -23.7 -1.97, -27.17 -0.82" stroke="#1e1e1e" stroke-width="1" fill="none"></path></g><g transform="translate(261.0843951980925 585.5337932881877) rotate(267.32195676919287 -13.584197762095386 -0.41147045028543516)"><path d="M-14.54 4.21 C-17.95 2.85, -21.35 1.5, -27.17 -0.82 M-14.54 4.21 C-19.16 2.37, -23.77 0.53, -27.17 -0.82" stroke="#1e1e1e" stroke-width="1" fill="none"></path></g></g><mask></mask><g stroke-linecap="round"><g transform="translate(290.6790059134301 582.9314897297087) rotate(267.32195676919287 13.022637671861219 0.6009151920396789)"><path d="M0 0 C7.45 0.34, 14.9 0.69, 26.05 1.2 M0 0 C7.22 0.33, 14.43 0.67, 26.05 1.2" stroke="#1e1e1e" stroke-width="1" fill="none"></path></g><g transform="translate(290.6790059134301 582.9314897297087) rotate(267.32195676919287 13.022637671861219 0.6009151920396789)"><path d="M13.6 5.09 C17.16 3.98, 20.72 2.87, 26.05 1.2 M13.6 5.09 C17.05 4.01, 20.5 2.94, 26.05 1.2" stroke="#1e1e1e" stroke-width="1" fill="none"></path></g><g transform="translate(290.6790059134301 582.9314897297087) rotate(267.32195676919287 13.022637671861219 0.6009151920396789)"><path d="M14.01 -3.82 C17.46 -2.38, 20.9 -0.95, 26.05 1.2 M14.01 -3.82 C17.35 -2.43, 20.68 -1.04, 26.05 1.2" stroke="#1e1e1e" stroke-width="1" fill="none"></path></g></g><mask></mask><g stroke-linecap="round"><g transform="translate(334.7074711994783 584.3354702836194) rotate(267.32195676919287 -12.5848521850169 -0.3741049112712176)"><path d="M0 0 C-5.95 -0.18, -11.9 -0.35, -25.17 -0.75 M0 0 C-5.47 -0.16, -10.94 -0.33, -25.17 -0.75" stroke="#1e1e1e" stroke-width="1" fill="none"></path></g><g transform="translate(334.7074711994783 584.3354702836194) rotate(267.32195676919287 -12.5848521850169 -0.3741049112712176)"><path d="M-13.22 -4.7 C-16.04 -3.77, -18.87 -2.83, -25.17 -0.75 M-13.22 -4.7 C-15.81 -3.84, -18.41 -2.98, -25.17 -0.75" stroke="#1e1e1e" stroke-width="1" fill="none"></path></g><g transform="translate(334.7074711994783 584.3354702836194) rotate(267.32195676919287 -12.5848521850169 -0.3741049112712176)"><path d="M-13.47 3.91 C-16.24 2.81, -19 1.71, -25.17 -0.75 M-13.47 3.91 C-16.01 2.9, -18.56 1.88, -25.17 -0.75" stroke="#1e1e1e" stroke-width="1" fill="none"></path></g></g><mask></mask><g stroke-linecap="round"><g transform="translate(432.4132903680249 495.7326835058251) rotate(267.32195676919287 14.02156778805903 0.6471628944615873)"><path d="M0 0 C8.46 0.39, 16.91 0.78, 28.04 1.29 M0 0 C9.59 0.44, 19.19 0.89, 28.04 1.29" stroke="#1e1e1e" stroke-width="1" fill="none"></path></g><g transform="translate(432.4132903680249 495.7326835058251) rotate(267.32195676919287 14.02156778805903 0.6471628944615873)"><path d="M14.65 5.48 C18.69 4.22, 22.73 2.96, 28.04 1.29 M14.65 5.48 C19.23 4.05, 23.81 2.62, 28.04 1.29" stroke="#1e1e1e" stroke-width="1" fill="none"></path></g><g transform="translate(432.4132903680249 495.7326835058251) rotate(267.32195676919287 14.02156778805903 0.6471628944615873)"><path d="M15.09 -4.11 C19 -2.48, 22.9 -0.85, 28.04 1.29 M15.09 -4.11 C19.52 -2.26, 23.95 -0.41, 28.04 1.29" stroke="#1e1e1e" stroke-width="1" fill="none"></path></g></g><mask></mask><g stroke-linecap="round"><g transform="translate(478.4438523608216 497.22027730117213) rotate(267.32195676919287 -13.584197762095386 -0.41147045028543516)"><path d="M0 0 C-7.33 -0.22, -14.66 -0.44, -27.17 -0.82 M0 0 C-9.81 -0.3, -19.62 -0.59, -27.17 -0.82" stroke="#1e1e1e" stroke-width="1" fill="none"></path></g><g transform="translate(478.4438523608216 497.22027730117213) rotate(267.32195676919287 -13.584197762095386 -0.41147045028543516)"><path d="M-14.26 -5.08 C-17.74 -3.93, -21.23 -2.78, -27.17 -0.82 M-14.26 -5.08 C-18.92 -3.54, -23.58 -2.01, -27.17 -0.82" stroke="#1e1e1e" stroke-width="1" fill="none"></path></g><g transform="translate(478.4438523608216 497.22027730117213) rotate(267.32195676919287 -13.584197762095386 -0.41147045028543516)"><path d="M-14.54 4.21 C-17.95 2.85, -21.36 1.49, -27.17 -0.82 M-14.54 4.21 C-19.1 2.39, -23.66 0.57, -27.17 -0.82" stroke="#1e1e1e" stroke-width="1" fill="none"></path></g></g><mask></mask><g stroke-linecap="round"><g transform="translate(509.936210692672 494.8552156225853) rotate(267.32195676919287 14.02156778805903 0.6471628944615873)"><path d="M0 0 C5.65 0.26, 11.29 0.52, 28.04 1.29 M0 0 C5.63 0.26, 11.26 0.52, 28.04 1.29" stroke="#1e1e1e" stroke-width="1" fill="none"></path></g><g transform="translate(509.936210692672 494.8552156225853) rotate(267.32195676919287 14.02156778805903 0.6471628944615873)"><path d="M14.65 5.48 C17.34 4.64, 20.04 3.8, 28.04 1.29 M14.65 5.48 C17.34 4.64, 20.03 3.8, 28.04 1.29" stroke="#1e1e1e" stroke-width="1" fill="none"></path></g><g transform="translate(509.936210692672 494.8552156225853) rotate(267.32195676919287 14.02156778805903 0.6471628944615873)"><path d="M15.09 -4.11 C17.7 -3.02, 20.31 -1.93, 28.04 1.29 M15.09 -4.11 C17.69 -3.02, 20.29 -1.94, 28.04 1.29" stroke="#1e1e1e" stroke-width="1" fill="none"></path></g></g><mask></mask><g stroke-linecap="round"><g transform="translate(555.9667726854686 496.34280941793213) rotate(267.32195676919287 -13.584197762095386 -0.41147045028543516)"><path d="M0 0 C-8.19 -0.25, -16.38 -0.5, -27.17 -0.82 M0 0 C-6.42 -0.19, -12.84 -0.39, -27.17 -0.82" stroke="#1e1e1e" stroke-width="1" fill="none"></path></g><g transform="translate(555.9667726854686 496.34280941793213) rotate(267.32195676919287 -13.584197762095386 -0.41147045028543516)"><path d="M-14.26 -5.08 C-18.15 -3.8, -22.04 -2.51, -27.17 -0.82 M-14.26 -5.08 C-17.31 -4.08, -20.36 -3.07, -27.17 -0.82" stroke="#1e1e1e" stroke-width="1" fill="none"></path></g><g transform="translate(555.9667726854686 496.34280941793213) rotate(267.32195676919287 -13.584197762095386 -0.41147045028543516)"><path d="M-14.54 4.21 C-18.35 2.69, -22.15 1.18, -27.17 -0.82 M-14.54 4.21 C-17.53 3.02, -20.51 1.83, -27.17 -0.82" stroke="#1e1e1e" stroke-width="1" fill="none"></path></g></g><mask></mask><g stroke-linecap="round"><g transform="translate(586.9619820749735 496.53806479242496) rotate(267.32195676919287 14.02156778805903 0.6471628944615873)"><path d="M0 0 C6.37 0.29, 12.73 0.59, 28.04 1.29 M0 0 C8.37 0.39, 16.74 0.77, 28.04 1.29" stroke="#1e1e1e" stroke-width="1" fill="none"></path></g><g transform="translate(586.9619820749735 496.53806479242496) rotate(267.32195676919287 14.02156778805903 0.6471628944615873)"><path d="M14.65 5.48 C17.69 4.53, 20.73 3.58, 28.04 1.29 M14.65 5.48 C18.64 4.23, 22.64 2.98, 28.04 1.29" stroke="#1e1e1e" stroke-width="1" fill="none"></path></g><g transform="translate(586.9619820749735 496.53806479242496) rotate(267.32195676919287 14.02156778805903 0.6471628944615873)"><path d="M15.09 -4.11 C18.03 -2.88, 20.97 -1.66, 28.04 1.29 M15.09 -4.11 C18.95 -2.5, 22.82 -0.88, 28.04 1.29" stroke="#1e1e1e" stroke-width="1" fill="none"></path></g></g><mask></mask><g stroke-linecap="round"><g transform="translate(632.9925440677703 498.0256585877718) rotate(267.32195676919287 -13.584197762095386 -0.41147045028543516)"><path d="M0 0 C-9.87 -0.3, -19.73 -0.6, -27.17 -0.82 M0 0 C-5.5 -0.17, -11 -0.33, -27.17 -0.82" stroke="#1e1e1e" stroke-width="1" fill="none"></path></g><g transform="translate(632.9925440677703 498.0256585877718) rotate(267.32195676919287 -13.584197762095386 -0.41147045028543516)"><path d="M-14.26 -5.08 C-18.95 -3.54, -23.64 -1.99, -27.17 -0.82 M-14.26 -5.08 C-16.87 -4.22, -19.49 -3.36, -27.17 -0.82" stroke="#1e1e1e" stroke-width="1" fill="none"></path></g><g transform="translate(632.9925440677703 498.0256585877718) rotate(267.32195676919287 -13.584197762095386 -0.41147045028543516)"><path d="M-14.54 4.21 C-19.13 2.38, -23.71 0.55, -27.17 -0.82 M-14.54 4.21 C-17.1 3.19, -19.65 2.17, -27.17 -0.82" stroke="#1e1e1e" stroke-width="1" fill="none"></path></g></g><mask></mask><g stroke-linecap="round"><g transform="translate(588.2968269851697 582.2142277715376) rotate(267.32195676919287 14.02156778805903 0.6471628944615873)"><path d="M0 0 C7.16 0.33, 14.33 0.66, 28.04 1.29 M0 0 C5.94 0.27, 11.89 0.55, 28.04 1.29" stroke="#1e1e1e" stroke-width="1" fill="none"></path></g><g transform="translate(588.2968269851697 582.2142277715376) rotate(267.32195676919287 14.02156778805903 0.6471628944615873)"><path d="M14.65 5.48 C18.07 4.41, 21.49 3.34, 28.04 1.29 M14.65 5.48 C17.49 4.59, 20.33 3.71, 28.04 1.29" stroke="#1e1e1e" stroke-width="1" fill="none"></path></g><g transform="translate(588.2968269851697 582.2142277715376) rotate(267.32195676919287 14.02156778805903 0.6471628944615873)"><path d="M15.09 -4.11 C18.4 -2.73, 21.71 -1.35, 28.04 1.29 M15.09 -4.11 C17.83 -2.96, 20.58 -1.82, 28.04 1.29" stroke="#1e1e1e" stroke-width="1" fill="none"></path></g></g><mask></mask><g stroke-linecap="round"><g transform="translate(634.3273889779664 583.7018215668844) rotate(267.32195676919287 -13.584197762095386 -0.41147045028543516)"><path d="M0 0 C-6.6 -0.2, -13.2 -0.4, -27.17 -0.82 M0 0 C-6.74 -0.2, -13.48 -0.41, -27.17 -0.82" stroke="#1e1e1e" stroke-width="1" fill="none"></path></g><g transform="translate(634.3273889779664 583.7018215668844) rotate(267.32195676919287 -13.584197762095386 -0.41147045028543516)"><path d="M-14.26 -5.08 C-17.4 -4.05, -20.53 -3.01, -27.17 -0.82 M-14.26 -5.08 C-17.46 -4.03, -20.67 -2.97, -27.17 -0.82" stroke="#1e1e1e" stroke-width="1" fill="none"></path></g><g transform="translate(634.3273889779664 583.7018215668844) rotate(267.32195676919287 -13.584197762095386 -0.41147045028543516)"><path d="M-14.54 4.21 C-17.61 2.99, -20.68 1.76, -27.17 -0.82 M-14.54 4.21 C-17.68 2.96, -20.81 1.71, -27.17 -0.82" stroke="#1e1e1e" stroke-width="1" fill="none"></path></g></g><mask></mask><g stroke-linecap="round"><g transform="translate(513.781657761713 582.365858198953) rotate(267.32195676919287 14.02156778805903 0.6471628944615873)"><path d="M0 0 C9.39 0.43, 18.78 0.87, 28.04 1.29 M0 0 C10.83 0.5, 21.66 1, 28.04 1.29" stroke="#1e1e1e" stroke-width="1" fill="none"></path></g><g transform="translate(513.781657761713 582.365858198953) rotate(267.32195676919287 14.02156778805903 0.6471628944615873)"><path d="M14.65 5.48 C19.13 4.08, 23.62 2.68, 28.04 1.29 M14.65 5.48 C19.82 3.86, 24.99 2.25, 28.04 1.29" stroke="#1e1e1e" stroke-width="1" fill="none"></path></g><g transform="translate(513.781657761713 582.365858198953) rotate(267.32195676919287 14.02156778805903 0.6471628944615873)"><path d="M15.09 -4.11 C19.43 -2.3, 23.76 -0.49, 28.04 1.29 M15.09 -4.11 C20.09 -2.02, 25.09 0.06, 28.04 1.29" stroke="#1e1e1e" stroke-width="1" fill="none"></path></g></g><mask></mask><g stroke-linecap="round"><g transform="translate(559.8122197545097 583.8534519942998) rotate(267.32195676919287 -13.584197762095386 -0.41147045028543516)"><path d="M0 0 C-6.78 -0.21, -13.57 -0.41, -27.17 -0.82 M0 0 C-5.87 -0.18, -11.75 -0.36, -27.17 -0.82" stroke="#1e1e1e" stroke-width="1" fill="none"></path></g><g transform="translate(559.8122197545097 583.8534519942998) rotate(267.32195676919287 -13.584197762095386 -0.41147045028543516)"><path d="M-14.26 -5.08 C-17.49 -4.02, -20.71 -2.96, -27.17 -0.82 M-14.26 -5.08 C-17.05 -4.16, -19.84 -3.24, -27.17 -0.82" stroke="#1e1e1e" stroke-width="1" fill="none"></path></g><g transform="translate(559.8122197545097 583.8534519942998) rotate(267.32195676919287 -13.584197762095386 -0.41147045028543516)"><path d="M-14.54 4.21 C-17.7 2.95, -20.85 1.7, -27.17 -0.82 M-14.54 4.21 C-17.27 3.12, -20 2.03, -27.17 -0.82" stroke="#1e1e1e" stroke-width="1" fill="none"></path></g></g><mask></mask><g stroke-linecap="round"><g transform="translate(433.20127144164104 583.206039911517) rotate(267.32195676919287 14.02156778805903 0.6471628944615873)"><path d="M0 0 C9.37 0.43, 18.74 0.86, 28.04 1.29 M0 0 C5.66 0.26, 11.31 0.52, 28.04 1.29" stroke="#1e1e1e" stroke-width="1" fill="none"></path></g><g transform="translate(433.20127144164104 583.206039911517) rotate(267.32195676919287 14.02156778805903 0.6471628944615873)"><path d="M14.65 5.48 C19.12 4.08, 23.6 2.68, 28.04 1.29 M14.65 5.48 C17.35 4.64, 20.05 3.79, 28.04 1.29" stroke="#1e1e1e" stroke-width="1" fill="none"></path></g><g transform="translate(433.20127144164104 583.206039911517) rotate(267.32195676919287 14.02156778805903 0.6471628944615873)"><path d="M15.09 -4.11 C19.42 -2.3, 23.75 -0.5, 28.04 1.29 M15.09 -4.11 C17.7 -3.02, 20.32 -1.93, 28.04 1.29" stroke="#1e1e1e" stroke-width="1" fill="none"></path></g></g><mask></mask><g stroke-linecap="round"><g transform="translate(479.23183343443776 584.6936337068638) rotate(267.32195676919287 -13.584197762095386 -0.41147045028543516)"><path d="M0 0 C-8.29 -0.25, -16.59 -0.5, -27.17 -0.82 M0 0 C-10.23 -0.31, -20.46 -0.62, -27.17 -0.82" stroke="#1e1e1e" stroke-width="1" fill="none"></path></g><g transform="translate(479.23183343443776 584.6936337068638) rotate(267.32195676919287 -13.584197762095386 -0.41147045028543516)"><path d="M-14.26 -5.08 C-18.2 -3.78, -22.14 -2.48, -27.17 -0.82 M-14.26 -5.08 C-19.12 -3.48, -23.98 -1.87, -27.17 -0.82" stroke="#1e1e1e" stroke-width="1" fill="none"></path></g><g transform="translate(479.23183343443776 584.6936337068638) rotate(267.32195676919287 -13.584197762095386 -0.41147045028543516)"><path d="M-14.54 4.21 C-18.4 2.67, -22.25 1.14, -27.17 -0.82 M-14.54 4.21 C-19.3 2.31, -24.05 0.42, -27.17 -0.82" stroke="#1e1e1e" stroke-width="1" fill="none"></path></g></g><mask></mask><g transform="translate(282.98919627074804 10) rotate(0 97.0224609375 20.700000000000003)"><text x="97.0224609375" y="33.120703125" font-family="Helvetica, Segoe UI Emoji" font-size="36px" fill="#1e1e1e" text-anchor="middle" style="white-space: pre;" direction="ltr" dominant-baseline="alphabetic">iDDC Model</text></g><g stroke-linecap="round"><g transform="translate(138.27868112475846 587.4202209651485) rotate(0 -19.16284218161752 4.040826537198711)"><path d="M0 0 C-2.71 0.12, -9.87 -0.6, -16.26 0.74 C-22.65 2.09, -34.65 6.86, -38.33 8.08" stroke="#868e96" stroke-width="2.5" fill="none" stroke-dasharray="8 10"></path></g></g><mask></mask><g transform="translate(10 585.7016911732969) rotate(0 41.1279296875 11.5)"><text x="41.1279296875" y="18.400390625" font-family="Helvetica, Segoe UI Emoji" font-size="20px" fill="#1e1e1e" text-anchor="middle" style="white-space: pre;" direction="ltr" dominant-baseline="alphabetic">Migration</text></g><g transform="translate(277.48731939201815 226.69790467821767) rotate(0 22.806202245371736 9.434949504356155)"><text x="22.80620224537175" y="15.096239687591584" font-family="Helvetica, Segoe UI Emoji" font-size="16.408607833662863px" fill="#1e1e1e" text-anchor="middle" style="white-space: pre;" direction="ltr" dominant-baseline="alphabetic">Linear</text></g><g transform="translate(410.977384998009 225.8529883286008) rotate(0 36.48271277860539 9.434949504356155)"><text x="36.482712778605396" y="15.096239687591584" font-family="Helvetica, Segoe UI Emoji" font-size="16.408607833662863px" fill="#1e1e1e" text-anchor="middle" style="white-space: pre;" direction="ltr" dominant-baseline="alphabetic">Threshold</text></g><g transform="translate(497.4460289894328 284.00067781248424) rotate(0 32.70733659701102 5.3913997167749415)"><text x="32.70733659701102" y="8.626422678623765" font-family="Helvetica, Segoe UI Emoji" font-size="9.376347333521638px" fill="#1e1e1e" text-anchor="middle" style="white-space: pre;" direction="ltr" dominant-baseline="alphabetic">Threshold = 0.5</text></g><g stroke-linecap="round"><g transform="translate(494.5934694120847 289.1297404037409) rotate(0 -19.763005873219825 7.420365227887203)"><path d="M0 0 C-3.58 0.41, -14.91 0, -21.5 2.47 C-28.08 4.95, -36.52 12.78, -39.53 14.84" stroke="#868e96" stroke-width="2.5" fill="none" stroke-dasharray="8 10"></path></g></g><mask></mask></svg>