<svg version="1.1" xmlns="http://www.w3.org/2000/svg" viewBox="0 0 562.1564171246847 445.33948941541166" width="562.1564171246847" height="445.33948941541166">
  <!-- svg-source:excalidraw -->
  
  <defs>
    <style class="style-fonts">
      @font-face {
        font-family: "Virgil";
        src: url("https://excalidraw.com/Virgil.woff2");
      }
      @font-face {
        font-family: "Cascadia";
        src: url("https://excalidraw.com/Cascadia.woff2");
      }
      @font-face {
        font-family: "Assistant";
        src: url("https://excalidraw.com/Assistant-Regular.woff2");
      }
    </style>
    
  </defs>
  <g stroke-linecap="round" transform="translate(192.71188862738416 109.7786340867984) rotate(0 12.605501947037283 14.06239821989314)"><path d="M0 0 L25.21 0 L25.21 28.12 L0 28.12" stroke="none" stroke-width="0" fill="#ffc9c9"></path><path d="M0 0 C8.03 0, 16.06 0, 25.21 0 M0 0 C9.37 0, 18.74 0, 25.21 0 M25.21 0 C25.21 6.36, 25.21 12.72, 25.21 28.12 M25.21 0 C25.21 8.72, 25.21 17.44, 25.21 28.12 M25.21 28.12 C16.87 28.12, 8.52 28.12, 0 28.12 M25.21 28.12 C18.77 28.12, 12.32 28.12, 0 28.12 M0 28.12 C0 19.54, 0 10.95, 0 0 M0 28.12 C0 21.46, 0 14.79, 0 0" stroke="#1e1e1e" stroke-width="1" fill="none"></path></g><g stroke-linecap="round" transform="translate(219.9820299474892 109.87852555107386) rotate(0 12.605501947037283 14.06239821989314)"><path d="M0 0 L25.21 0 L25.21 28.12 L0 28.12" stroke="none" stroke-width="0" fill="#ffc9c9"></path><path d="M0 0 C6.19 0, 12.38 0, 25.21 0 M0 0 C5.28 0, 10.56 0, 25.21 0 M25.21 0 C25.21 6.75, 25.21 13.5, 25.21 28.12 M25.21 0 C25.21 7.89, 25.21 15.78, 25.21 28.12 M25.21 28.12 C16.84 28.12, 8.47 28.12, 0 28.12 M25.21 28.12 C18.02 28.12, 10.83 28.12, 0 28.12 M0 28.12 C0 21.31, 0 14.5, 0 0 M0 28.12 C0 17.57, 0 7.02, 0 0" stroke="#1e1e1e" stroke-width="1" fill="none"></path></g><g stroke-linecap="round" transform="translate(247.43395813104848 109.63947421102463) rotate(0 12.605501947037283 14.06239821989314)"><path d="M0 0 L25.21 0 L25.21 28.12 L0 28.12" stroke="none" stroke-width="0" fill="#ffc9c9"></path><path d="M0 0 C5.09 0, 10.18 0, 25.21 0 M0 0 C9.63 0, 19.26 0, 25.21 0 M25.21 0 C25.21 6.09, 25.21 12.18, 25.21 28.12 M25.21 0 C25.21 8.58, 25.21 17.16, 25.21 28.12 M25.21 28.12 C16.14 28.12, 7.07 28.12, 0 28.12 M25.21 28.12 C17.39 28.12, 9.58 28.12, 0 28.12 M0 28.12 C0 21.24, 0 14.35, 0 0 M0 28.12 C0 18.89, 0 9.66, 0 0" stroke="#1e1e1e" stroke-width="1" fill="none"></path></g><g stroke-linecap="round" transform="translate(193.20453296423415 139.66312684756818) rotate(0 12.605501947037283 14.06239821989314)"><path d="M0 0 L25.21 0 L25.21 28.12 L0 28.12" stroke="none" stroke-width="0" fill="#ffec99"></path><path d="M0 0 C8.35 0, 16.71 0, 25.21 0 M0 0 C9.03 0, 18.06 0, 25.21 0 M25.21 0 C25.21 5.65, 25.21 11.3, 25.21 28.12 M25.21 0 C25.21 7.67, 25.21 15.35, 25.21 28.12 M25.21 28.12 C15.94 28.12, 6.68 28.12, 0 28.12 M25.21 28.12 C16.8 28.12, 8.4 28.12, 0 28.12 M0 28.12 C0 17.41, 0 6.7, 0 0 M0 28.12 C0 19.48, 0 10.84, 0 0" stroke="#1e1e1e" stroke-width="1" fill="none"></path></g><g stroke-linecap="round" transform="translate(220.7010283117956 140.00103255293752) rotate(0 12.605501947037283 14.06239821989314)"><path d="M0 0 L25.21 0 L25.21 28.12 L0 28.12" stroke="none" stroke-width="0" fill="#ffc9c9"></path><path d="M0 0 C8.31 0, 16.62 0, 25.21 0 M0 0 C6.5 0, 13 0, 25.21 0 M25.21 0 C25.21 9.41, 25.21 18.82, 25.21 28.12 M25.21 0 C25.21 7.86, 25.21 15.72, 25.21 28.12 M25.21 28.12 C16.42 28.12, 7.62 28.12, 0 28.12 M25.21 28.12 C17.12 28.12, 9.02 28.12, 0 28.12 M0 28.12 C0 19.64, 0 11.16, 0 0 M0 28.12 C0 21.33, 0 14.54, 0 0" stroke="#1e1e1e" stroke-width="1" fill="none"></path></g><g stroke-linecap="round" transform="translate(247.75231638217736 140.11933650669957) rotate(0 12.605501947037283 14.06239821989314)"><path d="M0 0 L25.21 0 L25.21 28.12 L0 28.12" stroke="none" stroke-width="0" fill="#ffc9c9"></path><path d="M0 0 C8.89 0, 17.77 0, 25.21 0 M0 0 C6.14 0, 12.28 0, 25.21 0 M25.21 0 C25.21 10.19, 25.21 20.39, 25.21 28.12 M25.21 0 C25.21 6.22, 25.21 12.43, 25.21 28.12 M25.21 28.12 C19.07 28.12, 12.93 28.12, 0 28.12 M25.21 28.12 C15.24 28.12, 5.28 28.12, 0 28.12 M0 28.12 C0 18.31, 0 8.5, 0 0 M0 28.12 C0 17.61, 0 7.1, 0 0" stroke="#1e1e1e" stroke-width="1" fill="none"></path></g><g stroke-linecap="round" transform="translate(192.85552078232206 169.84821726853514) rotate(0 12.654307652687748 14.116844704542729)"><path d="M0 0 L25.31 0 L25.31 28.23 L0 28.23" stroke="none" stroke-width="0" fill="#b2f2bb"></path><path d="M0 0 C8.11 0, 16.22 0, 25.31 0 M0 0 C8.02 0, 16.04 0, 25.31 0 M25.31 0 C25.31 9.55, 25.31 19.1, 25.31 28.23 M25.31 0 C25.31 10.93, 25.31 21.87, 25.31 28.23 M25.31 28.23 C19.11 28.23, 12.91 28.23, 0 28.23 M25.31 28.23 C19.52 28.23, 13.74 28.23, 0 28.23 M0 28.23 C0 20.86, 0 13.48, 0 0 M0 28.23 C0 21.1, 0 13.97, 0 0" stroke="#1e1e1e" stroke-width="1" fill="none"></path></g><g stroke-linecap="round" transform="translate(220.24495198276838 169.94039916066973) rotate(0 12.654307652687748 14.116844704542729)"><path d="M0 0 L25.31 0 L25.31 28.23 L0 28.23" stroke="none" stroke-width="0" fill="#b2f2bb"></path><path d="M0 0 C5.73 0, 11.45 0, 25.31 0 M0 0 C7.85 0, 15.69 0, 25.31 0 M25.31 0 C25.31 9.35, 25.31 18.69, 25.31 28.23 M25.31 0 C25.31 7.22, 25.31 14.43, 25.31 28.23 M25.31 28.23 C17.58 28.23, 9.86 28.23, 0 28.23 M25.31 28.23 C19.31 28.23, 13.31 28.23, 0 28.23 M0 28.23 C0 20.32, 0 12.4, 0 0 M0 28.23 C0 19, 0 9.77, 0 0" stroke="#1e1e1e" stroke-width="1" fill="none"></path></g><g stroke-linecap="round" transform="translate(247.50751874151456 169.8932848984907) rotate(0 12.654307652687748 14.116844704542729)"><path d="M0 0 L25.31 0 L25.31 28.23 L0 28.23" stroke="none" stroke-width="0" fill="#ffec99"></path><path d="M0 0 C6.08 0, 12.15 0, 25.31 0 M0 0 C7.1 0, 14.2 0, 25.31 0 M25.31 0 C25.31 9.37, 25.31 18.75, 25.31 28.23 M25.31 0 C25.31 8.05, 25.31 16.1, 25.31 28.23 M25.31 28.23 C19.18 28.23, 13.05 28.23, 0 28.23 M25.31 28.23 C15.81 28.23, 6.32 28.23, 0 28.23 M0 28.23 C0 20.98, 0 13.72, 0 0 M0 28.23 C0 18.63, 0 9.03, 0 0" stroke="#1e1e1e" stroke-width="1" fill="none"></path></g><g stroke-linecap="round"><g transform="translate(42.39752711347842 295.11892393844005) rotate(0 0.49585287972178094 56.336416361428036)"><path d="M0 0 C0.32 35.82, 0.63 71.65, 0.99 112.67 M0 0 C0.28 31.48, 0.55 62.96, 0.99 112.67" stroke="#1e1e1e" stroke-width="2" fill="none"></path></g></g><mask></mask><g stroke-linecap="round"><g transform="translate(169.10129763547104 407.7118042993442) rotate(0 -62.51700106543052 0.4575716646065189)"><path d="M0 0 C-29.46 0.22, -58.93 0.43, -125.03 0.92 M0 0 C-47.36 0.35, -94.71 0.69, -125.03 0.92" stroke="#1e1e1e" stroke-width="2" fill="none"></path></g></g><mask></mask><g stroke-linecap="round"><g transform="translate(52.63950308063568 401.61304821973636) rotate(0 51.143558576102066 -47.841247372796886)"><path d="M0 0 C22.77 -21.3, 45.55 -42.61, 102.29 -95.68 M0 0 C39.34 -36.8, 78.69 -73.61, 102.29 -95.68" stroke="#1e1e1e" stroke-width="2" fill="none"></path></g></g><mask></mask><g transform="translate(49.81619606211041 416.7474880112213) rotate(0 52.90234375 9.199999999999989)"><text x="0" y="14.720312499999999" font-family="Helvetica, Segoe UI Emoji" font-size="16px" fill="#1e1e1e" text-anchor="start" style="white-space: pre;" direction="ltr" dominant-baseline="alphabetic">SDM suitability</text></g><g transform="translate(-38.3004937659008 343.9522496759056) rotate(269.6945020765236 57.80859375 9.199999999999989)"><text x="0" y="14.720312499999999" font-family="Helvetica, Segoe UI Emoji" font-size="16px" fill="#1e1e1e" text-anchor="start" style="white-space: pre;" direction="ltr" dominant-baseline="alphabetic">Local deme size</text></g><g stroke-linecap="round"><g transform="translate(300.46760157340213 295.1679109625196) rotate(0 0.42741028352587307 56.407923551483435)"><path d="M0 0 C0.22 29.15, 0.44 58.29, 0.85 112.82 M0 0 C0.29 37.73, 0.57 75.46, 0.85 112.82" stroke="#1e1e1e" stroke-width="2" fill="none"></path></g></g><mask></mask><g stroke-linecap="round"><g transform="translate(427.0344869030029 407.90380570353466) rotate(0 -62.51700106543052 0.4575716646065189)"><path d="M0 0 C-35.47 0.26, -70.93 0.52, -125.03 0.92 M0 0 C-46.63 0.34, -93.25 0.68, -125.03 0.92" stroke="#1e1e1e" stroke-width="2" fill="none"></path></g></g><mask></mask><g stroke-linecap="round"><g transform="translate(308.7695749090337 396.64020525923024) rotate(0 27.42100523731382 -0.19123905271325725)"><path d="M0 0 C12.77 -0.09, 25.54 -0.18, 54.84 -0.38 M0 0 C17.15 -0.12, 34.31 -0.24, 54.84 -0.38" stroke="#1e1e1e" stroke-width="2" fill="none"></path></g></g><mask></mask><g transform="translate(307.7493853296423 416.9394894154117) rotate(0 52.90234375 9.199999999999989)"><text x="0" y="14.720312499999999" font-family="Helvetica, Segoe UI Emoji" font-size="16px" fill="#1e1e1e" text-anchor="start" style="white-space: pre;" direction="ltr" dominant-baseline="alphabetic">SDM suitability</text></g><g transform="translate(219.69603044139444 344.2075860198594) rotate(270.0114200752181 57.80859375 9.199999999999989)"><text x="0" y="14.720312499999999" font-family="Helvetica, Segoe UI Emoji" font-size="16px" fill="#1e1e1e" text-anchor="start" style="white-space: pre;" direction="ltr" dominant-baseline="alphabetic">Local deme size</text></g><g stroke-linecap="round"><g transform="translate(363.6956146574172 396.1237177974858) rotate(0 0.08727573508069497 -30.146136514458618)"><path d="M0 0 C0.06 -20.24, 0.12 -40.47, 0.17 -60.29 M0 0 C0.04 -14.32, 0.08 -28.64, 0.17 -60.29" stroke="#1e1e1e" stroke-width="2" fill="none"></path></g></g><mask></mask><g stroke-linecap="round"><g transform="translate(364.0480714319048 335.44697099659675) rotate(0 28.295669417188385 -0.22784626291135623)"><path d="M0 0 C14.18 -0.11, 28.36 -0.23, 56.59 -0.46 M0 0 C13.4 -0.11, 26.8 -0.22, 56.59 -0.46" stroke="#1e1e1e" stroke-width="2" fill="none"></path></g></g><mask></mask><g stroke-linecap="round"><g transform="translate(216.55263965190147 207.0539699619711) rotate(0 -43.79677603206329 24.516186355460604)"><path d="M0 0 C-31.08 17.4, -62.16 34.79, -87.59 49.03 M0 0 C-35.02 19.6, -70.04 39.21, -87.59 49.03" stroke="#1e1e1e" stroke-width="2" fill="none"></path></g><g transform="translate(216.55263965190147 207.0539699619711) rotate(0 -43.79677603206329 24.516186355460604)"><path d="M-71.27 30.1 C-77.06 36.82, -82.85 43.53, -87.59 49.03 M-71.27 30.1 C-77.8 37.67, -84.32 45.24, -87.59 49.03" stroke="#1e1e1e" stroke-width="2" fill="none"></path></g><g transform="translate(216.55263965190147 207.0539699619711) rotate(0 -43.79677603206329 24.516186355460604)"><path d="M-62.92 45.02 C-71.67 46.44, -80.43 47.87, -87.59 49.03 M-62.92 45.02 C-72.78 46.62, -82.65 48.23, -87.59 49.03" stroke="#1e1e1e" stroke-width="2" fill="none"></path></g></g><mask></mask><g stroke-linecap="round"><g transform="translate(253.43219438581121 208.3152301863423) rotate(0 49.53250544840908 18.755592614233763)"><path d="M0 0 C22.93 8.68, 45.85 17.36, 99.07 37.51 M0 0 C31.53 11.94, 63.06 23.88, 99.07 37.51" stroke="#1e1e1e" stroke-width="2" fill="none"></path></g><g transform="translate(253.43219438581121 208.3152301863423) rotate(0 49.53250544840908 18.755592614233763)"><path d="M74.07 37.19 C79.85 37.26, 85.64 37.34, 99.07 37.51 M74.07 37.19 C82.02 37.29, 89.98 37.39, 99.07 37.51" stroke="#1e1e1e" stroke-width="2" fill="none"></path></g><g transform="translate(253.43219438581121 208.3152301863423) rotate(0 49.53250544840908 18.755592614233763)"><path d="M80.12 21.2 C84.51 24.97, 88.89 28.75, 99.07 37.51 M80.12 21.2 C86.15 26.39, 92.18 31.58, 99.07 37.51" stroke="#1e1e1e" stroke-width="2" fill="none"></path></g></g><mask></mask><g transform="translate(198.2061009637431 117.86223133665251) rotate(0 7.337075347968238 6.069645191266176)"><text x="0" y="9.711638476039168" font-family="Helvetica, Segoe UI Emoji" font-size="10.555904680462913px" fill="#1e1e1e" text-anchor="start" style="white-space: pre;" direction="ltr" dominant-baseline="alphabetic">1.0</text></g><g transform="translate(198.84728856082978 147.1100725539934) rotate(0 7.337075347968238 6.0696451912661615)"><text x="0" y="9.711638476039168" font-family="Helvetica, Segoe UI Emoji" font-size="10.555904680462913px" fill="#1e1e1e" text-anchor="start" style="white-space: pre;" direction="ltr" dominant-baseline="alphabetic">0.5</text></g><g transform="translate(253.52423000073472 177.38823353747713) rotate(0 7.337075347968238 6.069645191266176)"><text x="0" y="9.711638476039168" font-family="Helvetica, Segoe UI Emoji" font-size="10.555904680462913px" fill="#1e1e1e" text-anchor="start" style="white-space: pre;" direction="ltr" dominant-baseline="alphabetic">0.5</text></g><g transform="translate(225.53221856789935 117.71204180999345) rotate(0 7.337075347968238 6.069645191266176)"><text x="0" y="9.711638476039168" font-family="Helvetica, Segoe UI Emoji" font-size="10.555904680462913px" fill="#1e1e1e" text-anchor="start" style="white-space: pre;" direction="ltr" dominant-baseline="alphabetic">1.0</text></g><g transform="translate(252.17421504344287 117.38803216373046) rotate(0 7.337075347968238 6.069645191266176)"><text x="0" y="9.711638476039168" font-family="Helvetica, Segoe UI Emoji" font-size="10.555904680462913px" fill="#1e1e1e" text-anchor="start" style="white-space: pre;" direction="ltr" dominant-baseline="alphabetic">1.0</text></g><g transform="translate(226.0612967399777 147.3218210464205) rotate(0 7.337075347968238 6.0696451912661615)"><text x="0" y="9.711638476039168" font-family="Helvetica, Segoe UI Emoji" font-size="10.555904680462913px" fill="#1e1e1e" text-anchor="start" style="white-space: pre;" direction="ltr" dominant-baseline="alphabetic">1.0</text></g><g transform="translate(252.3599287090901 147.4710990301912) rotate(0 7.337075347968238 6.069645191266176)"><text x="0" y="9.711638476039168" font-family="Helvetica, Segoe UI Emoji" font-size="10.555904680462913px" fill="#1e1e1e" text-anchor="start" style="white-space: pre;" direction="ltr" dominant-baseline="alphabetic">1.0</text></g><g transform="translate(198.81808231686597 177.46332774372885) rotate(0 7.337075347968238 6.069645191266176)"><text x="0" y="9.711638476039168" font-family="Helvetica, Segoe UI Emoji" font-size="10.555904680462913px" fill="#1e1e1e" text-anchor="start" style="white-space: pre;" direction="ltr" dominant-baseline="alphabetic">0.1</text></g><g transform="translate(226.4465358131439 177.37073320964763) rotate(0 7.337075347968238 6.069645191266176)"><text x="0" y="9.711638476039168" font-family="Helvetica, Segoe UI Emoji" font-size="10.555904680462913px" fill="#1e1e1e" text-anchor="start" style="white-space: pre;" direction="ltr" dominant-baseline="alphabetic">0.1</text></g><g transform="translate(126.04433732776351 79.35042208253677) rotate(0 107.81531988757473 10.6218790847158)"><text x="0" y="16.995367333068543" font-family="Helvetica, Segoe UI Emoji" font-size="18.472833190810096px" fill="#1e1e1e" text-anchor="start" style="white-space: pre;" direction="ltr" dominant-baseline="alphabetic">Species distribution model</text></g><g transform="translate(136.43626186298275 10) rotate(0 97.0224609375 20.700000000000003)"><text x="97.0224609375" y="33.120703125" font-family="Helvetica, Segoe UI Emoji" font-size="36px" fill="#1e1e1e" text-anchor="middle" style="white-space: pre;" direction="ltr" dominant-baseline="alphabetic">iDDC Model</text></g><g transform="translate(65.18916194003009 258.1998381709708) rotate(0 38.9169921875 16.099999999999994)"><text x="38.9169921875" y="25.760546874999996" font-family="Helvetica, Segoe UI Emoji" font-size="28px" fill="#1e1e1e" text-anchor="middle" style="white-space: pre;" direction="ltr" dominant-baseline="alphabetic">Linear</text></g><g transform="translate(292.9794702256403 256.75805480768395) rotate(0 62.2548828125 16.099999999999994)"><text x="62.2548828125" y="25.760546874999996" font-family="Helvetica, Segoe UI Emoji" font-size="28px" fill="#1e1e1e" text-anchor="middle" style="white-space: pre;" direction="ltr" dominant-baseline="alphabetic">Threshold</text></g><g transform="translate(440.5314171246847 355.982518092653) rotate(0 55.8125 9.199999999999989)"><text x="55.8125" y="14.720312499999999" font-family="Helvetica, Segoe UI Emoji" font-size="16px" fill="#1e1e1e" text-anchor="middle" style="white-space: pre;" direction="ltr" dominant-baseline="alphabetic">Threshold = 0.5</text></g><g stroke-linecap="round"><g transform="translate(435.6637483391655 364.73486040048476) rotate(0 -33.72401669049022 12.6622702234734)"><path d="M0 0 C-6.11 0.7, -25.44 0, -36.68 4.22 C-47.92 8.44, -62.32 21.81, -67.45 25.32" stroke="#868e96" stroke-width="2.5" fill="none" stroke-dasharray="8 10"></path></g></g><mask></mask></svg>