<svg version="1.1" xmlns="http://www.w3.org/2000/svg" viewBox="0 0 312.0607139455207 186.51140718954983" width="624.1214278910414" height="373.02281437909966">
  <!-- svg-source:excalidraw -->
  
  <defs>
    <style class="style-fonts">
      @font-face {
        font-family: "Virgil";
        src: url("https://excalidraw.com/Virgil.woff2");
      }
      @font-face {
        font-family: "Cascadia";
        src: url("https://excalidraw.com/Cascadia.woff2");
      }
      @font-face {
        font-family: "Assistant";
        src: url("https://excalidraw.com/Assistant-Regular.woff2");
      }
    </style>
    
  </defs>
  <g stroke-linecap="round" transform="translate(53.15959983594627 46.2321977820321) rotate(0 45.146484375 43.931640625)"><path d="M90.29 43.93 C90.29 46.02, 90.14 48.12, 89.83 50.18 C89.53 52.25, 89.07 54.31, 88.46 56.31 C87.86 58.31, 87.1 60.29, 86.21 62.18 C85.32 64.08, 84.28 65.93, 83.13 67.68 C81.97 69.44, 80.67 71.13, 79.27 72.7 C77.86 74.28, 76.33 75.77, 74.71 77.13 C73.09 78.5, 71.36 79.76, 69.55 80.89 C67.75 82.02, 65.85 83.03, 63.9 83.89 C61.95 84.76, 59.92 85.5, 57.87 86.08 C55.81 86.67, 53.69 87.12, 51.57 87.42 C49.45 87.71, 47.29 87.86, 45.15 87.86 C43 87.86, 40.84 87.71, 38.72 87.42 C36.6 87.12, 34.48 86.67, 32.43 86.08 C30.37 85.5, 28.34 84.76, 26.39 83.89 C24.44 83.03, 22.54 82.02, 20.74 80.89 C18.94 79.76, 17.2 78.5, 15.58 77.13 C13.96 75.77, 12.43 74.28, 11.03 72.7 C9.62 71.13, 8.32 69.44, 7.17 67.68 C6.01 65.93, 4.97 64.08, 4.08 62.18 C3.19 60.29, 2.43 58.31, 1.83 56.31 C1.23 54.31, 0.76 52.25, 0.46 50.18 C0.15 48.12, 0 46.02, 0 43.93 C0 41.85, 0.15 39.74, 0.46 37.68 C0.76 35.62, 1.23 33.55, 1.83 31.55 C2.43 29.56, 3.19 27.58, 4.08 25.68 C4.97 23.79, 6.01 21.93, 7.17 20.18 C8.32 18.43, 9.62 16.74, 11.03 15.16 C12.43 13.59, 13.96 12.1, 15.58 10.73 C17.2 9.37, 18.94 8.1, 20.74 6.97 C22.54 5.85, 24.44 4.84, 26.39 3.97 C28.34 3.1, 30.37 2.37, 32.43 1.78 C34.48 1.19, 36.6 0.74, 38.72 0.45 C40.84 0.15, 43 0, 45.15 0 C47.29 0, 49.45 0.15, 51.57 0.45 C53.69 0.74, 55.81 1.19, 57.87 1.78 C59.92 2.37, 61.95 3.1, 63.9 3.97 C65.85 4.84, 67.75 5.85, 69.55 6.97 C71.36 8.1, 73.09 9.37, 74.71 10.73 C76.33 12.1, 77.86 13.59, 79.27 15.16 C80.67 16.74, 81.97 18.43, 83.13 20.18 C84.28 21.93, 85.32 23.79, 86.21 25.68 C87.1 27.58, 87.86 29.56, 88.46 31.55 C89.07 33.55, 89.53 35.62, 89.83 37.68 C90.14 39.74, 90.22 42.89, 90.29 43.93 C90.37 44.97, 90.37 42.89, 90.29 43.93" stroke="none" stroke-width="0" fill="#ced4da"></path><path d="M90.29 43.93 C90.29 46.02, 90.14 48.12, 89.83 50.18 C89.53 52.25, 89.07 54.31, 88.46 56.31 C87.86 58.31, 87.1 60.29, 86.21 62.18 C85.32 64.08, 84.28 65.93, 83.13 67.68 C81.97 69.44, 80.67 71.13, 79.27 72.7 C77.86 74.28, 76.33 75.77, 74.71 77.13 C73.09 78.5, 71.36 79.76, 69.55 80.89 C67.75 82.02, 65.85 83.03, 63.9 83.89 C61.95 84.76, 59.92 85.5, 57.87 86.08 C55.81 86.67, 53.69 87.12, 51.57 87.42 C49.45 87.71, 47.29 87.86, 45.15 87.86 C43 87.86, 40.84 87.71, 38.72 87.42 C36.6 87.12, 34.48 86.67, 32.43 86.08 C30.37 85.5, 28.34 84.76, 26.39 83.89 C24.44 83.03, 22.54 82.02, 20.74 80.89 C18.94 79.76, 17.2 78.5, 15.58 77.13 C13.96 75.77, 12.43 74.28, 11.03 72.7 C9.62 71.13, 8.32 69.44, 7.17 67.68 C6.01 65.93, 4.97 64.08, 4.08 62.18 C3.19 60.29, 2.43 58.31, 1.83 56.31 C1.23 54.31, 0.76 52.25, 0.46 50.18 C0.15 48.12, 0 46.02, 0 43.93 C0 41.85, 0.15 39.74, 0.46 37.68 C0.76 35.62, 1.23 33.55, 1.83 31.55 C2.43 29.56, 3.19 27.58, 4.08 25.68 C4.97 23.79, 6.01 21.93, 7.17 20.18 C8.32 18.43, 9.62 16.74, 11.03 15.16 C12.43 13.59, 13.96 12.1, 15.58 10.73 C17.2 9.37, 18.94 8.1, 20.74 6.97 C22.54 5.85, 24.44 4.84, 26.39 3.97 C28.34 3.1, 30.37 2.37, 32.43 1.78 C34.48 1.19, 36.6 0.74, 38.72 0.45 C40.84 0.15, 43 0, 45.15 0 C47.29 0, 49.45 0.15, 51.57 0.45 C53.69 0.74, 55.81 1.19, 57.87 1.78 C59.92 2.37, 61.95 3.1, 63.9 3.97 C65.85 4.84, 67.75 5.85, 69.55 6.97 C71.36 8.1, 73.09 9.37, 74.71 10.73 C76.33 12.1, 77.86 13.59, 79.27 15.16 C80.67 16.74, 81.97 18.43, 83.13 20.18 C84.28 21.93, 85.32 23.79, 86.21 25.68 C87.1 27.58, 87.86 29.56, 88.46 31.55 C89.07 33.55, 89.53 35.62, 89.83 37.68 C90.14 39.74, 90.22 42.89, 90.29 43.93 C90.37 44.97, 90.37 42.89, 90.29 43.93" stroke="#1e1e1e" stroke-width="2" fill="none"></path></g><g stroke-linecap="round"><g transform="translate(75.30734815196803 63.083029932128085) rotate(0 0.048828125 11.05859375)"><path d="M0 0 C0.02 3.69, 0.08 18.43, 0.1 22.12 M0 0 C0.02 3.69, 0.08 18.43, 0.1 22.12" stroke="#e03131" stroke-width="2" fill="none"></path></g></g><mask></mask><g stroke-linecap="round"><g transform="translate(86.2018425327812 63.02783853618723) rotate(0 0.048828125 11.058593749999986)"><path d="M0 0 C0.02 3.69, 0.08 18.43, 0.1 22.12 M0 0 C0.02 3.69, 0.08 18.43, 0.1 22.12" stroke="#e03131" stroke-width="2" fill="none"></path></g></g><mask></mask><g stroke-linecap="round"><g transform="translate(97.88892816554954 63.16218378691539) rotate(0 0.048828125 11.05859375)"><path d="M0 0 C0.02 3.69, 0.08 18.43, 0.1 22.12 M0 0 C0.02 3.69, 0.08 18.43, 0.1 22.12" stroke="#e03131" stroke-width="2" fill="none"></path></g></g><mask></mask><g stroke-linecap="round"><g transform="translate(109.39571580705075 63.23049679807988) rotate(0 0.048828125 11.05859375)"><path d="M0 0 C0.02 3.69, 0.08 18.43, 0.1 22.12 M0 0 C0.02 3.69, 0.08 18.43, 0.1 22.12" stroke="#e03131" stroke-width="2" fill="none"></path></g></g><mask></mask><g stroke-linecap="round"><g transform="translate(121.11196285819148 63.33684534056232) rotate(0 0.048828125 11.058593750000014)"><path d="M0 0 C0.02 3.69, 0.08 18.43, 0.1 22.12 M0 0 C0.02 3.69, 0.08 18.43, 0.1 22.12" stroke="#e03131" stroke-width="2" fill="none"></path></g></g><mask></mask><g stroke-linecap="round"><g transform="translate(74.97731527890409 94.4662500447067) rotate(0 0.048828125 11.05859375)"><path d="M0 0 C0.02 3.69, 0.08 18.43, 0.1 22.12 M0 0 C0.02 3.69, 0.08 18.43, 0.1 22.12" stroke="#e03131" stroke-width="2" fill="none"></path></g></g><mask></mask><g stroke-linecap="round"><g transform="translate(85.87180965971726 94.41105864876587) rotate(0 0.048828125 11.05859375)"><path d="M0 0 C0.02 3.69, 0.08 18.43, 0.1 22.12 M0 0 C0.02 3.69, 0.08 18.43, 0.1 22.12" stroke="#e03131" stroke-width="2" fill="none"></path></g></g><mask></mask><g stroke-linecap="round"><g transform="translate(97.5588952924856 94.54540389949406) rotate(0 0.048828125 11.05859375)"><path d="M0 0 C0.02 3.69, 0.08 18.43, 0.1 22.12 M0 0 C0.02 3.69, 0.08 18.43, 0.1 22.12" stroke="#e03131" stroke-width="2" fill="none"></path></g></g><mask></mask><g stroke-linecap="round"><g transform="translate(109.0656829339868 94.61371691065855) rotate(0 0.048828125 11.05859375)"><path d="M0 0 C0.02 3.69, 0.08 18.43, 0.1 22.12 M0 0 C0.02 3.69, 0.08 18.43, 0.1 22.12" stroke="#e03131" stroke-width="2" fill="none"></path></g></g><mask></mask><g stroke-linecap="round"><g transform="translate(120.78192998512753 94.7200654531409) rotate(0 0.048828125 11.05859375)"><path d="M0 0 C0.02 3.69, 0.08 18.43, 0.1 22.12 M0 0 C0.02 3.69, 0.08 18.43, 0.1 22.12" stroke="#e03131" stroke-width="2" fill="none"></path></g></g><mask></mask><g stroke-linecap="round" transform="translate(194.3378676426184 93.4450195474146) rotate(0 18.317714637963206 18.630476049114378)"><path d="M36.64 18.63 C36.64 19.71, 36.54 20.8, 36.36 21.87 C36.17 22.93, 35.89 23.99, 35.53 25 C35.17 26.02, 34.71 27.01, 34.18 27.95 C33.65 28.88, 33.03 29.78, 32.35 30.61 C31.67 31.43, 30.9 32.21, 30.09 32.9 C29.28 33.6, 28.39 34.23, 27.48 34.76 C26.56 35.3, 25.58 35.77, 24.58 36.14 C23.59 36.51, 22.54 36.79, 21.5 36.98 C20.45 37.17, 19.38 37.26, 18.32 37.26 C17.26 37.26, 16.18 37.17, 15.14 36.98 C14.09 36.79, 13.05 36.51, 12.05 36.14 C11.06 35.77, 10.08 35.3, 9.16 34.76 C8.24 34.23, 7.36 33.6, 6.54 32.9 C5.73 32.21, 4.97 31.43, 4.29 30.61 C3.6 29.78, 2.98 28.88, 2.45 27.95 C1.92 27.01, 1.47 26.02, 1.1 25 C0.74 23.99, 0.46 22.93, 0.28 21.87 C0.09 20.8, 0 19.71, 0 18.63 C0 17.55, 0.09 16.46, 0.28 15.4 C0.46 14.33, 0.74 13.27, 1.1 12.26 C1.47 11.25, 1.92 10.25, 2.45 9.32 C2.98 8.38, 3.6 7.48, 4.29 6.66 C4.97 5.83, 5.73 5.05, 6.54 4.36 C7.36 3.67, 8.24 3.04, 9.16 2.5 C10.08 1.96, 11.06 1.49, 12.05 1.12 C13.05 0.75, 14.09 0.47, 15.14 0.28 C16.18 0.1, 17.26 0, 18.32 0 C19.38 0, 20.45 0.1, 21.5 0.28 C22.54 0.47, 23.59 0.75, 24.58 1.12 C25.58 1.49, 26.56 1.96, 27.48 2.5 C28.39 3.04, 29.28 3.67, 30.09 4.36 C30.9 5.05, 31.67 5.83, 32.35 6.66 C33.03 7.48, 33.65 8.38, 34.18 9.32 C34.71 10.25, 35.17 11.25, 35.53 12.26 C35.89 13.27, 36.17 14.33, 36.36 15.4 C36.54 16.46, 36.59 18.09, 36.64 18.63 C36.68 19.17, 36.68 18.09, 36.64 18.63" stroke="none" stroke-width="0" fill="#ced4da"></path><path d="M36.64 18.63 C36.64 19.71, 36.54 20.8, 36.36 21.87 C36.17 22.93, 35.89 23.99, 35.53 25 C35.17 26.02, 34.71 27.01, 34.18 27.95 C33.65 28.88, 33.03 29.78, 32.35 30.61 C31.67 31.43, 30.9 32.21, 30.09 32.9 C29.28 33.6, 28.39 34.23, 27.48 34.76 C26.56 35.3, 25.58 35.77, 24.58 36.14 C23.59 36.51, 22.54 36.79, 21.5 36.98 C20.45 37.17, 19.38 37.26, 18.32 37.26 C17.26 37.26, 16.18 37.17, 15.14 36.98 C14.09 36.79, 13.05 36.51, 12.05 36.14 C11.06 35.77, 10.08 35.3, 9.16 34.76 C8.24 34.23, 7.36 33.6, 6.54 32.9 C5.73 32.21, 4.97 31.43, 4.29 30.61 C3.6 29.78, 2.98 28.88, 2.45 27.95 C1.92 27.01, 1.47 26.02, 1.1 25 C0.74 23.99, 0.46 22.93, 0.28 21.87 C0.09 20.8, 0 19.71, 0 18.63 C0 17.55, 0.09 16.46, 0.28 15.4 C0.46 14.33, 0.74 13.27, 1.1 12.26 C1.47 11.25, 1.92 10.25, 2.45 9.32 C2.98 8.38, 3.6 7.48, 4.29 6.66 C4.97 5.83, 5.73 5.05, 6.54 4.36 C7.36 3.67, 8.24 3.04, 9.16 2.5 C10.08 1.96, 11.06 1.49, 12.05 1.12 C13.05 0.75, 14.09 0.47, 15.14 0.28 C16.18 0.1, 17.26 0, 18.32 0 C19.38 0, 20.45 0.1, 21.5 0.28 C22.54 0.47, 23.59 0.75, 24.58 1.12 C25.58 1.49, 26.56 1.96, 27.48 2.5 C28.39 3.04, 29.28 3.67, 30.09 4.36 C30.9 5.05, 31.67 5.83, 32.35 6.66 C33.03 7.48, 33.65 8.38, 34.18 9.32 C34.71 10.25, 35.17 11.25, 35.53 12.26 C35.89 13.27, 36.17 14.33, 36.36 15.4 C36.54 16.46, 36.59 18.09, 36.64 18.63 C36.68 19.17, 36.68 18.09, 36.64 18.63" stroke="#1e1e1e" stroke-width="2" fill="none"></path></g><g stroke-linecap="round"><g transform="translate(206.3872655067392 99.61273292969483) rotate(0 0.048828125 11.05859375)"><path d="M0 0 C0.02 3.69, 0.08 18.43, 0.1 22.12 M0 0 C0.02 3.69, 0.08 18.43, 0.1 22.12" stroke="#e03131" stroke-width="2" fill="none"></path></g></g><mask></mask><g stroke-linecap="round"><g transform="translate(218.98559964893963 99.80343866165558) rotate(0 0.048828125 11.05859375)"><path d="M0 0 C0.02 3.69, 0.08 18.43, 0.1 22.12 M0 0 C0.02 3.69, 0.08 18.43, 0.1 22.12" stroke="#e03131" stroke-width="2" fill="none"></path></g></g><mask></mask><g transform="translate(10 10) rotate(0 95.04394531250003 11.5)"><text x="0" y="18.400390625" font-family="Helvetica, Segoe UI Emoji" font-size="20px" fill="#1e1e1e" text-anchor="start" style="white-space: pre;" direction="ltr" dominant-baseline="alphabetic">High genetic diversity</text></g><g transform="translate(153.54508894552072 63.75686520236641) rotate(0 74.2578125 9.199999999999989)"><text x="0" y="14.720312499999999" font-family="Helvetica, Segoe UI Emoji" font-size="16px" fill="#1e1e1e" text-anchor="start" style="white-space: pre;" direction="ltr" dominant-baseline="alphabetic">Low genetic diversity</text></g><g transform="translate(120.3647675275634 158.11140718954985) rotate(0 33.78515625 9.199999999999989)"><text x="0" y="14.720312499999999" font-family="Helvetica, Segoe UI Emoji" font-size="16px" fill="#868e96" text-anchor="start" style="white-space: pre;" direction="ltr" dominant-baseline="alphabetic">*per OTU</text></g></svg>