<svg version="1.1" xmlns="http://www.w3.org/2000/svg" viewBox="0 0 524.4144808758562 519.4605943609206" width="524.4144808758562" height="519.4605943609206">
  <!-- svg-source:excalidraw -->
  
  <defs>
    <style class="style-fonts">
      @font-face {
        font-family: "Virgil";
        src: url("https://excalidraw.com/Virgil.woff2");
      }
      @font-face {
        font-family: "Cascadia";
        src: url("https://excalidraw.com/Cascadia.woff2");
      }
      @font-face {
        font-family: "Assistant";
        src: url("https://excalidraw.com/Assistant-Regular.woff2");
      }
    </style>
    
  </defs>
  <g stroke-linecap="round"><g transform="translate(35.97932612770467 18.634307096258) rotate(0 30.73449459577847 63.03885134173288)"><path d="M0 0 C10.24 21.01, 51.22 105.06, 61.47 126.08 M0 0 C10.24 21.01, 51.22 105.06, 61.47 126.08" stroke="#343a40" stroke-width="2" fill="none"></path></g></g><mask></mask><g stroke-linecap="round"><g transform="translate(484.642098780491 10) rotate(0 -37.53969891658835 64.94564145338518)"><path d="M0 0 C-12.51 21.65, -62.57 108.24, -75.08 129.89 M0 0 C-12.51 21.65, -62.57 108.24, -75.08 129.89" stroke="#343a40" stroke-width="2" fill="none"></path></g></g><mask></mask><g stroke-linecap="round" transform="translate(10 163.4689004702684) rotate(0 104.85494361552179 172.9958469453261)"><path d="M0 0 L209.71 0 L209.71 345.99 L0 345.99" stroke="none" stroke-width="0" fill="#b2f2bb"></path><path d="M0 0 C80.08 0, 160.15 0, 209.71 0 M0 0 C56.96 0, 113.92 0, 209.71 0 M209.71 0 C209.71 76.58, 209.71 153.15, 209.71 345.99 M209.71 0 C209.71 104.98, 209.71 209.96, 209.71 345.99 M209.71 345.99 C148.64 345.99, 87.57 345.99, 0 345.99 M209.71 345.99 C159.4 345.99, 109.09 345.99, 0 345.99 M0 345.99 C0 264.71, 0 183.44, 0 0 M0 345.99 C0 242.21, 0 138.43, 0 0" stroke="#343a40" stroke-width="2" fill="none"></path></g><g stroke-linecap="round" transform="translate(304.7045936448126 162.83206959802942) rotate(0 104.85494361552179 172.9958469453261)"><path d="M0 0 L209.71 0 L209.71 345.99 L0 345.99" stroke="none" stroke-width="0" fill="#b2f2bb"></path><path d="M0 0 C47.04 0, 94.08 0, 209.71 0 M0 0 C59.62 0, 119.24 0, 209.71 0 M209.71 0 C209.71 136.09, 209.71 272.17, 209.71 345.99 M209.71 0 C209.71 86.51, 209.71 173.01, 209.71 345.99 M209.71 345.99 C167.29 345.99, 124.88 345.99, 0 345.99 M209.71 345.99 C161.43 345.99, 113.15 345.99, 0 345.99 M0 345.99 C0 208.8, 0 71.61, 0 0 M0 345.99 C0 273.12, 0 200.26, 0 0" stroke="#343a40" stroke-width="2" fill="none"></path></g><g stroke-linecap="round"><g transform="translate(240.52051627939602 381.479804070874) rotate(0 23.32207944329707 0.3998705476865325)"><path d="M0 0 C16.14 0.28, 32.28 0.55, 46.64 0.8 M0 0 C16.58 0.28, 33.15 0.57, 46.64 0.8" stroke="#343a40" stroke-width="2" fill="none"></path></g><g transform="translate(240.52051627939602 381.479804070874) rotate(0 23.32207944329707 0.3998705476865325)"><path d="M24.59 8.4 C32.22 5.77, 39.85 3.14, 46.64 0.8 M24.59 8.4 C32.43 5.7, 40.26 3, 46.64 0.8" stroke="#343a40" stroke-width="2" fill="none"></path></g><g transform="translate(240.52051627939602 381.479804070874) rotate(0 23.32207944329707 0.3998705476865325)"><path d="M24.87 -7.55 C32.4 -4.66, 39.94 -1.77, 46.64 0.8 M24.87 -7.55 C32.6 -4.58, 40.34 -1.62, 46.64 0.8" stroke="#343a40" stroke-width="2" fill="none"></path></g></g><mask></mask><g stroke-linecap="round"><g transform="translate(283.55876112420344 340.8127755508715) rotate(0 -22.10314108981339 0.2244098894536819)"><path d="M0 0 C-16.53 0.17, -33.06 0.34, -44.21 0.45 M0 0 C-17.18 0.17, -34.37 0.35, -44.21 0.45" stroke="#343a40" stroke-width="2" fill="none"></path></g><g transform="translate(283.55876112420344 340.8127755508715) rotate(0 -22.10314108981339 0.2244098894536819)"><path d="M-23.51 -7.32 C-31.25 -4.42, -38.99 -1.51, -44.21 0.45 M-23.51 -7.32 C-31.56 -4.3, -39.6 -1.28, -44.21 0.45" stroke="#343a40" stroke-width="2" fill="none"></path></g><g transform="translate(283.55876112420344 340.8127755508715) rotate(0 -22.10314108981339 0.2244098894536819)"><path d="M-23.36 7.8 C-31.15 5.05, -38.95 2.3, -44.21 0.45 M-23.36 7.8 C-31.46 4.94, -39.57 2.08, -44.21 0.45" stroke="#343a40" stroke-width="2" fill="none"></path></g></g><mask></mask></svg>