<?xml version="1.0" standalone="no"?>
<!DOCTYPE svg PUBLIC "-//W3C//DTD SVG 20010904//EN"
 "http://www.w3.org/TR/2001/REC-SVG-20010904/DTD/svg10.dtd">
<svg version="1.0" xmlns="http://www.w3.org/2000/svg"
 width="1500.000000pt" height="1536.000000pt" viewBox="0 0 1500.000000 1536.000000"
 preserveAspectRatio="xMidYMid meet">
<metadata>
Created by potrace 1.16, written by Peter Selinger 2001-2019
</metadata>
<g transform="translate(0.000000,1536.000000) scale(0.100000,-0.100000)"
fill="#000000" stroke="none">
<path d="M2985 15338 c-34 -30 -46 -76 -30 -114 6 -16 106 -124 221 -239 115
-116 279 -291 364 -390 85 -99 200 -229 255 -289 164 -178 213 -235 300 -352
45 -61 140 -182 209 -270 70 -87 157 -205 194 -262 259 -397 400 -595 541
-760 88 -104 108 -134 121 -182 18 -65 68 -135 172 -238 99 -98 281 -244 337
-271 l33 -16 -7 -80 c-9 -105 -26 -184 -71 -330 -20 -66 -47 -160 -60 -208
-23 -91 -28 -100 -108 -217 -81 -119 -112 -223 -94 -319 13 -71 -5 -150 -87
-371 -32 -85 -79 -218 -106 -295 l-47 -140 -104 2 c-57 2 -173 10 -258 19
-180 19 -339 15 -386 -10 -29 -15 -42 -14 -205 11 -167 26 -191 27 -574 28
-370 0 -403 -1 -434 -18 -26 -15 -70 -21 -205 -28 -276 -15 -666 -78 -1004
-164 -76 -19 -231 -55 -346 -80 -278 -60 -347 -78 -506 -130 -74 -25 -173 -55
-220 -69 -125 -35 -738 -249 -790 -275 -95 -49 -111 -86 -60 -141 27 -29 35
-32 68 -27 36 6 399 127 614 204 102 36 108 37 140 23 23 -11 65 -15 143 -14
161 1 277 31 750 198 139 49 166 53 205 31 35 -20 100 -18 253 6 121 18 706
85 972 110 203 19 578 -9 768 -57 117 -29 172 -52 221 -89 20 -15 52 -29 73
-31 21 -2 99 -11 173 -20 74 -8 238 -21 363 -29 125 -7 231 -15 234 -18 13
-14 -13 -64 -119 -223 -159 -239 -238 -374 -333 -569 -169 -346 -204 -480
-250 -965 -23 -238 -38 -323 -95 -525 -28 -99 -103 -380 -166 -625 -144 -557
-196 -747 -288 -1058 -112 -375 -192 -691 -267 -1051 -17 -80 -37 -160 -44
-178 -8 -18 -54 -88 -103 -156 -48 -67 -129 -183 -180 -257 -50 -74 -133 -184
-183 -245 -103 -123 -180 -234 -259 -375 -91 -162 -128 -209 -326 -415 -283
-294 -330 -357 -303 -408 51 -95 136 -51 389 203 91 91 184 180 208 199 24 19
59 63 84 104 128 223 185 315 255 413 84 117 293 383 316 402 12 10 15 -23 21
-231 20 -723 57 -989 212 -1527 87 -305 128 -421 231 -655 297 -673 563 -1018
918 -1191 366 -178 851 -97 1330 221 296 196 510 418 875 905 234 313 497 633
546 665 18 11 29 13 43 5 41 -22 282 -314 551 -670 106 -140 234 -304 285
-365 110 -130 318 -336 430 -425 307 -244 695 -412 986 -427 465 -25 813 197
1134 722 141 230 307 575 398 825 73 201 193 635 242 870 35 173 47 261 60
426 18 247 35 617 35 763 0 93 2 102 16 90 24 -20 230 -282 317 -403 70 -98
127 -190 255 -413 25 -41 60 -85 84 -104 24 -19 117 -108 208 -199 252 -253
338 -298 389 -203 27 51 -20 114 -303 408 -201 209 -233 250 -336 430 -87 152
-143 233 -249 360 -51 61 -133 171 -183 245 -51 74 -132 190 -180 257 -49 68
-95 138 -103 156 -7 18 -27 98 -44 178 -68 326 -172 740 -250 994 -73 239
-141 486 -277 1010 -75 286 -158 600 -185 698 -68 243 -75 277 -104 563 -33
322 -50 432 -81 538 -82 284 -240 595 -502 990 -105 159 -132 209 -119 223 3
3 111 11 239 19 128 8 308 22 401 33 150 17 171 22 202 46 50 37 105 60 222
89 188 48 565 76 763 57 284 -26 803 -85 948 -107 185 -27 246 -29 282 -9 39
22 66 18 205 -31 473 -167 589 -197 750 -198 77 -1 120 3 143 14 32 14 38 13
155 -29 236 -84 562 -192 599 -197 30 -5 41 -2 62 19 57 57 40 104 -53 148
-58 28 -677 243 -791 276 -47 13 -146 43 -220 68 -159 52 -218 67 -525 135
-126 28 -291 66 -365 85 -342 85 -676 138 -971 154 -131 7 -174 13 -200 28
-31 17 -64 18 -434 18 -383 -1 -407 -2 -574 -28 -163 -25 -176 -26 -205 -11
-47 25 -206 29 -386 10 -85 -9 -202 -17 -259 -19 l-105 -2 -26 85 c-15 47 -59
172 -99 279 -119 318 -118 312 -111 496 2 78 -30 168 -96 264 -74 109 -92 141
-99 180 -3 20 -28 108 -55 196 -57 185 -76 269 -85 380 l-7 80 33 16 c56 27
238 173 337 271 104 103 154 173 172 238 13 48 33 78 121 182 141 165 294 380
541 760 36 57 123 175 193 262 70 88 165 209 210 270 87 117 136 174 300 352
55 60 170 190 255 289 85 99 249 274 364 390 115 115 215 224 222 240 17 41 7
81 -28 110 -55 46 -96 32 -221 -78 -247 -215 -473 -462 -747 -816 -87 -111
-112 -138 -140 -146 -54 -14 -217 -185 -359 -375 -86 -115 -164 -205 -256
-295 -133 -130 -174 -182 -527 -665 -139 -190 -175 -230 -260 -286 -39 -26
-113 -88 -164 -137 l-94 -89 -68 64 c-37 35 -101 86 -142 112 -98 64 -120 85
-120 112 0 34 -45 81 -95 98 -25 9 -66 23 -91 32 -81 29 -42 39 154 40 155 1
185 4 242 23 165 57 260 160 316 346 25 82 28 105 28 245 0 142 -2 162 -27
235 -95 285 -376 642 -587 746 -61 30 -75 33 -205 40 -77 3 -141 7 -142 8 -2
0 -11 18 -22 39 -23 46 -58 77 -92 86 -15 3 -35 18 -44 33 -10 16 -28 35 -39
43 -12 8 -60 52 -109 97 -87 82 -88 83 -140 83 -55 0 -136 -18 -177 -40 -14
-7 -65 -52 -115 -99 -61 -59 -120 -103 -184 -139 l-93 -53 -37 24 c-20 14 -61
37 -90 52 -30 15 -94 66 -145 114 -50 49 -102 94 -116 101 -41 22 -122 40
-177 40 -52 0 -53 -1 -140 -83 -49 -45 -97 -89 -109 -97 -11 -8 -29 -27 -39
-43 -9 -15 -29 -30 -44 -33 -34 -9 -69 -40 -92 -86 -11 -21 -20 -39 -22 -39
-1 -1 -65 -5 -142 -8 -131 -7 -144 -9 -206 -40 -215 -106 -501 -475 -591 -761
-20 -65 -23 -94 -22 -225 0 -134 3 -160 28 -240 56 -185 151 -289 316 -346 57
-19 87 -22 242 -23 196 -1 235 -11 154 -40 -25 -9 -66 -24 -91 -33 -51 -18
-95 -63 -95 -97 0 -27 -22 -48 -120 -112 -41 -26 -105 -77 -142 -112 l-68 -64
-94 89 c-51 49 -125 111 -164 137 -85 56 -121 96 -260 286 -353 483 -394 535
-527 665 -92 90 -170 180 -256 295 -142 190 -305 361 -359 375 -28 8 -53 35
-140 146 -202 261 -379 465 -531 614 -306 299 -368 340 -434 283z m2263 -6484
c29 -51 52 -96 52 -102 0 -5 -46 -70 -103 -143 -56 -74 -126 -168 -156 -209
-87 -121 -216 -263 -371 -411 -80 -76 -157 -147 -172 -159 -27 -21 -28 -21
-28 -2 0 35 30 196 56 297 60 238 250 618 467 938 l80 118 62 -118 c33 -65 84
-159 113 -209z m4719 272 c17 -24 72 -108 121 -187 237 -382 376 -703 422
-976 29 -165 29 -163 -27 -115 -173 145 -413 398 -524 552 -30 41 -100 135
-156 209 -57 73 -103 137 -103 143 0 5 35 73 79 151 43 78 92 170 110 205 17
34 35 62 39 62 4 -1 21 -20 39 -44z m-4752 -896 c-130 -259 -250 -558 -413
-1025 -242 -698 -275 -815 -383 -1370 l-63 -320 -51 -75 c-62 -91 -482 -665
-536 -734 l-39 -49 0 36 c0 75 65 338 175 707 106 355 184 647 265 994 38 163
97 395 131 514 103 367 118 433 131 544 l11 108 66 42 c166 108 409 335 628
586 64 72 118 132 120 132 2 0 -17 -41 -42 -90z m4687 -85 c241 -267 450 -459
604 -554 l51 -31 7 -73 c11 -122 25 -183 96 -437 91 -325 117 -429 185 -720
64 -276 153 -605 249 -927 110 -370 176 -634 176 -708 l0 -38 -39 49 c-55 69
-474 644 -536 735 l-52 75 -62 320 c-107 550 -140 670 -383 1369 -158 453
-282 764 -404 1007 -43 85 -53 112 -35 93 4 -6 69 -77 143 -160z m-348 -202
c19 -60 51 -166 70 -236 37 -131 72 -213 100 -236 26 -22 65 -15 112 18 25 17
49 31 54 31 26 0 222 -648 300 -989 16 -73 30 -136 30 -140 0 -3 -26 44 -58
104 -32 61 -178 322 -325 581 -158 279 -270 489 -276 515 -9 38 -51 410 -51
447 0 30 11 5 44 -95z m-4080 -68 c-28 -318 -5 -258 -310 -796 -147 -261 -294
-523 -327 -584 -66 -124 -66 -124 -5 125 85 353 255 900 278 900 5 0 29 -14
54 -31 102 -72 141 -31 216 232 41 145 89 297 97 312 11 19 10 -5 -3 -158z
m3879 -737 c30 -29 36 -42 41 -93 22 -202 41 -329 71 -484 62 -317 139 -806
169 -1071 32 -285 89 -1175 106 -1665 13 -367 13 -1113 0 -1290 -22 -296 -71
-610 -136 -869 -71 -284 -309 -1028 -386 -1211 -32 -74 -36 -80 -62 -78 -65 5
-361 238 -553 437 -63 64 -113 124 -113 135 0 10 11 43 24 72 90 205 298 1059
400 1639 73 420 81 557 92 1655 l6 690 50 99 c96 192 109 292 143 1156 30 753
37 893 46 917 8 23 10 23 38 9 16 -9 45 -30 64 -48z m-3600 15 c7 -41 18 -284
42 -893 34 -864 47 -964 143 -1156 l50 -99 6 -695 c8 -802 19 -1156 41 -1325
76 -577 333 -1696 451 -1964 13 -29 24 -62 24 -72 0 -11 -50 -71 -112 -135
-193 -199 -489 -432 -554 -437 -25 -2 -30 4 -60 74 -90 214 -313 914 -389
1223 -126 512 -150 795 -142 1641 5 530 13 736 52 1390 44 740 100 1183 239
1910 20 99 40 232 46 295 19 186 17 180 71 233 61 59 84 61 92 10z m-422 -590
c-12 -94 -52 -372 -105 -738 -77 -520 -96 -763 -176 -2200 -12 -219 -12 -642
0 -862 22 -403 97 -874 206 -1304 65 -258 265 -870 359 -1101 l34 -83 -39 -17
c-67 -31 -277 -87 -367 -98 -292 -37 -612 110 -782 360 -191 279 -481 804
-481 870 0 16 20 81 45 146 92 236 133 404 189 759 63 402 96 684 146 1250 17
187 42 466 55 620 28 308 97 941 121 1103 25 169 44 215 157 384 108 161 198
306 342 553 102 174 295 469 302 461 3 -3 0 -49 -6 -103z m4417 -10 c43 -65
130 -203 192 -308 197 -331 262 -436 367 -593 113 -169 132 -215 157 -384 24
-162 93 -795 121 -1103 13 -154 38 -433 55 -620 39 -442 74 -762 110 -1010 81
-557 118 -725 225 -999 25 -65 45 -130 45 -146 0 -66 -290 -591 -481 -870
-170 -250 -490 -397 -782 -360 -90 11 -300 67 -367 98 l-39 17 34 83 c44 107
157 434 240 692 162 502 257 968 311 1530 21 221 30 804 15 1040 -6 102 -22
383 -36 625 -51 903 -69 1082 -185 1885 -62 430 -76 540 -67 540 3 0 41 -53
85 -117z m-919 -2683 c-11 -531 -21 -721 -55 -980 -50 -382 -92 -599 -218
-1115 -157 -645 -167 -685 -182 -685 -6 0 -49 48 -95 107 -220 279 -347 435
-494 607 -88 103 -164 198 -169 211 -8 19 -2 33 37 85 122 162 245 394 326
615 29 77 59 159 68 183 9 24 25 51 37 61 189 166 281 285 394 510 90 179 157
350 186 476 56 241 90 421 111 589 49 379 49 379 57 61 3 -154 2 -480 -3 -725z
m-4578 849 c-6 -63 -26 -339 -46 -614 -40 -562 -78 -999 -100 -1155 -8 -58
-22 -175 -30 -260 -33 -322 -94 -652 -186 -1002 -5 -21 -14 -38 -19 -38 -35 0
-224 717 -259 985 -52 387 -59 900 -17 1218 11 87 19 116 42 152 45 67 273
376 442 598 84 110 158 209 163 220 19 33 21 11 10 -104z m1939 63 c5 -29 19
-125 30 -215 23 -180 25 -192 81 -462 45 -215 62 -274 126 -430 133 -326 264
-518 489 -716 12 -10 28 -37 37 -61 9 -24 39 -106 67 -183 82 -222 205 -453
327 -615 39 -52 45 -66 37 -85 -5 -13 -81 -108 -169 -211 -147 -172 -274 -328
-494 -607 -46 -59 -89 -107 -96 -107 -14 0 -7 -29 -171 645 -128 523 -154 646
-198 940 -61 401 -71 538 -86 1165 -9 351 -5 1008 6 997 2 -2 8 -27 14 -55z
m4845 -328 c250 -336 338 -459 350 -488 48 -117 63 -790 25 -1151 -30 -295
-85 -555 -196 -934 -51 -173 -72 -231 -85 -231 -4 0 -13 17 -18 38 -92 350
-153 680 -186 1002 -8 85 -22 202 -30 260 -27 192 -53 503 -110 1280 -19 267
-38 514 -41 550 l-7 65 104 -135 c57 -74 144 -190 194 -256z m-3211 -1575 c12
-11 -46 -173 -110 -309 -88 -189 -199 -390 -214 -390 -29 1 -255 453 -304 608
-31 99 -30 89 -8 95 25 7 629 3 636 -4z"/>
</g>
</svg>
