<?xml version="1.0" standalone="no"?>
<!DOCTYPE svg PUBLIC "-//W3C//DTD SVG 20010904//EN"
 "http://www.w3.org/TR/2001/REC-SVG-20010904/DTD/svg10.dtd">
<svg version="1.0" xmlns="http://www.w3.org/2000/svg"
 width="1175.000000pt" height="1536.000000pt" viewBox="0 0 1175.000000 1536.000000"
 preserveAspectRatio="xMidYMid meet">
<metadata>
Created by potrace 1.16, written by Peter Selinger 2001-2019
</metadata>
<g transform="translate(0.000000,1536.000000) scale(0.100000,-0.100000)"
fill="#000000" stroke="none">
<path d="M2664 6266 c-59 -27 -65 -35 -208 -246 -942 -1390 -1574 -2376 -2021
-3155 -207 -361 -432 -782 -422 -791 2 -2 65 22 139 53 l135 58 53 112 c106
226 382 701 678 1167 136 214 226 328 297 377 11 8 37 34 56 59 43 54 289 469
459 775 318 572 691 1173 815 1313 57 64 79 66 155 16 76 -51 321 -300 470
-479 127 -152 320 -399 320 -409 0 -3 -17 -8 -37 -12 -55 -10 -126 -48 -156
-84 -14 -17 -93 -148 -175 -293 -243 -427 -249 -438 -1334 -2407 l-400 -725
-470 -703 c-258 -387 -468 -705 -466 -708 4 -4 152 54 222 87 18 8 49 45 81
94 1261 1945 1931 3027 2041 3292 15 38 52 112 83 166 l56 97 12 -47 c7 -27
13 -87 13 -134 0 -97 17 -165 52 -212 16 -20 29 -57 36 -100 13 -79 22 -93 77
-118 58 -27 95 -24 141 11 21 16 51 30 65 30 14 0 34 7 45 15 10 8 35 15 54
15 19 0 55 9 79 20 24 11 63 20 86 20 37 0 55 8 122 58 68 51 87 60 137 66
130 15 216 63 369 206 108 102 199 229 237 330 12 33 26 60 29 60 4 0 25 -15
47 -33 68 -59 236 -182 314 -232 41 -27 76 -49 78 -51 2 -1 -4 -50 -12 -108
-17 -112 -21 -246 -8 -246 4 1 19 11 34 23 24 20 28 34 43 137 24 172 13 155
94 155 50 0 74 4 87 17 18 16 23 15 79 -4 115 -39 249 -5 341 87 54 54 68 99
69 212 l0 93 38 0 c20 0 37 -1 37 -3 0 -2 -9 -22 -20 -45 -46 -96 -51 -222
-11 -300 22 -44 58 -71 152 -115 57 -28 73 -41 135 -114 54 -64 87 -61 251 23
191 98 300 176 476 342 32 30 60 52 62 50 3 -2 -12 -85 -31 -184 l-36 -179 8
-225 c14 -356 10 -604 -11 -785 -24 -197 -25 -495 -2 -710 20 -191 57 -1360
57 -1829 0 -66 2 -117 5 -114 6 6 15 261 80 2388 33 1070 37 1161 64 1385 28
232 30 243 67 317 21 42 45 79 53 82 9 2 59 23 111 46 52 23 195 79 316 125
122 46 232 88 244 95 21 11 22 11 16 -11 -35 -120 -32 -308 8 -544 30 -177 50
-245 119 -420 l52 -130 -1 -155 c-1 -102 -9 -204 -23 -300 -20 -132 -26 -152
-66 -226 -49 -92 -271 -640 -305 -754 -12 -41 -31 -92 -42 -113 -11 -22 -17
-41 -14 -44 6 -6 29 40 278 552 110 226 213 448 229 494 56 163 77 336 61 510
-7 79 -5 102 10 145 34 100 20 376 -38 741 -28 176 -52 349 -49 352 1 2 21 -7
45 -18 65 -31 219 -68 333 -78 93 -9 201 -4 322 13 l40 6 85 -106 c47 -58 123
-140 170 -182 47 -42 148 -138 225 -212 213 -206 243 -227 418 -289 98 -34
135 -38 143 -16 10 25 -12 41 -90 69 -168 59 -199 79 -337 208 -71 68 -177
166 -234 218 -89 81 -303 326 -293 335 18 15 109 45 139 45 125 0 255 64 316
156 9 14 29 24 56 28 23 4 69 18 102 31 57 24 61 24 73 7 15 -20 58 -99 167
-305 l78 -148 286 -224 c157 -123 394 -311 526 -417 l240 -193 291 -356 291
-355 78 -245 c113 -357 108 -346 153 -354 47 -8 92 8 92 33 0 33 -68 266 -105
363 -20 51 -53 127 -75 169 -21 41 -46 92 -55 112 -9 20 -51 78 -94 130 -74
90 -504 543 -534 563 -8 6 -93 74 -190 152 -188 153 -629 496 -740 578 -68 49
-70 52 -149 210 -158 314 -294 528 -418 659 -122 129 -184 158 -276 131 -56
-16 -56 -16 -72 7 -88 128 -255 219 -472 259 -115 21 -512 19 -612 -3 -151
-34 -244 -84 -344 -186 -47 -48 -146 -184 -156 -214 -2 -5 -41 9 -88 31 -47
22 -110 46 -140 53 -51 13 -55 16 -58 46 -7 68 67 190 197 325 75 78 82 88 56
81 -17 -3 -46 -14 -65 -22 -53 -25 -229 -201 -280 -280 -25 -39 -51 -71 -58
-71 -8 -1 1 17 20 38 43 50 208 397 208 436 0 17 -5 37 -10 45 -8 13 -12 11
-27 -9 -26 -34 -108 -173 -182 -306 -36 -64 -83 -137 -105 -163 -49 -54 -182
-162 -201 -162 -7 0 -26 15 -40 33 -27 32 -30 23 -9 -27 6 -16 -1 -14 -37 11
-24 16 -50 33 -58 38 -8 4 1 -18 19 -50 l33 -58 -24 -46 c-59 -112 -154 -171
-290 -179 -71 -4 -80 -2 -150 32 -95 46 -186 63 -271 48 -59 -9 -65 -8 -88 13
-37 33 -194 136 -280 183 l-76 41 -17 93 c-30 162 -89 247 -162 233 -49 -9
-84 -52 -108 -132 -12 -43 -25 -70 -31 -66 -8 4 -7 2 0 -6 7 -8 8 -28 3 -59
-5 -26 -11 -135 -15 -242 l-7 -195 -34 -33 c-18 -18 -41 -45 -50 -58 l-16 -25
-24 43 c-35 62 -181 255 -197 261 -8 3 -47 -14 -88 -39 -79 -47 -128 -56 -159
-28 -17 15 -20 14 -49 -17 -17 -19 -33 -44 -36 -55 -5 -21 -6 -21 -107 11
-110 36 -238 65 -285 65 -26 0 -51 25 -193 188 -604 691 -1023 1111 -1144
1146 -11 3 -42 -5 -71 -18z m2666 -1197 c16 -74 42 -189 58 -257 l30 -122 -27
-49 -26 -49 -62 72 c-73 83 -72 73 -48 316 23 232 25 244 37 232 5 -5 22 -70
38 -143z m3914 53 c44 -27 114 -96 164 -160 l34 -42 -36 -15 c-43 -18 -107
-19 -128 -2 -8 6 -30 33 -47 59 -17 26 -54 73 -82 105 l-49 56 21 23 c18 20
25 21 52 11 18 -5 50 -21 71 -35z m-3683 -126 c48 -37 81 -89 72 -112 -2 -7
-22 -25 -44 -40 -34 -23 -42 -25 -49 -13 -11 16 -50 178 -50 204 0 19 -3 21
71 -39z m-1933 -155 c-25 -16 -55 -34 -67 -41 -21 -11 -22 -10 -12 8 18 33 62
62 94 62 l31 0 -46 -29z m1398 -377 c73 -41 69 -22 50 -217 -16 -175 -20 -178
-127 -101 -105 75 -319 282 -319 309 0 19 7 20 144 20 103 0 149 4 157 13 18
17 24 16 95 -24z m237 -115 c45 -13 63 -29 32 -29 -21 0 -75 -28 -104 -54
l-24 -21 6 40 c4 22 7 51 7 64 0 17 4 22 18 18 9 -3 38 -11 65 -18z m1111
-216 c-28 -65 -44 -115 -74 -221 -16 -56 -44 -129 -63 -162 -32 -58 -34 -59
-55 -44 l-22 15 26 34 c42 55 56 117 56 252 l0 121 47 7 c25 3 57 13 71 20 14
8 26 14 28 15 1 0 -5 -17 -14 -37z m-1124 -168 c0 -8 -4 -15 -9 -15 -5 0 -14
7 -21 15 -10 13 -9 15 9 15 12 0 21 -6 21 -15z"/>
</g>
</svg>
