<svg version="1.1" xmlns="http://www.w3.org/2000/svg" viewBox="0 0 507.4140625 381.39140625" width="1014.828125" height="762.7828125">
  <!-- svg-source:excalidraw -->
  
  <defs>
    <style class="style-fonts">
      @font-face {
        font-family: "Virgil";
        src: url("https://excalidraw.com/Virgil.woff2");
      }
      @font-face {
        font-family: "Cascadia";
        src: url("https://excalidraw.com/Cascadia.woff2");
      }
      @font-face {
        font-family: "Assistant";
        src: url("https://excalidraw.com/Assistant-Regular.woff2");
      }
    </style>
    
  </defs>
  <g stroke-linecap="round"><g transform="translate(13.26171875 50.09453124999999) rotate(0 -1.630859375 160.2734375)"><path d="M0 0 C-0.68 67.21, -1.37 134.42, -3.26 320.55 M0 0 C-1.25 122.57, -2.49 245.14, -3.26 320.55" stroke="#1e1e1e" stroke-width="4" fill="none"></path></g></g><mask></mask><g stroke-linecap="round"><g transform="translate(11.69921875 370.7859375) rotate(0 195.474609375 0.302734375)"><path d="M0 0 C110.09 0.17, 220.19 0.34, 390.95 0.61 M0 0 C126.56 0.2, 253.12 0.39, 390.95 0.61" stroke="#1e1e1e" stroke-width="4" fill="none"></path></g></g><mask></mask><g transform="translate(123.7734375 55.61796874999999) rotate(0 13.564453125 85.9375)" stroke="none"><path d="M0 0 C-2.27 0.06, -10.66 0.07, -13.65 0.36 C-16.64 0.66, -14.65 0.05, -17.92 1.77 C-21.2 3.5, -29.22 7.83, -33.29 10.73 C-37.37 13.63, -39.72 16.13, -42.37 19.17 C-45.02 22.22, -46.93 24.9, -49.19 29 C-51.44 33.11, -54.14 38.42, -55.91 43.81 C-57.68 49.2, -59.15 56.57, -59.8 61.36 C-60.45 66.14, -60.75 68.45, -59.8 72.51 C-58.85 76.57, -55.68 81.27, -54.12 85.71 C-52.56 90.15, -52.07 91.09, -50.45 99.15 C-48.83 107.21, -45.43 125.05, -44.39 134.06 C-43.34 143.07, -44.69 148.93, -44.2 153.2 C-43.7 157.48, -44.12 157.25, -41.43 159.71 C-38.75 162.17, -31.54 166.53, -28.1 167.98 C-24.66 169.43, -23.82 167.87, -20.8 168.41 C-17.77 168.95, -18.65 170.71, -9.95 171.21 C-1.24 171.7, 19.12 173.53, 31.41 171.39 C43.7 169.26, 55.37 162.24, 63.8 158.4 C72.22 154.56, 78.4 150.82, 81.97 148.37 C85.54 145.91, 84.4 145.67, 85.22 143.68 C86.05 141.69, 86.71 140.24, 86.93 136.43 C87.15 132.62, 88.78 129.13, 86.55 120.85 C84.31 112.57, 77.24 94.84, 73.53 86.73 C69.82 78.63, 68.41 77.89, 64.28 72.21 C60.14 66.53, 54.29 58.8, 48.72 52.66 C43.15 46.51, 36.44 42.29, 30.84 35.35 C25.25 28.4, 19.09 16.41, 15.13 11 C11.17 5.59, 9.6 4.7, 7.08 2.87 C4.56 1.03, 1.18 0.48, 0 0" stroke="none" stroke-width="0" fill="#a5d8ff" fill-rule="evenodd"></path><path fill="#1e1e1e" d="M 0.04,1.61 Q 0.04,1.61 -3.88,1.67 -7.80,1.73 -10.60,2.15 -13.40,2.56 -16.62,3.77 -19.84,4.98 -23.47,6.96 -27.11,8.94 -30.16,11.06 -33.21,13.17 -35.57,15.17 -37.93,17.17 -39.75,19.05 -41.58,20.92 -42.99,22.64 -44.40,24.37 -45.40,25.92 -46.41,27.48 -47.19,28.94 -47.96,30.40 -48.67,31.86 -49.38,33.32 -50.05,34.75 -50.72,36.19 -51.29,37.56 -51.86,38.94 -52.29,40.15 -52.73,41.36 -53.23,43.23 -53.73,45.10 -54.13,46.53 -54.53,47.96 -55.04,49.70 -55.56,51.44 -56.05,53.28 -56.53,55.13 -56.94,57.00 -57.34,58.87 -57.56,60.60 -57.78,62.32 -57.81,63.69 -57.85,65.07 -57.76,66.87 -57.68,68.68 -57.34,70.59 -57.01,72.50 -56.23,74.38 -55.44,76.26 -54.78,77.96 -54.12,79.66 -53.50,81.13 -52.87,82.60 -52.33,84.00 -51.79,85.40 -51.33,86.79 -50.88,88.19 -50.48,89.50 -50.08,90.81 -49.70,92.12 -49.32,93.43 -48.96,94.91 -48.60,96.40 -48.27,98.17 -47.95,99.94 -47.65,101.89 -47.36,103.84 -47.05,105.82 -46.74,107.79 -46.45,109.64 -46.16,111.49 -45.89,113.14 -45.63,114.79 -45.35,116.30 -45.07,117.80 -44.79,119.24 -44.50,120.67 -44.23,122.16 -43.97,123.64 -43.71,124.97 -43.45,126.30 -43.21,127.43 -42.96,128.56 -42.54,130.44 -42.11,132.31 -41.85,133.93 -41.60,135.55 -41.50,136.76 -41.40,137.97 -41.32,139.03 -41.25,140.09 -41.18,141.64 -41.12,143.18 -41.07,144.51 -41.02,145.84 -40.96,147.11 -40.91,148.39 -40.88,149.63 -40.85,150.87 -40.74,152.02 -40.63,153.17 -40.18,154.48 -39.73,155.79 -39.04,156.78 -38.35,157.77 -37.37,158.54 -36.39,159.30 -34.66,160.30 -32.93,161.29 -31.69,162.18 -30.46,163.06 -29.41,163.69 -28.37,164.31 -25.86,164.85 -23.35,165.40 -21.54,165.75 -19.72,166.11 -18.02,166.54 -16.32,166.96 -14.88,167.35 -13.43,167.75 -12.25,168.03 -11.06,168.31 -9.40,168.50 -7.73,168.68 -5.96,168.67 -4.18,168.67 -2.86,168.69 -1.54,168.71 0.29,168.82 2.12,168.93 4.45,169.09 6.78,169.25 9.31,169.40 11.85,169.55 14.28,169.70 16.70,169.86 18.99,169.99 21.27,170.11 23.35,170.17 25.42,170.24 27.07,170.06 28.72,169.89 29.98,169.52 31.23,169.14 32.46,168.68 33.70,168.21 35.25,167.63 36.79,167.05 38.61,166.35 40.44,165.66 42.50,164.90 44.57,164.15 47.07,163.24 49.57,162.33 52.16,161.35 54.75,160.38 57.20,159.43 59.64,158.48 62.03,157.45 64.42,156.42 66.65,155.37 68.87,154.33 70.89,153.32 72.90,152.32 74.61,151.35 76.32,150.38 77.66,149.41 79.00,148.44 79.99,147.49 80.98,146.53 81.69,145.44 82.40,144.34 82.95,142.98 83.51,141.61 83.94,140.03 84.38,138.44 84.65,136.66 84.93,134.87 85.10,132.62 85.28,130.36 85.21,127.68 85.13,125.00 84.64,122.24 84.15,119.48 83.32,116.81 82.50,114.14 81.30,110.96 80.09,107.78 78.81,104.40 77.52,101.02 76.51,98.27 75.50,95.52 74.58,93.14 73.65,90.76 72.68,88.65 71.70,86.54 70.50,84.43 69.31,82.32 67.55,79.64 65.79,76.95 63.85,74.19 61.90,71.42 59.54,68.31 57.17,65.19 54.45,61.83 51.73,58.47 49.15,55.53 46.57,52.59 44.10,49.96 41.64,47.33 39.63,45.32 37.63,43.32 36.07,41.86 34.51,40.41 33.35,39.53 32.18,38.64 30.91,37.70 29.65,36.75 28.23,34.85 26.82,32.94 25.87,31.29 24.93,29.63 23.78,27.63 22.63,25.64 21.42,23.54 20.21,21.45 19.11,19.62 18.02,17.80 17.07,16.50 16.11,15.20 15.36,14.36 14.62,13.51 13.53,12.53 12.45,11.54 11.38,10.60 10.30,9.66 9.17,8.57 8.04,7.48 7.13,6.66 6.22,5.84 5.09,5.51 3.97,5.18 2.98,4.64 1.99,4.09 0.37,3.58 -1.23,3.08 -1.58,2.88 -1.93,2.69 -2.22,2.42 -2.52,2.15 -2.74,1.82 -2.96,1.48 -3.09,1.11 -3.23,0.73 -3.27,0.33 -3.31,-0.05 -3.26,-0.45 -3.20,-0.85 -3.05,-1.22 -2.90,-1.59 -2.67,-1.91 -2.44,-2.24 -2.13,-2.50 -1.83,-2.76 -1.47,-2.94 -1.12,-3.12 -0.73,-3.21 -0.34,-3.30 0.05,-3.29 0.45,-3.28 0.84,-3.18 1.23,-3.08 0.10,-3.11 -1.02,-3.15 -0.49,-3.23 0.03,-3.31 0.56,-3.22 1.09,-3.13 1.56,-2.87 2.03,-2.61 2.40,-2.22 2.76,-1.83 2.98,-1.34 3.20,-0.85 3.25,-0.31 3.31,0.21 3.18,0.74 3.06,1.26 2.78,1.71 2.50,2.17 2.09,2.51 1.67,2.86 1.17,3.05 0.67,3.24 0.13,3.27 -0.39,3.29 -0.91,3.14 -1.42,2.99 -1.86,2.68 -2.30,2.38 -2.62,1.95 -2.94,1.52 -3.11,1.00 -3.27,0.49 -3.27,-0.03 -3.26,-0.57 -3.09,-1.08 -2.91,-1.58 -2.58,-2.01 -2.25,-2.43 -1.80,-2.73 -1.35,-3.02 -0.83,-3.16 -0.32,-3.30 0.21,-3.26 0.75,-3.23 1.24,-3.02 1.74,-2.82 2.14,-2.47 2.55,-2.11 2.82,-1.65 3.09,-1.19 3.20,-0.66 3.31,-0.14 3.25,0.39 3.18,0.92 2.95,1.40 2.72,1.89 2.35,2.27 1.97,2.66 0.37,2.87 -1.23,3.08 -1.58,2.88 -1.93,2.69 -2.22,2.42 -2.52,2.15 -2.74,1.82 -2.96,1.48 -3.09,1.11 -3.23,0.73 -3.27,0.33 -3.31,-0.05 -3.26,-0.45 -3.20,-0.85 -3.05,-1.22 -2.90,-1.59 -2.67,-1.91 -2.44,-2.24 -2.13,-2.50 -1.83,-2.76 -1.47,-2.94 -1.12,-3.12 -0.73,-3.21 -0.34,-3.30 0.05,-3.29 0.45,-3.28 0.84,-3.18 1.23,-3.08 2.65,-2.44 4.08,-1.80 4.98,-1.15 5.88,-0.49 6.91,-0.21 7.95,0.06 9.07,0.97 10.20,1.88 11.06,2.87 11.92,3.85 12.90,5.06 13.89,6.27 14.80,7.39 15.71,8.50 16.69,9.87 17.68,11.23 18.32,12.24 18.96,13.26 19.85,14.67 20.74,16.08 21.93,17.86 23.12,19.64 24.45,21.64 25.78,23.64 27.11,25.56 28.44,27.48 29.49,29.08 30.55,30.68 31.48,32.38 32.42,34.08 33.32,35.21 34.21,36.34 35.26,37.41 36.31,38.49 37.90,39.97 39.48,41.45 41.52,43.49 43.57,45.53 46.06,48.19 48.55,50.85 51.16,53.83 53.78,56.81 56.53,60.20 59.27,63.59 61.67,66.75 64.07,69.90 66.04,72.70 68.02,75.50 69.82,78.25 71.63,81.00 72.88,83.21 74.14,85.41 75.16,87.59 76.17,89.77 77.12,92.17 78.07,94.57 79.10,97.29 80.12,100.02 81.43,103.39 82.75,106.76 84.02,110.00 85.29,113.25 86.21,116.08 87.14,118.91 87.73,121.88 88.32,124.85 88.50,127.69 88.68,130.53 88.63,132.95 88.58,135.38 88.32,137.43 88.06,139.47 87.53,141.31 87.00,143.15 86.20,144.85 85.39,146.55 84.31,147.85 83.23,149.15 81.97,150.10 80.72,151.05 79.21,151.95 77.70,152.86 75.92,153.82 74.14,154.78 72.11,155.81 70.08,156.85 67.83,157.94 65.57,159.04 63.16,160.13 60.74,161.21 58.31,162.22 55.88,163.23 53.31,164.29 50.74,165.35 48.30,166.35 45.87,167.35 43.87,168.25 41.87,169.14 40.02,169.96 38.17,170.78 36.53,171.37 34.90,171.97 33.47,172.35 32.05,172.73 30.52,173.00 28.98,173.26 27.18,173.35 25.38,173.43 23.29,173.45 21.19,173.46 18.89,173.47 16.60,173.48 14.20,173.50 11.81,173.52 9.29,173.62 6.78,173.71 4.44,173.87 2.11,174.02 0.27,174.12 -1.57,174.23 -3.98,174.19 -6.39,174.16 -8.33,173.92 -10.27,173.68 -11.30,173.42 -12.33,173.17 -13.53,172.83 -14.72,172.49 -16.06,172.13 -17.40,171.76 -18.94,171.46 -20.47,171.16 -22.19,170.99 -23.91,170.83 -26.12,170.73 -28.32,170.63 -29.82,170.18 -31.31,169.73 -32.63,169.05 -33.96,168.38 -35.04,167.73 -36.13,167.08 -37.19,166.54 -38.26,166.00 -39.35,165.42 -40.45,164.83 -42.06,163.53 -43.67,162.22 -44.58,160.91 -45.48,159.61 -46.03,158.38 -46.57,157.15 -46.97,155.67 -47.37,154.18 -47.51,152.53 -47.65,150.87 -47.62,149.63 -47.59,148.39 -47.53,147.11 -47.48,145.84 -47.43,144.51 -47.38,143.18 -47.34,142.00 -47.30,140.81 -47.21,139.43 -47.12,138.06 -47.08,136.98 -47.03,135.89 -47.08,134.55 -47.12,133.22 -47.36,131.29 -47.60,129.36 -47.75,128.20 -47.90,127.03 -48.08,125.68 -48.27,124.34 -48.48,122.87 -48.69,121.41 -48.91,119.94 -49.14,118.47 -49.36,116.93 -49.58,115.39 -49.80,113.77 -50.03,112.16 -50.36,110.36 -50.70,108.56 -51.16,106.62 -51.61,104.69 -52.08,102.81 -52.54,100.93 -52.95,99.26 -53.37,97.59 -53.74,96.17 -54.10,94.75 -54.44,93.47 -54.79,92.19 -55.14,90.92 -55.50,89.64 -55.88,88.38 -56.27,87.11 -56.75,85.81 -57.24,84.51 -57.89,83.08 -58.54,81.64 -59.40,79.95 -60.27,78.25 -60.72,77.10 -61.16,75.94 -61.54,74.70 -61.92,73.47 -62.11,72.23 -62.29,70.99 -62.22,68.96 -62.15,66.93 -62.04,65.87 -61.92,64.80 -61.77,63.33 -61.62,61.85 -61.41,60.00 -61.19,58.15 -60.88,56.19 -60.56,54.22 -60.20,52.27 -59.83,50.32 -59.41,48.51 -59.00,46.69 -58.58,45.24 -58.17,43.78 -57.33,41.78 -56.49,39.78 -55.91,38.57 -55.33,37.36 -54.63,35.95 -53.93,34.55 -53.14,33.14 -52.36,31.72 -51.51,30.27 -50.66,28.82 -49.71,27.34 -48.76,25.87 -47.62,24.27 -46.47,22.68 -44.99,20.86 -43.51,19.05 -41.60,17.08 -39.69,15.11 -37.23,13.01 -34.78,10.92 -31.62,8.70 -28.46,6.49 -24.65,4.40 -20.85,2.30 -17.36,0.98 -13.87,-0.34 -10.88,-0.83 -7.89,-1.32 -3.96,-1.46 -0.04,-1.61 0.15,-1.59 0.34,-1.57 0.52,-1.51 0.71,-1.44 0.87,-1.34 1.03,-1.23 1.16,-1.09 1.30,-0.95 1.39,-0.78 1.49,-0.61 1.54,-0.42 1.59,-0.23 1.60,-0.04 1.60,0.15 1.56,0.34 1.52,0.53 1.43,0.70 1.35,0.88 1.22,1.02 1.10,1.17 0.94,1.29 0.78,1.40 0.60,1.48 0.42,1.55 0.23,1.58 0.04,1.61 0.04,1.61 L 0.04,1.61 Z"></path></g><g transform="translate(221.25 217.184375) rotate(0 15.427734375 29.34375)" stroke="none"><path d="M0 0 C2.72 -2.54, 6.63 -7.98, 16.31 -15.21 C25.99 -22.44, 48.91 -37.56, 58.07 -43.38 C67.23 -49.21, 62.89 -46.48, 71.27 -50.17 C79.64 -53.86, 100.91 -62.8, 108.32 -65.53 C115.73 -68.26, 113.76 -66.65, 115.72 -66.54 C117.69 -66.44, 117.56 -67.39, 120.09 -64.89 C122.63 -62.39, 127.45 -56.63, 130.92 -51.54 C134.4 -46.45, 139.3 -38.42, 140.94 -34.34 C142.58 -30.27, 141.55 -30.46, 140.78 -27.08 C140.01 -23.69, 138.51 -19.1, 136.33 -14.04 C134.15 -8.97, 131.09 -2.54, 127.69 3.3 C124.29 9.14, 119.12 15.44, 115.93 21 C112.74 26.57, 113.12 29.24, 108.57 36.71 C104.01 44.18, 93.51 59.51, 88.6 65.84 C83.69 72.16, 81.62 72.61, 79.09 74.68 C76.56 76.75, 77.33 76.21, 73.42 78.28 C69.51 80.35, 65.25 83.08, 55.63 87.09 C46.02 91.1, 24.66 98.45, 15.73 102.31 C6.8 106.18, 7.18 106.84, 2.03 110.27 C-3.11 113.7, -11.1 120.42, -15.14 122.87 C-19.18 125.32, -17.01 124.66, -22.2 124.96 C-27.39 125.27, -39.25 125.4, -46.27 124.71 C-53.28 124.03, -57.04 122.94, -64.32 120.86 C-71.59 118.78, -83.57 114.9, -89.92 112.25 C-96.26 109.59, -99.95 106.73, -102.4 104.94 C-104.85 103.15, -103.35 106.04, -104.61 101.53 C-105.86 97.01, -109.01 82.94, -109.9 77.85 C-110.8 72.76, -110.48 73.54, -109.99 70.97 C-109.49 68.4, -108.55 65.43, -106.93 62.44 C-105.32 59.45, -102.54 55.52, -100.31 53.02 C-98.09 50.52, -96.24 49.26, -93.57 47.46 C-90.9 45.66, -89.3 44.3, -84.3 42.22 C-79.29 40.14, -71.27 37.99, -63.56 34.96 C-55.85 31.94, -45.6 27.58, -38.02 24.06 C-30.44 20.55, -24.44 17.57, -18.08 13.86 C-11.72 10.15, -3.04 3.94, 0.13 1.81 C3.29 -0.33, 0.93 1.36, 0.91 1.06 C0.89 0.76, 0.15 0.18, 0 0" stroke="none" stroke-width="0" fill="#ffec99" fill-rule="evenodd"></path><path fill="#1e1e1e" d="M -1.13,-1.07 Q -1.13,-1.07 1.27,-3.55 3.67,-6.03 7.06,-8.99 10.44,-11.95 14.68,-15.21 18.92,-18.47 22.90,-21.31 26.88,-24.16 30.30,-26.52 33.72,-28.88 36.76,-30.83 39.79,-32.78 42.55,-34.54 45.31,-36.30 47.73,-37.93 50.15,-39.55 52.21,-40.96 54.27,-42.37 56.27,-43.66 58.27,-44.94 60.39,-46.14 62.50,-47.35 64.87,-48.51 67.24,-49.66 69.58,-50.65 71.91,-51.63 74.19,-52.52 76.46,-53.40 78.84,-54.32 81.23,-55.24 83.53,-56.19 85.83,-57.13 87.94,-58.10 90.04,-59.07 91.88,-59.99 93.72,-60.91 95.30,-61.75 96.88,-62.59 98.34,-63.33 99.81,-64.07 101.27,-64.73 102.73,-65.39 104.16,-65.96 105.58,-66.54 106.87,-67.00 108.15,-67.45 109.24,-67.79 110.33,-68.13 112.28,-68.49 114.24,-68.86 115.33,-68.87 116.42,-68.88 117.93,-68.39 119.44,-67.89 121.11,-66.52 122.79,-65.15 124.50,-63.14 126.20,-61.12 127.99,-58.64 129.77,-56.16 131.41,-53.59 133.04,-51.03 134.50,-48.64 135.96,-46.25 137.18,-44.17 138.39,-42.09 139.30,-40.62 140.21,-39.16 140.85,-38.27 141.49,-37.39 142.19,-35.24 142.89,-33.09 142.90,-31.31 142.91,-29.54 142.37,-26.93 141.82,-24.33 140.67,-21.15 139.52,-17.98 138.09,-14.81 136.66,-11.65 135.22,-8.61 133.79,-5.58 132.40,-2.83 131.01,-0.09 129.45,2.45 127.88,5.00 126.23,7.46 124.57,9.91 123.10,12.11 121.64,14.32 120.33,16.43 119.02,18.55 117.83,20.70 116.63,22.85 115.65,24.91 114.66,26.96 113.88,28.81 113.11,30.65 112.14,32.58 111.18,34.50 109.98,36.57 108.79,38.64 107.44,40.81 106.10,42.98 104.49,45.49 102.87,48.00 101.12,50.64 99.36,53.29 97.64,55.79 95.92,58.29 94.11,60.70 92.30,63.10 90.13,65.55 87.97,67.99 85.66,70.20 83.35,72.41 80.70,74.42 78.04,76.43 75.23,78.22 72.41,80.01 70.02,81.38 67.63,82.76 65.42,83.89 63.20,85.03 61.17,85.97 59.14,86.91 57.11,87.76 55.07,88.60 52.72,89.50 50.36,90.40 47.73,91.38 45.09,92.37 42.25,93.38 39.42,94.39 36.42,95.47 33.43,96.56 30.23,97.79 27.04,99.03 23.94,100.32 20.84,101.61 18.12,102.89 15.41,104.17 12.94,105.51 10.47,106.85 8.24,108.16 6.01,109.46 4.06,110.69 2.11,111.93 0.45,113.13 -1.21,114.33 -2.63,115.51 -4.06,116.68 -5.45,117.81 -6.84,118.94 -8.19,119.98 -9.53,121.01 -10.84,121.99 -12.15,122.96 -13.69,123.83 -15.24,124.70 -17.15,125.31 -19.07,125.92 -21.37,126.19 -23.68,126.45 -26.06,126.54 -28.44,126.62 -31.34,126.64 -34.24,126.65 -37.73,126.50 -41.22,126.35 -45.21,125.81 -49.21,125.27 -53.65,124.39 -58.09,123.50 -62.72,122.30 -67.36,121.10 -71.84,119.74 -76.33,118.38 -80.37,116.98 -84.41,115.57 -87.90,114.17 -91.38,112.78 -93.97,111.51 -96.55,110.24 -98.46,109.02 -100.37,107.80 -101.75,106.77 -103.12,105.74 -104.02,104.82 -104.92,103.90 -105.88,102.11 -106.84,100.31 -107.21,99.05 -107.58,97.80 -107.93,96.13 -108.28,94.46 -108.64,92.53 -109.00,90.60 -109.39,88.61 -109.77,86.62 -110.18,84.86 -110.58,83.10 -110.97,81.73 -111.35,80.37 -111.79,78.71 -112.23,77.06 -112.35,74.93 -112.47,72.80 -112.19,70.99 -111.91,69.17 -110.96,66.94 -110.01,64.71 -108.61,62.28 -107.20,59.86 -105.59,57.59 -103.97,55.33 -102.26,53.40 -100.54,51.47 -98.78,49.96 -97.02,48.46 -95.29,47.21 -93.56,45.97 -91.94,44.90 -90.31,43.83 -88.81,42.92 -87.31,42.01 -85.85,41.20 -84.38,40.40 -83.00,39.69 -81.62,38.99 -80.24,38.39 -78.86,37.80 -77.55,37.28 -76.23,36.76 -75.00,36.28 -73.76,35.80 -72.45,35.35 -71.14,34.91 -69.87,34.50 -68.60,34.10 -67.37,33.68 -66.14,33.27 -65.03,32.81 -63.93,32.36 -62.92,31.89 -61.90,31.42 -60.91,30.94 -59.91,30.46 -58.86,29.94 -57.80,29.43 -56.64,28.90 -55.47,28.37 -54.37,27.86 -53.27,27.35 -52.22,26.88 -51.17,26.40 -50.16,25.96 -49.16,25.51 -48.18,25.08 -47.20,24.65 -46.18,24.23 -45.16,23.81 -44.08,23.39 -43.00,22.96 -41.86,22.52 -40.71,22.09 -39.61,21.60 -38.50,21.12 -37.32,20.58 -36.15,20.04 -34.94,19.47 -33.73,18.89 -32.47,18.27 -31.20,17.65 -29.84,16.99 -28.49,16.33 -27.16,15.67 -25.84,15.00 -24.59,14.35 -23.35,13.69 -22.17,13.07 -20.98,12.46 -19.95,11.88 -18.91,11.31 -17.38,10.26 -15.86,9.21 -14.68,8.36 -13.50,7.51 -12.53,6.68 -11.55,5.86 -10.55,5.17 -9.55,4.48 -8.53,3.71 -7.50,2.95 -6.64,2.33 -5.77,1.71 -4.68,0.89 -3.58,0.08 -2.67,-1.45 -1.76,-2.98 -1.38,-3.15 -1.00,-3.32 -0.58,-3.39 -0.17,-3.46 0.24,-3.43 0.65,-3.40 1.05,-3.28 1.45,-3.15 1.81,-2.93 2.16,-2.71 2.46,-2.41 2.75,-2.11 2.96,-1.75 3.18,-1.39 3.30,-0.99 3.42,-0.59 3.44,-0.17 3.46,0.24 3.38,0.65 3.30,1.06 3.13,1.44 2.95,1.82 2.69,2.15 2.43,2.47 2.10,2.73 1.76,2.98 -0.81,1.85 -3.39,0.72 -3.42,0.16 -3.45,-0.39 -3.29,-0.93 -3.14,-1.47 -2.82,-1.93 -2.50,-2.40 -2.05,-2.73 -1.61,-3.07 -1.07,-3.25 -0.54,-3.42 0.01,-3.42 0.57,-3.42 1.11,-3.24 1.64,-3.05 2.08,-2.71 2.53,-2.37 2.84,-1.90 3.15,-1.44 3.30,-0.89 3.45,-0.35 3.42,0.20 3.38,0.76 3.17,1.28 2.96,1.80 2.60,2.23 2.23,2.65 1.75,2.94 1.26,3.23 0.71,3.35 0.16,3.46 -0.38,3.40 -0.94,3.34 -1.45,3.10 -1.96,2.86 -2.37,2.47 -2.77,2.08 -3.03,1.58 -3.29,1.09 -3.38,0.53 -3.47,-0.01 -3.37,-0.57 -3.28,-1.12 -3.01,-1.62 -2.75,-2.11 -2.34,-2.50 -1.93,-2.88 -1.42,-3.11 -0.91,-3.35 -0.35,-3.40 0.20,-3.46 0.75,-3.34 1.30,-3.21 1.78,-2.92 2.26,-2.63 2.62,-2.20 2.98,-1.77 0.60,-2.38 -1.76,-2.98 -1.38,-3.15 -1.00,-3.32 -0.58,-3.39 -0.17,-3.46 0.24,-3.43 0.65,-3.40 1.05,-3.28 1.45,-3.15 1.81,-2.93 2.16,-2.71 2.46,-2.41 2.75,-2.11 2.96,-1.75 3.18,-1.39 3.30,-0.99 3.42,-0.59 3.44,-0.17 3.46,0.24 3.38,0.65 3.30,1.06 3.13,1.44 2.95,1.82 2.69,2.15 2.43,2.47 2.10,2.73 1.76,2.98 1.23,4.26 0.70,5.53 -0.37,6.22 -1.46,6.92 -2.46,7.53 -3.46,8.14 -4.44,8.80 -5.42,9.47 -6.40,9.93 -7.39,10.40 -8.38,11.04 -9.37,11.68 -10.42,12.32 -11.46,12.96 -12.97,13.88 -14.48,14.80 -15.46,15.36 -16.45,15.93 -17.54,16.49 -18.62,17.04 -19.78,17.63 -20.94,18.22 -22.19,18.90 -23.45,19.57 -24.77,20.29 -26.09,21.01 -27.42,21.72 -28.74,22.43 -30.04,23.12 -31.33,23.81 -32.56,24.43 -33.79,25.05 -35.01,25.64 -36.23,26.23 -37.46,26.78 -38.69,27.33 -39.83,27.78 -40.97,28.22 -43.01,28.99 -45.05,29.77 -46.04,30.16 -47.03,30.56 -48.03,30.96 -49.04,31.36 -50.06,31.78 -51.09,32.20 -52.21,32.69 -53.33,33.18 -54.46,33.67 -55.59,34.17 -56.69,34.66 -57.79,35.15 -58.87,35.60 -59.94,36.05 -61.06,36.49 -62.18,36.93 -63.44,37.38 -64.70,37.83 -66.00,38.21 -67.29,38.59 -68.54,38.92 -69.80,39.25 -71.05,39.60 -72.31,39.95 -73.57,40.34 -74.84,40.73 -76.13,41.13 -77.42,41.53 -78.73,41.97 -80.03,42.41 -81.40,42.99 -82.78,43.56 -84.23,44.23 -85.67,44.91 -87.15,45.68 -88.63,46.46 -90.21,47.44 -91.79,48.42 -93.39,49.59 -94.99,50.76 -96.53,52.17 -98.07,53.58 -99.58,55.43 -101.09,57.28 -102.48,59.46 -103.86,61.65 -104.97,63.91 -106.07,66.17 -106.63,68.01 -107.19,69.84 -107.36,71.35 -107.54,72.86 -107.61,74.66 -107.69,76.46 -107.57,77.95 -107.46,79.43 -107.18,80.84 -106.90,82.25 -106.50,84.01 -106.09,85.76 -105.56,87.73 -105.02,89.70 -104.51,91.62 -104.00,93.54 -103.65,95.14 -103.29,96.74 -102.94,98.59 -102.59,100.43 -101.88,101.94 -101.17,103.44 -100.06,104.50 -98.94,105.57 -97.16,106.71 -95.37,107.86 -92.88,109.08 -90.39,110.30 -86.96,111.67 -83.53,113.03 -79.54,114.41 -75.55,115.79 -71.11,117.12 -66.68,118.45 -62.11,119.61 -57.55,120.77 -53.20,121.61 -48.85,122.45 -44.98,122.94 -41.11,123.43 -37.70,123.52 -34.29,123.62 -31.46,123.53 -28.62,123.44 -26.39,123.26 -24.16,123.09 -22.15,122.74 -20.15,122.40 -18.56,121.92 -16.97,121.44 -15.57,120.74 -14.17,120.04 -12.82,119.17 -11.47,118.30 -10.09,117.39 -8.71,116.48 -7.27,115.45 -5.82,114.42 -4.29,113.29 -2.76,112.16 -1.02,110.94 0.71,109.71 2.70,108.45 4.69,107.19 6.95,105.87 9.22,104.55 11.75,103.17 14.29,101.80 17.06,100.49 19.83,99.18 22.96,97.88 26.09,96.58 29.31,95.33 32.53,94.09 35.53,93.00 38.54,91.92 41.35,90.91 44.17,89.90 46.80,88.93 49.43,87.95 51.75,87.06 54.06,86.18 56.05,85.35 58.04,84.52 60.02,83.61 62.00,82.69 64.16,81.58 66.32,80.47 68.66,79.13 71.00,77.79 73.73,76.06 76.46,74.33 79.00,72.42 81.53,70.51 83.76,68.38 85.99,66.24 88.09,63.88 90.19,61.51 91.96,59.16 93.74,56.80 95.44,54.31 97.15,51.82 98.89,49.19 100.63,46.56 102.23,44.07 103.82,41.58 105.13,39.43 106.45,37.29 107.59,35.29 108.73,33.29 109.66,31.42 110.58,29.55 111.41,27.68 112.24,25.81 113.26,23.68 114.27,21.55 115.49,19.34 116.70,17.12 118.02,14.96 119.33,12.80 120.78,10.57 122.23,8.35 123.83,5.93 125.42,3.52 126.88,1.05 128.34,-1.40 129.65,-4.14 130.96,-6.87 132.31,-9.91 133.65,-12.95 134.92,-16.03 136.18,-19.11 137.11,-22.05 138.03,-24.99 138.32,-27.26 138.62,-29.53 138.61,-31.08 138.60,-32.63 138.44,-34.06 138.28,-35.50 137.81,-36.50 137.33,-37.51 136.54,-38.99 135.75,-40.48 134.48,-42.48 133.21,-44.49 131.68,-46.77 130.14,-49.06 128.44,-51.44 126.74,-53.82 124.91,-56.02 123.09,-58.21 121.43,-59.80 119.76,-61.38 117.95,-62.62 116.14,-63.87 114.58,-63.96 113.02,-64.05 111.16,-63.81 109.30,-63.58 108.08,-63.29 106.86,-63.00 105.45,-62.56 104.05,-62.12 102.59,-61.61 101.14,-61.10 99.65,-60.52 98.16,-59.94 96.53,-59.22 94.90,-58.51 93.02,-57.59 91.14,-56.68 88.99,-55.69 86.83,-54.70 84.50,-53.74 82.17,-52.78 79.79,-51.87 77.42,-50.95 75.18,-50.08 72.94,-49.20 70.67,-48.25 68.40,-47.30 66.10,-46.17 63.81,-45.05 61.76,-43.88 59.70,-42.71 57.74,-41.45 55.77,-40.19 53.71,-38.76 51.64,-37.34 49.20,-35.69 46.75,-34.04 44.00,-32.28 41.25,-30.51 38.26,-28.57 35.28,-26.63 31.88,-24.27 28.49,-21.92 24.57,-19.08 20.64,-16.24 16.50,-13.01 12.36,-9.78 9.10,-6.87 5.84,-3.96 3.48,-1.44 1.13,1.07 0.98,1.19 0.84,1.31 0.67,1.39 0.50,1.47 0.31,1.51 0.13,1.55 -0.05,1.54 -0.24,1.54 -0.42,1.49 -0.60,1.43 -0.76,1.34 -0.93,1.25 -1.06,1.12 -1.20,0.99 -1.30,0.83 -1.40,0.67 -1.46,0.49 -1.52,0.31 -1.54,0.13 -1.56,-0.05 -1.53,-0.24 -1.50,-0.42 -1.42,-0.60 -1.35,-0.77 -1.24,-0.92 -1.13,-1.07 -1.13,-1.07 L -1.13,-1.07 Z"></path></g><g stroke-linecap="round"><g transform="translate(12.84375 317.56328125) rotate(0 191.296875 -107.875)"><path d="M0 0 C96.2 -54.25, 192.4 -108.5, 382.59 -215.75" stroke="#868e96" stroke-width="4.5" fill="none" stroke-dasharray="8 12"></path></g></g><mask></mask><g transform="translate(53.63671875 10) rotate(0 50.0361328125 20.700000000000003)"><text x="0" y="33.120703125" font-family="Helvetica, Segoe UI Emoji" font-size="36px" fill="#1e1e1e" text-anchor="start" style="white-space: pre;" direction="ltr" dominant-baseline="alphabetic">Linear</text></g><g transform="translate(314.984375 289.87578125) rotate(0 80.0419921875 20.69999999999999)"><text x="0" y="33.120703125" font-family="Helvetica, Segoe UI Emoji" font-size="36px" fill="#1e1e1e" text-anchor="start" style="white-space: pre;" direction="ltr" dominant-baseline="alphabetic">Threshold</text></g><g transform="translate(399.36328125 62.06718749999999) rotate(0 49.025390625 20.700000000000003)"><text x="0" y="33.120703125" font-family="Helvetica, Segoe UI Emoji" font-size="36px" fill="#868e96" text-anchor="start" style="white-space: pre;" direction="ltr" dominant-baseline="alphabetic">Model</text></g></svg>