<svg version="1.1" xmlns="http://www.w3.org/2000/svg" viewBox="0 0 1873.5009912870548 391.8569492905385" width="1873.5009912870548" height="391.8569492905385">
  <!-- svg-source:excalidraw -->
  
  <defs>
    <style class="style-fonts">
      @font-face {
        font-family: "Virgil";
        src: url("https://excalidraw.com/Virgil.woff2");
      }
      @font-face {
        font-family: "Cascadia";
        src: url("https://excalidraw.com/Cascadia.woff2");
      }
      @font-face {
        font-family: "Assistant";
        src: url("https://excalidraw.com/Assistant-Regular.woff2");
      }
    </style>
    
  </defs>
  <g stroke-linecap="round" transform="translate(10 133.52621814652275) rotate(0 153.1631777668874 59.69021820429475)"><path d="M0 0 C86.57 0, 173.15 0, 306.33 0 M0 0 C112.38 0, 224.76 0, 306.33 0 M306.33 0 C306.33 33.63, 306.33 67.25, 306.33 119.38 M306.33 0 C306.33 26.56, 306.33 53.12, 306.33 119.38 M306.33 119.38 C192.94 119.38, 79.55 119.38, 0 119.38 M306.33 119.38 C216.71 119.38, 127.1 119.38, 0 119.38 M0 119.38 C0 95.22, 0 71.06, 0 0 M0 119.38 C0 91.75, 0 64.11, 0 0" stroke="#1e1e1e" stroke-width="2" fill="none"></path></g><g transform="translate(32.32037946236886 157.35717478631602) rotate(0 129.951171875 32.19999999999999)"><text x="129.951171875" y="25.760546874999996" font-family="Helvetica, Segoe UI Emoji" font-size="28px" fill="#1e1e1e" text-anchor="middle" style="white-space: pre;" direction="ltr" dominant-baseline="alphabetic">Transform SDM </text><text x="129.951171875" y="57.96054687499999" font-family="Helvetica, Segoe UI Emoji" font-size="28px" fill="#1e1e1e" text-anchor="middle" style="white-space: pre;" direction="ltr" dominant-baseline="alphabetic">into local deme sizes</text></g><g stroke-linecap="round" transform="translate(515.770141302376 136.15124830056857) rotate(0 153.16317776688737 59.69021820429475)"><path d="M0 0 C87.59 0, 175.18 0, 306.33 0 M0 0 C90.44 0, 180.89 0, 306.33 0 M306.33 0 C306.33 28, 306.33 55.99, 306.33 119.38 M306.33 0 C306.33 24.71, 306.33 49.43, 306.33 119.38 M306.33 119.38 C220 119.38, 133.68 119.38, 0 119.38 M306.33 119.38 C190.54 119.38, 74.75 119.38, 0 119.38 M0 119.38 C0 88.54, 0 57.7, 0 0 M0 119.38 C0 75.48, 0 31.58, 0 0" stroke="#1e1e1e" stroke-width="2" fill="none"></path></g><g transform="translate(530.4419176292495 162.39713463477688) rotate(0 138.49609375000006 32.19999999999999)"><text x="138.49609375" y="25.760546874999996" font-family="Helvetica, Segoe UI Emoji" font-size="28px" fill="#1e1e1e" text-anchor="middle" style="white-space: pre;" direction="ltr" dominant-baseline="alphabetic">Setup 2DSS msprime </text><text x="138.49609375" y="57.96054687499999" font-family="Helvetica, Segoe UI Emoji" font-size="28px" fill="#1e1e1e" text-anchor="middle" style="white-space: pre;" direction="ltr" dominant-baseline="alphabetic">Demography object</text></g><g stroke-linecap="round" transform="translate(1504.1818616378857 135.7647693158076) rotate(0 153.16317776688743 59.69021820429475)"><path d="M0 0 C105.56 0, 211.11 0, 306.33 0 M0 0 C102.57 0, 205.14 0, 306.33 0 M306.33 0 C306.33 41.28, 306.33 82.55, 306.33 119.38 M306.33 0 C306.33 33.41, 306.33 66.83, 306.33 119.38 M306.33 119.38 C226.03 119.38, 145.73 119.38, 0 119.38 M306.33 119.38 C220.98 119.38, 135.64 119.38, 0 119.38 M0 119.38 C0 80.3, 0 41.21, 0 0 M0 119.38 C0 91.04, 0 62.71, 0 0" stroke="#1e1e1e" stroke-width="2" fill="none"></path></g><g transform="translate(1528.1710207772592 162.01065565001613) rotate(0 129.1787109375 32.19999999999999)"><text x="129.1787109375" y="25.760546874999996" font-family="Helvetica, Segoe UI Emoji" font-size="28px" fill="#1e1e1e" text-anchor="middle" style="white-space: pre;" direction="ltr" dominant-baseline="alphabetic">Simulate coalescent </text><text x="129.1787109375" y="57.96054687499999" font-family="Helvetica, Segoe UI Emoji" font-size="28px" fill="#1e1e1e" text-anchor="middle" style="white-space: pre;" direction="ltr" dominant-baseline="alphabetic">histories</text></g><g transform="translate(31.70392395295795 43.378812365934095) rotate(0 139.453125 16.80000000000001)"><text x="139.453125" y="27.0375" font-family="Cascadia, Segoe UI Emoji" font-size="28px" fill="#343a40" text-anchor="middle" style="white-space: pre;" direction="ltr" dominant-baseline="alphabetic">raster_to_demes()</text></g><g transform="translate(508.2430514825798 39.97535384600985) rotate(0 155.859375 16.80000000000001)"><text x="155.859375" y="27.0375" font-family="Cascadia, Segoe UI Emoji" font-size="28px" fill="#343a40" text-anchor="middle" style="white-space: pre;" direction="ltr" dominant-baseline="alphabetic">stepping_stone_2d()</text></g><g stroke-linecap="round" transform="translate(1016.4595909532266 135.6125675893844) rotate(0 153.16317776688743 59.69021820429481)"><path d="M0 0 C103.56 0, 207.12 0, 306.33 0 M0 0 C67.46 0, 134.91 0, 306.33 0 M306.33 0 C306.33 31.61, 306.33 63.23, 306.33 119.38 M306.33 0 C306.33 47.14, 306.33 94.27, 306.33 119.38 M306.33 119.38 C205.4 119.38, 104.47 119.38, 0 119.38 M306.33 119.38 C197.18 119.38, 88.04 119.38, 0 119.38 M0 119.38 C0 88.31, 0 57.25, 0 0 M0 119.38 C0 95.03, 0 70.68, 0 0" stroke="#1e1e1e" stroke-width="2" fill="none"></path></g><g transform="translate(1080.1313672801 161.85845392359295) rotate(0 89.49609375 32.19999999999999)"><text x="89.49609375" y="25.760546874999996" font-family="Helvetica, Segoe UI Emoji" font-size="28px" fill="#1e1e1e" text-anchor="middle" style="white-space: pre;" direction="ltr" dominant-baseline="alphabetic">Add ancestral </text><text x="89.49609375" y="57.96054687499999" font-family="Helvetica, Segoe UI Emoji" font-size="28px" fill="#1e1e1e" text-anchor="middle" style="white-space: pre;" direction="ltr" dominant-baseline="alphabetic">populations</text></g><g transform="translate(947.2591894096972 56.66178314480021) rotate(0 221.484375 16.80000000000001)"><text x="221.484375" y="27.0375" font-family="Cascadia, Segoe UI Emoji" font-size="28px" fill="#343a40" text-anchor="middle" style="white-space: pre;" direction="ltr" dominant-baseline="alphabetic">add_ancestral_populations()</text></g><g transform="translate(966.211348443097 10) rotate(0 196.875 16.80000000000001)"><text x="196.875" y="27.0375" font-family="Cascadia, Segoe UI Emoji" font-size="28px" fill="#343a40" text-anchor="middle" style="white-space: pre;" direction="ltr" dominant-baseline="alphabetic">split_landscape_by_pop()</text></g><g transform="translate(1486.157241287055 348.2569492905386) rotate(0 188.6718749999999 16.799999999999955)"><text x="188.671875" y="27.0375" font-family="Cascadia, Segoe UI Emoji" font-size="28px" fill="#1971c2" text-anchor="middle" style="white-space: pre;" direction="ltr" dominant-baseline="alphabetic">msprime.sim_mutations()</text></g><g transform="translate(1491.96219864904 299.34814924822376) rotate(0 180.46875 16.799999999999955)"><text x="180.46875" y="27.0375" font-family="Cascadia, Segoe UI Emoji" font-size="28px" fill="#1971c2" text-anchor="middle" style="white-space: pre;" direction="ltr" dominant-baseline="alphabetic">msprime.sim_ancestry()</text></g><g stroke-linecap="round"><g transform="translate(340.40497006827974 192.85726840812026) rotate(0 79.92680118351052 0.4304015433577888)"><path d="M0 0 C36.78 0.2, 73.57 0.4, 159.85 0.86 M0 0 C45.02 0.24, 90.05 0.48, 159.85 0.86" stroke="#343a40" stroke-width="2" fill="none"></path></g><g transform="translate(340.40497006827974 192.85726840812026) rotate(0 79.92680118351052 0.4304015433577888)"><path d="M136.32 9.28 C141.73 7.35, 147.15 5.41, 159.85 0.86 M136.32 9.28 C142.95 6.91, 149.57 4.54, 159.85 0.86" stroke="#343a40" stroke-width="2" fill="none"></path></g><g transform="translate(340.40497006827974 192.85726840812026) rotate(0 79.92680118351052 0.4304015433577888)"><path d="M136.41 -7.82 C141.8 -5.82, 147.2 -3.82, 159.85 0.86 M136.41 -7.82 C143.01 -5.37, 149.61 -2.93, 159.85 0.86" stroke="#343a40" stroke-width="2" fill="none"></path></g></g><mask></mask><g stroke-linecap="round"><g transform="translate(836.9470466547884 195.18040341413996) rotate(0 84.01576473196519 0.34737541303860553)"><path d="M0 0 C62.29 0.26, 124.58 0.52, 168.03 0.69 M0 0 C35.06 0.14, 70.13 0.29, 168.03 0.69" stroke="#343a40" stroke-width="2" fill="none"></path></g><g transform="translate(836.9470466547884 195.18040341413996) rotate(0 84.01576473196519 0.34737541303860553)"><path d="M144.5 9.15 C153.23 6.01, 161.95 2.88, 168.03 0.69 M144.5 9.15 C149.41 7.38, 154.32 5.62, 168.03 0.69" stroke="#343a40" stroke-width="2" fill="none"></path></g><g transform="translate(836.9470466547884 195.18040341413996) rotate(0 84.01576473196519 0.34737541303860553)"><path d="M144.57 -7.95 C153.27 -4.75, 161.97 -1.54, 168.03 0.69 M144.57 -7.95 C149.47 -6.15, 154.36 -4.34, 168.03 0.69" stroke="#343a40" stroke-width="2" fill="none"></path></g></g><mask></mask><g stroke-linecap="round"><g transform="translate(1329.2864603020594 192.8637345664614) rotate(0 84.01576473196519 0.34737541303860553)"><path d="M0 0 C41.21 0.17, 82.41 0.34, 168.03 0.69 M0 0 C49.41 0.2, 98.82 0.41, 168.03 0.69" stroke="#343a40" stroke-width="2" fill="none"></path></g><g transform="translate(1329.2864603020594 192.8637345664614) rotate(0 84.01576473196519 0.34737541303860553)"><path d="M144.5 9.15 C150.27 7.07, 156.04 5, 168.03 0.69 M144.5 9.15 C151.42 6.66, 158.34 4.18, 168.03 0.69" stroke="#343a40" stroke-width="2" fill="none"></path></g><g transform="translate(1329.2864603020594 192.8637345664614) rotate(0 84.01576473196519 0.34737541303860553)"><path d="M144.57 -7.95 C150.33 -5.83, 156.08 -3.71, 168.03 0.69 M144.57 -7.95 C151.47 -5.41, 158.37 -2.87, 168.03 0.69" stroke="#343a40" stroke-width="2" fill="none"></path></g></g><mask></mask><g transform="translate(1471.949351332723 41.29841684622829) rotate(0 188.6718749999999 16.80000000000001)"><text x="188.671875" y="27.0375" font-family="Cascadia, Segoe UI Emoji" font-size="28px" fill="#1e1e1e" text-anchor="middle" style="white-space: pre;" direction="ltr" dominant-baseline="alphabetic">coords_to_sample_dict()</text></g></svg>